<?xml version="1.0" encoding="UTF-8"?>
<svg version="1.1" xmlns="http://www.w3.org/2000/svg" width="2788" height="1686">
<path d="M0 0 C1.29115723 0.10715332 2.58231445 0.21430664 3.91259766 0.32470703 C45.32941103 3.84137379 45.32941103 3.84137379 62.86450195 8.47045898 C65.46588279 9.1155253 68.08175303 9.63594152 70.7109375 10.15625 C107.54666697 17.52283718 143.22221708 29.37544762 177.6875 44.25 C178.35396545 44.53757172 179.02043091 44.82514343 179.70709229 45.12142944 C188.23331472 48.81154942 196.59302467 52.63840594 204.70703125 57.17578125 C208.43663857 59.24188637 212.23563959 61.12281758 216.0625 63 C243.60782169 76.64019957 269.77856394 94.16478591 294 113 C295.19778293 113.92074691 296.39569901 114.84132065 297.59375 115.76171875 C304.39316074 121.01746434 310.99255498 126.47032783 317.47119141 132.1171875 C319.91467383 134.24332524 322.30030749 136.20020499 325 138 C325 138.66 325 139.32 325 140 C325.8813562 140.39916626 325.8813562 140.39916626 326.78051758 140.80639648 C329.05520769 142.02968984 330.64008821 143.32688738 332.51171875 145.09765625 C333.17953369 145.72655762 333.84734863 146.35545898 334.53540039 147.00341797 C335.24559326 147.68291504 335.95578613 148.36241211 336.6875 149.0625 C337.79242798 150.11268311 337.79242798 150.11268311 338.91967773 151.18408203 C344.51781174 156.52923655 350.06083599 161.93067546 355.5625 167.375 C356.30653076 168.105979 357.05056152 168.83695801 357.81713867 169.59008789 C358.49752197 170.26934326 359.17790527 170.94859863 359.87890625 171.6484375 C360.4829126 172.24833496 361.08691895 172.84823242 361.70922852 173.46630859 C363 175 363 175 363 177 C363.66 177 364.32 177 365 177 C366.3046875 178.2578125 366.3046875 178.2578125 367.875 180.125 C368.49503906 180.85460937 369.11507812 181.58421875 369.75390625 182.3359375 C370.49511719 183.21507812 371.23632812 184.09421875 372 185 C372.92455805 186.07657252 373.85042137 187.15202498 374.77734375 188.2265625 C377.37071744 191.23401138 379.95171371 194.25176051 382.52734375 197.27441406 C383.83694175 198.80893639 385.15243197 200.33842574 386.46875 201.8671875 C410.98579509 230.71557722 431.87741475 263.03551891 449.61962891 296.41992188 C450.88597227 298.78686857 452.17749847 301.1374555 453.48046875 303.484375 C492.80386617 375.05055811 513.16728568 459.48344989 493.88378906 728.58032227 C487.29465933 750.88679055 479.31643294 772.69604231 470 794 C469.63052246 794.85319824 469.26104492 795.70639648 468.88037109 796.58544922 C447.78370388 845.17314844 420.00938098 890.37933831 386 931 C385.58572754 931.49918945 385.17145508 931.99837891 384.74462891 932.51269531 C378.22165783 940.37117287 371.44899043 947.94722881 364.47753906 955.40917969 C362.55280544 957.48148046 360.65340575 959.57615458 358.75317383 961.67089844 C351.66074154 969.47571498 344.40029158 977.05639108 336.37109375 983.90625 C334.42722653 985.6227456 332.53887115 987.36987959 330.66015625 989.15625 C323.56068584 995.90523313 316.36411623 1002.27266693 308.5859375 1008.2265625 C305.3922213 1010.6733754 302.28867244 1013.21717423 299.19018555 1015.78295898 C284.99039284 1027.51427621 269.76867577 1037.66768319 254.24951172 1047.56201172 C252.73934783 1048.52737587 251.23579045 1049.50314725 249.73876953 1050.48876953 C249.03220215 1050.94751465 248.32563477 1051.40625977 247.59765625 1051.87890625 C246.97511963 1052.28826416 246.35258301 1052.69762207 245.71118164 1053.11938477 C244 1054 244 1054 241 1054 C241 1054.66 241 1055.32 241 1056 C238.76171875 1057.515625 238.76171875 1057.515625 235.6875 1059.25 C234.03041016 1060.18779297 234.03041016 1060.18779297 232.33984375 1061.14453125 C231.23769531 1061.75683594 230.13554688 1062.36914062 229 1063 C228.11441406 1063.49886719 227.22882812 1063.99773437 226.31640625 1064.51171875 C220.77557734 1067.58995703 215.14913585 1070.50164524 209.5 1073.375 C208.80487305 1073.73327881 208.10974609 1074.09155762 207.39355469 1074.46069336 C202.34841042 1077 202.34841042 1077 199 1077 C199 1077.66 199 1078.32 199 1079 C192.92792931 1081.72489027 186.82579955 1084.36553042 180.6875 1086.9375 C179.85355713 1087.2873999 179.01961426 1087.6372998 178.16040039 1087.99780273 C176.51009042 1088.69000232 174.85962422 1089.38182959 173.20898438 1090.07324219 C171.38259466 1090.83948615 169.55821405 1091.61051702 167.734375 1092.3828125 C154.03703454 1098.16018236 140.20189226 1103.58753254 126 1108 C124.57518311 1108.44279297 124.57518311 1108.44279297 123.12158203 1108.89453125 C100.0441898 1116.00944045 76.79821052 1121.8743511 53 1126 C52.0419043 1126.16741699 51.08380859 1126.33483398 50.09667969 1126.50732422 C38.061727 1128.5860178 26.0127822 1130.32762671 13.875 1131.6875 C12.81007324 1131.80681885 11.74514648 1131.9261377 10.64794922 1132.04907227 C-2.41732234 1133.44697344 -15.39846669 1134.15434709 -28.53515625 1134.1328125 C-29.87023435 1134.13348962 -31.20531233 1134.13446299 -32.54039001 1134.13571167 C-35.3108744 1134.13716901 -38.08132611 1134.13509808 -40.85180664 1134.13037109 C-44.35988239 1134.12466939 -47.86788165 1134.12796829 -51.37595463 1134.13394356 C-54.12414603 1134.13759808 -56.87232001 1134.13638852 -59.62051201 1134.13381577 C-61.52891465 1134.13284738 -63.43731805 1134.13582327 -65.34571838 1134.13894653 C-76.21980655 1134.11018628 -87.02010726 1133.45797158 -97.8125 1132.125 C-99.25387436 1131.94765724 -100.69528288 1131.7705921 -102.13671875 1131.59375 C-102.90806152 1131.49835938 -103.6794043 1131.40296875 -104.47412109 1131.3046875 C-107.25846979 1130.96882174 -110.04485922 1130.65529742 -112.83203125 1130.34375 C-131.40149045 1128.24110688 -149.85659741 1125.55548637 -168 1121 C-169.82801742 1120.55164448 -171.65615451 1120.10377674 -173.484375 1119.65625 C-206.02341851 1111.64900137 -206.02341851 1111.64900137 -219 1107 C-220.56041016 1106.44699219 -220.56041016 1106.44699219 -222.15234375 1105.8828125 C-224.54179108 1105.0326445 -226.92977985 1104.17836763 -229.31640625 1103.3203125 C-231.73784098 1102.45239634 -234.16226415 1101.5927649 -236.58984375 1100.7421875 C-237.75644531 1100.33226562 -238.92304687 1099.92234375 -240.125 1099.5 C-241.15882813 1099.1390625 -242.19265625 1098.778125 -243.2578125 1098.40625 C-253.42704987 1094.58482468 -263.3417246 1090.13316324 -273.25 1085.6875 C-274.20178131 1085.26088577 -274.20178131 1085.26088577 -275.17279053 1084.82565308 C-288.74021291 1078.73557289 -302.01470907 1072.26295933 -315 1065 C-315 1064.34 -315 1063.68 -315 1063 C-316.10408203 1062.82791016 -316.10408203 1062.82791016 -317.23046875 1062.65234375 C-320.06471214 1061.98475751 -321.85809748 1061.10140602 -324.3125 1059.5625 C-325.60994141 1058.75619141 -325.60994141 1058.75619141 -326.93359375 1057.93359375 C-327.94550781 1057.29550781 -328.95742187 1056.65742187 -330 1056 C-331.26111904 1055.21908276 -332.52287716 1054.43919698 -333.78515625 1053.66015625 C-341.96509047 1048.59869231 -350.0502501 1043.4182013 -358 1038 C-358.79148437 1037.46246094 -359.58296875 1036.92492188 -360.3984375 1036.37109375 C-366.49056905 1032.17136851 -372.39890973 1027.73535043 -378.29199219 1023.26269531 C-381.30054679 1020.9865548 -384.2971979 1018.78219473 -387.484375 1016.76171875 C-388.31453125 1016.18035156 -389.1446875 1015.59898437 -390 1015 C-390 1014.34 -390 1013.68 -390 1013 C-390.71929688 1012.76410156 -391.43859375 1012.52820312 -392.1796875 1012.28515625 C-395.47509326 1010.78351014 -397.50689475 1008.93446903 -400.125 1006.4375 C-403.84646533 1002.96080219 -407.59371692 999.63504439 -411.5625 996.4375 C-422.67021177 987.44249422 -422.67021177 987.44249422 -427 983 C-427 982.34 -427 981.68 -427 981 C-427.556875 980.773125 -428.11375 980.54625 -428.6875 980.3125 C-431.65018606 978.63097548 -433.6150111 976.43352065 -436 974 C-436.88300781 973.14019531 -437.76601563 972.28039062 -438.67578125 971.39453125 C-439.98095703 970.11642578 -439.98095703 970.11642578 -441.3125 968.8125 C-442.19550781 967.95269531 -443.07851563 967.09289062 -443.98828125 966.20703125 C-446 964 -446 964 -446 962 C-446.99 961.67 -447.98 961.34 -449 961 C-450.578125 959.3984375 -450.578125 959.3984375 -452.25 957.375 C-454.65164379 954.52464144 -457.11044547 951.87916975 -459.8125 949.3125 C-462.50405762 946.69271725 -463.68656053 944.53618318 -465 941 C-465.60328125 940.71253906 -466.2065625 940.42507813 -466.828125 940.12890625 C-469.51467081 938.73248226 -470.72275841 937.15000847 -472.5625 934.75 C-473.58537109 933.42742187 -473.58537109 933.42742187 -474.62890625 932.078125 C-475.41136719 931.06234375 -476.19382812 930.0465625 -477 929 C-477.98597031 927.76377833 -478.97437066 926.52949194 -479.96484375 925.296875 C-480.97662358 924.03129882 -481.98834277 922.76567418 -483 921.5 C-483.73972046 920.58299316 -483.73972046 920.58299316 -484.49438477 919.64746094 C-488 915.22623232 -488 915.22623232 -488 913 C-488.66 913 -489.32 913 -490 913 C-491.5234375 911.19140625 -491.5234375 911.19140625 -493.375 908.5625 C-494.08140625 907.56605469 -494.7878125 906.56960938 -495.515625 905.54296875 C-495.90814453 904.98270996 -496.30066406 904.42245117 -496.70507812 903.84521484 C-498.12321177 901.82442787 -499.55311656 899.81229192 -500.984375 897.80078125 C-504.00754444 893.5463522 -507.00701417 889.27569404 -510 885 C-510.69351563 884.01515625 -511.38703125 883.0303125 -512.1015625 882.015625 C-512.64554688 881.22671875 -513.18953125 880.4378125 -513.75 879.625 C-514.42289063 878.65433594 -514.42289063 878.65433594 -515.109375 877.6640625 C-516 876 -516 876 -516 873 C-516.66 873 -517.32 873 -518 873 C-518.47308594 872.16339844 -518.94617188 871.32679688 -519.43359375 870.46484375 C-522.71294012 864.68694777 -526.01963665 858.93488561 -529.4765625 853.26098633 C-533.03900785 847.41066951 -536.34321437 841.54128433 -539.33203125 835.37109375 C-541.90705149 830.16677884 -544.65578902 825.05427589 -547.39819336 819.93652344 C-550.1725119 814.71595488 -552.64815718 809.42233927 -555 804 C-555.51820313 802.85660156 -556.03640625 801.71320312 -556.5703125 800.53515625 C-566.11013359 779.22635989 -573.95750172 757.2468991 -581 735 C-581.31565918 734.00323242 -581.63131836 733.00646484 -581.95654297 731.97949219 C-590.93905874 703.25270657 -596.82471347 673.63577645 -601.125 643.875 C-601.28379639 642.8113623 -601.44259277 641.74772461 -601.60620117 640.65185547 C-604.81384763 617.51832943 -605.3329835 594.25858452 -605.26074219 570.94580078 C-605.24934861 567.24217519 -605.25614554 563.53883714 -605.26761246 559.83522129 C-605.33264839 535.11474102 -604.31905096 510.55652547 -600.75 486.0625 C-600.64495148 485.32115814 -600.53990295 484.57981628 -600.43167114 483.81600952 C-598.28593921 468.72958698 -595.36397725 453.86380472 -592 439 C-591.70778564 437.69216553 -591.70778564 437.69216553 -591.40966797 436.35791016 C-590.33267327 431.5568377 -589.21755953 426.76755236 -588 422 C-587.72937744 420.93064209 -587.45875488 419.86128418 -587.17993164 418.75952148 C-584.72971349 409.30389843 -581.82380882 400.06079346 -578.6875 390.8125 C-578.19099997 389.34239381 -577.69458175 387.87225999 -577.19824219 386.40209961 C-576.46209267 384.22363429 -575.72499901 382.04550915 -574.98513794 379.86830139 C-573.71309394 376.12395299 -572.46502368 372.37399965 -571.25390625 368.609375 C-567.68691593 357.7033651 -563.18297873 347.24211218 -558.5625 336.75 C-558.2492981 336.03756134 -557.93609619 335.32512268 -557.61340332 334.59109497 C-551.05391793 319.72237008 -543.81955563 305.2455271 -536 291 C-535.58234375 290.236875 -535.1646875 289.47375 -534.734375 288.6875 C-533.50132648 286.45157202 -532.25182665 284.2254696 -531 282 C-530.08927734 280.3603125 -530.08927734 280.3603125 -529.16015625 278.6875 C-525.57262116 272.27551224 -521.83562421 266.14711539 -517.53125 260.1796875 C-515.45578087 257.22532073 -513.73723118 254.1642425 -512 251 C-510.375 248.0625 -510.375 248.0625 -509 246 C-508.34 246 -507.68 246 -507 246 C-506.78214844 245.1646875 -506.56429687 244.329375 -506.33984375 243.46875 C-504.6915895 239.20154949 -502.35541766 236.08593581 -499.5625 232.5 C-499.03551514 231.81019043 -498.50853027 231.12038086 -497.96557617 230.40966797 C-493.8283342 225.0121926 -489.63026116 219.65941998 -485.39086914 214.34179688 C-482.96706805 211.32169107 -482.96706805 211.32169107 -481 208 C-480.34 208 -479.68 208 -479 208 C-478.74605469 207.43796875 -478.49210938 206.8759375 -478.23046875 206.296875 C-475.80204808 201.76382309 -472.2693629 197.94679846 -469 194 C-468.33613281 193.19820312 -467.67226563 192.39640625 -466.98828125 191.5703125 C-463.45689864 187.40964787 -463.45689864 187.40964787 -462 186 C-461.34 186 -460.68 186 -460 186 C-459.73833038 185.25068207 -459.47666077 184.50136414 -459.20706177 183.7293396 C-457.98059253 180.95611693 -456.81956083 179.45000951 -454.68701172 177.33056641 C-453.67488113 176.31393417 -453.67488113 176.31393417 -452.64230347 175.27676392 C-451.54705856 174.20003922 -451.54705856 174.20003922 -450.4296875 173.1015625 C-449.67462921 172.34837738 -448.91957092 171.59519226 -448.14163208 170.81918335 C-446.54290547 169.22717295 -444.94058816 167.63876144 -443.33496094 166.05371094 C-440.89789215 163.64760134 -438.47146786 161.23117441 -436.046875 158.8125 C-434.48759584 157.26240026 -432.92771866 155.71290181 -431.3671875 154.1640625 C-430.64916962 153.45029449 -429.93115173 152.73652649 -429.19137573 152.00112915 C-425.15012282 148.0158491 -421.01803936 144.18643289 -416.7175293 140.48188782 C-413.71295123 137.88953167 -410.80579239 135.18754806 -407.8828125 132.50390625 C-406 131 -406 131 -404 131 C-404 130.34 -404 129.68 -404 129 C-403.195625 128.731875 -402.39125 128.46375 -401.5625 128.1875 C-400.716875 127.795625 -399.87125 127.40375 -399 127 C-398.67 126.01 -398.34 125.02 -398 124 C-396.67592331 123.31513275 -395.34090759 122.65129797 -394 122 C-393.42121094 121.41605469 -392.84242188 120.83210938 -392.24609375 120.23046875 C-389.62648431 117.62908268 -386.82526986 115.46813901 -383.875 113.25 C-383.06869141 112.63318359 -383.06869141 112.63318359 -382.24609375 112.00390625 C-378.244212 109 -378.244212 109 -376 109 C-376 108.34 -376 107.68 -376 107 C-374.49389648 105.73828125 -374.49389648 105.73828125 -372.37109375 104.3125 C-371.20030273 103.51900146 -371.20030273 103.51900146 -370.00585938 102.70947266 C-369.15830078 102.14534668 -368.31074219 101.5812207 -367.4375 101 C-366.57576172 100.41911621 -365.71402344 99.83823242 -364.82617188 99.23974609 C-362.22176342 97.48663079 -359.61127349 95.74286737 -357 94 C-355.59469897 93.05521252 -354.18972047 92.10994501 -352.78515625 91.1640625 C-342.99315348 84.58399531 -333.21345429 78.08483153 -322.796875 72.5234375 C-319.923934 70.9585674 -317.12097939 69.30249715 -314.3125 67.625 C-307.72999365 63.76043175 -300.93924292 60.39338625 -294.09082031 57.03369141 C-291.97737287 55.98881325 -289.87433167 54.92534158 -287.7734375 53.85546875 C-281.41520111 50.62318556 -275.11901439 47.50679293 -268.44140625 44.9765625 C-265.64368395 43.85747358 -262.96374681 42.55960168 -260.25 41.25 C-247.51989452 35.30727303 -234.06196769 30.77544005 -220.6015625 26.79296875 C-218.35604777 26.10852507 -216.18651978 25.35031325 -214 24.5 C-187.06273008 14.04751447 -156.35689545 7.45519803 -127.66015625 4.45703125 C-124.64403478 4.08041843 -121.7208083 3.58506928 -118.73828125 3.015625 C-113.21473329 1.9891166 -107.72175795 1.39061743 -102.125 0.9375 C-101.14192871 0.85443604 -100.15885742 0.77137207 -99.14599609 0.68579102 C-91.46815103 0.06122147 -83.7877893 -0.36706789 -76.09033203 -0.65844727 C-72.28175184 -0.80829179 -68.53542611 -1.03117063 -64.75390625 -1.515625 C-43.55985933 -4.00917797 -21.15508811 -1.77894444 0 0 Z M-65 235 C-65.95003906 235.26039063 -66.90007812 235.52078125 -67.87890625 235.7890625 C-80.57346014 239.7434068 -92.16987163 246.01499579 -102 255 C-102.5347998 255.48178711 -103.06959961 255.96357422 -103.62060547 256.45996094 C-124.10697618 275.1234161 -136.23917926 300.24763034 -138 328 C-138.1910221 334.40903951 -138.14381537 340.82371158 -138.14044189 347.23487854 C-138.14302819 349.20304848 -138.14604209 351.1712179 -138.1494453 353.13938659 C-138.15748735 358.53392758 -138.1593033 363.92845524 -138.16004276 369.3230015 C-138.16189817 375.14665813 -138.16944791 380.97030792 -138.17617798 386.79396057 C-138.18974152 399.52137573 -138.19578281 412.24878774 -138.20018864 424.97620893 C-138.20295416 432.92741223 -138.20719206 440.87861433 -138.21169281 448.82981682 C-138.22393789 470.85684024 -138.234218 492.88386288 -138.2375679 514.91088963 C-138.23778953 516.33401126 -138.23801131 517.75713289 -138.23823325 519.18025452 C-138.23845389 520.6067205 -138.23867437 522.03318649 -138.2388947 523.45965248 C-138.23933724 526.32116481 -138.23978436 529.18267713 -138.24023438 532.04418945 C-138.24034377 532.75367249 -138.24045316 533.46315553 -138.24056586 534.19413806 C-138.24419544 557.19236076 -138.26011365 580.19055192 -138.28342474 603.18876255 C-138.30805081 627.52899222 -138.32174201 651.86920388 -138.32293582 676.20944637 C-138.32378566 689.4678428 -138.32957762 702.72620471 -138.34775543 715.98459053 C-138.36318043 727.27466513 -138.36826267 738.56468563 -138.36001733 749.85476876 C-138.35611948 755.61076747 -138.35699819 761.36665731 -138.37107468 767.12264252 C-138.38386516 772.40121945 -138.38257108 777.6796063 -138.37048396 782.95818316 C-138.36853587 784.85857974 -138.37156389 786.75899002 -138.38032833 788.65936739 C-138.44355014 803.30551469 -137.48548099 817.88366264 -132.3125 831.75 C-131.92904419 832.79764526 -131.92904419 832.79764526 -131.5378418 833.86645508 C-127.74509948 843.7637603 -121.80634567 852.15950253 -115.375 860.5 C-114.93196533 861.07580811 -114.48893066 861.65161621 -114.0324707 862.24487305 C-111.02341721 866.0277308 -107.87211667 869.09320093 -104 872 C-103.34 872 -102.68 872 -102 872 C-101.505 873.485 -101.505 873.485 -101 875 C-80.00819223 890.47980793 -55.43460107 896.12765124 -29.74609375 893.69140625 C-27.1169284 893.2486407 -24.57981709 892.67198828 -22 892 C-20.95328125 891.75507812 -19.9065625 891.51015625 -18.828125 891.2578125 C-6.40635154 888.08211023 8.30692325 882.67129943 18 874 C18 873.34 18 872.68 18 872 C18.721875 871.773125 19.44375 871.54625 20.1875 871.3125 C23.54774921 869.7443837 25.55647719 867.69673761 28 865 C28.68320313 864.28585937 29.36640625 863.57171875 30.0703125 862.8359375 C46.38319535 845.41709649 56.19422512 823.4612087 56.12863445 799.5031538 C56.13126401 798.27102428 56.13126401 798.27102428 56.13394669 797.01400325 C56.13859018 794.26779724 56.13614545 791.52164457 56.13371277 788.7754364 C56.13558157 786.78409256 56.13788255 784.79274909 56.14057809 782.8014062 C56.1466939 777.33375342 56.14656275 771.86611593 56.14538372 766.39846051 C56.14517966 760.49990104 56.15069895 754.60134649 56.15544128 748.70278931 C56.16374704 737.14839243 56.16650905 725.59400027 56.16705366 714.03960069 C56.16751343 704.64819857 56.16957294 695.25679809 56.17275429 685.8653965 C56.17365185 683.16084713 56.17454166 680.45629776 56.17542917 677.75174838 C56.17565021 677.07936688 56.17587126 676.40698537 56.17609901 675.71422867 C56.18225197 656.80506693 56.18619969 637.89590576 56.18575573 618.98674297 C56.18574015 618.274027 56.18572457 617.56131102 56.18570852 616.8269976 C56.18562542 613.21475849 56.18552637 609.60251939 56.18542381 605.99028029 C56.18540387 605.27289232 56.18538392 604.55550435 56.18536337 603.81637736 C56.18532294 602.36564474 56.18528114 600.91491212 56.18523798 599.4641795 C56.18462522 576.89286127 56.19213247 554.32155807 56.20581055 531.75024414 C56.22117585 506.38433716 56.22977651 481.01844004 56.22884732 455.65252811 C56.2287727 452.94703567 56.22872399 450.24154323 56.22869301 447.5360508 C56.22868135 446.86990277 56.2286697 446.20375474 56.22865769 445.51742041 C56.22862884 435.46765477 56.2339738 425.41790145 56.24202538 415.36813927 C56.25112561 403.93621879 56.25330951 392.50432294 56.24651595 381.07240041 C56.24324844 375.24022243 56.24320248 369.4080917 56.2518692 363.5759182 C56.25972473 358.2346955 56.2583124 352.89355763 56.24958507 347.55233703 C56.24804801 345.62237938 56.24987399 343.69241542 56.25544515 341.7624652 C56.28090131 332.3167329 56.28756234 323.23244311 54 314 C53.55720703 312.14375 53.55720703 312.14375 53.10546875 310.25 C51.00482834 302.81283908 48.49555705 295.89461099 45 289 C44.62101562 288.24332031 44.24203125 287.48664063 43.8515625 286.70703125 C31.32709811 262.96098299 8.59770808 243.67801518 -17.0625 235.5625 C-25.73099446 233.07463093 -33.90590248 232.81712802 -42.875 232.8125 C-44.11636719 232.80025391 -45.35773438 232.78800781 -46.63671875 232.77539062 C-53.14328463 232.76499675 -58.7881595 233.04610654 -65 235 Z " fill="#000000" transform="translate(1354,19)"/>
<path d="M0 0 C46.71043079 -0.38912793 93.42069001 -0.6886714 140.13242217 -0.8681106 C145.64736613 -0.88937256 151.1623069 -0.91137605 156.67724609 -0.93383789 C157.77516923 -0.93829717 158.87309236 -0.94275645 160.00428589 -0.94735085 C177.78097441 -1.0213202 195.55672817 -1.15535412 213.33286218 -1.31159753 C231.5735123 -1.47058639 249.81367297 -1.56500119 268.05498755 -1.59950441 C279.31112931 -1.62282977 290.56462919 -1.69648169 301.81995757 -1.83457994 C309.53875477 -1.92446075 317.25618691 -1.95159979 324.9754694 -1.92952342 C329.43005564 -1.91863341 333.88002888 -1.93527809 338.33379364 -2.02649307 C364.35075117 -2.53326429 364.35075117 -2.53326429 370.35405779 1.63415837 C373.94056177 5.53417409 375.73713256 9.77823141 377.24114728 14.8006593 C378.51327905 18.48760816 380.63712944 21.62074699 382.75 24.875 C385.22909682 28.95320889 387.58957595 33.05928 389.859375 37.2578125 C392.93133715 42.92592184 396.19150272 48.46750098 399.5 54 C403.29764084 60.35044929 406.96808135 66.74054999 410.48632812 73.25 C413.04552569 77.89948409 415.77637462 82.44552906 418.5 87 C422.2865352 93.33187835 425.95458157 99.70084966 429.46337891 106.19091797 C432.20201117 111.1973849 435.07570094 116.12574472 437.9375 121.0625 C438.930067 122.77881378 439.92263187 124.49512879 440.91506958 126.21151733 C441.93630508 127.97734443 442.95810259 129.74284537 443.97998047 131.50830078 C447.15919984 137.00213974 450.32907735 142.50136978 453.5 148 C457.23629821 154.47770972 460.97348351 160.9548999 464.71484375 167.4296875 C471.5313374 179.22990875 478.31665199 191.0470565 485.06628418 202.8855896 C490.45015281 212.32544845 495.89652377 221.72751623 501.39672852 231.10009766 C504.67460767 236.69256086 507.88128483 242.31714377 511 248 C511.66 248 512.32 248 513 248 C513.3810791 247.33806641 513.7621582 246.67613281 514.15478516 245.99414062 C522.81170782 230.96156383 531.50872307 215.95347159 540.26171875 200.9765625 C542.02051627 197.96486876 543.77633606 194.95145816 545.53125 191.9375 C552.30184217 180.3116744 559.11018208 168.70927015 565.96484375 157.1328125 C567.90168353 153.86091706 569.83211959 150.58544689 571.75390625 147.3046875 C576.08277757 139.91521966 580.45262494 132.5686179 585.015625 125.3203125 C586.68720668 122.52337466 588.26150131 119.70803664 589.8125 116.84375 C593.00565828 110.94907211 596.358446 105.15725965 599.75 99.375 C600.67232422 97.7981543 600.67232422 97.7981543 601.61328125 96.18945312 C605.45274173 89.62870489 609.30187931 83.07362292 613.16430664 76.52636719 C615.61857858 72.36245071 618.05460314 68.18835042 620.48046875 64.0078125 C621.09341797 62.95271484 621.70636719 61.89761719 622.33789062 60.81054688 C623.53251661 58.75306537 624.72535362 56.69454362 625.91601562 54.63476562 C629.17999054 49.01620071 632.55116026 43.50090814 636.12231445 38.07177734 C640.12746147 31.5196047 643.69750903 24.95323164 646.44366646 17.7715683 C649.67577664 10.04572801 653.13872599 2.02134924 661.27537298 -1.36192131 C670.64403714 -3.42124382 680.18477627 -3.07217559 689.72222304 -2.78557491 C694.08052996 -2.68124617 698.43806624 -2.71704959 702.79727173 -2.73522949 C710.33692784 -2.74777418 717.87157405 -2.67293831 725.40996933 -2.53752136 C736.30810125 -2.34187953 747.20382795 -2.27991149 758.10352542 -2.24980956 C775.78897556 -2.19737055 793.47175861 -2.03790498 811.15576172 -1.81054688 C828.32685055 -1.59001369 845.49721321 -1.42025215 862.66943359 -1.31835938 C863.72912589 -1.31205401 864.78881819 -1.30574865 865.88062237 -1.29925221 C871.1971583 -1.26792973 876.51369935 -1.23760112 881.83024383 -1.20776653 C925.88867598 -0.95924169 969.94419991 -0.53677777 1014 0 C1012.11137194 4.46691744 1010.15990496 8.68270682 1007.734375 12.89453125 C1007.09951172 14.00119141 1006.46464844 15.10785156 1005.81054688 16.24804688 C1005.12377384 17.4362418 1004.4369228 18.62439165 1003.75 19.8125 C1003.03157277 21.06166022 1002.31347951 22.31101257 1001.59570312 23.56054688 C999.7555688 26.76160109 997.91083735 29.95997604 996.06420898 33.1572876 C994.43224748 35.98308192 992.80223266 38.80999885 991.171875 41.63671875 C989.33759409 44.81636556 987.50256372 47.99556635 985.66503906 51.17333984 C982.34040854 56.92615992 979.03340837 62.68843249 975.75 68.46484375 C975.3940979 69.09033112 975.0381958 69.71581848 974.67150879 70.36026001 C972.9580039 73.37177265 971.24705246 76.38463459 969.54101562 79.40039062 C966.03140758 85.57220913 962.40268728 91.62546105 958.5300293 97.5769043 C956.46559243 100.84633718 954.65807375 104.23035451 952.83203125 107.63671875 C945.58661297 120.93800903 937.85928389 133.98238554 930.21289062 147.05541992 C925.93944875 154.36881157 921.72375324 161.71323739 917.53466797 169.07519531 C913.78025921 175.66244235 909.95964276 182.20920567 906.125 188.75 C901.2976982 196.98868379 896.57940387 205.28053308 891.9375 213.625 C887.0983833 222.32079078 882.13218811 230.92506783 877.03930664 239.47436523 C872.56703636 246.99790521 868.20746631 254.58300572 863.875 262.1875 C863.53213959 262.78920013 863.18927917 263.39090027 862.83602905 264.01083374 C862.15185531 265.21157029 861.46768674 266.4123098 860.78352356 267.61305237 C856.93065965 274.37486038 853.05172551 281.12060993 849.14526367 287.8515625 C845.95566054 293.34749404 842.77894082 298.85072359 839.60668945 304.35668945 C834.01282292 314.0650117 828.40042075 323.76197257 822.75 333.4375 C814.64979555 347.31039318 806.56997123 361.18942001 798.6875 375.1875 C793.66085945 384.1114839 788.54009797 392.97614074 783.36743164 401.81616211 C779.09730228 409.11446855 774.85080453 416.42593606 770.625 423.75 C770.01092285 424.81395996 769.3968457 425.87791992 768.76416016 426.97412109 C765.4063767 432.79991461 762.0654197 438.63492485 758.7421875 444.48046875 C758.02653808 445.73796036 757.31088058 446.99544737 756.59521484 448.25292969 C755.24069505 450.63326977 753.89005037 453.01567076 752.54150391 455.39941406 C749.03180836 461.57160592 745.40288704 467.62515407 741.5300293 473.5769043 C739.46559243 476.84633718 737.65807375 480.23035451 735.83203125 483.63671875 C729.74566344 494.81019995 723.3031318 505.79557541 716.86938477 516.77148438 C714.52013355 520.78280206 712.18236417 524.8007203 709.84814453 528.82080078 C708.56870976 531.02169902 707.28558366 533.22045399 705.99951172 535.41748047 C704.00271422 538.83064028 702.03199468 542.25850927 700.0625 545.6875 C699.44068848 546.74485352 698.81887695 547.80220703 698.17822266 548.89160156 C697.61538574 549.87999023 697.05254883 550.86837891 696.47265625 551.88671875 C695.97000244 552.75514404 695.46734863 553.62356934 694.94946289 554.51831055 C693.76681919 557.6094839 693.94041641 558.8788674 695 562 C696.10688064 564.16310713 697.29551935 566.28513935 698.53515625 568.375 C698.89210068 568.98077881 699.2490451 569.58655762 699.61680603 570.21069336 C700.75867784 572.14451627 701.91050631 574.07219356 703.0625 576 C703.80987932 577.26394793 704.5566296 578.52826804 705.30273438 579.79296875 C708.86664791 585.81891233 712.48829224 591.80374002 716.18359375 597.75 C719.09514114 602.45936071 721.80632911 607.23241875 724.42285156 612.11035156 C727.25954117 617.307729 730.27557285 622.40210408 733.27636719 627.50585938 C734.36885106 629.3645386 735.45804446 631.22511629 736.546875 633.0859375 C740.69873287 640.16753521 744.93273201 647.18955898 749.27246094 654.15771484 C750.88919824 656.81770011 752.40358736 659.50752085 753.875 662.25 C759.15279942 672.07569041 764.97738891 681.59840283 770.67578125 691.18359375 C772.013302 693.4347288 773.350533 695.68603603 774.6875 697.9375 C775.02883972 698.51226074 775.37017944 699.08702148 775.72186279 699.67919922 C781.34097886 709.14616319 786.86210528 718.66653069 792.34545898 728.21289062 C797.25265056 736.74130454 802.25128072 745.21229502 807.27978516 753.66943359 C811.83392346 761.32935919 816.34113743 769.01273456 820.78710938 776.73583984 C824.71673965 783.54594134 828.7317429 790.30443554 832.75 797.0625 C838.69850339 807.0676969 844.55107154 817.12367854 850.34790039 827.21777344 C854.89553524 835.12223764 859.52391237 842.97620176 864.1875 850.8125 C869.42544662 859.61609353 874.58024446 868.45896996 879.63793945 877.3671875 C883.68231722 884.47818138 887.83116029 891.5239864 892.00463867 898.55981445 C896.03408624 905.35535539 900.0256322 912.17211307 904 919 C909.0008575 927.58896931 914.0378937 936.15548798 919.10327148 944.70654297 C923.714911 952.49903308 928.2703804 960.32362341 932.82226562 968.15112305 C937.11818602 975.52406257 941.48229025 982.85346104 945.91821289 990.14306641 C948.92527867 995.11013799 951.73719607 1000.15851541 954.49951172 1005.26538086 C956.8383229 1009.5278319 959.32197458 1013.69995347 961.8125 1017.875 C965.67540941 1024.37822025 969.52647672 1030.88786548 973.34375 1037.41796875 C973.71433029 1038.05164368 974.08491058 1038.6853186 974.46672058 1039.3381958 C975.93650456 1041.85187304 977.40613384 1044.36563507 978.87295532 1046.88104248 C982.55504866 1053.19471744 986.27760168 1059.47584717 990.13671875 1065.68359375 C993.10170265 1070.47279288 995.86757315 1075.32599555 998.52978516 1080.28857422 C1001.14280245 1085.10759946 1003.92010219 1089.83097965 1006.6875 1094.5625 C1007.29400391 1095.60172607 1007.90050781 1096.64095215 1008.52539062 1097.71166992 C1012.6842261 1104.81452889 1016.91560722 1111.86835628 1021.2722168 1118.85180664 C1024.15320839 1123.49840095 1026.78631256 1128.24814466 1029.38476562 1133.05786133 C1032.23312766 1138.24613383 1035.24958405 1143.33615721 1038.25 1148.4375 C1039.48552924 1150.53968662 1040.71995209 1152.64252401 1041.953125 1154.74609375 C1042.49098633 1155.66060303 1043.02884766 1156.5751123 1043.58300781 1157.51733398 C1044.80030144 1159.65011463 1045.91286469 1161.79953926 1047 1164 C1000.22121077 1164.20590678 953.44246941 1164.36453954 906.66331651 1164.45958797 C901.14321938 1164.4708446 895.62312314 1164.48249348 890.10302734 1164.49438477 C889.00405497 1164.49674556 887.9050826 1164.49910635 886.77280803 1164.50153869 C868.96790893 1164.54072271 851.1632708 1164.61169592 833.35852663 1164.69437516 C815.09525353 1164.77847765 796.83211729 1164.828516 778.56865847 1164.84679645 C767.29490964 1164.85915846 756.02189839 1164.89822999 744.74837656 1164.9712482 C737.02234375 1165.01874663 729.29669338 1165.03321819 721.57052509 1165.0215124 C717.1096386 1165.01573562 712.65004264 1165.0247162 708.18938446 1165.07284927 C704.10635035 1165.11658664 700.02547649 1165.1189056 695.94234379 1165.08809005 C694.46441065 1165.08428085 692.98634382 1165.09575759 691.50867467 1165.12394864 C680.45674795 1165.32255998 680.45674795 1165.32255998 676.82295156 1162.02348983 C675.26875806 1159.73461522 674.09685809 1157.53443735 673 1155 C672.46197754 1154.06599365 671.92395508 1153.1319873 671.36962891 1152.16967773 C670.74193604 1150.97000366 670.74193604 1150.97000366 670.1015625 1149.74609375 C666.70980081 1143.40665092 663.0551199 1137.23790333 659.375 1131.0625 C658.66993573 1129.87573949 657.96502248 1128.68888925 657.26025391 1127.50195312 C654.02246468 1122.05308555 650.7714468 1116.6123401 647.5 1111.18359375 C646.96842285 1110.3011499 646.4368457 1109.41870605 645.88916016 1108.50952148 C644.92245742 1106.90733873 643.95359896 1105.30645336 642.98193359 1103.70727539 C640.02426885 1098.81158755 637.25811231 1093.83387317 634.53613281 1088.80371094 C632.00933612 1084.19186522 629.34841848 1079.6603739 626.6875 1075.125 C626.09066406 1074.10470703 625.49382813 1073.08441406 624.87890625 1072.03320312 C622.92115075 1068.68769707 620.96083595 1065.34370141 619 1062 C618.3067732 1060.81740051 617.61357694 1059.63478311 616.92041016 1058.45214844 C614.05606835 1053.56534124 611.19139817 1048.67872693 608.32568359 1043.79272461 C600.96535035 1031.24231432 593.63704818 1018.67329204 586.31152344 1006.10253906 C584.60380808 1003.17235542 582.89577542 1000.24235716 581.1875 997.3125 C580.61966797 996.33861328 580.05183594 995.36472656 579.46679688 994.36132812 C574.39442921 985.66664673 569.30114884 976.98429233 564.2064209 968.30270386 C559.49420986 960.27190707 554.80964975 952.22598919 550.16015625 944.15869141 C546.26865605 937.42552483 542.28948787 930.74542071 538.3125 924.0625 C531.8886459 913.26368019 525.60452128 902.39140927 519.40356445 891.46313477 C515.68855971 884.92123379 511.90780658 878.42876756 508 872 C503.36850528 878.66972869 499.34692862 885.57546034 495.4375 892.6875 C490.91730393 900.8358349 486.32911931 908.93070042 481.5625 916.9375 C471.59659685 933.68473615 461.92745965 950.60400554 452.27050781 967.53076172 C448.65367175 973.86690469 445.00841122 980.18607479 441.34790039 986.49707031 C438.0890278 992.11601509 434.84197601 997.74166925 431.59912109 1003.36987305 C426.11472978 1012.88805868 420.60966413 1022.39325624 415.0625 1031.875 C410.01157026 1040.51279077 405.0197562 1049.18319687 400.0625 1057.875 C389.52185037 1076.35581736 378.89362054 1094.78424047 368.14379883 1113.14428711 C363.51407021 1121.07147201 358.98719139 1129.05427825 354.52490234 1137.0769043 C351.46548959 1142.54243337 348.23783703 1147.84997102 344.80639648 1153.09057617 C342.3945562 1156.97514174 340.22055275 1161.00300504 338 1165 C220.19 1165 102.38 1165 -19 1165 C-17.90354896 1160.61419584 -16.01639576 1157.14340653 -13.8125 1153.25 C-13.37180176 1152.46415527 -12.93110352 1151.67831055 -12.47705078 1150.86865234 C-8.26553792 1143.39521042 -3.9340331 1135.99183556 0.40307617 1128.59082031 C4.9895812 1120.75771573 9.5070826 1112.88694704 14 1105 C22.38614223 1090.28498824 30.9182474 1075.65708356 39.4921875 1061.05078125 C46.12968103 1049.72750916 52.63730404 1038.34301583 59.0246582 1026.87670898 C63.49590691 1018.86280213 68.10764539 1010.94351154 72.7890625 1003.05126953 C74.94387952 999.40111377 77.06568401 995.73190734 79.1875 992.0625 C79.63722168 991.28495361 80.08694336 990.50740723 80.55029297 989.70629883 C83.21681329 985.09272949 85.87849029 980.47637658 88.5390625 975.859375 C89.79682238 973.67705301 91.05463601 971.49476199 92.3125 969.3125 C92.94961914 968.20704834 93.58673828 967.10159668 94.24316406 965.96264648 C98.45031566 958.66908349 102.68569063 951.39259945 106.9375 944.125 C112.67759051 934.30864867 118.33323367 924.44534453 123.96630859 914.56738281 C130.31923895 903.42847496 136.72546631 892.3206742 143.14111328 881.21777344 C145.63689344 876.89752357 148.13006297 872.57577013 150.62304688 868.25390625 C152.49709563 865.00503504 154.37159428 861.75642368 156.24609375 858.5078125 C158.76069436 854.14934612 161.27354661 849.78987809 163.78515625 845.4296875 C170.43837892 833.88317673 177.12256513 822.35615075 183.85595703 810.85620117 C188.48569503 802.92881092 193.0127198 794.94588142 197.47509766 786.9230957 C200.60887067 781.32472474 203.92425561 775.88720803 207.41943359 770.5065918 C209.49955813 767.20775976 211.32623866 763.79890968 213.16796875 760.36328125 C220.41338703 747.06199097 228.14071611 734.01761446 235.78710938 720.94458008 C239.56221505 714.48402037 243.2981137 708.00276147 247 701.5 C251.41583691 693.74584996 255.8793608 686.02066784 260.375 678.3125 C260.94605469 677.3328125 261.51710938 676.353125 262.10546875 675.34375 C264.71891253 670.86968114 267.35206786 666.41077993 270.0390625 661.98046875 C272.63843561 657.66468961 275.05587346 653.26750833 277.45019531 648.83544922 C280.16958689 643.86017926 283.0293008 638.96625631 285.875 634.0625 C287.20367582 631.7672432 288.53196511 629.47176973 289.859375 627.17578125 C290.36883163 626.29477249 290.36883163 626.29477249 290.88858032 625.39596558 C293.29898796 621.22367168 295.69325656 617.0424074 298.078125 612.85546875 C298.41319061 612.26727859 298.74825623 611.67908844 299.09347534 611.07307434 C299.76814349 609.88852984 300.44277535 608.70396467 301.11737061 607.51937866 C301.44988831 606.9354837 301.78240601 606.35158875 302.125 605.75 C302.45671204 605.16747467 302.78842407 604.58494934 303.13018799 603.98477173 C308.26969841 594.96517063 313.49750288 586.00147356 318.84033203 577.10058594 C319.80507342 575.48519029 320.75407252 573.86024728 321.68408203 572.22460938 C323 570 323 570 324.46826172 568.04101562 C325.90495168 565.92378831 326.65146529 564.54339217 327 562 C325.55780117 557.58467763 323.12698143 553.88958376 320.625 550 C319.92242958 548.85714721 319.22317122 547.71225226 318.52709961 546.56542969 C317.08715845 544.20047848 315.63201799 541.84601058 314.16455078 539.49804688 C310.83908885 534.15555605 307.7121342 528.69725419 304.5625 523.25 C303.3952454 521.25088493 302.22730501 519.25217009 301.05859375 517.25390625 C298.72065617 513.24631569 296.41126929 509.2247414 294.125 505.1875 C290.29345537 498.44954865 286.33291365 491.78928485 282.375 485.125 C272.97397982 469.29405866 263.67958573 453.40314867 254.49829102 437.44360352 C248.07586753 426.28032162 241.5657142 415.17448526 234.98095703 404.10620117 C229.79193877 395.37074517 224.70492932 386.57995063 219.64453125 377.76953125 C215.1595326 369.97484806 210.59780659 362.22860658 206 354.5 C198.21136201 341.40268366 190.58954791 328.21340094 183 315 C172.87929172 297.32960108 172.87929172 297.32960108 162.48193359 279.82177734 C158.13553274 272.62448988 153.98008661 265.31571835 149.7890625 258.02734375 C145.73813335 250.99067 141.64497319 243.98164911 137.5 237 C132.77196643 229.03473458 128.11801444 221.02953653 123.5 213 C118.33808285 204.02613458 113.1211278 195.08819873 107.84155273 186.18310547 C102.0957176 176.48772131 96.42409006 166.74944741 90.75292969 157.01025391 C87.89943877 152.110039 85.04388815 147.21102655 82.1875 142.3125 C81.61708984 141.33410156 81.04667969 140.35570312 80.45898438 139.34765625 C77.26930862 133.87964068 74.07256327 128.41585281 70.8671875 122.95703125 C69.43224667 120.51304725 67.99732727 118.06905067 66.5625 115.625 C66.02615433 114.71143738 66.02615433 114.71143738 65.47897339 113.77941895 C59.73147331 103.98636179 54.04489967 94.15977948 48.38305664 84.31689453 C43.9494998 76.61932969 39.4470757 68.96514246 34.91308594 61.32641602 C30.07673918 53.1637899 25.34076176 44.94475727 20.61450195 36.71801758 C15.83471581 28.41045694 10.97407056 20.1534631 6.03515625 11.93945312 C5.53242187 11.09705078 5.0296875 10.25464844 4.51171875 9.38671875 C4.07303467 8.65670654 3.63435059 7.92669434 3.18237305 7.17456055 C1.9146805 4.84308471 0.96718509 2.46896492 0 0 Z " fill="#000000" transform="translate(1710,0)"/>
<path d="M0 0 C1.32497741 0.00023397 1.32497741 0.00023397 2.67672205 0.00047267 C3.69382872 -0.00177462 4.71093539 -0.00402192 5.75886348 -0.00633731 C6.89211303 -0.0037103 8.02536259 -0.00108328 9.19295305 0.00162334 C10.38947546 0.00046949 11.58599787 -0.00068435 12.81877854 -0.00187316 C16.16988347 -0.00407929 19.52093206 -0.00175069 22.87203167 0.00240497 C26.50640348 0.00582229 30.14077206 0.00347161 33.77514445 0.00182748 C40.15470109 -0.00025221 46.53424843 0.00140762 52.91380399 0.00546569 C62.40007465 0.01148326 71.88633941 0.01180312 81.37261162 0.0109237 C97.32749295 0.00960757 113.28237014 0.01295967 129.23725026 0.01894111 C145.04234869 0.02485125 160.84744539 0.02870566 176.65254491 0.02979392 C177.63400969 0.02986266 178.61547447 0.0299314 179.62668061 0.03000222 C184.61072345 0.03034054 189.59476629 0.03064193 194.57880913 0.0309291 C229.91203415 0.03303141 265.24525691 0.03977407 300.57848066 0.04923171 C334.91148835 0.05841104 369.24449542 0.06549715 403.57750409 0.06973952 C404.63516415 0.06987105 405.69282421 0.07000258 406.78253458 0.07013809 C417.4036621 0.07145657 428.02478963 0.07273239 438.64591716 0.07397695 C460.28379297 0.07651339 481.92166874 0.07933465 503.5595445 0.08232803 C504.55449337 0.08246532 505.54944224 0.08260261 506.57454107 0.08274406 C573.05396392 0.09195 639.53338553 0.10779582 706.01280683 0.12467116 C706.64768589 3.85067269 707.18489478 7.51332634 707.46178144 11.28336257 C707.53540906 12.26921844 707.60903669 13.2550743 707.68489545 14.27080459 C707.76087964 15.32859618 707.83686384 16.38638778 707.91515058 17.47623366 C707.99709669 18.59086486 708.07904279 19.70549606 708.16347211 20.85390395 C708.42906252 24.48559418 708.68996588 28.11760111 708.95030683 31.74967116 C709.04028943 32.99151168 709.13027204 34.2333522 709.22298139 35.51282424 C710.35160931 51.10780424 711.38418564 66.7009319 712.18440717 82.31610793 C712.80825547 94.42328944 713.71383195 106.49526931 714.70982831 118.57712478 C715.77848517 131.57277927 716.62478078 144.56855612 717.27843183 157.59171218 C717.68836586 165.44571951 718.26817102 173.26445656 718.97765058 181.09732741 C720.18469761 194.47853034 720.93913124 207.87752917 721.69005292 221.29068679 C722.37862572 233.50766613 723.19430553 245.69224809 724.30087751 257.87885207 C725.11018161 266.90969776 725.62501999 275.94488357 726.07530683 284.99967116 C726.22962577 288.05974202 726.38685251 291.11963773 726.54796308 294.17935866 C726.60411283 295.25211043 726.60411283 295.25211043 726.66139692 296.34653396 C726.86004954 299.95920508 727.12932914 303.54152728 727.57140058 307.13248366 C728.04761277 311.43946473 728.01280683 315.79144327 728.01280683 320.12467116 C597.00280683 320.12467116 465.99280683 320.12467116 331.01280683 320.12467116 C331.01280683 369.95467116 331.01280683 419.78467116 331.01280683 471.12467116 C354.31776777 471.1130696 377.6227287 471.10146804 401.63390058 471.08951491 C416.34939544 471.08440873 431.06488977 471.07954766 445.78038495 471.07584304 C453.50637781 471.07388502 461.23237065 471.0718645 468.95836347 471.06973952 C469.92675572 471.06947578 470.89514797 471.06921203 471.89288544 471.06894029 C487.54819251 471.06458523 503.20349592 471.05669825 518.85880082 471.04751837 C534.91289159 471.03818282 550.96698044 471.03261577 567.02107381 471.03058267 C576.9356263 471.02920724 586.85016846 471.02485555 596.76471776 471.0167547 C603.55386234 471.01148845 610.34300154 471.00986659 617.13214802 471.01116979 C621.0552202 471.01181336 624.97827428 471.01079351 628.90134328 471.00546569 C633.1443153 470.99974515 637.38724825 471.00166988 641.63022321 471.00441665 C642.88408667 471.00150381 644.13795013 470.99859097 645.42980945 470.99558986 C647.12050118 470.99857643 647.12050118 470.99857643 648.84534829 471.00162334 C649.82616591 471.00124362 650.80698352 471.0008639 651.81752288 471.00047267 C654.01280683 471.12467116 654.01280683 471.12467116 655.01280683 472.12467116 C655.11097252 473.81787283 655.13836265 475.51520463 655.13864797 477.21124953 C655.14255959 478.87489075 655.14255959 478.87489075 655.14655023 480.57214088 C655.14431951 481.80586747 655.14208879 483.03959407 655.13979047 484.31070632 C655.14135046 485.60942483 655.14291045 486.90814334 655.14451772 488.24621696 C655.14871557 491.86773613 655.14661831 495.48922917 655.1435315 499.11074847 C655.14127946 503.00990213 655.14475603 506.90905113 655.14751142 510.80820388 C655.15197022 518.4532356 655.15099216 526.09825754 655.14809878 533.74328965 C655.14584518 539.95368994 655.14553203 546.16408748 655.14662259 552.37448806 C655.14685244 553.69769905 655.14685244 553.69769905 655.14708694 555.04764158 C655.14740665 556.83940032 655.14773086 558.63115905 655.14805953 560.42291779 C655.15091464 577.24487844 655.14762681 594.06683365 655.14225916 610.88879341 C655.13779109 625.33916685 655.13856702 639.78953225 655.14317792 654.23990554 C655.14852313 670.99952946 655.15063995 687.75914861 655.14756566 704.51877326 C655.14724709 706.3041336 655.14693272 708.08949393 655.14662259 709.87485427 C655.14646832 710.75340564 655.14631404 711.631957 655.14615509 712.53713113 C655.14528978 718.74382288 655.14675313 724.95051162 655.14910215 731.1572029 C655.15189975 738.715698 655.15116272 746.2741827 655.1458214 753.83267659 C655.14318385 757.69297119 655.14218022 761.55324844 655.14547056 765.41354293 C655.14897548 769.58858923 655.14480544 773.76359127 655.13979047 777.93863601 C655.14202119 779.17236261 655.14425192 780.4060892 655.14655023 781.67720145 C655.14394249 782.7862956 655.14133474 783.89538974 655.13864797 785.0380928 C655.13848562 786.00317952 655.13832327 786.96826625 655.13815599 787.96259803 C655.01280683 790.12467116 655.01280683 790.12467116 654.01280683 791.12467116 C652.28215918 791.22201415 650.54749652 791.24838594 648.81411355 791.24771899 C647.11297164 791.25070557 647.11297164 791.25070557 645.37746322 791.25375247 C644.11581786 791.25083963 642.85417251 791.24792679 641.55429548 791.24492568 C640.2128721 791.24536127 638.8714488 791.24623594 637.53002596 791.24751485 C633.82676305 791.24976232 630.1235288 791.2457351 626.42026955 791.24073679 C622.43320146 791.23643607 618.44613512 791.23787844 614.45906537 791.23863906 C607.54550694 791.23916454 600.63195791 791.23601527 593.71840185 791.23040122 C583.72244309 791.22228942 573.72648891 791.21967133 563.73052723 791.21841323 C547.51447787 791.21622221 531.29843354 791.20956076 515.08238691 791.20011062 C499.32587675 791.1909378 483.56936795 791.18385633 467.81285566 791.17960281 C466.84234482 791.17934008 465.87183398 791.17907736 464.87191372 791.17880667 C460.00336121 791.17750168 455.13480868 791.17623796 450.26625615 791.17499477 C409.84843622 791.16462059 369.43062181 791.14700091 329.01280683 791.12467116 C329.01318655 791.91989604 329.01356627 792.71512091 329.0139575 793.5344435 C329.03631161 840.61434093 329.05348125 887.69423779 329.06387216 934.77413946 C329.06512294 940.42084991 329.06641725 946.06756034 329.06773847 951.71427077 C329.06813194 953.40058404 329.06813194 953.40058404 329.06853335 955.12096424 C329.07289052 973.34942842 329.08077832 991.57788946 329.08995963 1009.80635178 C329.09929487 1028.4956315 329.10486216 1047.18490957 329.10689532 1065.87419153 C329.10827082 1077.41634504 329.11262284 1088.95848968 329.1207233 1100.50064046 C329.12598917 1108.4040984 329.12761149 1116.30755172 329.12630821 1124.21101129 C329.12566458 1128.77811721 329.12668514 1133.34520759 329.1320123 1137.91231078 C329.13684569 1142.08630867 329.13714588 1146.26028041 329.13370572 1150.43427945 C329.13327997 1151.95111143 329.13457622 1153.46794497 329.13769001 1154.98477381 C329.14165307 1157.03300946 329.13896359 1159.08125486 329.13585466 1161.12949199 C329.13623438 1162.27131102 329.1366141 1163.41313005 329.13700533 1164.58954966 C329.01280683 1167.12467116 329.01280683 1167.12467116 328.01280683 1168.12467116 C326.25088796 1168.22207596 324.48501845 1168.24838564 322.72040933 1168.24771899 C320.98791685 1168.25070557 320.98791685 1168.25070557 319.22042453 1168.25375247 C317.93543348 1168.25083963 316.65044244 1168.24792679 315.32651227 1168.24492568 C313.96034009 1168.24536126 312.594168 1168.24623593 311.22799635 1168.24751485 C307.45632419 1168.24976237 303.68468017 1168.24573503 299.91301161 1168.24073679 C295.85232321 1168.23643614 291.79163651 1168.23787843 287.73094648 1168.23863906 C280.68970257 1168.23916454 273.64846789 1168.23601523 266.60722631 1168.23040122 C256.42665303 1168.22228948 246.24608423 1168.21967134 236.06550807 1168.21841323 C219.54997296 1168.2162222 203.03444278 1168.20956072 186.51891034 1168.20011062 C170.47138455 1168.19093783 154.4238601 1168.18385634 138.37633222 1168.17960281 C137.38789941 1168.17934008 136.39946659 1168.17907736 135.38108127 1168.17880667 C130.42262433 1168.17750168 125.46416738 1168.17623796 120.50571042 1168.17499477 C79.34140579 1168.16462056 38.17710659 1168.14700085 -2.98719317 1168.12467116 C-2.99269108 1132.42097653 -2.99796306 1096.71728187 -3.00306231 1061.01358718 C-3.00316211 1060.31496677 -3.00326191 1059.61634635 -3.00336473 1058.89655562 C-3.01404869 984.06186331 -3.02327268 909.22717099 -3.02953631 834.39247817 C-3.02967576 832.7308361 -3.02981521 831.06919402 -3.02995467 829.40755195 C-3.03287714 794.53184239 -3.03559388 759.65613281 -3.03807285 724.78042322 C-3.03931828 707.26208058 -3.04060325 689.74373794 -3.04192561 672.22539531 C-3.04212486 669.58276364 -3.04232298 666.94013197 -3.04252105 664.2975003 C-3.04558226 623.58840111 -3.04949337 582.87930221 -3.05585772 542.17020339 C-3.05599462 541.29443675 -3.05613152 540.4186701 -3.05627257 539.51636507 C-3.05848503 525.39575934 -3.0607686 511.27515362 -3.06306161 497.1545479 C-3.06966238 456.49958703 -3.07574027 415.84462638 -3.07833296 375.18966502 C-3.07841327 373.93650347 -3.07841327 373.93650347 -3.07849519 372.65802552 C-3.07966076 354.32127746 -3.0805557 335.9845294 -3.08119415 317.64778131 C-3.08145579 310.27050433 -3.08175641 302.89322736 -3.08207041 295.51595039 C-3.08212055 294.3048087 -3.08212055 294.3048087 -3.08217171 293.0691995 C-3.08326945 267.02246168 -3.08754489 240.97572556 -3.09347538 214.92898843 C-3.09943136 188.70671872 -3.10229484 162.48445066 -3.10081716 136.26218025 C-3.10061406 132.64420796 -3.10044668 129.02623568 -3.10030085 125.40826339 C-3.10027097 124.69899483 -3.10024109 123.98972627 -3.10021031 123.25896472 C-3.09982863 111.99687125 -3.10282305 100.73478127 -3.10720303 89.47268876 C-3.11143407 78.41715407 -3.11205976 67.36162301 -3.10902498 56.30608765 C-3.1075045 50.38433246 -3.10762335 44.462589 -3.11207635 38.54083503 C-3.11608743 33.16637972 -3.115598 27.79194541 -3.11133315 22.41749046 C-3.11061189 20.4730776 -3.11161006 18.52866324 -3.11442842 16.58425229 C-3.11798543 13.96671102 -3.11551332 11.3492465 -3.11139167 8.73170782 C-3.11390054 7.96486811 -3.11640942 7.19802841 -3.11899433 6.40795114 C-3.09778258 0.19434656 -3.09778258 0.19434656 0 0 Z " fill="#000000" transform="translate(29.987193170934916,-0.12467116490006447)"/>
<path d="M0 0 C1.17186448 -0.03591246 2.34372896 -0.07182491 3.55110449 -0.10882562 C6.78324929 -0.19816845 10.01307423 -0.24779601 13.24620688 -0.27949679 C16.74243877 -0.3231242 20.23739891 -0.41741107 23.73278809 -0.50372314 C32.17213722 -0.70008392 40.61174007 -0.80947105 49.05273953 -0.90560237 C52.24477331 -0.94303041 55.43673099 -0.98554207 58.62870036 -1.02806192 C72.74688959 -1.21533912 86.86513951 -1.37467371 100.98433781 -1.46021366 C104.43588485 -1.48147582 107.88743057 -1.5029248 111.338974 -1.52476501 C112.19665158 -1.53016792 113.05432916 -1.53557082 113.93799698 -1.54113745 C127.7593737 -1.63279304 141.57218678 -1.89158782 155.38971204 -2.22187573 C169.64201113 -2.55970544 183.88999566 -2.74151831 198.14629549 -2.77811712 C206.12654356 -2.8023496 214.09382001 -2.89053023 222.07010078 -3.15283394 C276.08231341 -4.86727591 276.08231341 -4.86727591 295.922589 13.0011161 C304.31696832 21.10898881 311.62850986 30.03644298 318.57548797 39.39140618 C320.57138149 41.9551094 322.73413754 44.12879451 325.10142517 46.35145569 C325.98701111 47.24864319 326.87259705 48.14583069 327.78501892 49.07020569 C333.45074851 54.87674564 333.45074851 54.87674564 339.53892517 60.22645569 C345.76583388 65.39023364 345.76583388 65.39023364 346.50628173 69.71746945 C346.71169716 72.81346991 346.78401639 75.88977038 346.81796265 78.99247742 C346.84607515 80.18486979 346.87418765 81.37726216 346.90315205 82.60578763 C346.97639515 85.91325126 347.03168721 89.22010463 347.07875431 92.5279851 C347.12228481 95.36672582 347.18037004 98.20509685 347.23839258 101.04357268 C347.78882143 128.06494414 348.03994109 155.09472317 348.24337673 182.12066078 C348.27038766 185.64648936 348.29785464 189.172314 348.32579041 192.69813538 C348.33616869 194.0124417 348.33616869 194.0124417 348.34675664 195.35329966 C348.46212489 209.47776425 348.71277126 223.59649761 349.01831507 237.71799155 C349.33041333 252.26485131 349.50618417 266.8087787 349.55720383 281.35892236 C349.58932251 289.51063254 349.67964414 297.6522001 349.9242382 305.80054092 C351.5335053 361.16199998 351.5335053 361.16199998 336.0706175 378.68963993 C329.708372 385.33436814 322.69057516 391.14823138 315.1660471 396.42633629 C308.72628391 400.98615021 303.39311916 405.90672668 298.32239532 411.97004032 C290.25485366 421.46757053 282.7924865 430.18449449 269.85375023 431.94396102 C264.14040545 432.30506015 258.4840022 432.31559326 252.76343322 432.13823736 C249.19831251 432.05381624 245.63446036 432.10545308 242.06884766 432.13861084 C235.12144073 432.18264719 228.18061287 432.10613367 221.23430061 431.98674481 C213.13193757 431.85244139 205.03079621 431.84369776 196.92749673 431.83960826 C182.47283733 431.82834419 168.02115231 431.70917291 153.56773376 431.52601624 C139.56127417 431.34865163 125.5567577 431.24280195 111.54917908 431.21839905 C110.25139521 431.21611993 110.25139521 431.21611993 108.9273935 431.21379476 C107.18427176 431.21077786 105.44115003 431.20776201 103.6980283 431.20474723 C102.83804998 431.20324227 101.97807166 431.2017373 101.09203339 431.20018673 C100.23413775 431.1987053 99.37624212 431.19722387 98.49234965 431.19569754 C85.10423866 431.16992363 71.71643542 431.08336356 58.32865754 430.9889111 C53.48707729 430.95533162 48.64553421 430.929896 43.80387855 430.91021698 C36.13507589 430.87855862 28.46746588 430.82041467 20.79938245 430.70827024 C17.29846732 430.65748893 13.79862773 430.6189072 10.29731941 430.61463928 C6.50060562 430.6028965 2.70779184 430.54206452 -1.08815002 430.46826172 C-2.19211923 430.4758757 -3.29608844 430.48348967 -4.43351126 430.49133438 C-11.74873223 430.27545643 -11.74873223 430.27545643 -15.09735012 427.5845443 C-16.85994223 425.58360751 -18.3864172 423.54443937 -19.89857483 421.35145569 C-22.9339452 418.15632898 -26.14645627 415.24971922 -29.46107483 412.35145569 C-32.65666414 409.53954733 -35.25008416 406.68342782 -37.89857483 403.35145569 C-41.49124619 399.83812267 -45.33949618 396.70084536 -49.48154831 393.86129379 C-62.59797686 384.77435115 -75.9622641 373.76396561 -79.80620575 357.61373138 C-82.93079655 340.23164735 -82.51063295 322.23290227 -82.29168827 304.63576404 C-82.22351249 299.00331173 -82.21995214 293.37393944 -82.25855637 287.74123764 C-82.26403727 286.93110761 -82.26951817 286.12097758 -82.27516516 285.28629815 C-82.28654423 283.63907222 -82.29805053 281.99184717 -82.30968247 280.34462301 C-82.41062624 264.9951892 -82.31606713 249.65186905 -82.15250252 234.30328827 C-82.01777569 221.21565113 -82.05658759 208.13784359 -82.22132874 195.05067444 C-82.41388864 179.74945075 -82.49238672 164.45414461 -82.39903438 149.15180147 C-82.38934705 147.5109703 -82.37981285 145.87013822 -82.37043381 144.22930527 C-82.36577841 143.42258834 -82.36112302 142.61587141 -82.35632656 141.78470851 C-82.33157763 136.17864793 -82.38562354 130.57672275 -82.47148514 124.97137833 C-83.25931037 69.21452276 -83.25931037 69.21452276 -65.66880608 50.89146996 C-59.9947161 45.42548606 -53.96748045 40.4927303 -47.51675224 35.97434044 C-44.30246603 33.72107642 -41.59193662 31.21993897 -38.89857483 28.35145569 C-32.89857483 22.35145569 -26.89857483 16.35145569 -20.89857483 10.35145569 C-20.30132758 9.63184538 -19.70408033 8.91223507 -19.08873469 8.17081839 C-13.12182078 1.38930902 -8.87520961 0.00876503 0 0 Z M40.10142517 119.35145569 C39.95423934 121.73932929 39.86552852 124.10138693 39.81967163 126.491745 C39.80188363 127.236061 39.78409562 127.98037701 39.76576859 128.74724805 C39.70767322 131.25536727 39.65712736 133.76357469 39.60704041 136.27186584 C39.56804796 138.06571151 39.52895769 139.85955505 39.48977661 141.65339661 C39.14246607 158.10943181 38.93908405 174.56760995 38.77580166 191.02639198 C38.66347807 202.08093694 38.50645532 213.13109317 38.23594666 224.18299866 C37.99978968 233.83360036 37.85065237 243.4811055 37.80263096 253.13454282 C37.77443565 258.23628443 37.70599239 263.32955592 37.53333855 268.4286232 C36.39807215 295.32822074 36.39807215 295.32822074 48.6879108 318.32333481 C59.21655921 328.87273449 70.73679838 332.33400676 85.61061251 332.37762815 C88.4891552 332.34381914 91.36394896 332.24939759 94.2407763 332.14715743 C98.0374706 332.03579164 101.83397358 332.05624199 105.63198853 332.05807495 C111.98941845 332.04240719 118.33983302 331.93576596 124.69493103 331.76625061 C132.01192751 331.57169609 139.32190398 331.5006279 146.6413272 331.49915999 C154.49889066 331.49668016 162.353872 331.41036708 170.2105329 331.29679322 C172.45032731 331.26959902 174.68979354 331.25722238 176.92972755 331.2480526 C194.02222306 332.01440237 194.02222306 332.01440237 208.90182018 325.45681477 C210.88967087 323.2486843 212.49001581 320.84232232 214.10142517 318.35145569 C216.25982666 316.37237549 216.25982666 316.37237549 218.28892517 314.78895569 C219.68111267 313.58239319 219.68111267 313.58239319 221.10142517 312.35145569 C221.10142517 311.69145569 221.10142517 311.03145569 221.10142517 310.35145569 C222.02955017 309.91833069 222.02955017 309.91833069 222.97642517 309.47645569 C225.23468282 308.41425527 225.23468282 308.41425527 227.10142517 306.35145569 C227.29448264 303.84285777 227.36197193 301.44514616 227.3419342 298.93577576 C227.34364305 298.16227551 227.3453519 297.38877527 227.34711254 296.59183562 C227.35042086 293.98606293 227.33938182 291.38054471 227.32847595 288.77479553 C227.32791213 286.9124553 227.32822783 285.05011463 227.32936096 283.18777466 C227.3299366 278.11983426 227.31814825 273.05198784 227.30421305 267.98406935 C227.29174074 262.69228048 227.29053796 257.40048965 227.28816223 252.10868835 C227.28193714 242.08247376 227.26551245 232.05630258 227.24546325 222.03010714 C227.2231362 210.61795022 227.21211887 199.20579127 227.20207238 187.79361796 C227.18114709 164.31287309 227.14595118 140.83216682 227.10142517 117.35145569 C226.44142517 117.35145569 225.78142517 117.35145569 225.10142517 117.35145569 C225.10142517 116.69145569 225.10142517 116.03145569 225.10142517 115.35145569 C222.76809184 112.68478902 222.76809184 112.68478902 220.10142517 110.35145569 C219.44142517 110.35145569 218.78142517 110.35145569 218.10142517 110.35145569 C218.10142517 109.69145569 218.10142517 109.03145569 218.10142517 108.35145569 C216.55063447 106.78281487 216.55063447 106.78281487 214.53892517 105.16395569 C210.35440085 101.68093057 210.35440085 101.68093057 208.79621124 99.65154839 C206.26179958 96.55267155 204.25523153 94.64205345 200.31025696 93.64847183 C196.83146522 93.32659401 193.40565331 93.22272599 189.91197205 93.19178772 C188.57874397 93.15605634 187.24558577 93.11763219 185.9125061 93.07673645 C182.30208554 92.97674986 178.69249894 92.92306401 175.08094978 92.8842721 C172.81370533 92.85919663 170.54668643 92.82650968 168.27957153 92.79172897 C161.15422652 92.68529387 154.02942733 92.60852413 146.9033742 92.57249558 C138.73621939 92.53074525 130.57870439 92.39122491 122.41463614 92.16449082 C116.06839316 91.99448693 109.72483253 91.91593208 103.37634897 91.90272796 C99.60075569 91.89289954 95.83462346 91.84772249 92.06149292 91.70570755 C69.55356233 90.90382809 50.7832299 97.98784623 40.10142517 119.35145569 Z " fill="#000000" transform="translate(1041.8985748291016,1244.6485443115234)"/>
<path d="M0 0 C87.9553125 -0.185625 87.9553125 -0.185625 177.6875 -0.375 C196.22768311 -0.42962402 214.76786621 -0.48424805 233.86987305 -0.54052734 C256.44494629 -0.56762695 256.44494629 -0.56762695 267.00080872 -0.57266235 C274.40070457 -0.57827044 281.80033039 -0.60033321 289.20014954 -0.63345337 C297.72823407 -0.67156719 306.2560585 -0.68903419 314.78422891 -0.6806697 C319.14960408 -0.67704515 323.51439748 -0.68290768 327.87966669 -0.71529078 C331.82418131 -0.74437562 335.7677 -0.74601717 339.71225929 -0.72540665 C341.14097031 -0.72285395 342.56974247 -0.73053686 343.99833262 -0.74929547 C354.72831635 -0.88195138 354.72831635 -0.88195138 357.91362154 1.32715487 C359.27143574 2.94402122 359.27143574 2.94402122 361 6 C362.70963722 7.59881308 362.70963722 7.59881308 364.375 8.875 C366.95235143 10.9870834 369.05408097 13.18796881 371.15722656 15.76777649 C374.33452034 19.44798505 377.73169243 22.22072072 381.66201782 25.05802727 C396.69711835 36.0089429 413.01858563 49.50630269 416.52769089 68.64847338 C419.2577011 86.2950577 418.21971132 104.50356195 417.31792068 122.26097763 C416.92848164 130.16425239 416.83070159 138.06496014 416.72965622 145.97615302 C416.64070487 152.06277795 416.48115177 158.14787656 416.31044769 164.23268485 C416.27026828 165.69042976 416.23239733 167.14824018 416.19687653 168.60610604 C416.07903176 173.37823202 415.87978002 178.13984709 415.640625 182.9074707 C415.61171173 184.09129837 415.58279846 185.27512604 415.55300903 186.49482727 C414.91953327 196.72622651 410.08980582 201.45605704 402.70709229 208.04700184 C401.40505454 209.17999281 400.09378625 210.30246454 398.7734375 211.4140625 C397.1175692 212.89486102 395.75678166 214.39117206 394.375 216.125 C391.83741692 219.19681109 389.08720122 221.49164901 386 224 C384.32078026 225.65401832 382.65567902 227.32241765 381 229 C373.33333333 236.66666667 365.66666667 244.33333333 358 252 C363.54797805 266.16366161 369.44273488 280.16157962 375.46871948 294.12789917 C378.50492102 301.16548291 381.52189321 308.21128583 384.53933716 315.25692749 C386.13778312 318.98917365 387.73676425 322.72119041 389.3359375 326.453125 C389.64759354 327.18045334 389.95924957 327.90778168 390.28034973 328.65715027 C392.23845412 333.22591052 394.20014486 337.79311062 396.1640625 342.359375 C400.18996335 351.72554198 404.21284601 361.09218977 408.140625 370.5 C408.405905 371.13535172 408.671185 371.77070343 408.94450378 372.42530823 C410.02202208 375.00685613 411.09931059 377.58849888 412.17544556 380.17062378 C415.36224552 387.81119145 418.60358784 395.42453959 421.93359375 403.00390625 C422.42149384 404.11452927 422.42149384 404.11452927 422.91925049 405.24758911 C424.5004813 408.84222613 426.08809242 412.43391904 427.68310547 416.02246094 C428.25359848 417.3131432 428.82407465 418.6038329 429.39453125 419.89453125 C429.89831299 421.02737549 430.40209473 422.16021973 430.92114258 423.32739258 C432 426 432 426 432 428 C388.44 428 344.88 428 300 428 C294.25826719 414.21984126 294.25826719 414.21984126 291.94140625 407.66796875 C291.67592484 406.92566513 291.41044342 406.18336151 291.13691711 405.41856384 C290.27591681 403.00921948 289.41923901 400.59836251 288.5625 398.1875 C287.94907078 396.46911676 287.33529405 394.75085754 286.72119141 393.03271484 C285.44734612 389.46777737 284.17498164 385.90231696 282.90380859 382.33642578 C280.19587351 374.74258017 277.47438499 367.15360205 274.75085449 359.56533813 C274.16565711 357.93483958 273.58061547 356.30428512 272.99572754 354.67367554 C269.96013654 346.21136919 266.91643652 337.75218477 263.83984375 329.3046875 C263.58273621 328.59869415 263.32562866 327.89270081 263.06072998 327.16531372 C261.8832282 323.93370059 260.70369075 320.70286229 259.52099609 317.47314453 C254.24234187 303.01814528 249.14695744 288.50506187 244 274 C202.42 273.67 160.84 273.34 118 273 C118 324.15 118 375.3 118 428 C79.06 428 40.12 428 0 428 C0 286.76 0 145.52 0 0 Z M118 88 C117.97687846 100.36918715 117.95908588 112.73836919 117.94818783 125.10757351 C117.94295859 130.85045062 117.9358602 136.59331301 117.92456055 142.33618164 C117.91373313 147.87339995 117.90772348 153.41060404 117.90512276 158.94783211 C117.90326824 161.06544277 117.89964714 163.18305262 117.89426994 165.30065727 C117.88706144 168.25571274 117.88600898 171.21070871 117.88647461 174.16577148 C117.88287933 175.05049637 117.87928406 175.93522125 117.87557983 176.84675598 C117.49552085 180.73531523 117.49552085 180.73531523 119 184 C121.01109465 184.1340357 123.02689928 184.19755748 125.04211426 184.23464966 C126.3567717 184.26059204 127.67142914 184.28653442 129.02592468 184.31326294 C130.49709713 184.33684102 131.96827344 184.36017879 133.43945312 184.38330078 C134.97850394 184.4108319 136.51755112 184.43856699 138.05659485 184.4664917 C152.16810741 184.71268502 166.28125022 184.85174658 180.39440155 184.96293831 C189.87776135 185.03936122 199.35850303 185.14757148 208.84033203 185.33740234 C217.11526116 185.5030538 225.38836347 185.60760977 233.66492605 185.64017475 C238.04109554 185.65935532 242.4123595 185.70720952 246.78700256 185.82797623 C267.87951736 186.9892075 267.87951736 186.9892075 286.43457127 178.55471516 C292.93578879 171.9683545 296.9462373 165.242069 297.33644104 155.87901306 C297.29889206 154.63889969 297.26134308 153.39878632 297.22265625 152.12109375 C297.23162188 150.77120215 297.24578548 149.42133654 297.26475525 148.07154846 C297.28506051 145.27079771 297.2460814 142.47941673 297.16137695 139.67993164 C297.05865397 136.13838595 297.10437841 132.61709262 297.1949091 129.07583523 C297.24958576 126.29688088 297.22574506 123.52250074 297.17999077 120.74354744 C297.16091995 118.82300284 297.20357866 116.90214737 297.24879456 114.98204041 C296.85013125 106.02825794 293.34673107 99.42447293 287.10481358 93.08476162 C275.66125756 83.66518374 258.81164362 86.00910016 244.86711311 86.37769699 C240.39792896 86.47861618 235.92852179 86.4871853 231.45837402 86.50610352 C223.01766783 86.55557806 214.58032923 86.68650507 206.14109755 86.84769535 C196.52349207 87.02735287 186.90571443 87.1147069 177.28684521 87.19482231 C157.52269313 87.36147937 137.76155976 87.64238493 118 88 Z " fill="#000000" transform="translate(1466,1246)"/>
<path d="M0 0 C9.29040827 0.42892217 18.57579536 0.50428897 27.87468632 0.56823321 C44.44021353 0.69101066 60.988135 1.07495314 77.54425475 1.63466631 C93.57569859 2.176068 109.60202725 2.58443335 125.64093444 2.82411943 C126.63745985 2.83905472 127.63398526 2.85399 128.66070841 2.86937787 C133.66262316 2.94359077 138.66456904 3.0154119 143.6665332 3.08620678 C173.99111856 3.51867159 204.30881635 4.11833864 234.62321946 5.0199431 C237.00091197 5.09029098 239.37864854 5.15894604 241.7563996 5.22728334 C245.40824412 5.3328871 249.05987581 5.44400976 252.71139927 5.56017728 C254.66922387 5.62169358 256.62717652 5.67909073 258.58512935 5.73638068 C259.73160627 5.77475696 260.87808318 5.81313324 262.05930182 5.85267244 C263.55546112 5.90007629 263.55546112 5.90007629 265.08184585 5.9484378 C267.31183288 6.14052568 267.31183288 6.14052568 268.31183288 7.14052568 C268.36142744 9.51157215 268.35313791 11.86030889 268.31183288 14.23036943 C268.24223372 20.35045743 268.40407994 26.41076427 268.77496764 32.5200728 C268.99703951 36.54931225 269.10532717 40.57848861 269.20294616 44.61244951 C269.27516573 46.66228717 269.3903497 48.71108825 269.54962584 50.7560042 C270.47923443 63.21375877 268.38922161 73.49215062 260.06880996 83.19475161 C249.88089791 94.40957975 240.15391222 97.84242997 225.10786864 98.65743338 C213.88818962 99.01688945 202.68557954 98.81097795 191.46727416 98.51245676 C185.35511197 98.36253977 179.24201674 98.35515999 173.12832305 98.33575337 C161.02981317 98.2942996 148.9348251 98.1522336 136.83820006 97.93886553 C125.12556332 97.73260046 113.41332137 97.55463607 101.69952819 97.42812334 C100.97555586 97.42028175 100.25158354 97.41244015 99.50567266 97.40436094 C91.59647358 97.31979222 83.68723014 97.24652224 75.77780578 97.18663011 C75.08244141 97.18134286 74.38707705 97.1760556 73.67064103 97.17060812 C70.89086425 97.14962391 68.11108772 97.12876162 65.33129951 97.10934119 C56.55654021 97.04773395 47.78480833 96.93491047 39.01143119 96.76710688 C33.99194699 96.67729864 28.97242174 96.61925503 23.95240828 96.56830393 C21.6269802 96.53740609 19.30168942 96.49249642 16.97682998 96.43250452 C13.80096264 96.35207526 10.6282229 96.32123815 7.45148131 96.30202471 C6.53398164 96.26624205 5.61648196 96.23045939 4.67117926 96.19359241 C-0.69964006 96.2224545 -3.34871394 97.21429692 -7.25966504 100.98542486 C-10.48499532 104.49806104 -11.68778505 106.86740948 -11.67571595 111.75258623 C-11.69125016 112.9971509 -11.70678437 114.24171556 -11.72278932 115.52399431 C-11.69851855 116.85844094 -11.67261591 118.19285875 -11.64519837 119.52724443 C-11.64296473 120.91630626 -11.64355791 122.30537522 -11.64683107 123.69443499 C-11.64509579 126.59239722 -11.61619813 129.48836185 -11.56634095 132.38588701 C-11.50379414 136.09196433 -11.49909485 139.79533537 -11.51332143 143.50182615 C-11.51974278 146.36485889 -11.50095491 149.22728413 -11.47406152 152.09018122 C-11.46321984 153.45643583 -11.45889703 154.82275891 -11.4613395 156.18905436 C-11.4599065 158.09843167 -11.42207305 160.0076759 -11.3827472 161.91664873 C-11.36320733 163.54258203 -11.36320733 163.54258203 -11.34327272 165.20136248 C-10.43507762 169.27602408 -8.98808394 170.59807459 -5.68816712 173.14052568 C-2.62032314 173.77658748 0.33699775 173.60110346 3.45346496 173.43657671 C4.37730448 173.40894853 5.301144 173.38132035 6.25297865 173.35285495 C9.35343551 173.25527659 12.45142075 173.12228611 15.55060241 172.99062334 C17.77388513 172.91557144 19.9972697 172.84348647 22.2207379 172.7741469 C25.77999347 172.66237105 29.33904583 172.54813268 32.89791366 172.42456637 C41.77960205 172.11648362 50.66023483 171.89844998 59.54568908 171.73387896 C60.84021314 171.70978193 62.1347372 171.6856849 63.46848926 171.66085766 C68.13590601 171.57536267 72.80335387 171.49170835 77.47082818 171.4094242 C82.2683301 171.32466682 87.06575337 171.23648133 91.86310241 171.14345537 C92.54670092 171.13024065 93.23029944 171.11702592 93.93461306 171.10341075 C103.53941486 170.91326983 113.13517888 170.61013408 122.73393089 170.22231671 C229.09207151 165.93610073 229.09207151 165.93610073 256.19684681 190.24487768 C277.34410852 210.36592133 284.55313009 236.02439049 285.38274953 264.57308231 C285.54822142 274.53890077 285.12791012 284.47621231 284.62501654 294.42687367 C284.34017879 300.36997195 284.26190072 306.29078782 284.30109069 312.24013506 C284.69514486 374.63940588 284.69514486 374.63940588 268.96759459 391.21404253 C264.22749971 395.71692968 259.13637292 399.58265627 253.60040709 403.05025469 C248.30084432 406.41874256 243.82388491 410.32606325 239.81183288 415.14052568 C237.27086501 418.18968713 234.60369104 420.59225904 231.55438128 423.11155026 C229.26526845 425.08185365 229.26526845 425.08185365 227.43456128 427.43133382 C224.36339212 431.09597883 221.89297409 433.72266198 217.18499598 434.96688555 C213.40860477 435.27345499 209.68686814 435.29903211 205.90422484 435.22281633 C204.448637 435.22674578 202.99305541 435.23463481 201.53750756 435.24611883 C197.55506517 435.26617046 193.57481595 435.23035363 189.59265289 435.18511628 C185.29216041 435.1461514 180.99178578 435.15940931 176.69116637 435.16623674 C169.24597865 435.17094982 161.80150225 435.14277807 154.35649344 435.09209619 C143.59246657 435.01886791 132.82878271 434.99550468 122.06453375 434.98420427 C104.59932728 434.96451974 87.1344997 434.90466136 69.66949889 434.81948076 C52.70662751 434.73683533 35.74385915 434.67314639 18.78082702 434.63491045 C17.73475608 434.63254594 16.68868514 434.63018143 15.61091509 434.62774526 C10.36294243 434.6159997 5.11496905 434.60462638 -0.13300481 434.59343813 C-43.65165466 434.50017858 -87.16989131 434.34169626 -130.68816712 434.14052568 C-131.06209653 426.44821072 -131.3447297 418.75685509 -131.51716188 411.05747114 C-131.60002614 407.47971739 -131.71189918 403.9082571 -131.89519837 400.3341292 C-133.13829084 375.41811157 -133.13829084 375.41811157 -127.54754212 368.32070147 C-124.28955402 364.99303715 -120.63375231 362.38017683 -116.79696444 359.76238833 C-114.61265508 358.08244985 -113.07597164 356.36918021 -111.38028863 354.20468698 C-106.85364932 348.47027666 -102.8826047 344.195421 -95.44021562 342.91460787 C-88.95967625 342.26035286 -82.50307892 342.4317619 -76.00115541 342.58632647 C-73.51950158 342.59351996 -71.03782276 342.59441159 -68.55616334 342.58951555 C-63.23548749 342.59221613 -57.91774414 342.6368563 -52.59789994 342.71963106 C-44.89825547 342.83864835 -37.20002572 342.87151091 -29.4995556 342.88271865 C-16.99189903 342.90248052 -4.4853017 342.97866266 8.02179381 343.09658037 C8.76840384 343.10360526 9.51501388 343.11063015 10.28424846 343.11786792 C11.79536886 343.1321055 13.30648924 343.14634631 14.81760959 343.16059033 C15.56684402 343.16764514 16.31607845 343.17469996 17.08801696 343.18196855 C17.8379293 343.1890394 18.58784164 343.19611025 19.3604786 343.20339536 C27.70160202 343.28114671 36.04281657 343.34422615 44.3840985 343.40224443 C45.13160703 343.40745879 45.87911555 343.41267315 46.64927585 343.41804552 C59.1204943 343.5038027 71.59171468 343.55734208 84.06317195 343.5928819 C91.74364749 343.616719 99.42269413 343.67242235 107.10259657 343.76981309 C112.98282635 343.84278223 118.8628481 343.87630643 124.74351355 343.89568125 C127.15268087 343.91061735 129.56180831 343.93941854 131.97062537 343.98312937 C135.26111117 344.04109717 138.54823408 344.04964376 141.83914611 344.04631792 C143.26648237 344.08976011 143.26648237 344.08976011 144.72265372 344.13407992 C150.17413023 344.06795745 152.92720422 343.12642835 156.90414569 339.29616629 C160.17241504 335.72760104 161.31122403 333.29502896 161.2993817 328.34487139 C161.32268302 326.41796213 161.32268302 326.41796213 161.34645507 324.45212542 C161.32218428 323.07349029 161.29628164 321.69488307 161.26886413 320.31630693 C161.26663069 318.88240456 161.26722336 317.44849528 161.27049682 316.0145949 C161.26876116 313.02250164 161.23985181 310.03234231 161.1900067 307.04067217 C161.12746604 303.21355063 161.12275962 299.3890499 161.13698718 295.56152807 C161.1434076 292.60585675 161.12462293 289.65077407 161.09772727 286.69523416 C161.08688285 285.28432103 161.0825634 283.87334155 161.08500525 282.46238886 C161.08357277 280.49075117 161.04574648 278.51924221 161.00641295 276.54799639 C160.99338637 275.42851107 160.98035979 274.30902574 160.96693847 273.15561663 C160.06725575 269.01487162 158.66384934 267.72324475 155.31183288 265.14052568 C152.15983197 264.41777817 149.08303103 264.47981917 145.860661 264.52820574 C144.90436545 264.52267232 143.94806991 264.51713891 142.9627957 264.51143782 C139.75578791 264.49884941 136.55002042 264.52185733 133.34308288 264.54457842 C131.04506568 264.54267487 128.74704941 264.53852028 126.44903991 264.53227983 C121.49928811 264.52348167 116.5498866 264.53025929 111.60016295 264.54894052 C103.7767473 264.57798603 95.95363475 264.5702525 88.13019225 264.55704485 C77.16466174 264.54212026 66.19923948 264.54174855 55.23370788 264.55580889 C54.53804308 264.55669502 53.84237828 264.55758116 53.12563273 264.55849414 C50.306856 264.56212818 47.4880794 264.56584557 44.66930291 264.5696607 C36.90952306 264.5801241 29.14974204 264.58836895 21.38995788 264.59487139 C20.69514154 264.59545962 20.00032521 264.59604786 19.28445384 264.59665392 C7.70049018 264.60593235 -3.88340945 264.59933045 -15.46736482 264.58256094 C-23.24777947 264.57259048 -31.02783278 264.58277608 -38.80820802 264.60846876 C-43.64422799 264.62061899 -48.48013446 264.61644698 -53.31615785 264.60789095 C-55.56197615 264.60735476 -57.80780808 264.61372247 -60.05358461 264.62743174 C-63.11505126 264.6452159 -66.17552585 264.63858244 -69.23699525 264.62586199 C-70.12950235 264.637033 -71.02200944 264.64820402 -71.94156221 264.65971355 C-76.06207948 264.61778536 -78.1367524 264.49478793 -81.68120912 262.21761404 C-83.43423291 260.40333328 -85.10441739 258.60299818 -86.68816712 256.64052568 C-89.78297748 253.03498527 -93.09478466 249.70964839 -96.56463197 246.46865068 C-97.13060783 245.93793962 -97.69658368 245.40722856 -98.27971032 244.86043535 C-101.65439196 241.77272078 -105.06337326 239.13334097 -108.93329766 236.7010573 C-120.68907802 229.22644366 -129.40254494 219.97265828 -132.52398255 206.07265459 C-135.91809957 187.10305919 -135.94682176 167.82586014 -135.96886423 148.61520849 C-135.99725278 142.83929917 -136.25295534 137.10403462 -136.62224916 131.340721 C-136.71717464 129.69391918 -136.81143168 128.04707869 -136.90500978 126.40019976 C-137.03655713 124.09213659 -137.17740371 121.78944153 -137.37346414 119.48593508 C-137.85971903 113.72449855 -137.77060702 108.09670923 -137.39910462 102.32802568 C-137.31589668 101.01773032 -137.23268873 99.70743495 -137.14695933 98.35743366 C-135.0651109 70.61819983 -125.32060294 53.08444938 -105.76140931 33.67861162 C-105.1246261 33.03479963 -104.48784288 32.39098763 -103.83176321 31.72766618 C-72.71293127 0.38890627 -42.42171033 -2.01344344 0 0 Z " fill="#000000" transform="translate(130.68816712498665,1239.8594743162394)"/>
<path d="M0 0 C1.19231869 -0.00796419 2.38463738 -0.01592839 3.61308694 -0.02413392 C4.92435799 -0.01248255 6.23562905 -0.00083119 7.58663559 0.01117325 C8.99252309 0.00942934 10.39840933 0.00592774 11.80428863 0.00081658 C15.67195229 -0.00814283 19.5391743 0.00789313 23.40678167 0.02792883 C27.5758028 0.04517571 31.7447983 0.03935909 35.91384506 0.03631973 C43.1384358 0.03422062 50.36288223 0.04678845 57.58743668 0.06927109 C68.03295153 0.10175614 78.47839647 0.11219452 88.92395636 0.11722305 C105.87045461 0.1259812 122.81687591 0.15261086 139.76333237 0.1904335 C156.22687011 0.22714015 172.69038697 0.2554585 189.15395737 0.27246475 C190.67574877 0.27404109 190.67574877 0.27404109 192.22828344 0.27564928 C197.31778499 0.28086937 202.4072867 0.28592421 207.4967885 0.29089689 C249.73054653 0.3323751 291.96422064 0.40283766 334.19790268 0.49219131 C334.57189299 8.68987235 334.85446382 16.88388624 335.02689743 25.0880394 C335.10975162 28.89985157 335.22162994 32.70575524 335.40493393 36.51416397 C336.65301338 63.1327892 336.65301338 63.1327892 330.74087143 70.94531631 C327.51068809 74.43592542 323.96900653 77.30456623 320.08657455 80.03686905 C318.1803792 81.50569409 316.79846146 83.00409327 315.30727768 84.88476944 C314.61118393 85.74521866 313.91509018 86.60566788 313.19790268 87.49219131 C312.53790268 87.49219131 311.87790268 87.49219131 311.19790268 87.49219131 C311.19790268 88.15219131 311.19790268 88.81219131 311.19790268 89.49219131 C308.91343325 90.63442603 307.66712852 90.6151862 305.12948704 90.61130333 C304.27290652 90.61246088 303.416326 90.61361843 302.5337885 90.61481106 C301.58721574 90.61101433 300.64064298 90.6072176 299.6653862 90.60330582 C298.66406243 90.60330483 297.66273866 90.60330385 296.63107175 90.60330284 C293.25399612 90.60226438 289.87697089 90.59423535 286.49990463 90.5864296 C284.0873531 90.5845516 281.67480111 90.58320603 279.26224899 90.5823555 C274.73117028 90.58036421 270.20009855 90.57697508 265.66902264 90.5715379 C256.76230358 90.56109042 247.85564269 90.56532185 238.94892502 90.57516861 C237.54723607 90.57665622 236.14554711 90.57814207 234.74385816 90.5796262 C231.90568471 90.5826771 229.06751136 90.58580868 226.22933805 90.5889852 C218.92922822 90.59710767 211.62911826 90.60454458 204.3290062 90.61035538 C203.59628214 90.61094432 202.86355808 90.61153326 202.10863026 90.61214004 C190.24090111 90.62100116 178.37328197 90.60810793 166.50557087 90.58806266 C154.32273197 90.56807716 142.14010612 90.57471704 129.95728844 90.60520923 C122.44235108 90.62311342 114.92803168 90.61979558 107.41313251 90.58922498 C101.65116199 90.56793282 95.88974007 90.58331065 90.12782478 90.61232948 C87.76514164 90.61842994 85.40239274 90.61255145 83.03977585 90.59383583 C79.81392604 90.57004635 76.59107162 90.58925839 73.36533737 90.61917496 C72.42991822 90.6019939 71.49449907 90.58481283 70.53073388 90.56711113 C65.51897299 90.6639556 62.79637698 91.31730411 59.11715221 94.84439087 C56.1147054 98.15629887 55.32197523 100.53546263 55.32387924 105.08252335 C55.3082695 106.3471843 55.29265976 107.61184525 55.276577 108.91482925 C55.29574162 110.27657583 55.31642841 111.63830171 55.33852768 113.00000381 C55.33889191 114.41291815 55.33687887 115.8258349 55.33260727 117.23874283 C55.33131708 120.1895448 55.35415057 123.13884931 55.3951683 126.08935928 C55.44633942 129.8637895 55.44401902 133.63587536 55.42456055 137.41052818 C55.41424706 140.32413353 55.42870446 143.23720332 55.45094681 146.15072632 C55.45928532 147.54211292 55.46081577 148.93355817 55.45529556 150.3249588 C55.45200063 152.27030246 55.48485216 154.21560501 55.51919174 156.16064835 C55.52920212 157.26538498 55.53921249 158.37012161 55.54952621 159.50833511 C56.44305514 163.62039339 57.8702982 164.9318306 61.19790268 167.49219131 C64.26582601 168.12798481 67.22303352 167.95277089 70.33953476 167.78824234 C71.26337428 167.76061416 72.1872138 167.73298598 73.13904846 167.70452058 C76.23950531 167.60694223 79.33749056 167.47395174 82.43667221 167.34228897 C84.65995493 167.26723707 86.8833395 167.1951521 89.10680771 167.12581253 C92.66606327 167.01403668 96.22511563 166.89979831 99.78398347 166.776232 C108.66567186 166.46814925 117.54630463 166.25011562 126.43175888 166.08554459 C127.72628294 166.06144756 129.020807 166.03735053 130.35455906 166.01252329 C135.02197581 165.9270283 139.68942368 165.84337399 144.35689798 165.76108983 C149.15439991 165.67633245 153.95182318 165.58814696 158.74917221 165.495121 C159.43277073 165.48190628 160.11636924 165.46869155 160.82068287 165.45507638 C170.42548387 165.26493548 180.0212474 164.96180094 189.61999868 164.57398489 C295.96961032 160.28798336 295.96961032 160.28798336 322.98204947 184.72459161 C344.62663863 205.48634041 352.7259813 232.94754261 353.5435344 262.34151495 C353.68416975 270.44747411 353.46822576 278.53566003 353.20734036 286.63690317 C353.04734176 292.36356982 353.174174 298.03481239 353.45034409 303.75586319 C353.5194655 305.40154072 353.58826889 307.04723164 353.65674973 308.69293594 C353.75429442 311.00105713 353.86154444 313.30394001 354.02360344 315.60845566 C355.89409997 342.60090825 349.99018126 369.0048989 332.20015448 389.62798315 C328.72367509 393.52567301 325.07786318 397.23958319 321.38467026 400.93091202 C320.75083569 401.57531467 320.11700112 402.21971733 319.46395944 402.88364734 C295.6136189 427.00643548 273.9952275 434.98029849 240.43446803 435.33124847 C231.32994239 435.35821373 222.24875691 435.02081124 213.15545293 434.60095493 C203.52597404 434.1684468 193.90130208 434.08969045 184.2635003 434.02297316 C167.09481274 433.89532172 149.94310791 433.50703755 132.78359604 432.94311905 C116.16333999 432.39750697 99.5477736 431.9819731 82.92031479 431.73315811 C81.88738003 431.71765743 80.85444527 431.70215674 79.79020945 431.68618634 C74.60579638 431.60916245 69.42135128 431.5346101 64.23688471 431.46128404 C21.54548659 430.85431116 -21.12741071 429.81949919 -63.80209732 428.49219131 C-64.03473488 420.56420936 -64.21193492 412.63767322 -64.32021904 404.70711231 C-64.37221696 401.02364244 -64.4426151 397.3425218 -64.55649185 393.66040421 C-64.66588848 390.10049558 -64.7250841 386.54283166 -64.75086975 382.98137093 C-64.77809697 380.97507269 -64.85605332 378.96966756 -64.93506241 376.96474075 C-64.94054846 367.95383596 -64.94054846 367.95383596 -61.66943741 363.75409317 C-59.14610814 361.47890531 -56.54250005 359.49608465 -53.80209732 357.49219131 C-52.25815671 356.02132032 -50.73576595 354.52709586 -49.24740982 353.00000381 C-48.53069107 352.27555069 -47.81397232 351.55109756 -47.07553482 350.80469131 C-46.36655045 350.08281631 -45.65756607 349.36094131 -44.92709732 348.61719131 C-43.47376373 347.13827086 -42.01811722 345.66161894 -40.55990982 344.18750381 C-39.61849136 343.22868301 -39.61849136 343.22868301 -38.65805435 342.2504921 C-38.04558853 341.67025284 -37.43312271 341.09001358 -36.80209732 340.49219131 C-36.30460385 339.96822832 -35.80711039 339.44426533 -35.29454136 338.90442467 C-31.36862979 336.67998024 -27.50287329 337.09355191 -23.06703568 337.13815689 C-22.06808661 337.13629918 -21.06913754 337.13444147 -20.03991729 337.13252747 C-16.68272107 337.12992167 -13.32598563 337.14879323 -9.96884537 337.16748428 C-7.56585157 337.16996686 -5.16285607 337.17111475 -2.75986099 337.17102432 C2.42009737 337.17373321 7.59995017 337.18558129 12.77986717 337.20556641 C20.27677244 337.23438563 27.77362481 337.24566164 35.27057865 337.25247575 C47.44389655 337.2639228 59.61715397 337.28803532 71.79043198 337.3208046 C83.59836852 337.3525497 95.40630091 337.3808905 107.2142601 337.40283585 C107.9410653 337.40418942 108.6678705 337.40554299 109.4167001 337.40693758 C117.35461795 337.42158416 125.29253721 337.4348214 133.23046017 337.44637108 C133.92856375 337.44738946 134.62666733 337.44840784 135.34592557 337.44945709 C138.13710649 337.4535094 140.92828741 337.45754582 143.71946862 337.46140148 C151.88576134 337.47271644 160.05201757 337.4884092 168.21828439 337.51204731 C173.94917383 337.52851711 179.68006497 337.54028681 185.41096878 337.55041885 C187.76075757 337.55548712 190.11054332 337.56231269 192.46032143 337.57102203 C195.66752039 337.58271792 198.8746737 337.58822471 202.08189011 337.59225845 C203.01205407 337.59721765 203.94221803 337.60217685 204.90056878 337.60728633 C213.52633661 337.88340031 213.52633661 337.88340031 221.37759018 335.03906631 C221.9370433 334.44609756 222.49649643 333.85312881 223.07290268 333.24219131 C223.64782455 332.65953506 224.22274643 332.07687881 224.81509018 331.47656631 C227.49322322 327.63336974 227.33327629 323.15927936 227.39077377 318.60376358 C227.4068367 317.44228302 227.42289963 316.28080246 227.43944931 315.08412552 C227.48406796 309.80176858 227.52535542 304.51955573 227.54800034 299.23706436 C227.56135608 296.45027338 227.58925003 293.66421178 227.63003159 290.87768936 C227.68889029 286.85453399 227.70666224 282.83216096 227.72134018 278.80859756 C227.75534424 276.94274757 227.75534424 276.94274757 227.79003525 275.03920364 C227.78718521 273.87457092 227.78433517 272.7099382 227.78139877 271.51001358 C227.79352905 269.98042763 227.79352905 269.98042763 227.80590439 268.41994095 C227.00389571 264.55797712 225.16255105 262.00945192 222.19790268 259.49219131 C218.91449208 258.55056145 218.91449208 258.55056145 215.22649765 258.62230301 C214.18674544 258.59282866 214.18674544 258.59282866 213.12598813 258.56275886 C210.81597683 258.50743731 208.50853605 258.49758904 206.19790268 258.49219131 C204.57321607 258.47201682 202.94854014 258.45096553 201.32387543 258.42909813 C195.79577891 258.37245417 190.26864493 258.39102128 184.74038315 258.41040421 C182.6295593 258.41396845 180.51873459 258.41705219 178.40790939 258.41969681 C173.89609241 258.42620079 169.38429596 258.43572826 164.87248993 258.44759178 C157.7369163 258.46600656 150.60134738 258.47551432 143.46575546 258.48350906 C123.18699641 258.50757378 102.90826744 258.5436606 82.6295433 258.58813858 C71.40429724 258.61268091 60.1790626 258.63004339 48.95379364 258.63969797 C41.8603348 258.64623588 34.76697079 258.66178146 27.67354465 258.68401539 C23.26908183 258.69573828 18.8646421 258.69911228 14.46016502 258.7001133 C12.41794228 258.70226161 10.37571983 258.70785614 8.33351707 258.71714401 C5.54692882 258.72932833 2.76060209 258.7291781 -0.02600479 258.72597122 C-0.83416771 258.73247902 -1.64233063 258.73898683 -2.47498333 258.74569184 C-8.07363741 258.72060333 -12.73805737 258.23033022 -17.17709732 254.49219131 C-18.80209732 252.49219131 -18.80209732 252.49219131 -18.80209732 250.49219131 C-19.37704909 250.22038198 -19.95200087 249.94857264 -20.54437542 249.66852665 C-37.53694218 240.81493104 -58.76334978 222.42899873 -65.26794052 203.60212326 C-71.45411667 182.96565648 -70.40540659 160.10613496 -69.85307693 138.81181335 C-69.72674294 133.76908091 -69.70505609 128.7284349 -69.68893814 123.6843605 C-69.30382454 53.71156872 -69.30382454 53.71156872 -44.59335709 28.98706436 C-34.87504684 19.90478269 -24.09177666 12.21907703 -12.33316422 6.02061844 C-9.73507777 4.62830087 -9.73507777 4.62830087 -8.00653672 2.42742658 C-5.1758431 -0.05758531 -3.72878855 -0.00549159 0 0 Z " fill="#000000" transform="translate(2441.8020973205566,1257.5078086853027)"/>
<path d="M0 0 C85.078125 -2.041875 85.078125 -2.041875 171.875 -4.125 C189.65101074 -4.72586426 207.42702148 -5.32672852 225.74169922 -5.94580078 C357.04929396 -8.60920567 357.04929396 -8.60920567 389.68068922 21.91126835 C415.13866609 47.2813174 426.98281473 81.9430309 427.1389488 117.48294532 C427.10011257 124.27540818 426.80150529 131.05351125 426.4856869 137.83775818 C426.23546053 143.82135228 426.32593539 149.73339932 426.60449219 155.71435547 C428.41737914 195.90009239 421.89485356 229.91371819 394.07028055 260.53110552 C368.97937032 287.25224006 342.28727369 296.04151609 306.11382103 297.28201604 C285.20214851 297.76608379 264.34705435 296.92941389 243.4722023 295.7538321 C233.95812146 295.22392704 224.44842897 294.86885376 214.92285156 294.62548828 C214.23746119 294.60780045 213.55207081 294.59011263 212.84591103 294.5718888 C206.87609846 294.41906774 200.90603973 294.27706527 194.93593597 294.13611031 C169.59260992 293.52394881 144.33812826 292.20851519 119 291 C119 336.21 119 381.42 119 428 C79.73 428 40.46 428 0 428 C0 286.76 0 145.52 0 0 Z M119 91 C119 129.28 119 167.56 119 207 C147.57972587 207.46656733 147.57972587 207.46656733 176.16015625 207.78125 C187.8252079 207.87599758 199.48840334 207.98704297 211.15185547 208.20703125 C219.64865608 208.36721496 228.14394372 208.46989334 236.64221239 208.50541592 C241.13717678 208.52616375 245.62781576 208.57439754 250.12138367 208.69168091 C271.5520751 210.04185072 271.5520751 210.04185072 290.19127655 201.36155701 C296.80850004 194.30746955 299.06480919 189.1769628 299.38330078 179.5637207 C299.42448029 178.4480069 299.42448029 178.4480069 299.4664917 177.30975342 C299.70699772 170.42539048 299.85011117 163.53884891 299.96293831 156.65131855 C300.04009594 152.0362837 300.14921806 147.42713853 300.33740234 142.81518555 C300.51925539 138.33599501 300.61398538 133.86217724 300.65185165 129.37953758 C300.680369 127.68745599 300.73812481 125.99556275 300.82797623 124.30562782 C301.34432336 114.1327009 299.49821914 106.30323047 292.72631836 98.42871094 C283.48128474 89.25597101 272.51662859 89.07497257 260.25747585 89.02515793 C255.95697394 89.04851701 251.66061081 89.15689729 247.36186099 89.27630305 C242.83934529 89.38359772 238.31657607 89.39263944 233.79298401 89.41273499 C225.25295779 89.46528289 216.71669315 89.60436379 208.17831331 89.77567631 C196.62268522 90.00242285 185.06600613 90.09322261 173.50870991 90.19221401 C155.33632992 90.35140179 137.17188224 90.69021749 119 91 Z " fill="#000000" transform="translate(484,1246)"/>
<path d="M0 0 C130.02 0 260.04 0 394 0 C394 93 394 93 393 99 C347.79 99.33 302.58 99.66 256 100 C256 208.24 256 316.48 256 428 C216.73 428 177.46 428 137 428 C137 319.76 137 211.52 137 100 C93.44 100 49.88 100 5 100 C3.35 99.67 1.7 99.34 0 99 C0 66.33 0 33.66 0 0 Z " fill="#000000" transform="translate(1920,1246)"/>
</svg>
