<svg width="752" height="752" version="1.1" xmlns="http://www.w3.org/2000/svg" desc="Created with imagetracer.js version 1.2.6" ><path fill="rgb(255,117,53)" stroke="rgb(255,117,53)" stroke-width="1" opacity="1" d="M 40.5 345 L 52.5 345 L 58.5 347 Q 66.25 350.25 71 356.5 L 75 362.5 L 77 368.5 L 78 377.5 L 77 378.5 L 77 383.5 L 75 389.5 L 72 394.5 L 65.5 401 L 56.5 406 Q 53.25 405.25 52.5 407 L 39.5 407 L 28.5 402 L 20 393.5 L 15 380.5 L 15 371.5 L 20 358.5 L 28.5 350 L 40.5 345 Z M 46 350 L 45 351 L 40 351 L 37 352 L 32 355 L 25 362 L 21 371 L 21 382 L 25 391 L 33 398 L 45 402 L 54 401 L 62 397 L 69 389 L 72 380 L 72 373 Q 70 372 71 369 L 67 361 L 62 355 L 54 351 L 49 351 L 46 350 Z " /><path fill="rgb(255,117,53)" stroke="rgb(255,117,53)" stroke-width="1" opacity="1" d="M 112.5 345 L 124.5 345 Q 125.25 346.75 128.5 346 L 136.5 350 L 144 357.5 L 149 367.5 Q 148 371.5 150 372.5 L 150 380.5 L 145 393.5 L 136.5 402 L 124.5 407 L 112.5 407 L 102.5 403 L 93 394.5 L 88 384.5 L 87 373.5 Q 89.25 372.25 88 367.5 L 91 360.5 L 99.5 351 L 106.5 347 L 112.5 345 Z M 118 350 Q 116 352 112 351 L 104 355 L 96 364 L 93 372 L 93 381 L 97 391 L 107 399 L 112 401 L 116 401 L 117 402 L 126 401 L 133 398 L 140 391 L 144 382 L 144 371 L 140 362 L 131 353 L 126 351 L 121 351 L 118 350 Z " /><path fill="rgb(255,117,53)" stroke="rgb(255,117,53)" stroke-width="1" opacity="1" d="M 184.5 345 L 196.5 345 L 205.5 348 L 217 358.5 L 222 370.5 L 222 381.5 L 219 390.5 L 212.5 399 L 205.5 404 L 197.5 407 L 184.5 407 L 174.5 403 L 166 395.5 L 160 383.5 L 160 368.5 L 164 359.5 L 170.5 352 L 174.5 349 L 184.5 345 Z M 190 350 L 189 351 L 182 352 L 175 356 L 169 363 L 166 369 Q 167 372 165 374 L 165 380 Q 167 380 166 384 L 170 392 L 176 397 L 184 401 Q 187 400 189 402 L 193 402 L 194 401 L 201 400 L 209 395 L 213 390 L 216 383 L 216 371 Q 214 370 215 367 L 212 362 L 205 354 L 198 351 L 190 350 Z " /><path fill="rgb(255,117,53)" stroke="rgb(255,117,53)" stroke-width="1" opacity="1" d="M 353.5 349 L 361.5 349 Q 362.25 350.75 365.5 350 L 368.5 351 L 374 355.5 Q 371.75 356.75 373 361.5 L 374 364 L 372.5 364 Q 369.67 359.83 364.5 358 L 361.5 357 L 352.5 357 Q 345.08 359.58 341 365.5 L 338 373.5 L 338 378.5 L 341 386.5 L 347.5 393 L 352.5 395 L 356.5 395 L 357.5 396 Q 358.5 394 362.5 395 L 368.5 392 L 372.5 388 Q 375.25 389.25 373 390.5 Q 371.75 395.25 374 396.5 L 370.5 400 L 362.5 403 L 352.5 403 L 342.5 399 L 334 390.5 L 330 379.5 L 330 372.5 L 333 363.5 L 341.5 354 L 346.5 351 L 352.5 350 L 353.5 349 Z " /><path fill="rgb(255,117,53)" stroke="rgb(255,117,53)" stroke-width="1" opacity="1" d="M 526.5 349 L 534.5 349 L 535.5 350 L 541.5 351 Q 548.56 354.44 553 360.5 L 557 369.5 L 558 377.5 L 557 378.5 L 557 383.5 L 555 386.5 L 555 388.5 L 546.5 398 L 535.5 403 L 525.5 403 L 515.5 399 L 510 394.5 L 507 390.5 L 504 383.5 Q 504.75 380.25 503 379.5 L 503 372.5 L 507 361.5 L 514.5 354 L 519.5 351 L 525.5 350 L 526.5 349 Z M 526 357 L 520 360 L 514 366 L 511 374 L 511 379 L 514 387 L 521 393 L 530 396 L 541 393 Q 546 389 549 382 L 549 371 L 546 365 L 539 358 L 536 357 L 526 357 Z " /><path fill="rgb(255,117,53)" stroke="rgb(255,117,53)" stroke-width="1" opacity="1" d="M 657.5 349 L 665.5 349 L 666.5 350 L 672.5 351 L 676.5 353 L 685 361.5 L 689 371.5 L 689 380.5 L 685 390.5 L 679.5 397 L 670.5 402 Q 667.25 401.25 666.5 403 L 656.5 403 L 648.5 400 L 639 391.5 L 635 382.5 Q 635.83 377.67 634 375.5 Q 636.25 374.25 635 369.5 L 638 362.5 L 645.5 354 L 657.5 349 Z M 657 357 L 651 360 L 646 365 L 643 371 L 643 382 L 646 388 L 651 392 L 657 395 Q 660 394 662 396 Q 663 394 668 395 L 675 391 L 678 387 L 681 380 L 681 373 L 678 366 L 670 358 L 667 357 L 657 357 Z " /><path fill="rgb(255,117,53)" stroke="rgb(255,117,53)" stroke-width="1" opacity="1" d="M 273 350 L 280.5 350 L 281 350.5 L 281 398.5 L 280 401.5 L 275.5 406 Q 272.33 408.33 265.5 407 L 259 402.5 L 262 398.5 L 262 397 L 264.5 397 Q 266.15 399.85 270.5 400 L 273 396.5 L 273 350 Z " /><path fill="rgb(255,117,53)" stroke="rgb(255,117,53)" stroke-width="1" opacity="1" d="M 308.5 350 Q 311.12 349.17 310 352.5 L 313 357.5 L 313 359.5 L 316 364.5 L 316 366.5 L 331 399.5 L 331 402 L 323.5 402 L 322 400.5 Q 321.07 394.43 317.5 391 L 299.5 391 L 298 392.5 L 296 398.5 L 293.5 402 L 285 401.5 L 293 385.5 L 293 383.5 L 304 360.5 L 307 351.5 L 308.5 350 Z M 309 369 L 304 378 L 303 382 L 303 383 L 315 383 L 310 373 L 310 371 L 309 369 Z " /><path fill="rgb(255,117,53)" stroke="rgb(255,117,53)" stroke-width="1" opacity="1" d="M 381 350 L 389 350 L 389 372.5 L 389.5 373 L 412.5 350 L 423 350.5 L 399 374.5 L 404 379.5 L 424 401.5 L 412 402 L 412 400.5 L 389.5 376 L 389 402 L 381.5 402 L 381 401.5 L 381 350 Z " /><path fill="rgb(255,117,53)" stroke="rgb(255,117,53)" stroke-width="1" opacity="1" d="M 452.5 350 L 470 385 Q 472.67 386.12 472 383.5 L 489.5 350 L 491 352.5 L 491 356.5 L 492 357.5 L 492 361.5 L 493 362.5 L 495 376.5 L 496 377.5 L 497 385.5 L 498 386.5 L 498 391.5 L 499 392.5 L 500 400.5 L 501 401.5 L 492 402 L 491 392.5 L 490 391.5 L 490 387.5 L 489 386.5 L 489 382.5 L 486.5 375 L 481 383.5 L 472 402 L 469 400.5 L 455.5 374 L 454 377.5 L 454 381.5 L 453 382.5 L 451 396.5 Q 449.25 397.25 450 400.5 L 448.5 402 L 441 401.5 L 442 400.5 L 442 396.5 L 443 395.5 L 443 391.5 L 444 390.5 L 444 386.5 L 445 385.5 L 445 381.5 L 446 380.5 L 448 366.5 L 450 361.5 L 451 352.5 L 452.5 350 Z " /><path fill="rgb(255,117,53)" stroke="rgb(255,117,53)" stroke-width="1" opacity="1" d="M 566 350 L 585.5 350 L 590.5 352 L 595 356.5 L 597 360.5 L 597 369.5 L 596 372.5 L 589.5 379 Q 587.25 378.25 588 380.5 L 603 401.5 L 593.5 402 L 574.5 375 L 574 402 L 566.5 402 L 566 401.5 L 566 350 Z M 574 358 L 574 373 L 584 373 L 589 369 Q 590 363 588 361 L 585 358 L 574 358 Z " /><path fill="rgb(255,117,53)" stroke="rgb(255,117,53)" stroke-width="1" opacity="1" d="M 602 350 L 633.5 350 L 634 350.5 L 634 358 L 622 358 L 622 401.5 L 621.5 402 L 614 402 L 614 358.5 L 613.5 358 L 603.5 358 L 602 356.5 L 602 350 Z " /><path fill="rgb(255,117,53)" stroke="rgb(255,117,53)" stroke-width="1" opacity="1" d="M 696 350 Q 698.67 348.87 698 351.5 L 728.5 383 L 729 350 L 736.5 350 L 737 350.5 L 737 402 Q 734.13 402.5 733 399.5 L 704.5 369 L 704 402 L 696.5 402 L 696 401.5 L 696 350 Z " /><path fill="rgb(255,117,53)" stroke="rgb(255,117,53)" stroke-width="1" opacity="1" d="M 115.5 379 L 121.5 379 L 126 382.5 Q 127.67 384.33 127 388.5 L 123.5 394 Q 121.33 395.83 116.5 395 L 112 393 L 110 388.5 L 110 385.5 L 111 382.5 L 113.5 380 L 115.5 379 Z " /><path fill="rgb(255,117,53)" stroke="rgb(255,117,53)" stroke-width="1" opacity="1" d="M 175 383 L 180.5 383 L 181 384.5 L 184.5 388 L 191.5 390 L 199 387 Q 198.5 384.12 201.5 383 L 206.5 383 L 207 384.5 L 199.5 393 L 194.5 395 L 186.5 395 L 180.5 392 L 177 388.5 L 175 383 Z " /><path fill="rgb(255,117,53)" stroke="rgb(255,117,53)" stroke-width="1" opacity="1" d="M 34 384 L 57.5 384 L 59 385.5 Q 59.75 389.25 57.5 390 L 34.5 390 L 34 389.5 L 34 384 Z " /><path fill="rgb(255,254,254)" stroke="rgb(255,254,254)" stroke-width="1" opacity="1" d="M 42.5 344 L 51 344.5 L 42.5 345 L 42.5 344 Z " /><path fill="rgb(255,254,254)" stroke="rgb(255,254,254)" stroke-width="1" opacity="1" d="M 115.5 344 L 123 344.5 L 115.5 345 L 115.5 344 Z " /><path fill="rgb(255,254,254)" stroke="rgb(255,254,254)" stroke-width="1" opacity="1" d="M 187.5 344 L 195 344.5 L 187.5 345 L 187.5 344 Z " /><path fill="rgb(255,254,254)" stroke="rgb(255,254,254)" stroke-width="1" opacity="1" d="M 38.5 345 L 40 345.5 L 38.5 346 L 38.5 345 Z " /><path fill="rgb(255,254,254)" stroke="rgb(255,254,254)" stroke-width="1" opacity="1" d="M 53.5 345 L 55 345.5 L 53.5 346 L 53.5 345 Z " /><path fill="rgb(255,254,254)" stroke="rgb(255,254,254)" stroke-width="1" opacity="1" d="M 110.5 345 L 112 345.5 L 110.5 346 L 110.5 345 Z " /><path fill="rgb(255,254,254)" stroke="rgb(255,254,254)" stroke-width="1" opacity="1" d="M 125.5 345 L 128 345.5 L 125.5 346 L 125.5 345 Z " /><path fill="rgb(255,254,254)" stroke="rgb(255,254,254)" stroke-width="1" opacity="1" d="M 182.5 345 L 184 345.5 L 182.5 346 L 182.5 345 Z " /><path fill="rgb(255,254,254)" stroke="rgb(255,254,254)" stroke-width="1" opacity="1" d="M 197.5 345 L 200 345.5 L 197.5 346 L 197.5 345 Z " /><path fill="rgb(255,254,254)" stroke="rgb(255,254,254)" stroke-width="1" opacity="1" d="M 34.5 346 L 36 346.5 L 29.5 350 Q 28 349 30.5 348 L 34.5 346 Z " /><path fill="rgb(255,254,254)" stroke="rgb(255,254,254)" stroke-width="1" opacity="1" d="M 56.5 346 Q 67.44 349.06 73 357.5 L 77 364.5 L 78 372.5 L 79 373.5 L 79 378.5 L 78 379.5 L 77 387.5 L 75 391.5 L 65.5 402 L 57.5 406 L 57.5 405 Q 66.83 401.83 72 394.5 L 77 383.5 L 78 374.5 L 77 373.5 L 77 368.5 L 75 362.5 L 71 356.5 L 65.5 351 L 58.5 347 L 56.5 347 L 56.5 346 Z " /><path fill="rgb(255,254,254)" stroke="rgb(255,254,254)" stroke-width="1" opacity="1" d="M 106.5 346 L 109 346.5 L 103.5 349 Q 102 348 104.5 347 L 106.5 346 Z " /><path fill="rgb(255,254,254)" stroke="rgb(255,254,254)" stroke-width="1" opacity="1" d="M 129.5 346 L 136.5 349 L 140.5 353 L 142 353 L 142 354.5 L 146 358.5 L 149 364.5 L 150 370.5 L 151 371.5 L 151 380.5 Q 149 381.5 150 385.5 L 146 393.5 L 141.5 399 L 131.5 406 L 129.5 406 L 129.5 405 L 136.5 402 L 145 393.5 L 150 380.5 L 150 372.5 L 146 360.5 L 136.5 350 L 129.5 347 L 129.5 346 Z " /><path fill="rgb(255,254,254)" stroke="rgb(255,254,254)" stroke-width="1" opacity="1" d="M 179.5 346 L 181 346.5 L 179.5 347 L 179.5 346 Z " /><path fill="rgb(255,254,254)" stroke="rgb(255,254,254)" stroke-width="1" opacity="1" d="M 201.5 346 L 205.5 347 L 216 355.5 L 220 361.5 L 221 365.5 L 220 365.5 L 217 358.5 L 208.5 350 L 201.5 347 L 201.5 346 Z " /><path fill="rgb(255,254,254)" stroke="rgb(255,254,254)" stroke-width="1" opacity="1" d="M 176.5 347 L 178 347.5 L 175.5 349 Q 174 348 176.5 347 Z " /><path fill="rgb(255,254,254)" stroke="rgb(255,254,254)" stroke-width="1" opacity="1" d="M 101.5 349 Q 103 350 100.5 351 L 93.5 357 L 93 356.5 L 99.5 350 L 101.5 349 Z " /><path fill="rgb(255,254,254)" stroke="rgb(255,254,254)" stroke-width="1" opacity="1" d="M 173.5 349 L 174 349.5 L 171.5 352 L 171 351.5 L 173.5 349 Z " /><path fill="rgb(255,254,254)" stroke="rgb(255,254,254)" stroke-width="1" opacity="1" d="M 273.5 349 L 281.5 349 L 282 350.5 Q 284 351.5 282 352.5 L 282 392.5 L 283 393.5 L 282 394.5 L 281 401.5 Q 278.5 402.5 279 405 L 274.5 407 L 274.5 406 L 280 401.5 L 281 398.5 L 281 350 L 273.5 350 L 273.5 349 Z " /><path fill="rgb(255,254,254)" stroke="rgb(255,254,254)" stroke-width="1" opacity="1" d="M 308.5 349 L 311 350.5 L 320 371.5 L 320 373.5 L 323 378.5 L 323 380.5 L 326 385.5 L 326 387.5 L 330 394.5 L 330 396.5 L 333 403 L 322.5 403 L 322 401.5 L 323.5 402 L 330.5 402 Q 331.25 402.25 331 399.5 L 328 394.5 L 328 392.5 L 325 387.5 L 325 385.5 L 310 352.5 L 310 350 L 307.5 351 Q 306 350 308.5 349 Z " /><path fill="rgb(255,254,254)" stroke="rgb(255,254,254)" stroke-width="1" opacity="1" d="M 349.5 349 L 353 349.5 L 347.5 351 L 347.5 350 L 349.5 349 Z " /><path fill="rgb(255,254,254)" stroke="rgb(255,254,254)" stroke-width="1" opacity="1" d="M 362.5 349 L 368.5 350 L 375 355.5 L 375 364.5 Q 375.25 365.25 372.5 365 L 368 360.5 L 368.5 360 L 372.5 364 L 374 364 L 373 361.5 L 373 356.5 L 374 355.5 L 371.5 353 Q 368.54 349.96 362.5 350 L 362.5 349 Z " /><path fill="rgb(255,254,254)" stroke="rgb(255,254,254)" stroke-width="1" opacity="1" d="M 380 349 L 390 349 L 390 370.5 L 390.5 371 L 412.5 349 L 423.5 349 L 424 350.5 L 400 374.5 L 407 381.5 L 425 401.5 L 425 403 L 412 402.5 L 424 401.5 L 399 374.5 L 423 350.5 L 422.5 350 L 412.5 350 L 389.5 373 L 389 350 L 381.5 350 L 381 350.5 L 381 402 L 388.5 402 L 389 401.5 L 389 376.5 L 389.5 376 L 396 382.5 L 395.5 383 L 390.5 378 L 390 378.5 L 390 403 L 380 403 L 380 349 Z " /><path fill="rgb(255,254,254)" stroke="rgb(255,254,254)" stroke-width="1" opacity="1" d="M 451 349 L 454 349 L 454 350.5 L 468 378.5 L 470 380.5 L 470 383 Q 472.67 384.13 472 381.5 L 483.5 360 L 483 361.5 L 472 385 Q 469.33 386.12 470 383.5 L 452.5 350 L 451.5 352 L 451 349 Z " /><path fill="rgb(255,254,254)" stroke="rgb(255,254,254)" stroke-width="1" opacity="1" d="M 488 349 Q 492.13 347.33 491 351.5 L 492 352.5 L 492 356.5 L 493 357.5 L 493 361.5 L 495 366.5 L 496 376.5 L 497 377.5 L 498 385.5 L 499 386.5 L 499 391.5 L 500 392.5 L 500 395.5 L 501 396.5 L 502 403 L 492 402.5 L 501 401.5 L 500 400.5 L 500 396.5 L 498 391.5 L 498 386.5 L 497 385.5 L 497 381.5 L 495 376.5 L 495 372.5 L 494 371.5 L 494 367.5 L 493 366.5 L 491 352.5 L 489.5 350 L 487.5 353 L 487 351.5 L 488 349 Z " /><path fill="rgb(255,254,254)" stroke="rgb(255,254,254)" stroke-width="1" opacity="1" d="M 522.5 349 L 526 349.5 L 518.5 352 Q 517 351 519.5 350 L 522.5 349 Z " /><path fill="rgb(255,254,254)" stroke="rgb(255,254,254)" stroke-width="1" opacity="1" d="M 535.5 349 L 538.5 349 L 543.5 351 L 554 360.5 L 558 368.5 L 558 373.5 L 557 373.5 Q 555.72 359.78 546.5 354 Q 542.74 350.26 535.5 350 L 535.5 349 Z " /><path fill="rgb(255,254,254)" stroke="rgb(255,254,254)" stroke-width="1" opacity="1" d="M 565 349 L 585.5 349 L 590 351.5 L 588.5 351 L 585.5 350 L 566 350 L 566 401.5 L 566.5 402 L 574 402 L 574.5 375 Q 577.25 376.25 575 377.5 L 575 403 L 565 403 L 565 349 Z " /><path fill="rgb(255,254,254)" stroke="rgb(255,254,254)" stroke-width="1" opacity="1" d="M 601 349 L 634.5 349 L 635 349.5 L 635 357.5 L 634 357.5 L 634 350.5 L 633.5 350 L 602 350 L 602 356.5 L 603 357.5 L 601 358 L 601 349 Z " /><path fill="rgb(255,254,254)" stroke="rgb(255,254,254)" stroke-width="1" opacity="1" d="M 653.5 349 L 657 349.5 L 653.5 350 L 646.5 354 Q 645 353 647.5 352 L 653.5 349 Z " /><path fill="rgb(255,254,254)" stroke="rgb(255,254,254)" stroke-width="1" opacity="1" d="M 666.5 349 Q 678.4 350.6 684 358.5 L 689 367.5 Q 688.25 370.75 690 371.5 L 690 380.5 L 687 389.5 L 679.5 398 L 670.5 403 L 667.5 403 L 667.5 402 L 670.5 402 L 676.5 399 L 683 393.5 L 688 384.5 Q 687.25 381.25 689 380.5 L 689 371.5 L 685 361.5 L 676.5 353 L 669.5 350 L 666.5 350 L 666.5 349 Z " /><path fill="rgb(255,254,254)" stroke="rgb(255,254,254)" stroke-width="1" opacity="1" d="M 695 349 L 697.5 349 L 702 353.5 L 724.5 378 Q 726.75 377.25 726 379.5 Q 727 382 728 380.5 L 728 349.5 L 728.5 349 L 738 349 L 738 402.5 Q 738.25 403.25 735.5 403 L 735.5 402 L 737 401.5 L 737 350 L 729.5 350 L 729 350.5 L 729 382.5 L 728.5 383 L 717 371.5 L 698 351.5 L 698 350 L 696 350.5 L 696 402 L 703.5 402 L 704 401.5 L 704 369.5 L 704.5 369 L 711 375.5 L 710.5 376 L 705.5 371 L 705 371.5 L 705 402.5 L 704.5 403 L 695 403 L 695 349 Z " /><path fill="rgb(255,254,254)" stroke="rgb(255,254,254)" stroke-width="1" opacity="1" d="M 27.5 350 L 28 350.5 L 20.5 358 L 20 357.5 L 27.5 350 Z " /><path fill="rgb(255,254,254)" stroke="rgb(255,254,254)" stroke-width="1" opacity="1" d="M 45.5 350 L 48 350.5 L 45.5 351 L 45.5 350 Z " /><path fill="rgb(255,254,254)" stroke="rgb(255,254,254)" stroke-width="1" opacity="1" d="M 117.5 350 L 120 350.5 L 117.5 351 L 117.5 350 Z " /><path fill="rgb(255,254,254)" stroke="rgb(255,254,254)" stroke-width="1" opacity="1" d="M 189.5 350 L 193 350.5 L 189.5 351 L 189.5 350 Z " /><path fill="rgb(255,254,254)" stroke="rgb(255,254,254)" stroke-width="1" opacity="1" d="M 39.5 351 L 42 351.5 Q 31.93 353.43 27 360.5 L 22 370.5 L 22 381.5 L 24 387.5 L 31.5 396 L 36.5 399 L 42 400.5 L 39.5 401 L 32.5 398 L 25 390.5 L 21 381.5 L 21 370.5 L 25 361.5 L 31.5 355 L 39.5 351 Z " /><path fill="rgb(255,254,254)" stroke="rgb(255,254,254)" stroke-width="1" opacity="1" d="M 51.5 351 L 56 352.5 L 54.5 353 L 51.5 352 L 51.5 351 Z " /><path fill="rgb(255,254,254)" stroke="rgb(255,254,254)" stroke-width="1" opacity="1" d="M 111.5 351 L 115 351.5 L 109.5 353 L 109.5 352 L 111.5 351 Z " /><path fill="rgb(255,254,254)" stroke="rgb(255,254,254)" stroke-width="1" opacity="1" d="M 123.5 351 L 128.5 352 L 132 354.5 L 130.5 354 L 123.5 352 L 123.5 351 Z " /><path fill="rgb(255,254,254)" stroke="rgb(255,254,254)" stroke-width="1" opacity="1" d="M 184.5 351 L 187 351.5 L 184.5 352 L 184.5 351 Z " /><path fill="rgb(255,254,254)" stroke="rgb(255,254,254)" stroke-width="1" opacity="1" d="M 195.5 351 L 198 351.5 L 195.5 352 L 195.5 351 Z " /><path fill="rgb(255,254,254)" stroke="rgb(255,254,254)" stroke-width="1" opacity="1" d="M 345.5 351 L 345.5 352 L 345.5 351 Z " /><path fill="rgb(255,254,254)" stroke="rgb(255,254,254)" stroke-width="1" opacity="1" d="M 169.5 352 L 170 352.5 L 166.5 356 L 166 355.5 L 169.5 352 Z " /><path fill="rgb(255,254,254)" stroke="rgb(255,254,254)" stroke-width="1" opacity="1" d="M 181.5 352 L 183 352.5 L 181.5 353 L 181.5 352 Z " /><path fill="rgb(255,254,254)" stroke="rgb(255,254,254)" stroke-width="1" opacity="1" d="M 199.5 352 L 201 352.5 L 199.5 353 L 199.5 352 Z " /><path fill="rgb(255,254,254)" stroke="rgb(255,254,254)" stroke-width="1" opacity="1" d="M 306.5 352 L 307 353.5 L 305.5 356 L 305 354.5 L 306.5 352 Z " /><path fill="rgb(255,254,254)" stroke="rgb(255,254,254)" stroke-width="1" opacity="1" d="M 343.5 352 Q 345 353 342.5 354 L 335 360.5 L 333.5 363 L 334 361.5 L 341.5 353 L 343.5 352 Z " /><path fill="rgb(255,254,254)" stroke="rgb(255,254,254)" stroke-width="1" opacity="1" d="M 516.5 352 Q 518 353 515.5 354 L 507.5 361 L 507 360.5 L 514.5 353 L 516.5 352 Z " /><path fill="rgb(255,254,254)" stroke="rgb(255,254,254)" stroke-width="1" opacity="1" d="M 591.5 352 L 596 356.5 L 599 365.5 L 598 366.5 L 597 372.5 L 592.5 378 L 589 380.5 L 603 399.5 L 604 403 L 593.5 403 L 591 400.5 L 587 394.5 L 587.5 394 L 590 396.5 L 593.5 402 L 603 401.5 L 589 382.5 L 588 379 L 589.5 379 L 596 372.5 L 597 369.5 L 597 360.5 Q 595.17 355.33 591 352.5 L 591.5 352 Z " /><path fill="rgb(255,254,254)" stroke="rgb(255,254,254)" stroke-width="1" opacity="1" d="M 57.5 353 L 57.5 354 L 57.5 353 Z " /><path fill="rgb(255,254,254)" stroke="rgb(255,254,254)" stroke-width="1" opacity="1" d="M 106.5 353 L 108 353.5 Q 102.36 355.86 99 360.5 L 95 367.5 Q 95.75 370.75 94 371.5 L 94 380.5 L 97 388.5 L 103.5 396 L 108.5 399 L 114 400.5 L 111.5 401 Q 102.17 397.83 97 390.5 L 93 380.5 L 93 371.5 L 96 363.5 L 103.5 355 L 106.5 353 Z " /><path fill="rgb(255,254,254)" stroke="rgb(255,254,254)" stroke-width="1" opacity="1" d="M 179.5 353 L 179.5 354 L 179.5 353 Z " /><path fill="rgb(255,254,254)" stroke="rgb(255,254,254)" stroke-width="1" opacity="1" d="M 202.5 353 L 212 361.5 L 211.5 362 L 204.5 355 Q 200.69 354.31 202.5 353 Z " /><path fill="rgb(255,254,254)" stroke="rgb(255,254,254)" stroke-width="1" opacity="1" d="M 450.5 353 L 451 356.5 L 450 356.5 L 450.5 353 Z " /><path fill="rgb(255,254,254)" stroke="rgb(255,254,254)" stroke-width="1" opacity="1" d="M 59.5 354 L 67 360.5 L 69 363.5 L 68.5 364 L 66 361.5 L 61.5 356 Q 57.69 355.31 59.5 354 Z " /><path fill="rgb(255,254,254)" stroke="rgb(255,254,254)" stroke-width="1" opacity="1" d="M 177.5 354 L 178 354.5 L 175.5 357 L 172 359.5 L 167 369.5 L 166 378.5 L 167 379.5 L 168 386.5 L 174.5 395 L 178 397.5 L 176.5 397 L 170 391.5 L 166 383.5 Q 166.75 380.25 165 379.5 L 165 373.5 Q 167 372.5 166 368.5 L 169 362.5 L 174.5 356 L 177.5 354 Z " /><path fill="rgb(255,254,254)" stroke="rgb(255,254,254)" stroke-width="1" opacity="1" d="M 486.5 354 L 486 355.5 L 484.5 359 L 484 357.5 L 486.5 354 Z " /><path fill="rgb(255,254,254)" stroke="rgb(255,254,254)" stroke-width="1" opacity="1" d="M 644.5 354 L 645 354.5 L 640 359.5 L 638.5 362 L 639 360.5 L 644.5 354 Z " /><path fill="rgb(255,254,254)" stroke="rgb(255,254,254)" stroke-width="1" opacity="1" d="M 133.5 355 L 141 363.5 Q 140 365 139 362.5 L 133 355.5 L 133.5 355 Z " /><path fill="rgb(255,254,254)" stroke="rgb(255,254,254)" stroke-width="1" opacity="1" d="M 165.5 357 Q 167 358 164.5 359 Q 163 358 165.5 357 Z " /><path fill="rgb(255,254,254)" stroke="rgb(255,254,254)" stroke-width="1" opacity="1" d="M 304.5 357 L 304.5 358 L 304.5 357 Z " /><path fill="rgb(255,254,254)" stroke="rgb(255,254,254)" stroke-width="1" opacity="1" d="M 352.5 357 L 354 357.5 L 352.5 358 L 352.5 357 Z " /><path fill="rgb(255,254,254)" stroke="rgb(255,254,254)" stroke-width="1" opacity="1" d="M 361.5 357 L 361.5 358 L 361.5 357 Z " /><path fill="rgb(255,254,254)" stroke="rgb(255,254,254)" stroke-width="1" opacity="1" d="M 525.5 357 L 527 357.5 L 525.5 358 L 525.5 357 Z " /><path fill="rgb(255,254,254)" stroke="rgb(255,254,254)" stroke-width="1" opacity="1" d="M 534.5 357 L 536 357.5 L 534.5 358 L 534.5 357 Z " /><path fill="rgb(255,254,254)" stroke="rgb(255,254,254)" stroke-width="1" opacity="1" d="M 656.5 357 L 659 357.5 L 650.5 361 L 648 363.5 L 644 371.5 L 644 380.5 L 647 387.5 L 650.5 391 L 653 392.5 L 651.5 392 L 646 387.5 L 643 381.5 L 643 370.5 L 646 364.5 L 650.5 360 L 656.5 357 Z " /><path fill="rgb(255,254,254)" stroke="rgb(255,254,254)" stroke-width="1" opacity="1" d="M 665.5 357 L 667 357.5 L 665.5 358 L 665.5 357 Z " /><path fill="rgb(255,254,254)" stroke="rgb(255,254,254)" stroke-width="1" opacity="1" d="M 92.5 358 Q 94 359 91.5 360 Q 90 359 92.5 358 Z " /><path fill="rgb(255,254,254)" stroke="rgb(255,254,254)" stroke-width="1" opacity="1" d="M 349.5 358 L 351 358.5 L 348.5 360 Q 347 359 349.5 358 Z " /><path fill="rgb(255,254,254)" stroke="rgb(255,254,254)" stroke-width="1" opacity="1" d="M 363.5 358 L 367 359.5 L 365.5 360 L 363 358.5 L 363.5 358 Z " /><path fill="rgb(255,254,254)" stroke="rgb(255,254,254)" stroke-width="1" opacity="1" d="M 449.5 358 L 450 361.5 L 449 361.5 L 449.5 358 Z " /><path fill="rgb(255,254,254)" stroke="rgb(255,254,254)" stroke-width="1" opacity="1" d="M 522.5 358 L 524 358.5 L 521.5 360 Q 520 359 522.5 358 Z " /><path fill="rgb(255,254,254)" stroke="rgb(255,254,254)" stroke-width="1" opacity="1" d="M 537.5 358 L 540 359.5 L 538.5 359 Q 536.13 358.88 537.5 358 Z " /><path fill="rgb(255,254,254)" stroke="rgb(255,254,254)" stroke-width="1" opacity="1" d="M 574.5 358 L 575 372 L 584 372.5 L 574 373 L 574.5 358 Z " /><path fill="rgb(255,254,254)" stroke="rgb(255,254,254)" stroke-width="1" opacity="1" d="M 584.5 358 L 584.5 359 L 584.5 358 Z " /><path fill="rgb(255,254,254)" stroke="rgb(255,254,254)" stroke-width="1" opacity="1" d="M 613.5 358 L 614 402 L 621.5 402 L 622 401.5 L 622 358.5 L 623 358.5 L 623 402.5 L 622.5 403 L 613 403 L 613.5 358 Z " /><path fill="rgb(255,254,254)" stroke="rgb(255,254,254)" stroke-width="1" opacity="1" d="M 668.5 358 L 671.5 359 L 678 365.5 L 677.5 366 L 671.5 360 L 668.5 359 L 668.5 358 Z " /><path fill="rgb(255,254,254)" stroke="rgb(255,254,254)" stroke-width="1" opacity="1" d="M 19.5 359 L 19 360.5 L 17.5 364 L 17 362.5 L 19.5 359 Z " /><path fill="rgb(255,254,254)" stroke="rgb(255,254,254)" stroke-width="1" opacity="1" d="M 303.5 359 L 304 360.5 L 301.5 365 L 301 363.5 L 303.5 359 Z " /><path fill="rgb(255,254,254)" stroke="rgb(255,254,254)" stroke-width="1" opacity="1" d="M 586.5 359 Q 589 360 587.5 361 Q 585 360 586.5 359 Z " /><path fill="rgb(255,254,254)" stroke="rgb(255,254,254)" stroke-width="1" opacity="1" d="M 163.5 360 L 163 361.5 L 161.5 365 L 161 363.5 L 163.5 360 Z " /><path fill="rgb(255,254,254)" stroke="rgb(255,254,254)" stroke-width="1" opacity="1" d="M 346.5 360 L 347 360.5 L 343 364.5 L 340 369.5 L 339 377.5 L 340 378.5 Q 339.33 382.67 341 384.5 L 347.5 392 L 351 393.5 L 349.5 394 L 341 386.5 L 338 378.5 L 338 373.5 L 341 365.5 L 346.5 360 Z " /><path fill="rgb(255,254,254)" stroke="rgb(255,254,254)" stroke-width="1" opacity="1" d="M 519.5 360 L 520 360.5 L 516 364.5 L 513 369.5 L 512 378.5 L 515 386.5 L 520.5 392 L 524 393.5 L 522.5 394 L 514 386.5 L 511 378.5 L 511 373.5 L 514 365.5 L 519.5 360 Z " /><path fill="rgb(255,254,254)" stroke="rgb(255,254,254)" stroke-width="1" opacity="1" d="M 541.5 360 L 546 364.5 L 545.5 365 L 541 360.5 L 541.5 360 Z " /><path fill="rgb(255,254,254)" stroke="rgb(255,254,254)" stroke-width="1" opacity="1" d="M 90.5 361 L 90.5 362 L 90.5 361 Z " /><path fill="rgb(255,254,254)" stroke="rgb(255,254,254)" stroke-width="1" opacity="1" d="M 506.5 362 L 506 363.5 L 505.5 365 L 505 363.5 L 506.5 362 Z " /><path fill="rgb(255,254,254)" stroke="rgb(255,254,254)" stroke-width="1" opacity="1" d="M 588.5 362 L 588.5 363 L 588.5 362 Z " /><path fill="rgb(255,254,254)" stroke="rgb(255,254,254)" stroke-width="1" opacity="1" d="M 89.5 363 L 89.5 364 L 89.5 363 Z " /><path fill="rgb(255,254,254)" stroke="rgb(255,254,254)" stroke-width="1" opacity="1" d="M 212.5 363 L 215 366.5 L 215 368.5 L 214 368.5 L 214 366.5 L 212 363.5 L 212.5 363 Z " /><path fill="rgb(255,254,254)" stroke="rgb(255,254,254)" stroke-width="1" opacity="1" d="M 637.5 363 L 637 364.5 L 635.5 369 L 635 366.5 L 637.5 363 Z " /><path fill="rgb(255,254,254)" stroke="rgb(255,254,254)" stroke-width="1" opacity="1" d="M 332.5 364 L 332.5 365 L 332.5 364 Z " /><path fill="rgb(255,254,254)" stroke="rgb(255,254,254)" stroke-width="1" opacity="1" d="M 448.5 364 L 449 365.5 L 448 365.5 L 448.5 364 Z " /><path fill="rgb(255,254,254)" stroke="rgb(255,254,254)" stroke-width="1" opacity="1" d="M 16.5 365 L 17 366.5 L 16 366.5 L 16.5 365 Z " /><path fill="rgb(255,254,254)" stroke="rgb(255,254,254)" stroke-width="1" opacity="1" d="M 69.5 365 L 70 366.5 L 69 366.5 L 69.5 365 Z " /><path fill="rgb(255,254,254)" stroke="rgb(255,254,254)" stroke-width="1" opacity="1" d="M 88.5 365 L 89 366.5 L 88 366.5 L 88.5 365 Z " /><path fill="rgb(255,254,254)" stroke="rgb(255,254,254)" stroke-width="1" opacity="1" d="M 141.5 365 L 141.5 366 L 141.5 365 Z " /><path fill="rgb(255,254,254)" stroke="rgb(255,254,254)" stroke-width="1" opacity="1" d="M 160.5 366 L 161 367.5 L 160 367.5 L 160.5 366 Z " /><path fill="rgb(255,254,254)" stroke="rgb(255,254,254)" stroke-width="1" opacity="1" d="M 300.5 366 L 300.5 367 L 300.5 366 Z " /><path fill="rgb(255,254,254)" stroke="rgb(255,254,254)" stroke-width="1" opacity="1" d="M 331.5 366 L 332 367.5 L 331 367.5 L 331.5 366 Z " /><path fill="rgb(255,254,254)" stroke="rgb(255,254,254)" stroke-width="1" opacity="1" d="M 504.5 366 L 505 367.5 L 504 367.5 L 504.5 366 Z " /><path fill="rgb(255,254,254)" stroke="rgb(255,254,254)" stroke-width="1" opacity="1" d="M 546.5 366 L 548 368.5 L 547 368.5 L 546.5 366 Z " /><path fill="rgb(255,254,254)" stroke="rgb(255,254,254)" stroke-width="1" opacity="1" d="M 142.5 367 L 143 368.5 L 142 368.5 L 142.5 367 Z " /><path fill="rgb(255,254,254)" stroke="rgb(255,254,254)" stroke-width="1" opacity="1" d="M 221.5 367 L 223 370.5 L 223 381.5 L 220 390.5 L 211.5 401 L 205.5 405 L 201.5 406 L 201.5 405 L 205.5 404 L 214 397.5 L 219 390.5 L 219 388.5 L 221 385.5 Q 220.25 382.25 222 381.5 L 222 370.5 Q 220.08 369.58 221.5 367 Z " /><path fill="rgb(255,254,254)" stroke="rgb(255,254,254)" stroke-width="1" opacity="1" d="M 588.5 367 L 589 368.5 L 585.5 372 L 585 371.5 L 588.5 367 Z " /><path fill="rgb(255,254,254)" stroke="rgb(255,254,254)" stroke-width="1" opacity="1" d="M 678.5 367 L 678.5 368 L 678.5 367 Z " /><path fill="rgb(255,254,254)" stroke="rgb(255,254,254)" stroke-width="1" opacity="1" d="M 15.5 368 L 16 370.5 L 15 370.5 L 15.5 368 Z " /><path fill="rgb(255,254,254)" stroke="rgb(255,254,254)" stroke-width="1" opacity="1" d="M 70.5 368 L 71 369.5 L 70 369.5 L 70.5 368 Z " /><path fill="rgb(255,254,254)" stroke="rgb(255,254,254)" stroke-width="1" opacity="1" d="M 87.5 368 L 88 372.5 L 87 372.5 L 87.5 368 Z " /><path fill="rgb(255,254,254)" stroke="rgb(255,254,254)" stroke-width="1" opacity="1" d="M 299.5 368 L 300 369.5 L 298.5 372 L 298 370.5 L 299.5 368 Z " /><path fill="rgb(255,254,254)" stroke="rgb(255,254,254)" stroke-width="1" opacity="1" d="M 447.5 368 L 448 370.5 L 447 370.5 L 447.5 368 Z " /><path fill="rgb(255,254,254)" stroke="rgb(255,254,254)" stroke-width="1" opacity="1" d="M 308.5 369 L 310 371.5 L 309 371.5 L 308.5 369 Z " /><path fill="rgb(255,254,254)" stroke="rgb(255,254,254)" stroke-width="1" opacity="1" d="M 330.5 369 L 331 371.5 L 330 371.5 L 330.5 369 Z " /><path fill="rgb(255,254,254)" stroke="rgb(255,254,254)" stroke-width="1" opacity="1" d="M 503.5 369 L 504 371.5 L 503 371.5 L 503.5 369 Z " /><path fill="rgb(255,254,254)" stroke="rgb(255,254,254)" stroke-width="1" opacity="1" d="M 679.5 369 L 680 370.5 L 679 370.5 L 679.5 369 Z " /><path fill="rgb(255,254,254)" stroke="rgb(255,254,254)" stroke-width="1" opacity="1" d="M 143.5 370 L 144 381.5 L 143 381.5 L 143.5 370 Z " /><path fill="rgb(255,254,254)" stroke="rgb(255,254,254)" stroke-width="1" opacity="1" d="M 159.5 370 L 160 381.5 L 159 381.5 L 159.5 370 Z " /><path fill="rgb(255,254,254)" stroke="rgb(255,254,254)" stroke-width="1" opacity="1" d="M 215.5 370 L 216 372.5 L 215 372.5 L 215.5 370 Z " /><path fill="rgb(255,254,254)" stroke="rgb(255,254,254)" stroke-width="1" opacity="1" d="M 548.5 370 L 549 372.5 L 548 372.5 L 548.5 370 Z " /><path fill="rgb(255,254,254)" stroke="rgb(255,254,254)" stroke-width="1" opacity="1" d="M 307.5 371 L 308 372.5 L 302.5 383 L 303 381.5 L 307.5 371 Z " /><path fill="rgb(255,254,254)" stroke="rgb(255,254,254)" stroke-width="1" opacity="1" d="M 634.5 371 L 635 374.5 L 634 374.5 L 634.5 371 Z " /><path fill="rgb(255,254,254)" stroke="rgb(255,254,254)" stroke-width="1" opacity="1" d="M 71.5 372 L 72 379.5 L 71 379.5 L 71.5 372 Z " /><path fill="rgb(255,254,254)" stroke="rgb(255,254,254)" stroke-width="1" opacity="1" d="M 446.5 372 L 447 375.5 L 446 375.5 L 446.5 372 Z " /><path fill="rgb(255,254,254)" stroke="rgb(255,254,254)" stroke-width="1" opacity="1" d="M 680.5 372 L 681 379.5 L 680 379.5 L 680.5 372 Z " /><path fill="rgb(255,254,254)" stroke="rgb(255,254,254)" stroke-width="1" opacity="1" d="M 14.5 373 L 15 378.5 L 14 378.5 L 14.5 373 Z " /><path fill="rgb(255,254,254)" stroke="rgb(255,254,254)" stroke-width="1" opacity="1" d="M 297.5 373 L 297.5 374 L 297.5 373 Z " /><path fill="rgb(255,254,254)" stroke="rgb(255,254,254)" stroke-width="1" opacity="1" d="M 310.5 373 L 310.5 374 L 310.5 373 Z " /><path fill="rgb(255,254,254)" stroke="rgb(255,254,254)" stroke-width="1" opacity="1" d="M 455.5 374 L 458 378.5 L 456.5 378 Q 453.5 377.12 455 381.5 L 453.5 386 L 453 382.5 L 454 381.5 L 454 377.5 L 455.5 374 Z " /><path fill="rgb(255,254,254)" stroke="rgb(255,254,254)" stroke-width="1" opacity="1" d="M 502.5 374 L 503 377.5 L 502 377.5 L 502.5 374 Z " /><path fill="rgb(255,254,254)" stroke="rgb(255,254,254)" stroke-width="1" opacity="1" d="M 296.5 375 L 296.5 376 L 296.5 375 Z " /><path fill="rgb(255,254,254)" stroke="rgb(255,254,254)" stroke-width="1" opacity="1" d="M 311.5 375 L 313 378.5 L 312 378.5 L 311.5 375 Z " /><path fill="rgb(255,254,254)" stroke="rgb(255,254,254)" stroke-width="1" opacity="1" d="M 329.5 375 L 330 376.5 L 329 376.5 L 329.5 375 Z " /><path fill="rgb(255,254,254)" stroke="rgb(255,254,254)" stroke-width="1" opacity="1" d="M 486.5 375 L 486 376.5 L 473 403 L 469 403 L 469 401.5 L 470.5 402 Q 472.75 402.75 472 400.5 L 474 398.5 L 481 383.5 L 486.5 375 Z " /><path fill="rgb(255,254,254)" stroke="rgb(255,254,254)" stroke-width="1" opacity="1" d="M 295.5 377 L 296 378.5 L 294.5 381 L 294 379.5 L 295.5 377 Z " /><path fill="rgb(255,254,254)" stroke="rgb(255,254,254)" stroke-width="1" opacity="1" d="M 445.5 377 L 446 380.5 L 445 380.5 L 445.5 377 Z " /><path fill="rgb(255,254,254)" stroke="rgb(255,254,254)" stroke-width="1" opacity="1" d="M 634.5 377 L 635 380.5 L 634 380.5 L 634.5 377 Z " /><path fill="rgb(255,254,254)" stroke="rgb(255,254,254)" stroke-width="1" opacity="1" d="M 115.5 378 L 121.5 378 L 127 382.5 Q 128.67 384.33 128 388.5 L 123.5 395 Q 121.33 396.83 116.5 396 L 112 393.5 L 113.5 393 Q 115.5 396 121.5 395 L 125 392.5 L 127 388.5 L 127 384.5 L 123.5 380 Q 121 378 115.5 379 L 111.5 382 L 111 381.5 L 113.5 379 L 115.5 378 Z " /><path fill="rgb(255,254,254)" stroke="rgb(255,254,254)" stroke-width="1" opacity="1" d="M 487.5 378 L 488 380.5 L 487 380.5 L 487.5 378 Z " /><path fill="rgb(255,254,254)" stroke="rgb(255,254,254)" stroke-width="1" opacity="1" d="M 557.5 378 L 558 383.5 L 556 388.5 L 551 394.5 L 551 396 L 549.5 396 L 541.5 402 L 536.5 403 L 536.5 402 L 543.5 400 L 553 391.5 L 557 383.5 L 557.5 378 Z " /><path fill="rgb(255,254,254)" stroke="rgb(255,254,254)" stroke-width="1" opacity="1" d="M 576.5 378 Q 579 379 577.5 380 Q 575 379 576.5 378 Z " /><path fill="rgb(255,254,254)" stroke="rgb(255,254,254)" stroke-width="1" opacity="1" d="M 215.5 379 L 216 382.5 L 213 389.5 L 210.5 392 L 210 391.5 L 212 389.5 L 215.5 379 Z " /><path fill="rgb(255,254,254)" stroke="rgb(255,254,254)" stroke-width="1" opacity="1" d="M 548.5 379 L 549 381.5 L 548 381.5 L 548.5 379 Z " /><path fill="rgb(255,254,254)" stroke="rgb(255,254,254)" stroke-width="1" opacity="1" d="M 713.5 379 L 713.5 380 L 713.5 379 Z " /><path fill="rgb(255,254,254)" stroke="rgb(255,254,254)" stroke-width="1" opacity="1" d="M 87.5 380 L 88 383.5 L 87 383.5 L 87.5 380 Z " /><path fill="rgb(255,254,254)" stroke="rgb(255,254,254)" stroke-width="1" opacity="1" d="M 313.5 380 L 315 382.5 Q 314 384 313 381.5 L 313.5 380 Z " /><path fill="rgb(255,254,254)" stroke="rgb(255,254,254)" stroke-width="1" opacity="1" d="M 330.5 380 L 332 385.5 L 331 385.5 Q 329.15 383.48 330.5 380 Z " /><path fill="rgb(255,254,254)" stroke="rgb(255,254,254)" stroke-width="1" opacity="1" d="M 458.5 380 L 458.5 381 L 458.5 380 Z " /><path fill="rgb(255,254,254)" stroke="rgb(255,254,254)" stroke-width="1" opacity="1" d="M 503.5 380 L 504 382.5 L 503 382.5 L 503.5 380 Z " /><path fill="rgb(255,254,254)" stroke="rgb(255,254,254)" stroke-width="1" opacity="1" d="M 15.5 381 L 16 383.5 L 15 383.5 L 15.5 381 Z " /><path fill="rgb(255,254,254)" stroke="rgb(255,254,254)" stroke-width="1" opacity="1" d="M 578.5 381 L 585 389.5 L 584.5 390 L 582 387.5 L 578 381.5 L 578.5 381 Z " /><path fill="rgb(255,254,254)" stroke="rgb(255,254,254)" stroke-width="1" opacity="1" d="M 715.5 381 L 733 398.5 L 732.5 399 L 715 381.5 L 715.5 381 Z " /><path fill="rgb(255,254,254)" stroke="rgb(255,254,254)" stroke-width="1" opacity="1" d="M 70.5 382 L 71 384.5 L 69.5 387 L 69 385.5 L 70.5 382 Z " /><path fill="rgb(255,254,254)" stroke="rgb(255,254,254)" stroke-width="1" opacity="1" d="M 174 382 L 182 382 L 182 384.5 L 186.5 388 L 189 388.5 L 186.5 389 L 181 384.5 L 180.5 383 L 175 383 Q 175.75 388.56 180 391.5 L 179.5 392 L 176 388.5 L 174 384.5 L 174 382 Z " /><path fill="rgb(255,254,254)" stroke="rgb(255,254,254)" stroke-width="1" opacity="1" d="M 200 382 L 208 382 L 208 384.5 L 202.5 392 L 194.5 396 L 186.5 396 L 181 392.5 L 182.5 393 L 186.5 395 L 194.5 395 L 199.5 393 L 206 386.5 L 207 383 L 201.5 383 L 199.5 385 L 200 383.5 L 200 382 Z " /><path fill="rgb(255,254,254)" stroke="rgb(255,254,254)" stroke-width="1" opacity="1" d="M 293.5 382 L 293.5 383 L 293.5 382 Z " /><path fill="rgb(255,254,254)" stroke="rgb(255,254,254)" stroke-width="1" opacity="1" d="M 459.5 382 L 459.5 383 L 459.5 382 Z " /><path fill="rgb(255,254,254)" stroke="rgb(255,254,254)" stroke-width="1" opacity="1" d="M 488.5 382 L 489 385.5 L 488 385.5 L 488.5 382 Z " /><path fill="rgb(255,254,254)" stroke="rgb(255,254,254)" stroke-width="1" opacity="1" d="M 679.5 382 L 679.5 383 L 679.5 382 Z " /><path fill="rgb(255,254,254)" stroke="rgb(255,254,254)" stroke-width="1" opacity="1" d="M 110.5 383 L 111 384.5 L 110 384.5 L 110.5 383 Z " /><path fill="rgb(255,254,254)" stroke="rgb(255,254,254)" stroke-width="1" opacity="1" d="M 142.5 383 L 143 384.5 L 142 384.5 L 142.5 383 Z " /><path fill="rgb(255,254,254)" stroke="rgb(255,254,254)" stroke-width="1" opacity="1" d="M 444.5 383 L 445 385.5 L 444 385.5 L 444.5 383 Z " /><path fill="rgb(255,254,254)" stroke="rgb(255,254,254)" stroke-width="1" opacity="1" d="M 547.5 383 L 548 384.5 Q 547 387 546 385.5 L 547.5 383 Z " /><path fill="rgb(255,254,254)" stroke="rgb(255,254,254)" stroke-width="1" opacity="1" d="M 635.5 383 L 639 390.5 Q 638 392 637 389.5 L 635 385.5 L 635.5 383 Z " /><path fill="rgb(255,254,254)" stroke="rgb(255,254,254)" stroke-width="1" opacity="1" d="M 58.5 384 L 58.5 385 L 58.5 384 Z " /><path fill="rgb(255,254,254)" stroke="rgb(255,254,254)" stroke-width="1" opacity="1" d="M 160.5 384 L 161 385.5 L 160 385.5 L 160.5 384 Z " /><path fill="rgb(255,254,254)" stroke="rgb(255,254,254)" stroke-width="1" opacity="1" d="M 292.5 384 L 293 385.5 L 290.5 390 L 290 388.5 L 292.5 384 Z " /><path fill="rgb(255,254,254)" stroke="rgb(255,254,254)" stroke-width="1" opacity="1" d="M 396.5 384 L 404 391.5 L 403.5 392 L 396 384.5 L 396.5 384 Z " /><path fill="rgb(255,254,254)" stroke="rgb(255,254,254)" stroke-width="1" opacity="1" d="M 460.5 384 L 460.5 385 L 460.5 384 Z " /><path fill="rgb(255,254,254)" stroke="rgb(255,254,254)" stroke-width="1" opacity="1" d="M 504.5 384 L 505 385.5 L 504 385.5 L 504.5 384 Z " /><path fill="rgb(255,254,254)" stroke="rgb(255,254,254)" stroke-width="1" opacity="1" d="M 678.5 384 L 678.5 385 L 678.5 384 Z " /><path fill="rgb(255,254,254)" stroke="rgb(255,254,254)" stroke-width="1" opacity="1" d="M 16.5 385 L 20 392.5 Q 19 394 18 391.5 L 16 387.5 L 16.5 385 Z " /><path fill="rgb(255,254,254)" stroke="rgb(255,254,254)" stroke-width="1" opacity="1" d="M 88.5 385 L 89 386.5 L 88 386.5 L 88.5 385 Z " /><path fill="rgb(255,254,254)" stroke="rgb(255,254,254)" stroke-width="1" opacity="1" d="M 109.5 386 L 110 387.5 L 109 387.5 L 109.5 386 Z " /><path fill="rgb(255,254,254)" stroke="rgb(255,254,254)" stroke-width="1" opacity="1" d="M 141.5 386 L 141.5 387 L 141.5 386 Z " /><path fill="rgb(255,254,254)" stroke="rgb(255,254,254)" stroke-width="1" opacity="1" d="M 197.5 386 L 199 386.5 L 195.5 389 L 193.5 389 L 193.5 388 Q 197 388.5 197.5 386 Z " /><path fill="rgb(255,254,254)" stroke="rgb(255,254,254)" stroke-width="1" opacity="1" d="M 461.5 386 L 466 393.5 Q 465 395 464 392.5 L 461 386.5 L 461.5 386 Z " /><path fill="rgb(255,254,254)" stroke="rgb(255,254,254)" stroke-width="1" opacity="1" d="M 677.5 386 Q 679 387 676.5 388 Q 675 387 677.5 386 Z " /><path fill="rgb(255,254,254)" stroke="rgb(255,254,254)" stroke-width="1" opacity="1" d="M 161.5 387 L 164 391.5 Q 163 393 162 390.5 L 161.5 387 Z " /><path fill="rgb(255,254,254)" stroke="rgb(255,254,254)" stroke-width="1" opacity="1" d="M 332.5 387 L 332.5 388 L 332.5 387 Z " /><path fill="rgb(255,254,254)" stroke="rgb(255,254,254)" stroke-width="1" opacity="1" d="M 372.5 387 Q 375.25 386.75 375 387.5 L 375 396.5 L 374 399 L 371.5 400 L 371 399.5 L 374 396.5 L 373 395.5 Q 371.75 390.75 374 389.5 L 372.5 388 L 368.5 392 L 368 391.5 L 372.5 387 Z " /><path fill="rgb(255,254,254)" stroke="rgb(255,254,254)" stroke-width="1" opacity="1" d="M 452.5 387 L 453 391.5 L 452 392.5 L 452 396.5 L 451 397.5 L 451 400.5 L 450 403 L 441 402.5 L 448.5 402 L 450 400.5 L 452.5 387 Z " /><path fill="rgb(255,254,254)" stroke="rgb(255,254,254)" stroke-width="1" opacity="1" d="M 489.5 387 L 490 390.5 L 489 390.5 L 489.5 387 Z " /><path fill="rgb(255,254,254)" stroke="rgb(255,254,254)" stroke-width="1" opacity="1" d="M 505.5 387 L 507 389.5 Q 506 391 505 388.5 L 505.5 387 Z " /><path fill="rgb(255,254,254)" stroke="rgb(255,254,254)" stroke-width="1" opacity="1" d="M 545.5 387 L 546 387.5 L 540.5 393 L 537.5 394 L 537.5 393 Q 543.25 391.75 545.5 387 Z " /><path fill="rgb(255,254,254)" stroke="rgb(255,254,254)" stroke-width="1" opacity="1" d="M 68.5 388 Q 70 389 67.5 390 Q 66 389 68.5 388 Z " /><path fill="rgb(255,254,254)" stroke="rgb(255,254,254)" stroke-width="1" opacity="1" d="M 89.5 388 L 89.5 389 L 89.5 388 Z " /><path fill="rgb(255,254,254)" stroke="rgb(255,254,254)" stroke-width="1" opacity="1" d="M 140.5 388 L 140.5 389 L 140.5 388 Z " /><path fill="rgb(255,254,254)" stroke="rgb(255,254,254)" stroke-width="1" opacity="1" d="M 443.5 388 L 444 390.5 L 443 390.5 L 443.5 388 Z " /><path fill="rgb(255,254,254)" stroke="rgb(255,254,254)" stroke-width="1" opacity="1" d="M 58.5 389 L 58.5 390 L 58.5 389 Z " /><path fill="rgb(255,254,254)" stroke="rgb(255,254,254)" stroke-width="1" opacity="1" d="M 110.5 389 L 112 391.5 Q 111 393 110 390.5 L 110.5 389 Z " /><path fill="rgb(255,254,254)" stroke="rgb(255,254,254)" stroke-width="1" opacity="1" d="M 190.5 389 L 192 389.5 L 190.5 390 L 190.5 389 Z " /><path fill="rgb(255,254,254)" stroke="rgb(255,254,254)" stroke-width="1" opacity="1" d="M 333.5 389 L 333.5 390 L 333.5 389 Z " /><path fill="rgb(255,254,254)" stroke="rgb(255,254,254)" stroke-width="1" opacity="1" d="M 675.5 389 Q 677 390 674.5 391 Q 673 390 675.5 389 Z " /><path fill="rgb(255,254,254)" stroke="rgb(255,254,254)" stroke-width="1" opacity="1" d="M 90.5 390 L 90.5 391 L 90.5 390 Z " /><path fill="rgb(255,254,254)" stroke="rgb(255,254,254)" stroke-width="1" opacity="1" d="M 139.5 390 L 140 390.5 L 136.5 394 L 136 393.5 L 139.5 390 Z " /><path fill="rgb(255,254,254)" stroke="rgb(255,254,254)" stroke-width="1" opacity="1" d="M 66.5 391 L 67 391.5 L 61.5 397 Q 57.96 400.46 51.5 401 L 51.5 400 L 58.5 398 L 66.5 391 Z " /><path fill="rgb(255,254,254)" stroke="rgb(255,254,254)" stroke-width="1" opacity="1" d="M 289.5 391 L 289.5 392 L 289.5 391 Z " /><path fill="rgb(255,254,254)" stroke="rgb(255,254,254)" stroke-width="1" opacity="1" d="M 299.5 391 L 317.5 391 L 319 392.5 L 317.5 392 L 299.5 392 L 299 393.5 L 295 403 L 285 402.5 L 293.5 402 L 295 400.5 Q 295.93 394.43 299.5 391 Z " /><path fill="rgb(255,254,254)" stroke="rgb(255,254,254)" stroke-width="1" opacity="1" d="M 334.5 391 L 342 398.5 L 341.5 399 L 334 391.5 L 334.5 391 Z " /><path fill="rgb(255,254,254)" stroke="rgb(255,254,254)" stroke-width="1" opacity="1" d="M 507.5 391 L 510 393.5 L 509.5 394 L 507 391.5 L 507.5 391 Z " /><path fill="rgb(255,254,254)" stroke="rgb(255,254,254)" stroke-width="1" opacity="1" d="M 585.5 391 Q 588 392 586.5 393 Q 584 392 585.5 391 Z " /><path fill="rgb(255,254,254)" stroke="rgb(255,254,254)" stroke-width="1" opacity="1" d="M 672.5 391 Q 674 392 671.5 393 Q 670 392 672.5 391 Z " /><path fill="rgb(255,254,254)" stroke="rgb(255,254,254)" stroke-width="1" opacity="1" d="M 91.5 392 Q 94 393 92.5 394 Q 90 393 91.5 392 Z " /><path fill="rgb(255,254,254)" stroke="rgb(255,254,254)" stroke-width="1" opacity="1" d="M 366.5 392 L 366.5 393 L 366.5 392 Z " /><path fill="rgb(255,254,254)" stroke="rgb(255,254,254)" stroke-width="1" opacity="1" d="M 442.5 392 L 443 395.5 L 442 395.5 L 442.5 392 Z " /><path fill="rgb(255,254,254)" stroke="rgb(255,254,254)" stroke-width="1" opacity="1" d="M 490.5 392 L 491 394.5 L 490 394.5 L 490.5 392 Z " /><path fill="rgb(255,254,254)" stroke="rgb(255,254,254)" stroke-width="1" opacity="1" d="M 639.5 392 L 648 399.5 L 646.5 399 L 639 392.5 L 639.5 392 Z " /><path fill="rgb(255,254,254)" stroke="rgb(255,254,254)" stroke-width="1" opacity="1" d="M 164.5 393 Q 167 394 165.5 395 Q 163 394 164.5 393 Z " /><path fill="rgb(255,254,254)" stroke="rgb(255,254,254)" stroke-width="1" opacity="1" d="M 209.5 393 Q 211 394 208.5 395 Q 207 394 209.5 393 Z " /><path fill="rgb(255,254,254)" stroke="rgb(255,254,254)" stroke-width="1" opacity="1" d="M 288.5 393 L 289 394.5 L 287.5 397 L 287 395.5 L 288.5 393 Z " /><path fill="rgb(255,254,254)" stroke="rgb(255,254,254)" stroke-width="1" opacity="1" d="M 364.5 393 L 364.5 394 L 364.5 393 Z " /><path fill="rgb(255,254,254)" stroke="rgb(255,254,254)" stroke-width="1" opacity="1" d="M 404.5 393 L 412 400.5 L 411.5 401 L 404 393.5 L 404.5 393 Z " /><path fill="rgb(255,254,254)" stroke="rgb(255,254,254)" stroke-width="1" opacity="1" d="M 654.5 393 L 658 394.5 L 656.5 395 L 654 393.5 L 654.5 393 Z " /><path fill="rgb(255,254,254)" stroke="rgb(255,254,254)" stroke-width="1" opacity="1" d="M 668.5 393 L 670 393.5 L 666.5 395 L 666.5 394 L 668.5 393 Z " /><path fill="rgb(255,254,254)" stroke="rgb(255,254,254)" stroke-width="1" opacity="1" d="M 20.5 394 L 28 401.5 L 27.5 402 L 20 394.5 L 20.5 394 Z " /><path fill="rgb(255,254,254)" stroke="rgb(255,254,254)" stroke-width="1" opacity="1" d="M 319.5 394 L 321 397.5 L 320 397.5 L 319.5 394 Z " /><path fill="rgb(255,254,254)" stroke="rgb(255,254,254)" stroke-width="1" opacity="1" d="M 352.5 394 L 354 394.5 L 352.5 395 L 352.5 394 Z " /><path fill="rgb(255,254,254)" stroke="rgb(255,254,254)" stroke-width="1" opacity="1" d="M 361.5 394 L 363 394.5 L 361.5 395 L 361.5 394 Z " /><path fill="rgb(255,254,254)" stroke="rgb(255,254,254)" stroke-width="1" opacity="1" d="M 525.5 394 L 527 394.5 L 525.5 395 L 525.5 394 Z " /><path fill="rgb(255,254,254)" stroke="rgb(255,254,254)" stroke-width="1" opacity="1" d="M 534.5 394 L 536 394.5 L 534.5 395 L 534.5 394 Z " /><path fill="rgb(255,254,254)" stroke="rgb(255,254,254)" stroke-width="1" opacity="1" d="M 93.5 395 Q 98.83 402.17 108 405.5 L 106.5 406 L 99.5 402 L 93 395.5 L 93.5 395 Z " /><path fill="rgb(255,254,254)" stroke="rgb(255,254,254)" stroke-width="1" opacity="1" d="M 134.5 395 L 135 395.5 L 132.5 398 L 130.5 399 Q 129 398 131.5 397 L 134.5 395 Z " /><path fill="rgb(255,254,254)" stroke="rgb(255,254,254)" stroke-width="1" opacity="1" d="M 206.5 395 L 207 395.5 L 204.5 398 L 202.5 399 Q 201 398 203.5 397 L 206.5 395 Z " /><path fill="rgb(255,254,254)" stroke="rgb(255,254,254)" stroke-width="1" opacity="1" d="M 357.5 395 L 357.5 396 L 357.5 395 Z " /><path fill="rgb(255,254,254)" stroke="rgb(255,254,254)" stroke-width="1" opacity="1" d="M 466.5 395 L 468 397.5 Q 467 399 466 396.5 L 466.5 395 Z " /><path fill="rgb(255,254,254)" stroke="rgb(255,254,254)" stroke-width="1" opacity="1" d="M 529.5 395 L 531 395.5 L 529.5 396 L 529.5 395 Z " /><path fill="rgb(255,254,254)" stroke="rgb(255,254,254)" stroke-width="1" opacity="1" d="M 661.5 395 L 663 395.5 L 661.5 396 L 661.5 395 Z " /><path fill="rgb(255,254,254)" stroke="rgb(255,254,254)" stroke-width="1" opacity="1" d="M 166.5 396 L 171 400.5 L 170.5 401 L 166 396.5 L 166.5 396 Z " /><path fill="rgb(255,254,254)" stroke="rgb(255,254,254)" stroke-width="1" opacity="1" d="M 262.5 396 Q 266.5 395.5 267 398.5 L 266.5 399 L 264.5 397 Q 261.17 395.88 262 398.5 L 259.5 401 L 259 400.5 L 262.5 396 Z " /><path fill="rgb(255,254,254)" stroke="rgb(255,254,254)" stroke-width="1" opacity="1" d="M 272.5 396 L 272.5 397 L 272.5 396 Z " /><path fill="rgb(255,254,254)" stroke="rgb(255,254,254)" stroke-width="1" opacity="1" d="M 512.5 396 L 515 398.5 L 514.5 399 L 512 396.5 L 512.5 396 Z " /><path fill="rgb(255,254,254)" stroke="rgb(255,254,254)" stroke-width="1" opacity="1" d="M 491.5 397 L 492 400.5 L 491 400.5 L 491.5 397 Z " /><path fill="rgb(255,254,254)" stroke="rgb(255,254,254)" stroke-width="1" opacity="1" d="M 179.5 398 L 179.5 399 L 179.5 398 Z " /><path fill="rgb(255,254,254)" stroke="rgb(255,254,254)" stroke-width="1" opacity="1" d="M 271.5 398 Q 273 399 270.5 400 L 268 399.5 L 271.5 398 Z " /><path fill="rgb(255,254,254)" stroke="rgb(255,254,254)" stroke-width="1" opacity="1" d="M 286.5 398 L 286.5 399 L 286.5 398 Z " /><path fill="rgb(255,254,254)" stroke="rgb(255,254,254)" stroke-width="1" opacity="1" d="M 441.5 398 L 442 400.5 L 441 400.5 L 441.5 398 Z " /><path fill="rgb(255,254,254)" stroke="rgb(255,254,254)" stroke-width="1" opacity="1" d="M 127.5 399 L 129 399.5 L 127.5 400 L 127.5 399 Z " /><path fill="rgb(255,254,254)" stroke="rgb(255,254,254)" stroke-width="1" opacity="1" d="M 181.5 399 L 186 400.5 L 183.5 401 L 181 399.5 L 181.5 399 Z " /><path fill="rgb(255,254,254)" stroke="rgb(255,254,254)" stroke-width="1" opacity="1" d="M 199.5 399 L 201 399.5 L 199.5 400 L 199.5 399 Z " /><path fill="rgb(255,254,254)" stroke="rgb(255,254,254)" stroke-width="1" opacity="1" d="M 321.5 399 L 321.5 400 L 321.5 399 Z " /><path fill="rgb(255,254,254)" stroke="rgb(255,254,254)" stroke-width="1" opacity="1" d="M 343.5 399 L 346.5 401 L 352 402.5 L 349.5 403 L 344.5 401 Q 342 400 343.5 399 Z " /><path fill="rgb(255,254,254)" stroke="rgb(255,254,254)" stroke-width="1" opacity="1" d="M 468.5 399 L 468.5 400 L 468.5 399 Z " /><path fill="rgb(255,254,254)" stroke="rgb(255,254,254)" stroke-width="1" opacity="1" d="M 516.5 399 L 519.5 401 L 525 402.5 L 522.5 403 L 517.5 401 Q 515 400 516.5 399 Z " /><path fill="rgb(255,254,254)" stroke="rgb(255,254,254)" stroke-width="1" opacity="1" d="M 123.5 400 L 126 400.5 L 123.5 401 L 123.5 400 Z " /><path fill="rgb(255,254,254)" stroke="rgb(255,254,254)" stroke-width="1" opacity="1" d="M 196.5 400 L 198 400.5 L 196.5 401 L 196.5 400 Z " /><path fill="rgb(255,254,254)" stroke="rgb(255,254,254)" stroke-width="1" opacity="1" d="M 285.5 400 L 285.5 401 L 285.5 400 Z " /><path fill="rgb(255,254,254)" stroke="rgb(255,254,254)" stroke-width="1" opacity="1" d="M 369.5 400 Q 371 401 368.5 402 L 363.5 403 L 363.5 402 L 369.5 400 Z " /><path fill="rgb(255,254,254)" stroke="rgb(255,254,254)" stroke-width="1" opacity="1" d="M 649.5 400 L 656 402.5 L 653.5 403 L 650.5 402 Q 648 401 649.5 400 Z " /><path fill="rgb(255,254,254)" stroke="rgb(255,254,254)" stroke-width="1" opacity="1" d="M 44.5 401 L 49 401.5 L 44.5 402 L 44.5 401 Z " /><path fill="rgb(255,254,254)" stroke="rgb(255,254,254)" stroke-width="1" opacity="1" d="M 116.5 401 L 121 401.5 L 116.5 402 L 116.5 401 Z " /><path fill="rgb(255,254,254)" stroke="rgb(255,254,254)" stroke-width="1" opacity="1" d="M 172.5 401 Q 175 402 173.5 403 Q 171 402 172.5 401 Z " /><path fill="rgb(255,254,254)" stroke="rgb(255,254,254)" stroke-width="1" opacity="1" d="M 188.5 401 L 193 401.5 L 188.5 402 L 188.5 401 Z " /><path fill="rgb(255,254,254)" stroke="rgb(255,254,254)" stroke-width="1" opacity="1" d="M 29.5 402 Q 32 403 30.5 404 Q 28 403 29.5 402 Z " /><path fill="rgb(255,254,254)" stroke="rgb(255,254,254)" stroke-width="1" opacity="1" d="M 258.5 402 Q 260.65 405.35 265 406.5 L 263.5 407 L 258 402.5 L 258.5 402 Z " /><path fill="rgb(255,254,254)" stroke="rgb(255,254,254)" stroke-width="1" opacity="1" d="M 175.5 403 L 181 405.5 L 178.5 406 L 175 403.5 L 175.5 403 Z " /><path fill="rgb(255,254,254)" stroke="rgb(255,254,254)" stroke-width="1" opacity="1" d="M 32.5 404 L 36 405.5 L 34.5 406 L 32 404.5 L 32.5 404 Z " /><path fill="rgb(255,254,254)" stroke="rgb(255,254,254)" stroke-width="1" opacity="1" d="M 38.5 406 L 38.5 407 L 38.5 406 Z " /><path fill="rgb(255,254,254)" stroke="rgb(255,254,254)" stroke-width="1" opacity="1" d="M 53.5 406 L 55 406.5 L 53.5 407 L 53.5 406 Z " /><path fill="rgb(255,254,254)" stroke="rgb(255,254,254)" stroke-width="1" opacity="1" d="M 110.5 406 L 112 406.5 L 110.5 407 L 110.5 406 Z " /><path fill="rgb(255,254,254)" stroke="rgb(255,254,254)" stroke-width="1" opacity="1" d="M 125.5 406 L 128 406.5 L 125.5 407 L 125.5 406 Z " /><path fill="rgb(255,254,254)" stroke="rgb(255,254,254)" stroke-width="1" opacity="1" d="M 182.5 406 L 184 406.5 L 182.5 407 L 182.5 406 Z " /><path fill="rgb(255,254,254)" stroke="rgb(255,254,254)" stroke-width="1" opacity="1" d="M 198.5 406 L 200 406.5 L 198.5 407 L 198.5 406 Z " /><path fill="rgb(255,254,254)" stroke="rgb(255,254,254)" stroke-width="1" opacity="1" d="M 41.5 407 L 52 407.5 L 41.5 408 L 41.5 407 Z " /><path fill="rgb(255,254,254)" stroke="rgb(255,254,254)" stroke-width="1" opacity="1" d="M 114.5 407 L 124 407.5 L 114.5 408 L 114.5 407 Z " /><path fill="rgb(255,254,254)" stroke="rgb(255,254,254)" stroke-width="1" opacity="1" d="M 186.5 407 L 196 407.5 L 186.5 408 L 186.5 407 Z " /><path fill="rgb(255,254,254)" stroke="rgb(255,254,254)" stroke-width="1" opacity="1" d="M 266.5 407 L 273 407.5 L 266.5 408 L 266.5 407 Z " /><path fill="rgb(255,255,255)" stroke="rgb(255,255,255)" stroke-width="1" opacity="1" d="M 0 0 L 752 0 L 752 752 L 0 752 L 0 0 Z M 43 344 L 38 346 L 35 346 L 28 350 L 18 361 L 15 369 L 15 373 L 14 374 L 14 379 L 15 380 L 16 388 L 20 395 L 31 404 L 42 408 L 52 408 L 56 406 L 59 406 L 66 402 L 75 392 L 77 388 L 78 380 L 79 379 L 79 374 L 78 373 L 77 365 L 73 358 Q 68 350 59 346 L 52 345 L 51 344 L 43 344 Z M 116 344 L 115 345 L 107 346 L 100 350 L 93 357 L 87 369 L 87 384 L 93 396 L 103 404 L 115 408 L 124 408 L 129 406 L 132 406 L 142 399 L 146 394 L 150 386 Q 149 381 151 381 L 151 372 L 150 371 L 149 365 L 146 359 L 142 355 L 142 353 L 141 353 L 137 349 L 131 346 L 124 345 L 123 344 L 116 344 Z M 188 344 L 187 345 L 183 345 L 177 347 L 170 352 L 162 362 L 159 371 L 159 382 Q 161 382 160 386 L 166 397 L 177 405 L 183 407 L 186 407 L 187 408 L 196 408 L 201 406 L 204 406 L 212 401 L 220 391 L 223 382 L 223 371 L 221 367 L 221 364 L 216 356 L 212 351 L 204 346 L 196 345 L 195 344 L 188 344 Z M 273 349 L 273 396 L 271 399 L 268 399 L 265 396 L 263 396 L 258 403 L 262 406 L 267 408 L 273 408 L 279 405 Q 278 402 281 402 L 282 395 L 283 394 L 282 393 L 282 353 Q 284 352 282 351 L 282 349 L 273 349 Z M 309 349 L 305 355 L 305 357 L 301 364 L 298 373 L 294 380 L 294 382 L 285 401 Q 285 403 286 403 L 295 403 L 299 394 L 300 392 L 318 392 L 322 401 Q 322 403 323 403 L 333 403 L 330 397 L 330 395 L 326 388 L 326 386 L 323 381 L 323 379 L 320 374 L 320 372 L 311 351 L 309 349 Z M 350 349 L 342 353 L 334 361 L 330 370 Q 331 374 329 376 Q 331 378 330 384 L 334 392 Q 340 400 350 403 L 366 403 L 374 399 L 375 397 L 375 387 L 373 387 L 368 392 L 361 395 L 355 395 L 348 392 L 341 385 Q 339 383 340 379 L 339 378 L 340 370 L 343 365 L 348 360 L 350 360 L 355 357 L 361 357 L 366 360 L 368 360 L 373 365 Q 375 365 375 365 L 375 356 Q 372 351 366 349 L 350 349 Z M 380 349 L 380 403 L 381 403 L 390 403 L 391 378 L 412 402 L 413 403 L 425 403 L 425 402 L 407 382 L 400 375 L 424 351 L 424 349 L 413 349 L 391 371 L 390 371 L 390 349 L 380 349 Z M 451 349 Q 452 352 450 354 L 450 358 L 449 359 L 449 364 L 446 373 L 445 383 L 444 384 L 443 392 L 442 393 L 442 398 L 441 399 L 441 403 L 450 403 L 451 401 L 451 398 L 452 397 L 452 393 L 453 392 L 453 387 L 455 382 Q 453 377 457 378 L 469 401 L 469 403 L 473 403 L 487 376 L 487 381 L 488 382 L 488 386 L 489 387 L 489 391 L 491 396 L 491 401 L 492 402 L 493 403 L 502 403 L 501 397 L 500 396 L 500 393 L 499 392 L 499 387 L 498 386 L 497 378 L 496 377 L 495 367 L 493 362 L 493 358 L 492 357 L 492 353 L 491 352 Q 492 347 488 349 L 487 354 L 485 356 L 484 360 L 482 362 L 472 382 Q 473 384 470 383 L 470 381 L 468 379 L 454 351 L 454 349 L 451 349 Z M 523 349 L 515 353 L 505 364 L 503 370 L 503 374 L 502 375 L 503 383 L 507 392 Q 513 400 523 403 L 539 403 L 544 401 L 550 396 L 551 396 L 551 395 L 556 389 L 558 384 L 558 369 L 554 361 Q 549 354 542 350 L 539 349 L 523 349 Z M 565 349 L 565 403 L 566 403 L 575 403 L 576 377 L 591 401 L 594 403 L 604 403 L 603 400 L 589 381 L 593 378 L 597 373 L 598 367 L 599 366 L 596 357 Q 592 351 586 349 L 565 349 Z M 601 349 L 601 358 L 613 358 L 613 359 L 613 403 L 623 403 L 623 403 L 623 358 L 635 358 L 635 350 L 635 349 L 601 349 Z M 654 349 L 645 354 L 639 360 L 636 365 Q 634 366 635 371 L 634 372 L 634 381 Q 636 381 635 386 L 639 393 L 646 399 L 654 403 L 671 403 L 680 398 L 687 390 L 690 381 L 690 372 Q 688 371 689 368 L 684 359 L 677 352 L 670 349 L 654 349 Z M 695 349 L 695 403 L 705 403 L 705 403 L 705 372 L 706 371 L 713 379 Q 712 381 715 380 L 715 382 L 735 402 L 735 403 Q 738 403 738 403 L 738 349 L 729 349 L 728 350 L 728 381 Q 727 382 726 380 Q 727 377 725 378 L 702 354 L 698 349 L 695 349 Z " /><path fill="rgb(255,255,255)" stroke="rgb(255,255,255)" stroke-width="1" opacity="1" d="M 42.5 351 L 50.5 351 L 56.5 353 Q 62.31 355.69 66 360.5 L 69 364.5 L 71 370.5 L 71 381.5 L 69 387.5 L 61.5 396 L 50.5 401 L 42.5 401 L 34.5 398 L 26 390.5 L 22 381.5 L 22 370.5 L 25 363.5 L 31.5 356 L 42.5 351 Z M 34 384 L 34 390 L 35 390 L 59 390 L 59 385 L 59 384 L 34 384 Z " /><path fill="rgb(255,255,255)" stroke="rgb(255,255,255)" stroke-width="1" opacity="1" d="M 115.5 351 L 122.5 351 L 128.5 353 Q 135.33 355.67 139 361.5 L 143 369.5 L 143 382.5 L 140 389.5 L 136 393.5 L 136 395 L 126.5 400 Q 123.25 399.25 122.5 401 L 114.5 401 L 106.5 398 L 99 391.5 L 95 384.5 Q 95.75 381.25 94 380.5 L 94 371.5 L 97 363.5 L 103.5 356 L 108.5 353 L 114.5 352 L 115.5 351 Z M 116 378 L 114 379 L 111 382 L 109 387 L 112 394 L 117 396 Q 121 397 124 395 L 128 389 Q 129 384 127 383 L 122 378 L 116 378 Z " /><path fill="rgb(255,255,255)" stroke="rgb(255,255,255)" stroke-width="1" opacity="1" d="M 187.5 351 L 194.5 351 L 195.5 352 L 201.5 353 L 212 362.5 L 215 369.5 L 216 378.5 L 212 389.5 L 207.5 395 L 201.5 399 L 195.5 401 L 186.5 401 L 178.5 398 L 172 392.5 L 168 386.5 L 168 383.5 L 166 378.5 L 166 373.5 L 170 362.5 L 174.5 357 L 180.5 353 L 186.5 352 L 187.5 351 Z M 174 382 L 174 385 L 176 389 Q 180 393 187 396 L 195 396 L 203 392 L 208 385 L 208 382 L 200 382 L 199 386 L 193 389 L 187 388 L 182 385 L 182 382 L 174 382 Z " /><path fill="rgb(255,255,255)" stroke="rgb(255,255,255)" stroke-width="1" opacity="1" d="M 527.5 357 L 533.5 357 L 536.5 358 Q 542.67 360.33 546 365.5 L 549 373.5 L 549 378.5 L 546 386.5 L 540.5 392 L 533.5 395 L 527.5 395 L 520.5 392 L 515 386.5 L 513 382.5 L 512 374.5 L 513 373.5 Q 512.33 369.33 514 367.5 L 520.5 360 L 527.5 357 Z " /><path fill="rgb(255,255,255)" stroke="rgb(255,255,255)" stroke-width="1" opacity="1" d="M 659.5 357 Q 672.95 357.55 678 366.5 L 680 371.5 L 680 381.5 L 673.5 391 L 665.5 395 L 658.5 395 L 655.5 393 L 653.5 393 L 647 387.5 L 644 380.5 L 644 371.5 L 646 366.5 L 650.5 361 L 659.5 357 Z " /><path fill="rgb(255,255,255)" stroke="rgb(255,255,255)" stroke-width="1" opacity="1" d="M 575 358 L 583.5 358 L 588 361.5 L 589 366.5 L 584.5 372 L 575 372 L 575 358 Z " /><path fill="rgb(255,255,255)" stroke="rgb(255,255,255)" stroke-width="1" opacity="1" d="M 308.5 370 L 314 382.5 L 303.5 383 L 304 381.5 L 308.5 370 Z " /></svg>