<?xml version="1.0" encoding="UTF-8"?>
<svg version="1.1" xmlns="http://www.w3.org/2000/svg" width="900" height="500">
<path d="M0 0 C297 0 594 0 900 0 C900 165 900 330 900 500 C603 500 306 500 0 500 C0 335 0 170 0 0 Z " fill="#FEFEFE" transform="translate(0,0)"/>
<path d="M0 0 C19.119375 -0.0928125 19.119375 -0.0928125 38.625 -0.1875 C42.62189941 -0.21481201 46.61879883 -0.24212402 50.73681641 -0.27026367 C55.68823242 -0.28381348 55.68823242 -0.28381348 58.01986694 -0.28633118 C59.61844401 -0.2908818 61.21701201 -0.30131357 62.81552124 -0.31672668 C78.98644288 -0.46460061 95.75438856 0.4236543 108.2109375 12.01171875 C114.96256253 19.51516229 117.31303543 28.46566643 117.30078125 38.35546875 C117.30506638 39.1383577 117.3093515 39.92124664 117.31376648 40.7278595 C117.31948055 42.37756388 117.32003173 44.02729343 117.31567383 45.67700195 C117.3125305 48.16337636 117.33595093 50.6485393 117.36132812 53.13476562 C117.41284448 65.8020026 116.81458586 78.04804822 108 88 C105.74480179 89.92914546 103.53370073 91.42910555 101 93 C101.58060579 97.40102237 103.2173178 100.39670066 105.53515625 104.15625 C105.89210068 104.73983276 106.2490451 105.32341553 106.61680603 105.92468262 C107.75842577 107.78749591 108.91021507 109.64376934 110.0625 111.5 C110.80992828 112.71572589 111.55667893 113.93186866 112.30273438 115.1484375 C115.29636907 120.0229185 118.30086438 124.89015104 121.34326172 129.734375 C121.90200233 130.62908508 121.90200233 130.62908508 122.47203064 131.54187012 C123.49959029 133.18679674 124.53176085 134.82884038 125.56420898 136.47070312 C127 139 127 139 127 141 C121.41351453 141.22307809 115.82963649 141.38605356 110.23974609 141.49438477 C108.34019813 141.53955043 106.44096146 141.60090169 104.54248047 141.67895508 C88.96039039 142.30338142 88.96039039 142.30338142 84.66015625 139.44433594 C83.01355538 137.0443375 82.05158641 134.71392864 81 132 C79.75685333 129.76080962 78.48937071 127.53502674 77.203125 125.3203125 C76.54444499 124.13487854 75.88952387 122.94734858 75.23828125 121.7578125 C74.91166504 121.16129883 74.58504883 120.56478516 74.24853516 119.95019531 C73.75426025 119.04672363 73.75426025 119.04672363 73.25 118.125 C72.24216317 116.28976243 71.23318463 114.45516517 70.22283936 112.62130737 C69.3159336 110.97418309 68.41226554 109.32527733 67.50878906 107.67626953 C65.98891824 104.90257929 65.98891824 104.90257929 64 102 C61.09386566 101.48853802 61.09386566 101.48853802 57.6796875 101.48828125 C56.54772949 101.45516846 55.41577148 101.42205566 54.24951172 101.38793945 C52.80592285 101.36304443 51.36233398 101.33814941 49.875 101.3125 C43.006875 101.1578125 43.006875 101.1578125 36 101 C36 114.2 36 127.4 36 141 C24.12 141 12.24 141 0 141 C0 94.47 0 47.94 0 0 Z " fill="#231815" transform="translate(494,180)"/>
<path d="M0 0 C12.21 0 24.42 0 37 0 C37.01458252 3.02816895 37.02916504 6.05633789 37.04418945 9.17626953 C37.09453255 19.18275625 37.16112728 29.18908731 37.23571491 39.19542122 C37.28043709 45.26210323 37.31968936 51.3287178 37.34643555 57.39550781 C37.37244976 63.2505964 37.41283937 69.1054257 37.46318626 74.96035385 C37.47986761 77.19381357 37.49137397 79.42731815 37.49761391 81.66083145 C37.50724094 84.78995172 37.5352845 87.91840674 37.56762695 91.04736328 C37.56619186 91.97021622 37.56475677 92.89306915 37.5632782 93.84388733 C37.63795334 98.95445592 38.08477307 102.61265579 41 107 C49.14379552 112.79462374 58.80184602 112.88991262 68.49609375 111.69140625 C73.40597782 110.75579596 77.17816795 109.36685204 81 106 C84.08266276 100.30018428 84.44258217 95.5239248 84.43237305 89.11743164 C84.4425647 88.15080597 84.45275635 87.1841803 84.46325684 86.18826294 C84.49330756 83.0121678 84.5026408 79.83637468 84.51171875 76.66015625 C84.52857128 74.4505463 84.54672229 72.24094591 84.56611633 70.03135681 C84.61355991 64.2298379 84.64340593 58.42835774 84.66955566 52.62670898 C84.69938953 46.7009313 84.74591021 40.77528702 84.79101562 34.84960938 C84.87698477 23.23312746 84.94281554 11.61665932 85 0 C97.21 0 109.42 0 122 0 C122.09057965 13.61342451 122.1638768 27.22664694 122.20724869 40.84030533 C122.22807114 47.16253153 122.25629128 53.48453981 122.30175781 59.80664062 C122.34540584 65.91450882 122.36917724 72.02216816 122.37950897 78.13018036 C122.38686636 80.45364415 122.40123317 82.77709727 122.42292023 85.1004715 C122.57628394 102.22057034 121.86559118 116.15798438 110.0625 129.5625 C95.59483194 143.45656008 74.36488021 144.48704874 55.54296875 144.18359375 C37.8658187 143.70260319 21.12812085 139.19540604 8.56640625 126.05078125 C1.6593943 117.00793518 -0.30925351 106.51834109 -0.22705078 95.47485352 C-0.22734283 94.43995285 -0.22763489 93.40505219 -0.22793579 92.33879089 C-0.22654811 88.93540922 -0.21101321 85.53224945 -0.1953125 82.12890625 C-0.19158038 79.76236592 -0.18873435 77.39582404 -0.18673706 75.02928162 C-0.17911632 68.81340233 -0.15948114 62.59761713 -0.1373291 56.3817749 C-0.11683712 50.03382642 -0.10772817 43.68586268 -0.09765625 37.33789062 C-0.07623383 24.89187918 -0.04106432 12.44596215 0 0 Z " fill="#251B18" transform="translate(327,180)"/>
<path d="M0 0 C33.33 0 66.66 0 101 0 C101 9.57 101 19.14 101 29 C79.88 29 58.76 29 37 29 C37 37.58 37 46.16 37 55 C56.47 55 75.94 55 96 55 C96 64.57 96 74.14 96 84 C76.53 84 57.06 84 37 84 C37 93.24 37 102.48 37 112 C58.12 112 79.24 112 101 112 C101 121.57 101 131.14 101 141 C67.67 141 34.34 141 0 141 C0 94.47 0 47.94 0 0 Z " fill="#241916" transform="translate(186,180)"/>
<path d="M0 0 C1.0606366 0.00040787 1.0606366 0.00040787 2.1427002 0.00082397 C36.10699715 0.06072489 36.10699715 0.06072489 52 5.1875 C51.50100262 15.29876272 50.61017136 25.18255172 49 35.1875 C45.35400689 34.87684674 41.70823766 34.56363576 38.0625 34.25 C37.04091797 34.16298828 36.01933594 34.07597656 34.96679688 33.98632812 C30.47780312 33.59909863 26.00193689 33.19866667 21.53125 32.63671875 C15.84365732 31.98980397 10.15628258 31.96478101 4.4375 31.9375 C3.35275391 31.916875 2.26800781 31.89625 1.15039062 31.875 C-5.26908419 31.84381858 -10.28789106 32.12904797 -16 35.1875 C-20.76415881 40.02082797 -20.481286 44.90204515 -20.53013611 51.47119141 C-20.51965707 52.83496789 -20.50828796 54.19873778 -20.49609375 55.5625 C-20.4962489 56.97444737 -20.49774055 58.38639517 -20.50050354 59.79833984 C-20.50188444 62.7505182 -20.48938237 65.70220889 -20.46655273 68.65429688 C-20.43816836 72.4270789 -20.44090924 76.19905138 -20.45364285 79.97189331 C-20.46061774 82.88540489 -20.45279025 85.79873132 -20.44038582 88.71221924 C-20.43588885 90.10279631 -20.4355191 91.49339338 -20.43945122 92.88397217 C-20.44238091 94.83153582 -20.42363406 96.77909509 -20.40405273 98.7265625 C-20.39864975 99.83209473 -20.39324677 100.93762695 -20.38768005 102.07666016 C-19.93582284 105.70247329 -18.92583117 108.09202881 -17 111.1875 C-10.36925071 114.74845795 -4.28203011 115.35232274 3.125 115.3125 C4.16914062 115.31830078 4.16914062 115.31830078 5.234375 115.32421875 C11.25408401 115.31327382 16.93869488 114.73852774 23 114.1875 C23 100.9875 23 87.7875 23 74.1875 C33.89 74.1875 44.78 74.1875 56 74.1875 C56 95.9675 56 117.7475 56 140.1875 C25.78984709 147.05344384 -14.35203281 154.88896738 -42.9375 137.375 C-50.40747315 132.01194235 -55.33291538 123.9163169 -57.53753662 115.01785278 C-58.09984339 111.57644185 -58.15545756 108.20247611 -58.16113281 104.72607422 C-58.16609772 103.99198837 -58.17106262 103.25790253 -58.17617798 102.50157166 C-58.19073713 100.08176724 -58.19759263 97.66202846 -58.203125 95.2421875 C-58.20595238 94.41099522 -58.20877975 93.57980293 -58.21169281 92.723423 C-58.22666357 88.32114598 -58.2359052 83.91890152 -58.24023438 79.51660156 C-58.24570288 74.99444971 -58.26970254 70.4726014 -58.29820633 65.95054436 C-58.31694134 62.45184494 -58.32204414 58.9532169 -58.32357025 55.45447159 C-58.32657498 53.78889438 -58.33452874 52.12331777 -58.34775543 50.45779037 C-58.45294591 36.18873151 -57.41439916 23.98516371 -47.11328125 13.21484375 C-33.98352865 1.06530843 -17.12462536 -0.0245374 0 0 Z " fill="#241916" transform="translate(798,176.8125)"/>
<path d="M0 0 C1.89076684 0.14200406 3.7813919 0.2859078 5.671875 0.43164062 C7.60122862 0.51702603 9.53094596 0.59457365 11.4609375 0.6640625 C16.1653071 0.85042448 20.85206104 1.14280855 25.546875 1.49414062 C24.35191738 4.62705049 23.06201109 7.5066191 21.32421875 10.37304688 C20.65302002 11.48631348 20.65302002 11.48631348 19.96826172 12.62207031 C19.4785791 13.42547852 18.98889648 14.22888672 18.484375 15.05664062 C17.96633301 15.91290039 17.44829102 16.76916016 16.91455078 17.65136719 C15.76261055 19.55393087 14.60886488 21.45540222 13.45361328 23.35595703 C11.76910989 26.12837786 10.08857822 28.90316128 8.41001892 31.67918396 C6.94988971 34.09358134 5.48823161 36.50705107 4.02633667 38.92037964 C3.29070939 40.13509661 2.55545878 41.35004178 1.82058716 42.56521606 C-1.65780974 48.31518345 -5.14146876 54.05736801 -8.796875 59.69726562 C-9.27560059 60.43944336 -9.75432617 61.18162109 -10.24755859 61.94628906 C-11.10385142 63.26419443 -11.97059998 64.57539532 -12.85009766 65.87792969 C-14.93605255 68.89569053 -14.93605255 68.89569053 -15.19287109 72.41210938 C-14.37865133 74.70374836 -13.35607305 76.6238794 -12.109375 78.71289062 C-11.61348877 79.54868652 -11.11760254 80.38448242 -10.60668945 81.24560547 C-9.78817505 82.60613037 -9.78817505 82.60613037 -8.953125 83.99414062 C-8.38360107 84.94885254 -7.81407715 85.90356445 -7.22729492 86.88720703 C-5.30993765 90.09400309 -3.38289397 93.29479907 -1.453125 96.49414062 C-1.10670959 97.06886108 -0.76029419 97.64358154 -0.40338135 98.23571777 C11.03854275 117.26131416 11.03854275 117.26131416 22.85620117 136.05419922 C25.546875 140.28026976 25.546875 140.28026976 25.546875 142.49414062 C12.016875 142.49414062 -1.513125 142.49414062 -15.453125 142.49414062 C-17.66 138.65789062 -19.866875 134.82164062 -22.140625 130.86914062 C-26.56188929 123.19738636 -30.99395609 115.53307849 -35.50195312 107.91186523 C-36.55191051 106.13477657 -37.59620092 104.35432736 -38.63476562 102.57055664 C-41.41292686 97.82192993 -44.29673939 93.19159916 -47.36328125 88.62304688 C-47.99476074 87.64948242 -48.62624023 86.67591797 -49.27685547 85.67285156 C-50.48724391 83.81144729 -51.73349752 81.97270666 -53.02001953 80.16308594 C-54.6925211 77.54451782 -55.81981643 75.54008075 -56.453125 72.49414062 C-55.20608482 68.30990935 -52.92312522 65.05911937 -50.453125 61.49414062 C-49.51780037 59.87251776 -48.59900533 58.24121742 -47.69921875 56.59960938 C-46.76463162 54.95936761 -45.82838198 53.32007219 -44.890625 51.68164062 C-44.38031738 50.78928711 -43.87000977 49.89693359 -43.34423828 48.97753906 C-32.50597933 30.08225878 -32.50597933 30.08225878 -27.22119141 21.61694336 C-25.79958853 19.1060731 -24.68232179 16.72421433 -23.57177734 14.07641602 C-18.15762245 2.03293168 -13.11074184 -0.6075671 0 0 Z " fill="#241916" transform="translate(125.453125,178.505859375)"/>
<path d="M0 0 C11.88 0 23.76 0 36 0 C36 46.53 36 93.06 36 141 C24.12 141 12.24 141 0 141 C0 94.47 0 47.94 0 0 Z " fill="#231815" transform="translate(660,180)"/>
<path d="M0 0 C5.65125 -0.04125 11.3025 -0.0825 17.125 -0.125 C18.89762207 -0.14320801 20.67024414 -0.16141602 22.49658203 -0.18017578 C23.91698912 -0.18602238 25.33739958 -0.19111754 26.7578125 -0.1953125 C27.48282959 -0.20554443 28.20784668 -0.21577637 28.95483398 -0.22631836 C34.49264492 -0.22820389 38.99149128 0.3171954 43.3125 3.9375 C47.22966216 8.72514264 46.22217963 14.87990286 46.25 20.75 C46.270625 21.8225 46.29125 22.895 46.3125 24 C46.34253955 30.09802869 46.1098474 34.68339905 43 40 C37.22997446 43.68299503 32.09130791 44.14718982 25.390625 44.09765625 C24.74593262 44.09664917 24.10124023 44.09564209 23.43701172 44.09460449 C21.04132291 44.08939402 18.64565957 44.07543281 16.25 44.0625 C10.8875 44.041875 5.525 44.02125 0 44 C0 29.48 0 14.96 0 0 Z " fill="#F9F9F9" transform="translate(530,209)"/>
<path d="M0 0 C4.38585016 3.8975287 7.70857495 8.24840535 8.3359375 14.171875 C8.48270465 27.61574581 8.48270465 27.61574581 4 33 C-1.15428667 37.89108905 -6.2358026 40.6514632 -13.375 41.3125 C-20.20053326 40.72409196 -26.4678737 38.36195225 -31 33 C-34.71422743 27.31595803 -37.35676631 21.83551786 -36 15 C-34.03078627 7.25768765 -30.54867033 2.52861678 -24 -2 C-16.46182863 -6.44558825 -7.16256409 -4.17106873 0 0 Z " fill="#251A17" transform="translate(54,181)"/>
<path d="M0 0 C5.195849 2.87662904 9.21226947 6.33592085 11.0390625 12.12890625 C11.96643581 20.00689571 12.09452904 27.66042111 7.0390625 34.12890625 C1.7993938 39.48765833 -3.53483087 41.68682798 -10.8359375 42.62890625 C-16.7074123 42.37412825 -22.167636 39.48991109 -26.6015625 35.7421875 C-31.14535884 30.74674876 -33.6681855 24.03003073 -33.375 17.2734375 C-32.27628047 11.58289954 -29.42806983 6.06664263 -25.0859375 2.19140625 C-16.31871779 -3.59495876 -9.32615696 -4.59898118 0 0 Z " fill="#251B18" transform="translate(50.9609375,230.87109375)"/>
<path d="M0 0 C5.6919803 3.45983116 10.18247264 7.44729297 12.1875 13.9375 C13.02803513 21.5707318 12.9864778 28.66306008 8.1875 34.9375 C2.94060141 40.30364629 -2.84858907 42.98960012 -10.3125 43.375 C-15.98907632 43.14051148 -20.35519711 41.18354155 -24.5390625 37.359375 C-29.5749941 31.85210005 -32.52858855 25.90116221 -32.21875 18.3359375 C-31.09573067 11.70580416 -27.99343434 6.46703055 -22.6875 2.375 C-15.88848049 -2.29436554 -7.77658521 -2.16724506 0 0 Z " fill="#251A17" transform="translate(49.8125,281.0625)"/>
<path d="M0 0 C3.60067126 0.87838956 4.94522296 2.42198203 6.9375 5.47265625 C7.80171959 9.77081031 7.71142977 13.1827733 5.4375 16.97265625 C2.00683308 19.0310564 -1.05493182 19.83047484 -5.0625 19.47265625 C-7.92243478 17.70801564 -9.56032849 16.47699928 -11.0625 13.47265625 C-11.74821429 6.50122768 -11.74821429 6.50122768 -9.0625 2.47265625 C-5.73419602 0.25378693 -3.92294665 -0.2897631 0 0 Z " fill="#C1BEBE" transform="translate(874.0625,177.52734375)"/>
<path d="M0 0 C1.66611905 -0.042721 3.33382885 -0.04063832 5 0 C6.785612 1.785612 6 4.59156925 6 7 C6.33 7.66 6.66 8.32 7 9 C4.525 8.01 4.525 8.01 2 7 C2 7.66 2 8.32 2 9 C1.34 9 0.68 9 0 9 C0 6.03 0 3.06 0 0 Z " fill="#7F7877" transform="translate(869,182)"/>
</svg>
