<?xml version="1.0" encoding="UTF-8"?>
<svg version="1.1" xmlns="http://www.w3.org/2000/svg" width="960" height="840">
<path d="M0 0 C0.95132812 0.44988281 1.90265625 0.89976563 2.8828125 1.36328125 C16.40209867 8.20363649 28.18227935 18.52079306 39 29 C39.50515137 29.4846875 40.01030273 29.969375 40.53076172 30.46875 C47.56995362 37.24118894 54.0186977 44.25831441 60 52 C60.6801416 52.87350098 60.6801416 52.87350098 61.37402344 53.76464844 C109.90961043 116.30649701 138.6294976 194.45424718 160 270 C162.24789091 266.62816363 163.23881559 263.31664738 164.36328125 259.4765625 C164.83546527 257.90100586 165.30805909 256.32557199 165.78100586 254.75024414 C166.02978485 253.91623077 166.27856384 253.08221741 166.53488159 252.22293091 C178.774937 211.33035697 193.47019601 171.48178674 212 133 C212.78093018 131.37239746 212.78093018 131.37239746 213.57763672 129.71191406 C239.25820337 76.47685676 277.21102188 14.46028634 335.96875 -6.23120117 C361.07888216 -14.71165949 387.59205326 -13.07055817 411.43359375 -1.76953125 C458.61141905 21.63852446 488.29306962 70.00521377 512 115 C512.72872314 116.37937744 512.72872314 116.37937744 513.47216797 117.78662109 C555.4429005 197.843725 579.25734031 289.13966603 637 732 C637.0438382 733.18689423 637.0438382 733.18689423 637.08856201 734.39776611 C637.13149384 735.56236359 637.13149384 735.56236359 637.17529297 736.75048828 C637.21262039 737.75887253 637.21262039 737.75887253 637.2507019 738.78762817 C638.20546045 766.54165167 638 794.20703775 638 822 C598.07 822 558.14 822 517 822 C516.814375 803.8396875 516.814375 803.8396875 516.625 785.3125 C516.53544025 777.71472179 516.44487671 770.11709129 516.33984375 762.51953125 C516.32689711 761.58244638 516.31395046 760.64536152 516.3006115 759.67988014 C515.16220126 678.47928831 511.33444998 597.3481109 395.7890625 61.7265625 C386.85535873 53.29439999 377.85468664 49.60956309 365.640625 49.72265625 C352.23068605 50.74422885 341.53052463 60.34877275 333 70 C303.5076315 106.16720631 289.82573812 155.60477333 278 200 C277.71219666 201.07803894 277.71219666 201.07803894 277.4185791 202.17785645 C250.68126474 302.63626786 238.40792956 407.00488702 224.3125 606.75 C224.25165222 608.04898224 224.19080444 609.34796448 224.12811279 610.68630981 C222.48161721 646.25984662 221.66293957 681.83577147 220.9375 717.4375 C220.628125 732.473125 220.31875 747.50875 220 763 C180.4 763 140.8 763 100 763 C99.87625 753.161875 99.7525 743.32375 99.625 733.1875 C99.53611649 726.90873256 99.4462391 720.63010448 99.34375 714.3515625 C99.33092484 713.56557301 99.31809967 712.77958351 99.30488586 711.96977615 C97.94169068 629.59751591 93.93500419 547.27811115 -20.0859375 61.8515625 C-29.16456731 53.3658228 -38.81753733 49.43760183 -51.125 49.52734375 C-64.10293142 51.1103374 -74.16212345 60.09897033 -81.9375 70 C-135.85089965 141.48963772 -148.84457092 250.59194092 -193 702 C-193.0279364 702.87662292 -193.0558728 703.75324585 -193.08465576 704.65643311 C-193.70662359 724.41557653 -194.01369177 744.17871437 -194.28125 763.9453125 C-194.29211136 764.74747066 -194.30297272 765.54962883 -194.31416321 766.37609482 C-194.56329862 784.9171437 -194.77699368 803.45861739 -195 822 C-234.93 822 -274.86 822 -316 822 C-316 766.35970728 -316 766.35970728 -315.25 743.4375 C-315.20688662 742.07177077 -315.16389025 740.70603784 -315.1210022 739.34030151 C-312.15539934 645.87583441 -304.42630377 552.41767014 -235 224 C-234.65065399 222.93712769 -234.65065399 222.93712769 -234.29425049 221.8527832 C-224.53538623 192.18172867 -213.02753401 163.40155839 -200 135 C-199.56445801 134.04770508 -199.12891602 133.09541016 -198.68017578 132.11425781 C-173.77063255 77.92810032 -136.52506521 15.45115519 -77.9375 -6.78271484 C-51.80116956 -16.13341946 -24.33273551 -11.89434164 0 0 Z " fill="#FFCC00" transform="translate(320,15)"/>
</svg>
