<?xml version="1.0" encoding="UTF-8"?>
<svg version="1.1" xmlns="http://www.w3.org/2000/svg" width="1186" height="699">
<path d="M0 0 C1.13808609 -0.00445668 1.13808609 -0.00445668 2.29916382 -0.0090034 C4.837556 -0.01766388 7.37590087 -0.01919643 9.91430664 -0.02069092 C11.73629354 -0.02532112 13.55827947 -0.03034605 15.38026428 -0.03573608 C20.32902999 -0.04884617 25.27778214 -0.05530281 30.2265625 -0.05974674 C33.32210471 -0.06268087 36.41764324 -0.06678641 39.51318359 -0.07125092 C49.20893651 -0.08492474 58.90468099 -0.09459088 68.60044289 -0.09845281 C79.77231623 -0.10292765 90.94406686 -0.12044937 102.1159029 -0.1494534 C110.76327162 -0.17111951 119.41060596 -0.18115978 128.05800152 -0.18249393 C133.21660267 -0.1835388 138.37508845 -0.18937837 143.53366089 -0.20731354 C148.3928215 -0.22387867 153.2517811 -0.22590901 158.11096001 -0.21717453 C159.88577249 -0.21640854 161.66059615 -0.2206884 163.43538094 -0.23063278 C176.51380679 -0.29956222 188.77594784 0.5801235 200.57446289 6.82794189 C201.24807861 7.17679443 201.92169434 7.52564697 202.61572266 7.8850708 C220.48076699 17.42251626 232.75087515 33.29909991 238.69555664 52.51934814 C240.24019816 58.37502305 240.53102279 63.70659073 240.52118397 69.74062157 C240.5235362 70.71777683 240.52588843 71.69493209 240.52831194 72.70169812 C240.53500082 75.9957741 240.53454375 79.28981062 240.53413391 82.58389282 C240.53743261 84.96165293 240.54115819 87.33941248 240.54527539 89.71717131 C240.5542504 95.57952374 240.55852295 101.44186906 240.56079436 107.30422689 C240.56375723 114.32551468 240.57245521 121.34679245 240.58120864 128.36807497 C240.60205178 145.34040039 240.61252307 162.31272754 240.62133824 179.28506277 C240.62554539 187.31571626 240.63076732 195.34636901 240.63602277 203.37702187 C240.65391385 230.87116011 240.66890904 258.36529857 240.67634296 285.85944176 C240.67681772 287.58553294 240.67729361 289.31162412 240.67777063 291.03771529 C240.678007 291.89369596 240.67824338 292.74967662 240.67848692 293.63159609 C240.67968811 297.96836631 240.68090356 302.30513652 240.68212891 306.64190674 C240.68236906 307.50255 240.68260921 308.36319326 240.68285663 309.24991661 C240.69074723 337.1457209 240.71417368 365.04148264 240.74668485 392.93726834 C240.78100055 422.43531978 240.80069577 451.93334633 240.80398721 481.43141806 C240.80440474 484.67120402 240.8048843 487.91098997 240.80541039 491.15077591 C240.80553358 491.94849304 240.80565677 492.74621017 240.80578369 493.56810055 C240.80811367 506.39379343 240.82376244 519.21943681 240.84425223 532.04511207 C240.86453154 544.94396566 240.8699776 557.84275996 240.8604816 570.74162655 C240.85527465 578.39928811 240.86110579 586.05675191 240.88301627 593.71438491 C240.89815996 599.44121755 240.89225282 605.16787778 240.87834575 610.89470644 C240.87596791 613.20504076 240.88030229 615.51539422 240.8921744 617.82569925 C240.99969536 640.13827588 237.46463069 659.52751963 221.4440918 676.1362915 C220.10316935 677.48251495 218.74554905 678.81204654 217.38696289 680.14044189 C216.7540332 680.80559814 216.12110352 681.47075439 215.46899414 682.15606689 C211.33775839 686.20522512 206.62602167 688.78916708 201.51196289 691.39044189 C200.86396729 691.72011963 200.21597168 692.04979736 199.54833984 692.38946533 C197.51782137 693.37484546 195.46752435 694.26565281 193.38696289 695.14044189 C192.74602314 695.41022386 192.10508339 695.68000582 191.44472122 695.95796299 C182.78891589 699.0480129 173.8150164 698.56937546 164.75708008 698.54449463 C162.87686255 698.55020435 160.99664848 698.55717093 159.11643982 698.56529236 C154.03149305 698.58317552 148.94671932 698.58206411 143.8617506 698.57634997 C139.60518865 698.57325011 135.34865955 698.57935966 131.09210229 698.58538872 C121.04241191 698.5994174 110.99280657 698.59788737 100.94311523 698.58648682 C90.60367347 698.57501614 80.26449141 698.58906746 69.92508388 698.61588329 C61.02365704 698.63809832 52.12231138 698.64466436 43.22085881 698.63880688 C37.91529066 698.63544889 32.60988881 698.6377746 27.30434418 698.65505791 C22.31043567 698.67061692 17.31690912 698.66647285 12.32301521 698.64775276 C10.50024802 698.64409108 8.67745196 698.64710384 6.85471153 698.65763855 C-13.49244371 698.76616958 -30.37246509 693.84439928 -45.37866211 679.40216064 C-46.48467773 678.28260986 -46.48467773 678.28260986 -47.61303711 677.14044189 C-48.30913086 676.46626221 -49.00522461 675.79208252 -49.72241211 675.09747314 C-66.30666531 657.96683951 -68.21651175 637.10722012 -68.12097168 614.53240967 C-68.1255862 612.15014055 -68.1319428 609.76787428 -68.13988066 607.38561392 C-68.15478151 601.55086126 -68.1512329 595.71632796 -68.1396776 589.88157254 C-68.12686712 582.88532402 -68.13740403 575.88915784 -68.14852525 568.89291336 C-68.16954253 555.18711486 -68.16778091 541.48139114 -68.1562096 527.77558561 C-68.14613329 515.78116346 -68.14352712 503.78676866 -68.14830017 491.79234314 C-68.14860571 490.99562901 -68.14891125 490.19891489 -68.14922605 489.37805791 C-68.15047148 486.14364763 -68.15174509 482.90923736 -68.15306511 479.6748271 C-68.16529137 449.35550674 -68.15422271 419.0362339 -68.13267752 388.71692088 C-68.11369617 361.80094019 -68.11539473 334.8850352 -68.13452148 307.96905518 C-68.15595647 277.70393478 -68.16442417 247.43885635 -68.15207243 217.17372942 C-68.15078963 213.94533317 -68.14953826 210.71693691 -68.14830017 207.48854065 C-68.14798386 206.69367167 -68.14766755 205.8988027 -68.14734166 205.07984678 C-68.14279856 193.09520675 -68.14810019 181.11059712 -68.15821838 169.1259613 C-68.16967019 155.49404025 -68.16676467 141.86220542 -68.14509541 128.23029506 C-68.13440688 121.27757064 -68.12992266 114.32498606 -68.14369202 107.37226295 C-68.15564488 101.00281361 -68.14900516 94.63365946 -68.12778181 88.26423675 C-68.12332807 85.96497475 -68.1255542 83.66568762 -68.13528496 81.36644191 C-68.22945405 57.25895274 -63.61096145 37.76655155 -46.37475586 19.80841064 C-33.86735386 7.79229776 -17.46652642 -0.02149242 0 0 Z " fill="#FEFDFE" transform="translate(69.613037109375,0.85955810546875)"/>
<path d="M0 0 C39.93 0 79.86 0 121 0 C123.04371736 2.04371736 122.84603008 5.98012396 123.25143433 8.78863525 C123.43612 10.03322443 123.43612 10.03322443 123.62453669 11.30295682 C124.0412673 14.11839159 124.45198071 16.93467257 124.86279297 19.75097656 C125.16117513 21.77533424 125.45992614 23.79963759 125.75901699 25.82389069 C126.58353053 31.41152884 127.40283285 36.99992086 128.22135758 42.58843899 C129.10245839 48.59775961 129.98840709 54.60636551 130.87382507 60.61505127 C132.40712057 71.024803 133.93748971 81.43498191 135.46585083 91.84545898 C137.7772933 107.58961742 140.09401119 123.33299671 142.41196688 139.07619739 C143.33966749 145.37711865 144.26722148 151.6780615 145.19477844 157.97900391 C145.29773046 158.67834844 145.40068247 159.37769297 145.50675424 160.09822977 C147.09255306 170.87055133 148.67745299 181.6430049 150.2618866 192.41552734 C156.18721638 232.70068439 162.1252688 272.98394926 168.07421875 313.265625 C168.1753921 313.95069583 168.27656545 314.63576665 168.38080466 315.3415972 C170.4753602 329.52426768 172.57030739 343.7068803 174.66554308 357.88945031 C176.96449957 373.45100459 179.26261869 389.01268237 181.56034362 404.57441854 C182.63718843 411.86733501 183.71418066 419.16022971 184.79119307 426.45312142 C185.62653008 432.10954536 186.46181331 437.76597722 187.29694176 443.42243195 C188.06248428 448.60749801 188.82825225 453.79253073 189.59418893 458.97753859 C189.86920979 460.83953815 190.14415578 462.70154878 190.41901374 464.56357241 C192.26149893 477.04508084 194.12363008 489.52354021 196 502 C194.86357252 485.36333658 193.59740811 468.7392273 192.265625 452.1171875 C185.06745685 362.15686101 178.47021364 272.12220411 174.8125 181.9375 C174.77547974 181.03362549 174.73845947 180.12975098 174.70031738 179.19848633 C174.47571151 173.61216164 174.28184557 168.0253158 174.10769653 162.43719482 C174.03112271 159.99329877 173.95142871 157.54949962 173.86959839 155.10577393 C172.8522974 124.4464224 172.87620474 93.79158874 172.92797261 63.11844164 C172.9405532 55.52818372 172.94578798 47.93792209 172.95117188 40.34765625 C172.96074192 26.89842259 172.980799 13.44923096 173 0 C199.07 0 225.14 0 252 0 C252 219.45 252 438.9 252 665 C215.37 665 178.74 665 141 665 C136.4053205 635.13458327 136.4053205 635.13458327 135.09272766 625.72669983 C134.85683799 624.0516493 134.85683799 624.0516493 134.61618286 622.34275937 C134.10490604 618.70927943 133.59600807 615.07547094 133.0871582 611.44165039 C132.71303494 608.77920885 132.33877681 606.11678658 131.96435738 603.45438671 C131.05770762 597.00522046 130.15285358 590.55580353 129.24861878 584.10629828 C128.17588745 576.45557377 127.10120897 568.80512309 126.02649269 561.1546772 C123.95442869 546.40402961 121.88433954 531.65310542 119.81515519 516.90205364 C118.02799957 504.16159882 116.24007901 491.42125161 114.45147705 478.68099976 C101.98025141 389.84694455 89.52892371 301.01012593 70 161 C70.0501123 162.19156708 70.10022461 163.38313416 70.15185547 164.61080933 C75.59744299 294.21330816 75.59744299 294.21330816 77.12921143 347.95796967 C77.18500555 349.91261162 77.24177202 351.86722574 77.29858398 353.82183838 C78.58689218 398.74823939 79.1558808 443.67264913 79.10139394 488.61649966 C79.09496494 494.8595713 79.0945417 501.10264394 79.09336853 507.34571838 C79.09031092 519.06657657 79.08217616 530.78742496 79.07201904 542.50827891 C79.06408518 551.87522935 79.05861298 561.242178 79.05493164 570.60913086 C79.05466892 571.27571606 79.05440619 571.94230126 79.05413551 572.62908601 C79.05282979 575.97556935 79.05156624 579.3220527 79.05032361 582.66853607 C79.039986 610.11236399 79.02171373 637.55617856 79 665 C52.93 665 26.86 665 0 665 C0 445.55 0 226.1 0 0 Z M197 509 C197 511.31 197 513.62 197 516 C197.33 516 197.66 516 198 516 C198 513.69 198 511.38 198 509 C197.67 509 197.34 509 197 509 Z M198 520 C199 522 199 522 199 522 Z " fill="#1C4189" transform="translate(392,18)"/>
<path d="M0 0 C167.92303051 0 167.92303051 0 199.58056641 31.5234375 C230.72029418 63.91646701 231.1775266 112.23842552 231.1328125 154.21875 C231.13348873 156.49637869 231.13446139 158.7740073 231.13571167 161.05163574 C231.13717366 165.79142962 231.13508286 170.53120446 231.13037109 175.27099609 C231.12467477 181.2882514 231.12796188 187.30546208 231.13394356 193.32271576 C231.13758998 198.0158521 231.13639202 202.70897819 231.13381577 207.40211487 C231.13315773 209.61845404 231.13393465 211.83479419 231.13629532 214.0511322 C231.17012598 254.71900034 229.96446223 297.49219977 199.875 328.4375 C196.43969305 331.78268315 193.0363564 334.45072227 189 337 C189 337.66 189 338.32 189 339 C190.71646078 340.50311841 190.71646078 340.50311841 192.9375 342.0625 C214.02860915 358.08776975 225.25665354 382.40179002 229.3125 408.1875 C231.03035283 423.94180401 231.1498947 439.66082116 231.1328125 455.48828125 C231.13348839 457.72535716 231.13446078 459.962433 231.13571167 462.19950867 C231.13717613 466.86307482 231.1350753 471.52662166 231.13037109 476.19018555 C231.12468463 482.11000011 231.12795403 488.02976921 231.13394356 493.9495821 C231.13759175 498.56294586 231.13639106 503.1762992 231.13381577 507.78966331 C231.1331577 509.96971835 231.1339348 512.1497744 231.13629532 514.32982826 C231.1451917 524.85399889 231.07443189 535.35828394 230.56591797 545.87182617 C230.51019214 547.04016857 230.51019214 547.04016857 230.45334053 548.23211384 C228.65336169 581.25836032 218.2747274 614.19276739 193.8984375 637.4765625 C142.31788655 682.38361898 59.08859712 665 0 665 C0 445.55 0 226.1 0 0 Z M90 85 C90 156.61 90 228.22 90 302 C110.75054441 303.03658097 110.75054441 303.03658097 129.5 295.875 C139.96899829 283.83565197 140.14987743 268.65250821 140.16113281 253.54443359 C140.16576864 252.08815385 140.17079432 250.63187531 140.17617798 249.17559814 C140.18923133 245.23724136 140.19573318 241.29890157 140.20018864 237.36052656 C140.20313114 234.89328888 140.20723813 232.42605573 140.21169281 229.95882034 C140.22534984 222.21995104 140.23502496 214.48109221 140.2388947 206.7422117 C140.24336958 197.84506527 140.2608985 188.94807291 140.2898953 180.0509733 C140.3115977 173.14958559 140.32160354 166.24824095 140.32293582 159.34681952 C140.32397784 155.23618157 140.32975579 151.12568879 140.34775543 147.01508713 C140.36438478 143.14244084 140.36632064 139.27004656 140.35761642 135.39737701 C140.35685389 133.98741856 140.36108331 132.57744569 140.37107468 131.16752243 C140.45360082 118.78128374 140.0378424 103.74319409 131.24609375 94.0703125 C119.37827292 82.87600792 106.20102968 85 90 85 Z M90 377 C90 443.66 90 510.32 90 579 C112.51949032 580.24485875 112.51949032 580.24485875 131.28125 570.171875 C139.84071339 559.35582581 140.30041377 544.68651241 140.29052734 531.52075195 C140.29724457 530.21836075 140.30396179 528.91596954 140.31088257 527.57411194 C140.32839793 524.03246043 140.33323181 520.49090582 140.33451414 516.94921517 C140.33594476 514.72700473 140.34023144 512.50481821 140.34550858 510.28261375 C140.36396227 502.50292803 140.37218521 494.72331041 140.37060547 486.94360352 C140.3694059 479.73574252 140.39048377 472.52818183 140.4220928 465.32039672 C140.4484001 459.09575847 140.45896673 452.87121742 140.45769465 446.64652413 C140.45718916 442.94494442 140.46263946 439.24363197 140.48405075 435.54210854 C141.73847165 409.54070717 141.73847165 409.54070717 131.61328125 386.5390625 C131.08089844 386.03117187 130.54851562 385.52328125 130 385 C129.49855469 384.51273437 128.99710938 384.02546875 128.48046875 383.5234375 C117.87798968 374.70093667 102.64106582 377 90 377 Z " fill="#1C4189" transform="translate(688,18)"/>
<path d="M0 0 C42.24 0 84.48 0 128 0 C132.00878946 40.90366502 132.00878946 40.90366502 133.44067383 55.62127686 C133.53877653 56.62961959 133.63687923 57.63796232 133.73795474 58.6768609 C136.47444796 86.81660458 139.1712042 114.96016873 141.86523438 143.10400391 C141.9307555 143.78847328 141.99627663 144.47294265 142.06378324 145.17815351 C144.24298849 167.94404615 146.41897378 190.71024638 148.59375 213.4765625 C148.70315438 214.62184348 148.70315438 214.62184348 148.81476894 215.79026144 C151.72588717 246.26522332 154.63572492 276.74030754 157.54328301 307.2156093 C158.25375189 314.66229788 158.96426934 322.10898183 159.67480469 329.55566406 C159.79249231 330.78909454 159.79249231 330.78909454 159.91255746 332.04744281 C162.47363732 358.88855873 165.04012622 385.72915406 167.60945743 412.56948129 C170.26920176 440.35456424 172.92402683 468.14011274 175.57248549 495.92627382 C175.94617089 499.84676196 176.31990973 503.767245 176.69367981 507.68772507 C176.76719793 508.45887959 176.84071606 509.23003412 176.916462 510.02455696 C178.09471946 522.38220076 179.27808337 534.73935035 180.4633862 547.09632015 C181.65092261 559.4777952 182.83291098 571.85979007 184.0092743 584.24233176 C184.64540665 590.93674664 185.284125 597.63088803 185.92939377 604.32443047 C186.52032779 610.45492341 187.10422233 616.58604555 187.68263704 622.717732 C187.892409 624.92845444 188.10470907 627.13893885 188.3198697 629.34914334 C188.61329164 632.36721988 188.89722917 635.38605442 189.17900848 638.4052372 C189.30553029 639.67152543 189.30553029 639.67152543 189.4346081 640.96339524 C190.17152331 649.05764698 190 656.75067254 190 665 C158.98 665 127.96 665 96 665 C95.3912208 661.34732482 94.86433312 658.06797207 94.65196228 654.4311676 C94.5741729 653.13870369 94.5741729 653.13870369 94.49481201 651.82012939 C94.44230286 650.89278992 94.3897937 649.96545044 94.33569336 649.01000977 C94.27702591 648.01885666 94.21835846 647.02770355 94.15791321 646.0065155 C93.9652218 642.73499786 93.77733543 639.46322573 93.58984375 636.19140625 C93.45691111 633.90420113 93.32381634 631.61700542 93.19056702 629.32981873 C92.91188516 624.53258405 92.63566847 619.73521503 92.36108398 614.93774414 C92.01096198 608.82513417 91.65402578 602.71294462 91.2950964 596.60084629 C91.01835417 591.87289308 90.74568506 587.14471129 90.47415352 582.41645622 C90.34431855 580.16520453 90.21316616 577.91402838 90.08061028 575.66293526 C89.89452918 572.49369514 89.71407197 569.324179 89.53491211 566.15454102 C89.48037872 565.24541962 89.42584534 564.33629822 89.36965942 563.39962769 C88.93650317 555.56478776 89 547.88929805 89 540 C70.85 540 52.7 540 34 540 C33.67 548.25 33.34 556.5 33 565 C32.25458269 578.48517709 32.25458269 578.48517709 31.97190857 583.07899475 C31.9095999 584.09666491 31.84729122 585.11433506 31.78309441 586.1628437 C31.71932169 587.20351934 31.65554897 588.24419498 31.58984375 589.31640625 C31.45653049 591.52268665 31.32344296 593.7289807 31.19056702 595.93528748 C30.8459298 601.64793356 30.49829774 607.36039327 30.14996338 613.07281494 C29.72959353 619.97733831 29.31308207 626.88209545 28.89589691 633.78681183 C28.26682923 644.19138636 27.63297108 654.59565891 27 665 C-3.36 665 -33.72 665 -65 665 C-62.70274564 636.2843205 -62.70274564 636.2843205 -61.78842068 627.05756187 C-61.68173342 625.9620724 -61.57504616 624.86658293 -61.46512595 623.7378968 C-61.11631232 620.16159587 -60.76441241 616.58560635 -60.41246033 613.00961304 C-60.15552167 610.38204501 -59.89875899 607.75446031 -59.64220721 605.12685454 C-59.08884366 599.46290555 -58.53386859 593.79911637 -57.97777176 588.1354351 C-57.15087333 579.71366266 -56.32655828 571.29163869 -55.50272067 562.86956635 C-54.03095286 547.82456893 -52.55668687 532.77981712 -51.08135325 517.73516899 C-49.7913201 504.58000838 -48.50217737 491.42476088 -47.21389961 478.26942825 C-47.12822872 477.39460511 -47.04255782 476.51978196 -46.95429084 475.61844902 C-46.60648876 472.06687348 -46.25869124 468.51529749 -45.91090025 464.96372086 C-42.65466994 431.71180685 -39.39596379 398.4601359 -36.13605639 365.20858219 C-33.24047654 335.67308894 -30.34681046 306.1374088 -27.45483398 276.6015625 C-26.71319449 269.02719751 -25.97155366 261.45283264 -25.22989559 253.87846947 C-25.09292944 252.47966778 -25.09292944 252.47966778 -24.95319631 251.05260747 C-22.53419292 226.34820134 -20.11372483 201.64393873 -17.69279104 176.9397217 C-17.43241425 174.28271476 -17.17203779 171.62570778 -16.91166193 168.96870075 C-16.73894648 167.20622791 -16.5662299 165.44375518 -16.39351218 163.68128256 C-15.18944445 151.39442371 -13.98595177 139.10750865 -12.78285363 126.82055482 C-11.23381922 111.00064611 -9.68378013 95.1808364 -8.13194793 79.36120187 C-7.31133191 70.99539895 -6.49156853 62.62951353 -5.67303205 54.26350688 C-5.06249386 48.02438632 -4.45033327 41.78542597 -3.83752794 35.5465277 C-3.58938405 33.01761065 -3.34176893 30.48864166 -3.09472477 27.95961694 C-2.75982697 24.53203493 -2.42302759 21.10464497 -2.08573818 17.67729759 C-1.94133212 16.19227452 -1.94133212 16.19227452 -1.79400876 14.67725098 C-1.70340205 13.76057247 -1.61279534 12.84389396 -1.51944298 11.89943731 C-1.40429858 10.72463652 -1.40429858 10.72463652 -1.28682804 9.52610239 C-0.92532689 6.34235188 -0.45314347 3.17200431 0 0 Z M58 59 C56.15010975 85.6609669 54.95569339 112.34990212 53.74958038 139.0462532 C53.3817996 147.18419373 53.00889292 155.32189391 52.63519287 163.45956421 C52.50547966 166.2856602 52.37580672 169.11175804 52.24615097 171.93785667 C52.19755235 172.99714301 52.19755235 172.99714301 52.14797194 174.07782907 C51.78160216 182.06535107 51.41645906 190.05292901 51.05175781 198.04052734 C51.0185753 198.76725424 50.98539279 199.49398114 50.95120475 200.24273007 C50.4878227 210.3933563 50.02663258 220.54408061 49.56664938 230.69486138 C48.79723325 247.67228865 48.02183883 264.6494341 47.23762965 281.62618482 C47.14067706 283.72543525 47.04384576 285.82469125 46.94701576 287.92394733 C44.90660905 332.1250859 42.54586564 376.30146561 39.81549072 420.4659729 C39.69182052 422.47852487 39.56818524 424.49107898 39.44458771 426.50363541 C39.21951894 430.16719726 38.98928872 433.83037575 38.75524139 437.49337387 C38.6538816 439.12589377 38.55265911 440.75842221 38.45159912 442.39096069 C38.40529806 443.09239751 38.35899701 443.79383434 38.31129289 444.51652682 C37.93479596 450.70998858 38 456.75324059 38 463 C53.18 463 68.36 463 84 463 C82.96028611 442.66559574 81.86305973 422.33874277 80.625 402.015625 C80.49730967 399.91479676 80.36965023 397.81396664 80.24201965 395.71313477 C80.14423108 394.10382584 80.14423108 394.10382584 80.04446697 392.46200562 C79.97798867 391.36788361 79.91151037 390.2737616 79.84301758 389.14648438 C79.77529805 388.0321402 79.70757853 386.91779602 79.63780689 385.76968384 C77.09408489 343.88031453 74.70185253 301.98457478 72.45703125 260.078125 C72.40251848 259.06099458 72.3480057 258.04386415 72.29184103 256.9959116 C71.19280774 236.48638652 70.10022097 215.97652398 69.01958954 195.46602082 C68.45976811 184.84178699 67.89735423 174.21769253 67.33203125 163.59375 C67.28279086 162.66783271 67.23355046 161.74191542 67.18281794 160.78794003 C65.37569042 126.84115478 63.31344553 92.91608093 61 59 C60.01 59 59.02 59 58 59 Z " fill="#1C4189" transform="translate(996,18)"/>
<path d="M0 0 C1.49404861 -0.00043808 1.49404861 -0.00043808 3.01828003 -0.00088501 C6.28636613 0.00050013 9.55421971 0.01602288 12.82226562 0.03173828 C15.09769567 0.03547131 17.37312734 0.03831691 19.64855957 0.04031372 C25.61947109 0.04792734 31.59028436 0.0675563 37.56115723 0.08972168 C43.66120068 0.1102291 49.76126009 0.1193259 55.86132812 0.12939453 C67.81710031 0.15080435 79.77279978 0.18491282 91.72851562 0.22705078 C89.66751015 2.28805625 87.93303638 3.22408089 85.35351562 4.53955078 C78.67044013 8.2499943 76.03277907 12.71236235 73.54492188 19.82470703 C71.9405586 26.51083342 71.88912808 33.37692944 71.72851562 40.22705078 C69.41851562 40.88705078 67.10851562 41.54705078 64.72851562 42.22705078 C64.24865373 51.46618623 64.24865373 51.46618623 66.72851562 60.22705078 C67.38851562 60.55705078 68.04851562 60.88705078 68.72851562 61.22705078 C67.97675376 82.35415147 67.97675376 82.35415147 63.10351562 88.16455078 C56.96995928 90.9085102 50.33317756 91.47916739 43.69726562 91.98095703 C41.72845852 92.02246101 41.72845852 92.02246101 40.72851562 93.22705078 C39.14215686 93.4647328 37.54742567 93.64705969 35.95117188 93.80517578 C34.96181641 93.91474609 33.97246094 94.02431641 32.953125 94.13720703 C30.88143389 94.35985944 28.80849116 94.57122245 26.734375 94.77001953 C15.70789168 96.03384054 6.69563171 100.20386317 -0.43945312 108.85595703 C-10.42767699 123.36496308 -18.48403049 138.52660407 -24.48706055 155.0871582 C-27.65546144 163.73049272 -31.50302413 171.91669056 -35.58398438 180.16455078 C-40.85963414 190.96527954 -45.57307471 201.78647947 -49.27148438 213.22705078 C-49.65949219 214.38720703 -50.0475 215.54736328 -50.44726562 216.74267578 C-52.16130156 223.98874239 -51.21227891 229.73679997 -48.95898438 236.66455078 C-48.74564453 237.38320312 -48.53230469 238.10185547 -48.3125 238.84228516 C-47.61698993 241.14827846 -47.61698993 241.14827846 -46.27148438 244.22705078 C-43.48121767 245.15713968 -41.50618895 245.41403848 -38.60351562 245.54345703 C-37.71083984 245.58535156 -36.81816406 245.62724609 -35.8984375 245.67041016 C-34.96966797 245.70972656 -34.04089844 245.74904297 -33.08398438 245.78955078 C-32.14361328 245.83273437 -31.20324219 245.87591797 -30.234375 245.92041016 C-27.91355583 246.02643743 -25.59263113 246.12850107 -23.27148438 246.22705078 C-22.87287966 253.65489627 -22.87287966 253.65489627 -24.66210938 256.22314453 C-25.27570312 256.69880859 -25.88929687 257.17447266 -26.52148438 257.66455078 C-35.85446975 264.98336623 -36.85403119 280.30257895 -38.27148438 291.22705078 C-40.62933013 314.23999016 -30.12669601 332.90773395 -19.91992188 352.83251953 C-19.22402795 354.19289935 -18.5286842 355.55356079 -17.83398438 356.91455078 C-17.51131592 357.54619141 -17.18864746 358.17783203 -16.85620117 358.82861328 C-14.04722849 364.44210821 -12.00545659 370.20377889 -10.27148438 376.22705078 C-9.38847656 376.13939453 -8.50546875 376.05173828 -7.59570312 375.96142578 C-3.46606745 375.97916858 0.10512985 376.18201536 3.72851562 378.22705078 C7.30597992 382.22298821 9.309299 387.33832957 11.62695312 392.12158203 C15.03110062 399.09584924 19.260087 405.44407053 23.60351562 411.85205078 C24.18805008 412.7188446 24.18805008 412.7188446 24.78439331 413.60314941 C31.55194951 423.6315217 38.43012138 433.57599219 45.72851562 443.22705078 C46.23624512 443.9023584 46.74397461 444.57766602 47.26708984 445.2734375 C54.52885445 454.83921808 62.52405231 463.10367444 71.38085938 471.19970703 C75.765867 475.21725043 79.93716024 479.42253399 84.10351562 483.66455078 C90.00465586 489.62845393 96.06711627 495.11032374 102.72851562 500.22705078 C103.74171875 501.03400391 104.75492188 501.84095703 105.79882812 502.67236328 C106.87828375 503.52553957 107.95903213 504.37708258 109.04101562 505.22705078 C109.57758789 505.64865479 110.11416016 506.07025879 110.66699219 506.50463867 C113.50122675 508.68155594 116.34524913 510.63812108 119.45507812 512.40283203 C128.16865684 517.37762991 132.79979071 522.29431138 135.72851562 532.22705078 C136.42773438 535.55908203 136.42773438 535.55908203 136.72851562 538.22705078 C136.39851562 538.55705078 136.06851563 538.88705078 135.72851562 539.22705078 C135.22625135 545.54319599 136.26248008 549.36787134 139.29101562 554.85205078 C140.02303039 556.24384959 140.75479604 557.63577946 141.48632812 559.02783203 C141.85918945 559.72344238 142.23205078 560.41905273 142.61621094 561.13574219 C144.35685178 564.40842205 146.01120032 567.72289522 147.66601562 571.03955078 C148.23191406 572.15974609 148.7978125 573.27994141 149.38085938 574.43408203 C152.00382444 579.87008208 151.66611984 584.07087245 151.37304688 590.00048828 C151.43804786 593.33306989 151.43804786 593.33306989 153.74804688 595.63330078 C156.46548687 599.192236 156.02230338 602.11222701 155.60351562 606.35205078 C155.54365479 607.13829834 155.48379395 607.9245459 155.42211914 608.73461914 C155.02911145 613.63968549 154.48406546 618.5274071 153.93261719 623.41674805 C151.01252181 642.59817574 151.01252181 642.59817574 156.72851562 660.22705078 C158.04372729 661.57826277 159.37401113 662.91523025 160.72851562 664.22705078 C138.3794066 664.32063603 116.03033006 664.39109945 93.68106461 664.43429947 C83.30309739 664.45489424 72.92525217 664.48295571 62.54736328 664.52880859 C53.49833426 664.56877096 44.44939363 664.594506 35.40027881 664.60340476 C30.61213149 664.60860362 25.82423698 664.62075814 21.03617096 664.64997101 C16.5217731 664.67728886 12.00773019 664.68546296 7.49325752 664.67948151 C5.84379454 664.68057447 4.19431866 664.68843034 2.5449276 664.70387268 C-12.16528359 664.83474425 -23.18251488 661.87606961 -35.27148438 653.22705078 C-35.86832031 652.80423828 -36.46515625 652.38142578 -37.08007812 651.94580078 C-47.80820241 643.69768445 -53.47191089 630.0779845 -56.27148438 617.22705078 C-56.64589817 613.80922447 -56.68139944 610.43947508 -56.65738773 607.00349236 C-56.6652764 605.54600157 -56.6652764 605.54600157 -56.67332444 604.05906653 C-56.68722388 600.8196729 -56.67992922 597.58068801 -56.67262268 594.34127808 C-56.67823069 591.9886359 -56.68513427 589.63599652 -56.69321865 587.28336155 C-56.70962751 581.50633757 -56.7121245 575.72942552 -56.70863608 569.95238201 C-56.70521807 563.02830694 -56.71916982 556.10429355 -56.73347419 549.1802363 C-56.76245277 534.82508819 -56.77092535 520.46997228 -56.77264536 506.11479835 C-56.77402526 495.0263367 -56.78020689 483.93788764 -56.78974724 472.84943008 C-56.79243997 469.65483862 -56.79510942 466.46024713 -56.79777187 463.26565564 C-56.79843502 462.47141419 -56.79909816 461.67717274 -56.7997814 460.85886337 C-56.81823833 438.52489243 -56.83008367 416.19092585 -56.82875156 393.85694695 C-56.82870483 393.01528863 -56.82865809 392.17363031 -56.82860994 391.30646719 C-56.82836063 387.04083201 -56.8280635 382.77519682 -56.82775582 378.50956164 C-56.82769598 377.66242919 -56.82763614 376.81529673 -56.8275745 375.94249359 C-56.82745318 374.22938571 -56.82732779 372.51627782 -56.82719832 370.80316993 C-56.8253605 344.15632849 -56.84787406 317.50960163 -56.88891602 290.86279297 C-56.93503501 260.90751577 -56.96081248 230.95231384 -56.95802635 200.99699891 C-56.95780247 197.80052129 -56.95765634 194.60404369 -56.9575634 191.40756607 C-56.95752844 190.62054484 -56.95749347 189.83352361 -56.95745745 189.02265325 C-56.95736528 176.37805199 -56.97649211 163.73355049 -57.00236019 151.08897885 C-57.02783709 138.37226734 -57.03072264 125.6557012 -57.01103223 112.93897824 C-57.00094654 106.05481864 -57.00024585 99.17098734 -57.02709198 92.28686333 C-57.05072369 85.97748395 -57.04635649 79.66874962 -57.02023958 73.35938574 C-57.01564256 71.0841887 -57.02105314 68.80894323 -57.03781981 66.53380333 C-57.17555848 46.50761682 -54.04767811 30.9469813 -40.02929688 15.80517578 C-28.93039047 4.96099837 -15.38154857 -0.11956784 0 0 Z " fill="#1D428A" transform="translate(75.271484375,17.77294921875)"/>
<path d="M0 0 C1.79923127 7.3039638 3.34140745 14.61395708 4.6484375 22.01953125 C4.78936829 22.81350311 4.93029907 23.60747498 5.07550049 24.42550659 C5.65594524 27.70645763 6.23352369 30.98779466 6.796875 34.27172852 C9.71382247 51.20454106 13.97632521 65.99130222 22 81.25 C32.01189904 100.54643788 32.01189904 100.54643788 34 107 C33.505 108.485 33.505 108.485 33 110 C30.8125 110.921875 30.8125 110.921875 28 111.75 C16.67890258 115.63110067 7.60777303 124.56024144 2.125 135.125 C-3.34636758 146.48860958 -3.81280782 159.84143978 -0.4375 171.9375 C5.03394072 187.12744382 14.65359049 195.76880691 28.765625 202.65234375 C34.64904757 205.10376982 40.08198541 205.21103397 46.375 205.25 C47.6125 205.2809375 47.6125 205.2809375 48.875 205.3125 C54.39926573 205.3475747 58.06592246 204.48255474 63 202 C64.6396875 201.38125 64.6396875 201.38125 66.3125 200.75 C78.28390201 195.48902513 85.4297445 186.60044035 91 175 C91.33 175 91.66 175 92 175 C92.09138564 207.48493381 92.16210833 239.96983037 92.20426132 272.45486352 C92.20926373 276.29599972 92.21444106 280.13713567 92.21972656 283.97827148 C92.2207758 284.74292482 92.22182505 285.50757816 92.22290608 286.29540282 C92.24027875 298.65254096 92.271799 311.00960414 92.30861118 323.36669791 C92.34610822 336.06019497 92.36825431 348.75365294 92.37635398 361.4472031 C92.38182366 369.27048824 92.39905561 377.09356145 92.43166587 384.9167813 C92.45544654 390.93063457 92.45779787 396.9443082 92.45243073 402.95821381 C92.4535259 405.41430142 92.46141172 407.87039749 92.4768219 410.326437 C92.59817355 430.67530827 90.59609354 445.138976 78.75 462.25 C68.90407106 472.09592894 58.38461324 477.05538509 45 480 C45.721875 479.319375 46.44375 478.63875 47.1875 477.9375 C53.13015692 471.96107798 57.01601285 466.00499648 57.25 457.375 C56.97380628 447.01773557 54.47602894 437.64589378 51.03271484 427.93774414 C49.37860057 423.07399429 48.90096024 419.16240368 49.09155273 414.04418945 C48.95211981 410.93093113 47.47934775 408.69953968 46 406 C42.19874825 391.01399516 41.77473725 376.8452302 45.62475586 361.87646484 C48.03118739 352.30196307 46.52020012 347.11539829 41.68359375 338.6484375 C40.10368409 336.05121611 40.10368409 336.05121611 38.41015625 334.0390625 C30.81431957 324.56842644 30.49772456 310.34047005 29.0625 298.6875 C28.22136838 292.00271715 27.00932066 285.41856112 25.6875 278.8125 C25.49873291 277.82660889 25.30996582 276.84071777 25.11547852 275.82495117 C22.65251132 263.87064656 17.43586716 253.6349599 11.5 243.0625 C3.03628515 227.56655542 -0.70738601 214.95278969 -2.61425781 197.38867188 C-5.88777741 167.69733092 -5.88777741 167.69733092 -13.58203125 138.91015625 C-14.09319525 136.574089 -13.70284224 135.2723795 -13 133 C-11.68024768 128.50673921 -12.48490441 125.17687421 -13.8125 120.8125 C-14.03043213 120.0685498 -14.24836426 119.32459961 -14.47290039 118.55810547 C-14.99308062 116.78539732 -15.5178422 115.01403035 -16.04589844 113.24365234 C-16.96191878 110.12946445 -17.84938106 107.00867688 -18.72877502 103.88401794 C-19.5748759 100.88397206 -20.43210606 97.88716115 -21.29086304 94.89071655 C-21.71671298 93.39860381 -22.13902686 91.90547662 -22.55752563 90.4112854 C-26.33587418 76.58173177 -26.33587418 76.58173177 -33 64 C-33.88679443 63.56381348 -34.77358887 63.12762695 -35.68725586 62.67822266 C-36.45046143 62.12440918 -37.21366699 61.5705957 -38 61 C-38.71425341 55.26724558 -37.68083566 51.18617214 -35.55078125 45.7890625 C-35.29628708 45.13602142 -35.04179291 44.48298035 -34.77958679 43.81015015 C-34.24195801 42.43799296 -33.69790214 41.06833801 -33.14770508 39.70117188 C-32.31934222 37.64200855 -31.51055688 35.57602009 -30.70507812 33.5078125 C-29.19107248 29.64788023 -27.60921651 25.82127049 -26 22 C-25.38402954 20.50968262 -25.38402954 20.50968262 -24.75561523 18.98925781 C-22.05666831 12.97916244 -19.09543582 9.8157618 -13.4375 6.5 C-12.4484668 5.87738281 -12.4484668 5.87738281 -11.43945312 5.2421875 C-3.0265877 0 -3.0265877 0 0 0 Z " fill="#C8112F" transform="translate(201,202)"/>
<path d="M0 0 C7.58110943 -0.09344875 15.16215777 -0.16413913 22.74371529 -0.20724869 C26.2657139 -0.22795882 29.78731316 -0.2559643 33.30908203 -0.30175781 C37.37536029 -0.35428938 41.44123151 -0.3730817 45.5078125 -0.390625 C46.74798126 -0.41127014 47.98815002 -0.43191528 49.26589966 -0.45318604 C65.14656405 -0.45718369 80.12460993 4.54541331 91.80078125 15.55078125 C107.11456162 32.60538212 107.58146733 49.91278968 107.45410156 71.81176758 C107.4507374 74.53286685 107.45343316 77.25395244 107.45587158 79.97505188 C107.4579593 85.81296488 107.4455114 91.65069774 107.42292023 97.48856544 C107.39027957 105.92889628 107.37998094 114.36914085 107.37496826 122.80952796 C107.36623443 136.50661281 107.33967102 150.20360186 107.30175781 163.90063477 C107.26498804 177.19848149 107.23670066 190.49630209 107.21972656 203.79418945 C107.21815022 205.02568251 107.21815022 205.02568251 107.21654204 206.28205422 C107.21132152 210.40113948 107.20626678 214.52022492 107.20129442 218.63931048 C107.15989198 252.75960977 107.08949597 286.8797931 107 321 C104.25072528 317.37769654 101.6173394 313.90020077 100.19921875 309.53515625 C98.73343829 306.4364868 97.30830707 305.57911173 94.375 303.875 C91.8984375 302.4296875 91.8984375 302.4296875 90 301 C90 300.01 90 299.02 90 298 C89.22914063 297.81824219 88.45828125 297.63648438 87.6640625 297.44921875 C86.66117187 297.19785156 85.65828125 296.94648438 84.625 296.6875 C83.62726563 296.44386719 82.62953125 296.20023437 81.6015625 295.94921875 C79 295 79 295 77 292 C76.50097656 289.52661133 76.50097656 289.52661133 76.140625 286.58203125 C75.99778076 285.50018555 75.85493652 284.41833984 75.70776367 283.30371094 C75.55670166 282.15161133 75.40563965 280.99951172 75.25 279.8125 C73.29073158 266.12854209 69.69818515 255.0805501 63.3125 242.875 C60.14868456 236.70694753 58.51644849 230.94334308 57.36669922 224.12988281 C56.76557475 220.63839821 56.08882924 217.16143742 55.42260742 213.68188477 C55.06255323 211.79525219 54.70711073 209.90773261 54.35668945 208.01928711 C54.19515381 207.15311768 54.03361816 206.28694824 53.8671875 205.39453125 C53.72394043 204.61956299 53.58069336 203.84459473 53.43310547 203.04614258 C53.00108926 200.81506978 53.00108926 200.81506978 52 198 C51.88394567 195.96563578 51.82148266 193.92803888 51.7890625 191.890625 C51.28012761 168.05079541 49.98104509 145.4755422 32.02880859 127.79516602 C27.85105271 124.09853075 23.04360202 121.3020482 18.3203125 118.36328125 C12.30575558 114.51114864 12.30575558 114.51114864 10.46484375 111.43359375 C8.18637591 107.64829917 4.64899578 106.20124145 0.8125 104.1875 C0.06291016 103.78080078 -0.68667969 103.37410156 -1.45898438 102.95507812 C-3.29976872 101.95847513 -5.14907732 100.97764501 -7 100 C-7.18359375 96.65625 -7.18359375 96.65625 -7 93 C-5.41282109 91.64920944 -3.81014616 90.31265414 -2.13671875 89.0703125 C1.31460771 85.72624847 3.42347279 81.57398594 5.71459961 77.38085938 C8.01425141 73.27168834 10.2250525 70.90985537 14 68 C15.88706149 65.40880882 15.88706149 65.40880882 17.375 62.5625 C17.89835937 61.63566406 18.42171875 60.70882812 18.9609375 59.75390625 C20.14777389 56.60834364 20.00857208 55.16127701 19 52 C18.67 51.34 18.34 50.68 18 50 C18.71480106 48.03284423 19.52189271 46.09874313 20.375 44.1875 C24.32321458 35.30953146 25.38776485 27.27177749 22 18 C20.53831053 15.54170407 19.6638543 14.30711643 17.06640625 13.10546875 C14.76307891 11.87325394 13.83545208 10.71963079 12.3125 8.625 C8.92573325 4.45466254 4.9761178 2.78034437 0 1 C0 0.67 0 0.34 0 0 Z " fill="#C8102E" transform="translate(185,18)"/>
<path d="M0 0 C0.66 0.33 1.32 0.66 2 1 C-1.63 4.63 -5.26 8.26 -9 12 C-9 8.47601214 -8.44884893 7.98495633 -6.1875 5.4375 C-5.40439453 4.53837891 -5.40439453 4.53837891 -4.60546875 3.62109375 C-3 2 -3 2 0 0 Z " fill="#E0E5EF" transform="translate(83,118)"/>
</svg>
