<?xml version="1.0" encoding="UTF-8"?>
<svg version="1.1" xmlns="http://www.w3.org/2000/svg" width="3840" height="1280">
<path d="M0 0 C1267.2 0 2534.4 0 3840 0 C3840 422.4 3840 844.8 3840 1280 C2572.8 1280 1305.6 1280 0 1280 C0 857.6 0 435.2 0 0 Z " fill="#E60012" transform="translate(0,0)"/>
<path d="M0 0 C1267.2 0 2534.4 0 3840 0 C3840 422.4 3840 844.8 3840 1280 C2572.8 1280 1305.6 1280 0 1280 C0 857.6 0 435.2 0 0 Z M653 239 C649.72018915 239.33943886 646.43991255 239.6739324 643.15944329 240.0069372 C565.65330594 248.32568105 488.14141835 280.58837809 428 330 C427.4529541 330.44939941 426.9059082 330.89879883 426.34228516 331.36181641 C414.45380655 341.18121904 403.26009212 351.6459281 392.3125 362.5 C391.43335938 363.36608887 390.55421875 364.23217773 389.6484375 365.12451172 C383.66244124 371.10263166 378.27654351 377.39350939 373 384 C372.13639319 385.02736636 371.26799673 386.0507699 370.390625 387.06640625 C336.83473538 426.19453301 313.14594298 473.99155585 298 523 C297.79600586 523.64582031 297.59201172 524.29164063 297.38183594 524.95703125 C285.47955263 563.09018933 281.77327056 602.50353475 281.75 642.25 C281.74899292 643.44698517 281.74798584 644.64397034 281.74694824 645.87722778 C281.75712883 663.78532851 282.25221964 681.2757903 285 699 C285.14453613 699.98162109 285.28907227 700.96324219 285.43798828 701.97460938 C288.73936751 724.04230044 293.72623784 745.90075647 301 767 C301.31275879 767.92538574 301.62551758 768.85077148 301.94775391 769.80419922 C317.13223248 814.53486687 339.3689958 856.87802493 370 893 C370.82628906 893.99902344 371.65257812 894.99804688 372.50390625 896.02734375 C385.17863566 911.29920049 398.83308006 926.17063403 414 939 C414.88429688 939.7734375 415.76859375 940.546875 416.6796875 941.34375 C430.87475318 953.68314528 446.08670988 964.97368468 462 975 C463.06444336 975.67313232 463.06444336 975.67313232 464.15039062 976.35986328 C493.08667983 994.51657614 523.78775608 1008.76816336 556 1020 C557.35593262 1020.47518066 557.35593262 1020.47518066 558.73925781 1020.95996094 C585.71260914 1030.2265623 614.50164784 1036.28098397 642.75 1040 C643.44634552 1040.09396057 644.14269104 1040.18792114 644.86013794 1040.284729 C673.81979209 1044.10474977 702.99523495 1044.29810381 732.14811356 1044.25481732 C737.35661383 1044.24936823 742.56510355 1044.25574514 747.77360269 1044.26049101 C756.90689307 1044.26723086 766.0401595 1044.26664773 775.17345036 1044.26112393 C788.84631333 1044.25289216 802.51915712 1044.2563095 816.19202056 1044.26188921 C839.50197687 1044.27106444 862.81192272 1044.27081496 886.12187958 1044.26532745 C909.73081831 1044.25979957 933.33975133 1044.25865412 956.94869041 1044.26280212 C957.69473573 1044.26293115 958.44078105 1044.26306018 959.20943379 1044.26319312 C966.04700797 1044.26437628 972.88458213 1044.2656041 979.72215629 1044.26688554 C996.86444223 1044.270093 1014.00672824 1044.27260538 1031.14901435 1044.27464628 C1031.93434638 1044.27474008 1032.7196784 1044.27483389 1033.52880837 1044.27493053 C1072.19795312 1044.27948305 1110.86709685 1044.27641798 1149.53624153 1044.27259064 C1151.22918875 1044.27242336 1152.92213596 1044.2722561 1154.61508317 1044.27208885 C1155.45411939 1044.27200593 1156.29315561 1044.27192302 1157.15761717 1044.2718376 C1168.22303213 1044.2707445 1179.28844708 1044.26967127 1190.35386205 1044.26865101 C1191.19975199 1044.26857269 1192.04564194 1044.26849436 1192.91716491 1044.26841367 C1232.14911744 1044.26480823 1271.38106946 1044.26566919 1310.61302207 1044.26751192 C1314.89532686 1044.26771152 1319.17763164 1044.26790251 1323.45993643 1044.26809447 C1336.36788843 1044.26867567 1349.27584042 1044.26926956 1362.18379241 1044.26988967 C1401.54349758 1044.27177855 1440.90320276 1044.27297916 1480.26290798 1044.27358627 C1481.57736841 1044.27360688 1481.57736841 1044.27360688 1482.91838359 1044.2736279 C1539.65403232 1044.27450513 1596.38968047 1044.27230509 1653.12532902 1044.26788712 C1654.03080787 1044.26781688 1654.93628672 1044.26774664 1655.86920433 1044.26767428 C1686.19664078 1044.2653217 1716.52407722 1044.26280951 1746.85151365 1044.26028102 C1838.55836262 1044.25264033 1930.26520954 1044.24845309 2094.04537751 1044.26051168 C2124.36645652 1044.26303817 2154.68753552 1044.26553525 2185.00861454 1044.26788712 C2185.9138753 1044.2679576 2186.81913606 1044.26802809 2187.75182897 1044.26810072 C2244.4591811 1044.27251253 2301.16653285 1044.27447522 2357.87388515 1044.27358627 C2358.7498915 1044.27357276 2359.62589784 1044.27355925 2360.52844983 1044.27354533 C2399.86582038 1044.27293184 2439.20319089 1044.27165513 2478.54056139 1044.26976527 C2491.44245562 1044.26914619 2504.34434985 1044.26855752 2517.24624407 1044.26797917 C2521.52597935 1044.26778719 2525.80571463 1044.26759248 2530.08544991 1044.26739145 C2569.31712135 1044.26555431 2608.5487921 1044.26501867 2647.78046346 1044.26865101 C2648.62585421 1044.26872895 2649.47124496 1044.2688069 2650.34225362 1044.2688872 C2661.40182283 1044.26991072 2672.46139204 1044.27099602 2683.52096125 1044.27208885 C2684.35937328 1044.27217167 2685.19778531 1044.2722545 2686.06160377 1044.27233984 C2687.75309028 1044.27250696 2689.44457679 1044.27267422 2691.1360633 1044.27284163 C2729.75347886 1044.27665371 2768.37089319 1044.27925915 2806.98830879 1044.27464628 C2808.16467888 1044.27450622 2808.16467888 1044.27450622 2809.36481403 1044.27436333 C2826.47805538 1044.2723026 2843.59129658 1044.26966324 2860.70453775 1044.26645572 C2867.53059537 1044.26518401 2874.35665301 1044.26398279 2881.18271065 1044.26280212 C2882.29958467 1044.26260588 2882.29958467 1044.26260588 2883.4390218 1044.26240566 C2907.01596122 1044.25829556 2930.59289475 1044.26028596 2954.16983373 1044.26583567 C2978.04760186 1044.27142816 3001.92535736 1044.27005814 3025.80312471 1044.26031196 C3039.37379969 1044.25498384 3052.94444806 1044.25507011 3066.51512175 1044.26327515 C3075.54084067 1044.26818165 3084.56653899 1044.26576924 3093.59225543 1044.25754145 C3098.70017709 1044.25308535 3103.80804599 1044.25159582 3108.91596518 1044.25917448 C3131.37201193 1044.29019538 3153.60995277 1043.80588966 3176 1042 C3177.93922039 1041.85283717 3179.87848314 1041.70623114 3181.81779731 1041.56030931 C3201.14978057 1040.1053318 3220.37092668 1036.54084736 3239.3125 1032.5 C3240.15087402 1032.32299561 3240.98924805 1032.14599121 3241.85302734 1031.96362305 C3288.47551851 1021.61163439 3334.79119063 1002.56687002 3375 977 C3375.65967773 976.58186035 3376.31935547 976.1637207 3376.99902344 975.73291016 C3395.80779792 963.71753623 3413.26363223 950.04008922 3429.75390625 935.02734375 C3431.72336836 933.24969012 3433.72659962 931.52789863 3435.75 929.8125 C3444.80375457 921.92042881 3453.26147138 913.1759227 3461 904 C3461.85464844 903.03449219 3462.70929687 902.06898438 3463.58984375 901.07421875 C3496.99972188 863.17937882 3522.03269543 817.68595691 3537.9375 769.875 C3538.15897705 769.21028687 3538.3804541 768.54557373 3538.60864258 767.86071777 C3546.09319446 745.248503 3551.07314072 722.47059222 3555 699 C3555.19932129 697.81696289 3555.39864258 696.63392578 3555.60400391 695.41503906 C3561.31977448 659.27909353 3560.60067862 619.10265032 3555 583 C3554.71830209 580.99225029 3554.4370535 578.98443749 3554.15625 576.9765625 C3544.94471405 514.3033961 3519.52485749 453.89927068 3482 403 C3481.35683838 402.12722412 3481.35683838 402.12722412 3480.70068359 401.23681641 C3474.20176174 392.48114838 3467.20644379 384.17733551 3460 376 C3459.17371094 375.06027344 3458.34742187 374.12054688 3457.49609375 373.15234375 C3446.05478142 360.42186947 3434.0874771 347.48783054 3420.5390625 336.98046875 C3418.13525808 335.1055013 3415.83371643 333.14027567 3413.53637695 331.13720703 C3399.45529199 318.92026936 3383.93279228 308.62466816 3368 299 C3367.20319824 298.51708496 3366.40639648 298.03416992 3365.58544922 297.53662109 C3342.19646309 283.47882189 3317.64046126 272.26531611 3292 263 C3290.07155398 262.28531977 3288.14316712 261.57047986 3286.21484375 260.85546875 C3249.54848983 247.46708196 3209.86759983 240.08998718 3170.96364784 237.33609521 C3169.66009904 237.24170095 3169.66009904 237.24170095 3168.33021593 237.14539974 C3148.41226089 235.73168236 3128.53509377 235.57319073 3108.57543175 235.61777402 C3103.33922303 235.62599888 3098.1030368 235.61636509 3092.86683053 235.60926348 C3083.69868795 235.59918553 3074.5305991 235.60000535 3065.36245549 235.60831411 C3051.63753449 235.62069586 3037.91265629 235.6155213 3024.18773421 235.60716619 C3000.78550143 235.59342415 2977.38329212 235.59376725 2953.98105812 235.60200882 C2930.28720519 235.61030798 2906.59336505 235.61201296 2882.89951134 235.60579681 C2881.77537342 235.6055065 2881.77537342 235.6055065 2880.62852565 235.60521032 C2873.75973264 235.60343552 2866.89093964 235.60159378 2860.02214667 235.59967169 C2842.8035477 235.59486122 2825.58494859 235.59109234 2808.36634922 235.58803058 C2807.57762153 235.58788987 2806.78889384 235.58774917 2805.97626532 235.5876042 C2767.16289717 235.58077942 2728.34953133 235.5853712 2689.53616333 235.59111404 C2687.83743714 235.59136495 2686.13871096 235.59161585 2684.43998477 235.59186673 C2683.1771314 235.59205328 2683.1771314 235.59205328 2681.88876584 235.5922436 C2670.78525578 235.5938833 2659.68174571 235.59549314 2648.57823563 235.59702349 C2647.3049941 235.59719971 2647.3049941 235.59719971 2646.00603053 235.5973795 C2606.61995845 235.60279009 2567.2338875 235.60149538 2527.84781525 235.59873212 C2523.54740552 235.59843273 2519.24699578 235.59814623 2514.94658605 235.59785829 C2501.98382421 235.59698648 2489.02106238 235.59609565 2476.05830055 235.5951655 C2436.53323657 235.59233234 2397.00817259 235.59053131 2357.48310852 235.58962059 C2356.60316856 235.58959998 2355.7232286 235.58957938 2354.8166238 235.58955815 C2297.85656436 235.58824255 2240.8965062 235.59154117 2183.93644714 235.59816933 C2183.02755128 235.59827468 2182.11865542 235.59838004 2181.18221726 235.59848858 C2150.74115534 235.60201736 2120.30009346 235.60578569 2089.85903158 235.60957848 C1997.80084119 235.62104062 1905.74265538 235.62731884 1741.32195722 235.60923248 C1710.87863962 235.60544272 1680.43532202 235.60169708 1649.99200439 235.59816933 C1649.08308073 235.59806359 1648.17415707 235.59795786 1647.23769027 235.59784892 C1590.2993088 235.59123103 1533.36092823 235.5882872 1476.42254639 235.58962059 C1475.10316238 235.58965099 1475.10316238 235.58965099 1473.75712415 235.58968201 C1434.25879204 235.59060225 1394.76046002 235.59251732 1355.262128 235.5953521 C1342.30756213 235.5962807 1329.35299627 235.59716371 1316.3984304 235.59803124 C1312.10128387 235.59831922 1307.80413734 235.59861128 1303.50699081 235.59891282 C1264.12038007 235.60166822 1224.73377088 235.60247283 1185.34716034 235.59702349 C1184.49856109 235.59690657 1183.64996184 235.59678966 1182.77564746 235.5966692 C1171.67431824 235.59513394 1160.57298904 235.593506 1149.47165984 235.59186673 C1148.20931328 235.59168037 1148.20931328 235.59168037 1146.92146476 235.59149025 C1145.22362198 235.59123957 1143.52577921 235.59098867 1141.82793643 235.59073755 C1103.06364529 235.58501916 1064.29935688 235.58111198 1025.53506565 235.58803058 C1024.74775677 235.58817064 1023.96044789 235.5883107 1023.14928116 235.58845501 C1005.96885719 235.59154616 988.78843352 235.59550524 971.60800994 235.60031642 C964.75510004 235.60222396 957.90219011 235.60402581 951.04928017 235.60579681 C949.9280198 235.60609119 949.9280198 235.60609119 948.7841077 235.6063915 C925.11972309 235.61255533 901.45535169 235.60957257 877.79096805 235.6012465 C853.8221708 235.59285537 829.85340188 235.59491721 805.88460636 235.60953206 C792.26433203 235.6175207 778.64411732 235.61740108 765.02384588 235.60508727 C755.96281813 235.59772232 746.90183653 235.6013542 737.84081433 235.61368783 C732.71445437 235.62036586 727.58821257 235.62262106 722.46185818 235.61123828 C699.10502766 235.56296825 676.22510657 236.4261786 653 239 Z " fill="#E60012" transform="translate(0,0)"/>
<path d="M0 0 C1.7392894 -0.00124483 3.47857852 -0.00292682 5.21786713 -0.00500236 C9.99469067 -0.00943843 14.77149475 -0.00767935 19.5483188 -0.00490058 C24.76557669 -0.0029741 29.98283087 -0.00686293 35.20008773 -0.00999737 C44.37844461 -0.01470807 53.55679611 -0.01569637 62.735154 -0.01426902 C76.47593236 -0.01214788 90.21670513 -0.01576126 103.95748263 -0.0204838 C127.37608582 -0.02835836 150.79468705 -0.03145386 174.21329141 -0.03192973 C197.95116015 -0.03242436 221.6890272 -0.03507078 245.42689538 -0.04033732 C246.94056971 -0.04067087 248.45424404 -0.04100433 249.96791838 -0.04133773 C256.07114567 -0.04268586 262.17437296 -0.04404916 268.27760025 -0.04542983 C335.40501129 -0.0605939 402.5324219 -0.06737246 469.65983439 -0.0718518 C470.9334154 -0.07193683 470.9334154 -0.07193683 472.23272533 -0.07202359 C476.52750043 -0.07231011 480.82227554 -0.07259514 485.11705064 -0.0728777 C521.11086781 -0.07525354 557.10468479 -0.07896338 593.09850181 -0.0829148 C610.34020257 -0.08480744 627.58190334 -0.08663594 644.82360411 -0.088449 C645.68114021 -0.08853919 646.53867632 -0.08862938 647.42219837 -0.0887223 C688.69463866 -0.09305855 729.96707899 -0.09698688 771.23951936 -0.10044932 C772.11993704 -0.1005232 773.00035472 -0.10059707 773.90745172 -0.10067318 C830.01523923 -0.10536808 886.12302667 -0.10819112 942.23081434 -0.1098361 C946.83075569 -0.10997168 951.43069705 -0.11011071 956.03063841 -0.11024964 C963.4053722 -0.11047212 970.780106 -0.11069349 978.1548398 -0.11091352 C979.06868796 -0.11094079 979.98253611 -0.11096806 980.92407664 -0.11099616 C982.77103204 -0.11105127 984.61798745 -0.11110639 986.46494285 -0.11116149 C999.42063758 -0.1115481 1012.37633232 -0.11193605 1025.33202706 -0.11233062 C1029.96781742 -0.11247173 1034.60360778 -0.11261181 1039.23939814 -0.11274952 C1126.7692794 -0.11535299 1214.29915889 -0.12067759 1301.82903886 -0.13663173 C1302.75011669 -0.13679952 1303.67119453 -0.13696731 1304.62018381 -0.13714019 C1333.39803382 -0.14239077 1362.17588375 -0.14796516 1390.95373368 -0.1535995 C1420.48247995 -0.1593807 1450.01122622 -0.16511136 1479.53997254 -0.17055583 C1480.44923498 -0.17072364 1481.35849742 -0.17089144 1482.29531326 -0.17106434 C1539.26681221 -0.18156217 1596.23831066 -0.18842044 1653.2098105 -0.19142222 C1654.09012468 -0.19146904 1654.97043886 -0.19151585 1655.87742923 -0.19156408 C1694.54439637 -0.19361503 1733.2113635 -0.19485887 1771.87833069 -0.19521013 C1787.43575881 -0.19535339 1802.99318693 -0.19559205 1818.55061505 -0.19587419 C1821.13003285 -0.19591972 1823.70945065 -0.19596137 1826.28886844 -0.1960023 C1865.71237106 -0.19664789 1905.13587165 -0.1995954 1944.55937314 -0.20946288 C1945.40861517 -0.20967525 1946.25785719 -0.20988762 1947.13283383 -0.21010643 C1960.79261417 -0.21353491 1974.45239446 -0.21714797 1988.11217475 -0.22078283 C2026.92222029 -0.23110513 2065.73226333 -0.23987473 2104.54231048 -0.23793817 C2105.72535392 -0.23788006 2105.72535392 -0.23788006 2106.93229723 -0.23782078 C2124.14573719 -0.23694388 2141.35917696 -0.2352312 2158.57261675 -0.23270115 C2165.43954868 -0.2317045 2172.30648062 -0.23081781 2179.17341256 -0.22996593 C2180.29696333 -0.22982209 2180.29696333 -0.22982209 2181.44321209 -0.22967536 C2205.13523924 -0.22669453 2228.82725187 -0.23289227 2252.51927605 -0.24448479 C2276.52866921 -0.2561928 2300.53803706 -0.25742487 2324.54743131 -0.24616911 C2338.18311344 -0.24009533 2351.81873452 -0.24210667 2365.45441084 -0.25642108 C2374.53608817 -0.26512358 2383.61772105 -0.26273466 2392.69939571 -0.25172237 C2397.83103046 -0.24579885 2402.96254645 -0.24419426 2408.09417283 -0.25640723 C2427.99769408 -0.30050879 2447.78831373 0.02811102 2467.64597082 1.4673028 C2468.88471555 1.55513024 2468.88471555 1.55513024 2470.14848543 1.64473197 C2487.83920933 2.93210249 2505.23497269 5.77447506 2522.63976884 9.1276505 C2523.66795732 9.32536046 2524.69614579 9.52307042 2525.7554915 9.72677159 C2530.34443682 10.62466191 2534.90838983 11.60050563 2539.46793962 12.63639379 C2541.49459587 13.09481311 2543.52339905 13.54217691 2545.55285478 13.98800206 C2555.98533404 16.32063691 2566.08072372 19.32598712 2576.20226884 22.7526505 C2576.98179917 23.01465245 2577.76132951 23.27665441 2578.56448197 23.54659581 C2627.58142379 40.06303157 2673.07979202 64.39507207 2712.80627275 97.60274816 C2714.48163587 98.99613272 2716.17265909 100.36698023 2717.87023759 101.73311925 C2726.21032283 108.54927714 2733.82418887 116.10032849 2741.45226884 123.6901505 C2741.9884282 124.22104283 2742.52458756 124.75193517 2743.07699418 125.29891515 C2750.07292512 132.24166496 2756.49192366 139.40910152 2762.63976884 147.1276505 C2763.57456964 148.22946062 2764.51593309 149.32578845 2765.46789384 150.41280675 C2781.55996342 168.86677686 2794.87548832 189.6086254 2806.53332353 211.09981847 C2807.65850946 213.16199728 2808.80872156 215.20889736 2809.96008134 217.25655675 C2831.31645544 255.85664282 2845.87085841 300.76371379 2851.13976884 344.5651505 C2851.25707353 345.50552159 2851.37437821 346.44589269 2851.49523759 347.41475987 C2851.74749228 349.46941503 2851.9907507 351.52518673 2852.22692704 353.58175206 C2852.52113971 356.10874487 2852.83604449 358.62820445 2853.16784501 361.15011144 C2854.97573345 375.5793053 2854.99680018 389.97787642 2854.95226884 404.5026505 C2854.94978135 405.79399907 2854.94729386 407.08534764 2854.944731 408.41582799 C2854.88977295 426.83219842 2854.69514178 444.92728155 2851.63976884 463.1276505 C2851.46514115 464.18191228 2851.46514115 464.18191228 2851.28698564 465.25747228 C2848.14119497 484.16509029 2844.57638011 502.87617121 2838.63976884 521.1276505 C2838.28543778 522.25155187 2837.93110673 523.37545323 2837.56603837 524.53341222 C2832.20586662 541.52031218 2826.12513059 557.94151243 2818.63976884 574.1276505 C2817.90333433 575.76142388 2817.16763626 577.39552945 2816.43273759 579.02999425 C2805.38439241 603.29698427 2791.10170405 626.16440488 2774.63976884 647.1276505 C2774.00039384 647.94749425 2773.36101884 648.767338 2772.70226884 649.6120255 C2757.60612891 668.72568654 2741.22020793 687.32137419 2722.63976884 703.1276505 C2721.67039384 703.98616612 2720.70101884 704.84468175 2719.70226884 705.729213 C2679.97889614 740.7365419 2632.29372187 765.55048797 2582.63976884 783.1276505 C2581.71841142 783.45893956 2580.797054 783.79022862 2579.84777665 784.13155675 C2558.16489491 791.89807415 2535.8418516 797.11473446 2513.1148665 800.71895909 C2510.90856441 801.08326662 2508.71894254 801.48950779 2506.52648759 801.92843175 C2497.20270862 803.75570501 2487.8405237 804.82399935 2478.38976884 805.7526505 C2477.1535579 805.87583653 2475.91734696 805.99902257 2474.64367509 806.12594151 C2451.06983659 808.33522547 2427.51875641 808.2732829 2403.86743845 808.25763037 C2398.66557598 808.25530992 2393.46371672 808.25884338 2388.26185492 808.26159719 C2379.12313899 808.26563735 2369.98442876 808.26598291 2360.84571227 808.26389124 C2347.16453647 808.26077712 2333.48336588 808.26343446 2319.80219046 808.26718995 C2296.48232901 808.2734199 2273.16246984 808.27490401 2249.84260774 808.27377248 C2226.21292332 808.27263953 2202.58324047 808.27367569 2178.9535563 808.27734494 C2177.44551377 808.27757693 2175.93747125 808.27780891 2174.42942872 808.27804086 C2168.34871754 808.27898043 2162.26800637 808.27993673 2156.1872952 808.28091205 C2139.04799859 808.28365707 2121.90870194 808.28603659 2104.76940525 808.28816402 C2103.59142135 808.28831034 2103.59142135 808.28831034 2102.3896398 808.28845963 C2057.74883081 808.29396217 2013.10802174 808.29426915 1968.46721247 808.29468049 C1961.64433801 808.29474373 1954.82146356 808.29481026 1947.9985891 808.29488104 C1946.28843301 808.29489873 1944.57827692 808.29491611 1942.86812084 808.29493316 C1904.47041517 808.29532111 1866.0727097 808.29750031 1827.67500413 808.30006341 C1819.10265046 808.30063498 1810.53029679 808.30118895 1801.95794312 808.30174405 C1801.10700988 808.30179917 1800.25607664 808.30185429 1799.37935755 808.30191108 C1794.2139761 808.30224559 1789.04859464 808.30257935 1783.88321318 808.30291265 C1781.29558881 808.30307973 1778.70796444 808.30324724 1776.12034006 808.30341478 C1735.88857737 808.30601657 1695.65681466 808.3082469 1655.42505193 808.31009698 C1654.54848551 808.31013735 1653.67191909 808.31017772 1652.76879006 808.31021931 C1596.91750008 808.31278213 1541.06621022 808.31368185 1485.21492019 808.31341898 C1482.46890905 808.31340623 1479.7228979 808.31339426 1476.97688676 808.31338257 C1457.68554008 808.31330023 1438.39419339 808.31319752 1419.10284671 808.31308969 C1413.57173294 808.31305892 1408.04061918 808.31302886 1402.50950541 808.31299888 C1397.89583801 808.31297378 1393.28217062 808.31294799 1388.66850322 808.31292076 C1301.5346774 808.31240938 1214.40085251 808.31382638 1127.26702714 808.32326818 C1125.89112915 808.32341721 1125.89112915 808.32341721 1124.48743523 808.32356926 C1095.82751972 808.32668063 1067.16760424 808.33004712 1038.50768876 808.33346105 C1009.09953237 808.33696256 979.69137599 808.34043308 950.28321958 808.34372544 C949.37768369 808.34382697 948.47214781 808.3439285 947.53917145 808.3440331 C890.81251774 808.35038396 834.0858643 808.35430445 777.35921025 808.35558343 C776.48286176 808.35560346 775.60651326 808.35562348 774.70360875 808.35564412 C736.21354936 808.35651951 697.72348999 808.35683919 659.23343059 808.35655323 C643.74813999 808.35643896 628.26284938 808.35638288 612.77755877 808.35634991 C610.21010136 808.35634351 607.64264395 808.35633443 605.07518654 808.35632476 C565.82443946 808.35618834 526.57369323 808.35752995 487.32294655 808.36336994 C486.47711749 808.36349561 485.63128843 808.36362128 484.75982819 808.36375076 C471.15464275 808.36577965 457.54945733 808.36792371 443.94427192 808.37007757 C405.30307674 808.37618993 366.66188271 808.38122837 328.02068698 808.3791064 C327.23588694 808.37906369 326.4510869 808.37902098 325.64250504 808.37897697 C308.51670949 808.37802339 291.39091404 808.37650732 274.26511858 808.37444025 C267.43387675 808.37362398 260.60263491 808.37288034 253.77139306 808.37215924 C253.02624316 808.37207859 252.28109327 808.37199794 251.51336307 808.37191484 C227.92088756 808.36939555 204.32841838 808.37299803 180.73594398 808.38017706 C156.84063929 808.38742139 132.94534675 808.3877105 109.05004177 808.37963829 C95.47018155 808.37526344 81.89034839 808.37631288 68.31049042 808.38550508 C59.27731329 808.39106893 50.24415624 808.38930163 41.21098064 808.3817223 C36.09960524 808.37763428 30.98828289 808.37650769 25.87691085 808.38447298 C-2.93689481 808.42641025 -31.74999 808.01953217 -60.36023116 804.1901505 C-61.11097915 804.09182927 -61.86172713 803.99350804 -62.63522506 803.89220738 C-93.1869406 799.80313291 -124.43170918 792.8531846 -153.36023116 782.1276505 C-154.43402022 781.7367423 -155.50780929 781.34583409 -156.61413741 780.94308019 C-219.72525257 757.77002852 -280.563673 719.8130297 -324.36023116 668.1276505 C-325.24833336 667.11355931 -326.13777757 666.10064259 -327.02819991 665.088588 C-344.99003638 644.57559 -360.18548604 621.97646904 -373.36023116 598.1276505 C-374.02635421 596.93897374 -374.02635421 596.93897374 -374.70593429 595.72628331 C-383.24684856 580.4079385 -389.96226658 564.42601358 -396.36023116 548.1276505 C-396.95046065 546.63201573 -396.95046065 546.63201573 -397.55261397 545.10616612 C-405.48610249 524.80265233 -411.06175676 503.78575827 -414.95153975 482.34933019 C-415.33346611 480.27314751 -415.74255318 478.2045401 -416.16101241 476.135463 C-417.0145343 471.81663148 -417.70774583 467.48097785 -418.36023116 463.1276505 C-418.56760909 461.79443761 -418.56760909 461.79443761 -418.77917647 460.43429112 C-421.44915271 442.43756643 -421.63058546 424.53720279 -421.61023116 406.3776505 C-421.60945571 405.20852117 -421.60868026 404.03939183 -421.60788131 402.83483434 C-421.51387208 353.86546935 -413.49152467 307.10673526 -396.36023116 261.1276505 C-395.92638106 259.95468419 -395.92638106 259.95468419 -395.48376632 258.75802159 C-379.30459978 215.46781924 -354.82759423 175.79859335 -324.36023116 141.1276505 C-323.17687179 139.77606847 -323.17687179 139.77606847 -321.96960616 138.39718175 C-315.8150447 131.5362005 -309.34838411 124.9842063 -302.86023116 118.4401505 C-301.99414229 117.56100987 -301.12805343 116.68186925 -300.23571944 115.776088 C-295.00555918 110.53903688 -289.59270555 105.72170122 -283.81579757 101.0951798 C-281.8645175 99.5317113 -279.95592215 97.94580624 -278.07507491 96.2995255 C-212.32175024 38.96188655 -125.80343125 10.94249365 -40.41882491 2.10811925 C-39.18585677 1.98042653 -39.18585677 1.98042653 -37.92798018 1.85015416 C-35.40644381 1.59645338 -32.8837618 1.36069212 -30.36023116 1.1276505 C-29.45785738 1.04156237 -28.55548359 0.95547424 -27.62576514 0.86677738 C-18.40873422 0.06527425 -9.24164984 -0.01304121 0 0 Z M-42.36023116 102.1276505 C-43.11294139 102.22453172 -43.86565162 102.32141294 -44.64117124 102.42122996 C-49.24806713 103.02147468 -53.83585894 103.70264995 -58.42273116 104.4401505 C-59.10023421 104.5481397 -59.77773726 104.65612889 -60.47577071 104.76739049 C-72.25719038 106.65563884 -83.85826294 108.9310106 -95.36023116 112.1276505 C-96.81477706 112.52693761 -96.81477706 112.52693761 -98.29870772 112.93429112 C-158.0103202 129.5971222 -215.42201474 163.13882302 -254.36023116 212.1276505 C-255.30624406 213.27375581 -256.25425789 214.41821166 -257.20398116 215.56124425 C-286.66038177 251.25580908 -306.02577999 295.5423465 -314.98523116 340.7526505 C-315.27672042 342.20659215 -315.27672042 342.20659215 -315.57409835 343.68990636 C-319.33553888 363.56519209 -320.88510609 383.22812084 -320.73523116 403.4401505 C-320.73091079 404.55184606 -320.72659041 405.66354161 -320.72213912 406.80892491 C-320.60938087 431.59972681 -318.28814347 455.01336891 -312.36023116 479.1276505 C-312.11901534 480.14544591 -312.11901534 480.14544591 -311.87292647 481.18380284 C-302.37054788 521.17560149 -284.28404898 560.14204444 -258.36023116 592.1276505 C-257.63448897 593.045463 -256.90874679 593.9632755 -256.16101241 594.9089005 C-245.15565987 608.66065161 -232.95489216 621.90350794 -219.16101241 632.87374425 C-217.35538193 634.3268109 -215.57875165 635.8170487 -213.84069991 637.35030675 C-197.2869656 651.86814987 -177.92113161 663.18195102 -158.36023116 673.1276505 C-157.61225265 673.50856847 -156.86427413 673.88948644 -156.0936296 674.28194737 C-107.56377172 698.69032519 -51.92251038 709.32883623 2.1166358 709.25645167 C3.85638929 709.25782278 5.59614249 709.25963042 7.33589513 709.26183048 C12.1093414 709.26660641 16.88276865 709.26520292 21.65621595 709.26277278 C26.87154488 709.26122613 32.08686969 709.26549159 37.30219722 709.26899955 C46.47560056 709.27436715 55.64899878 709.27601733 64.82240358 709.2752488 C78.55576621 709.27411256 92.28912288 709.27869709 106.02248417 709.28437964 C129.42887716 709.29388849 152.83526854 709.29860672 176.24166322 709.30068898 C199.96621246 709.30281049 223.69075987 709.30707172 247.41530824 709.3139317 C248.92829395 709.31436679 250.44127967 709.31480176 251.95426539 709.31523659 C258.05474485 709.31699332 264.1552243 709.31876362 270.25570376 709.32054961 C343.35702408 709.34192134 416.45834477 709.35282446 489.55966751 709.36171185 C514.40567566 709.36473616 539.25168373 709.36819696 564.09769177 709.37199306 C565.36668841 709.37218674 565.36668841 709.37218674 566.66132134 709.37238432 C574.36253312 709.37355986 582.0637449 709.37473903 589.76495668 709.37592159 C676.79345547 709.38927736 763.82195455 709.40167007 941.11535146 709.41668062 C949.39359489 709.41720507 957.67183832 709.41774239 965.95008175 709.41827908 C968.71461988 709.41845829 971.47915801 709.41863725 974.24369614 709.41881617 C991.80567308 709.41995323 1009.36765002 709.4210993 1026.92962696 709.42226437 C1031.56300745 709.42257168 1036.19638795 709.42287762 1040.82976845 709.42318027 C1128.3139224 709.42889845 1215.79807345 709.43813445 1303.28222489 709.46059728 C1304.20282148 709.4608335 1305.12341807 709.46106973 1306.07191152 709.46131312 C1335.76038888 709.46894085 1365.44886612 709.47698972 1395.13734335 709.48509839 C1423.72516377 709.49290631 1452.31298421 709.50062987 1480.90080476 709.50798821 C1481.80959944 709.5082223 1482.71839412 709.50845639 1483.65472804 709.50869757 C1540.5980789 709.5233414 1597.54142896 709.53313826 1654.4847815 709.53786302 C1655.36467733 709.53793661 1656.24457315 709.53801021 1657.15113248 709.53808603 C1695.79994334 709.5413125 1734.44875418 709.54348058 1773.09756516 709.54446903 C1788.64773346 709.54486983 1804.19790175 709.54540321 1819.74807005 709.54600046 C1822.3262775 709.54609793 1824.90448495 709.54619031 1827.4826924 709.54628184 C1866.88607687 709.54770934 1906.28945762 709.55226421 1945.69283986 709.56615782 C1946.96598152 709.56660642 1946.96598152 709.56660642 1948.26484321 709.56706409 C1961.91680862 709.57189218 1975.56877394 709.57697424 1989.22073925 709.58209009 C2028.00985299 709.59662063 2066.7989623 709.60912423 2105.58807921 709.60737193 C2106.37639966 709.60733716 2107.1647201 709.6073024 2107.97692904 709.60726658 C2125.18244823 709.6064665 2142.38796711 709.60455733 2159.59348606 709.60156404 C2166.45732392 709.60038699 2173.32116181 709.59935726 2180.1849997 709.59837461 C2180.93369448 709.59826348 2181.68238925 709.59815236 2182.45377174 709.59803787 C2206.13234654 709.59459343 2229.8108952 709.60339288 2253.48946426 709.61939452 C2277.48669156 709.63555881 2301.48387416 709.63775058 2325.48110411 709.62330192 C2339.10880871 709.6155221 2352.73640435 709.61851875 2366.36409794 709.63793908 C2375.44175659 709.64976622 2384.51933652 709.64678784 2393.59699106 709.63232444 C2398.72554563 709.62455169 2403.85388879 709.62251987 2408.98242784 709.63894347 C2429.20872158 709.69937861 2449.21856261 709.21315104 2469.36344814 707.28421396 C2470.22741933 707.20222941 2471.09139052 707.12024486 2471.98154265 707.03577592 C2483.00501457 705.9642844 2493.78608317 704.33555296 2504.63976884 702.1276505 C2506.74250455 701.72073397 2508.84534617 701.31436376 2510.94836259 700.9089005 C2538.26945898 695.31878773 2564.51891912 686.21899574 2589.63976884 674.1276505 C2590.53518388 673.70048741 2591.43059892 673.27332433 2592.35314775 672.83321691 C2615.13141858 661.83232362 2636.7748333 647.34724254 2655.38976884 630.19405675 C2657.37423704 628.37151564 2659.39762776 626.61981492 2661.45226884 624.8776505 C2671.09180561 616.44793413 2679.75687208 607.21170517 2687.63976884 597.1276505 C2688.51984575 596.03664883 2689.4014265 594.946859 2690.28430009 593.85811925 C2724.54997461 551.35347244 2744.55985013 500.02549316 2751.63976884 446.1276505 C2751.75691239 445.29894444 2751.87405595 444.47023839 2751.99474931 443.61642003 C2755.97248759 414.67290687 2755.60545084 382.90451383 2750.63976884 354.1276505 C2750.44109208 352.95170323 2750.24241532 351.77575597 2750.03771806 350.56417394 C2741.54355938 301.6098242 2722.34762389 256.25988272 2691.63976884 217.1276505 C2690.89340165 216.16729894 2690.14703446 215.20694737 2689.37805009 214.21749425 C2682.91923688 206.11114643 2675.78996322 198.62035575 2668.63976884 191.1276505 C2667.88437821 190.32972081 2667.12898759 189.53179112 2666.35070634 188.70968175 C2662.0287151 184.25429572 2657.36842573 180.33503687 2652.52258134 176.45968175 C2650.65585289 174.94960467 2648.81492206 173.40682742 2647.00695634 171.82686925 C2583.24023221 116.32620195 2496.35486308 99.56149826 2414.4020692 99.74799573 C2409.1446394 99.7565416 2403.88723214 99.7473657 2398.62980378 99.74061516 C2389.40717428 99.731152 2380.18459894 99.73270108 2370.96196967 99.74164339 C2357.15547339 99.75497255 2343.34901877 99.75082689 2329.54251999 99.74341153 C2306.00597811 99.73127457 2282.46945873 99.73327897 2258.93291688 99.74311757 C2235.09254828 99.75303683 2211.25219197 99.7563729 2187.4118216 99.75174069 C2186.65864928 99.75159738 2185.90547695 99.75145406 2185.12948121 99.7513064 C2178.22667215 99.74999148 2171.3238631 99.74860755 2164.42105406 99.74714097 C2147.11492348 99.74347045 2129.80879281 99.74082544 2112.50266194 99.73887146 C2111.70980521 99.7387814 2110.91694849 99.73869134 2110.1000658 99.73859856 C2071.05523916 99.7342594 2032.01041549 99.74129117 1992.96558976 99.74932981 C1979.2270167 99.75215341 1965.48844364 99.75495557 1951.74987054 99.75760555 C1950.8957509 99.75777064 1950.04163126 99.75793573 1949.16162921 99.75810582 C1909.55515834 99.76571216 1869.94868837 99.76627996 1830.3422169 99.76521061 C1826.88505877 99.76511868 1823.42790064 99.76503468 1819.97074251 99.76495051 C1805.20431357 99.7645898 1790.43788464 99.76418127 1775.6714557 99.76372151 C1736.81370255 99.76252181 1697.95594943 99.76234122 1659.09819627 99.76292443 C1658.21365511 99.76293733 1657.32911395 99.76295023 1656.41776851 99.76296351 C1599.14753221 99.76381324 1541.87729727 99.76906009 1484.60706162 99.777632 C1483.69301776 99.77776852 1482.77897389 99.77790505 1481.83723173 99.77804571 C1451.22244575 99.78262168 1420.60765982 99.78748091 1389.99287389 99.79235873 C1361.99850394 99.79681681 1334.00413398 99.80113945 1306.00976396 99.8050797 C1304.62115733 99.80527517 1304.62115733 99.80527517 1303.20449804 99.80547459 C1215.28691505 99.81780312 1127.36933367 99.81625164 1039.45175013 99.81210805 C1034.79725323 99.81188914 1030.14275634 99.81167301 1025.48825944 99.81145683 C1024.56713494 99.81141403 1023.64601044 99.81137124 1022.69697308 99.81132714 C1020.83666938 99.81124072 1018.97636568 99.81115432 1017.11606198 99.81106794 C1015.25655546 99.81098158 1013.39704894 99.81089515 1011.53754242 99.81080866 C991.1488979 99.80986041 970.76025337 99.8089388 950.37160884 99.80806959 C947.60173452 99.80795125 944.83186019 99.80783169 942.06198586 99.80771206 C885.73698917 99.8052925 829.41199298 99.80540267 773.08699632 99.80841088 C772.202805 99.80845794 771.31861368 99.80850499 770.40762868 99.80855346 C729.8344609 99.81072186 689.26129319 99.81366524 648.6881255 99.81723329 C644.33991298 99.81761501 639.99170046 99.81799309 635.64348795 99.8183712 C634.35378079 99.81848343 634.35378079 99.81848343 633.03801893 99.81859793 C628.70145334 99.81897522 624.36488775 99.81935183 620.02832216 99.81972747 C618.29648858 99.81987755 616.564655 99.82002764 614.83282143 99.82017773 C613.54782967 99.82028902 613.54782967 99.82028902 612.23687849 99.82040256 C607.05512488 99.82085218 601.87337128 99.82131003 596.69161768 99.82177303 C557.94609936 99.82522822 519.20058158 99.82746079 480.4550631 99.82606792 C479.60117371 99.82603771 478.74728432 99.82600749 477.86751948 99.82597636 C468.40926303 99.8256403 458.95100658 99.8252734 449.49275013 99.82489815 C446.06969521 99.8247629 442.64664029 99.82462839 439.22358537 99.8244946 C437.95555842 99.82444496 437.95555842 99.82444496 436.66191477 99.82439431 C397.66737279 99.82288261 358.6728321 99.82270602 319.67829061 99.82981384 C318.88685466 99.82995788 318.09541871 99.83010191 317.27999985 99.83025032 C300.01244679 99.83341776 282.74489391 99.83718028 265.47734111 99.84152882 C258.59039661 99.84325602 251.7034521 99.84491481 244.81650758 99.84655499 C243.68965255 99.84682651 243.68965255 99.84682651 242.54003278 99.84710352 C218.72762255 99.85281006 194.91521772 99.85242333 171.10280727 99.84850573 C147.00012541 99.84456951 122.89745589 99.84757827 98.79477603 99.85901437 C85.08656624 99.86530833 71.37838232 99.86615729 57.67017283 99.85895477 C48.56481775 99.85471831 39.45948366 99.85773706 30.354132 99.8666394 C25.1935475 99.87148348 20.0330151 99.87327603 14.8724321 99.86612402 C-13.8053978 99.73441536 -13.8053978 99.73441536 -42.36023116 102.1276505 Z " fill="#FEFDFD" transform="translate(703.3602311611176,235.87234950065613)"/>
<path d="M0 0 C38.61 0 77.22 0 117 0 C117 125.4 117 250.8 117 380 C78.06 380 39.12 380 -1 380 C-4.96 373.4 -8.92 366.8 -13 360 C-17.46006105 352.90582503 -17.46006105 352.90582503 -21.9453125 345.828125 C-25.1060483 340.84646433 -28.21328837 335.83260168 -31.3125 330.8125 C-35.95343971 323.2962106 -40.62316254 315.79868575 -45.3125 308.3125 C-50.58071632 299.89873455 -55.8053024 291.45934198 -61 283 C-68.60044118 270.6248991 -76.28767913 258.30559887 -84 246 C-92.39329429 232.60785587 -100.74209422 219.19073085 -109.01269531 205.72241211 C-114.15697878 197.35199954 -119.35147797 189.01403829 -124.56640625 180.6875 C-129.09262915 173.45891196 -133.58883057 166.21233112 -138.07128906 158.95654297 C-142.94982969 151.06602074 -147.86918981 143.20121226 -152.80078125 135.34375 C-153.39117188 134.40144531 -153.9815625 133.45914063 -154.58984375 132.48828125 C-155.10409912 131.66884033 -155.61835449 130.84939941 -156.14819336 130.00512695 C-158.80474837 125.69404777 -161.39466501 121.34222499 -164 117 C-164.33 203.79 -164.66 290.58 -165 380 C-203.61 380 -242.22 380 -282 380 C-282 254.93 -282 129.86 -282 1 C-242.73 1 -203.46 1 -163 1 C-157.72 9.58 -152.44 18.16 -147 27 C-142.66944552 34.00173762 -138.337255 41.00241744 -134 48 C-126.29447606 60.43183531 -118.61072366 72.87673094 -110.94873047 85.33544922 C-105.17591002 94.71992603 -99.38082527 104.0904529 -93.57666016 113.45556641 C-90.33836734 118.68156327 -87.10335694 123.90959293 -83.86767578 129.13720703 C-81.19796756 133.45018186 -78.52757648 137.76273007 -75.85546875 142.07421875 C-70.60703135 150.54465417 -65.36959428 159.02157913 -60.15307617 167.51171875 C-54.26514246 177.09458426 -48.34991955 186.65860056 -42.375 196.1875 C-36.94011832 204.85621431 -31.59208096 213.57350203 -26.28881836 222.32324219 C-20.19531944 232.35959335 -13.96608542 242.31025209 -7.72241211 252.25366211 C-5.47745948 255.83317623 -3.23937777 259.41699556 -1 263 C-0.67 176.21 -0.34 89.42 0 0 Z " fill="#FEFEFE" transform="translate(889,449)"/>
<path d="M0 0 C37.29 0 74.58 0 113 0 C113 125.4 113 250.8 113 380 C75.71 380 38.42 380 0 380 C-0.33 375.71 -0.66 371.42 -1 367 C-2.00675781 367.56847656 -3.01351562 368.13695312 -4.05078125 368.72265625 C-18.94046266 376.96423024 -34.14311215 383.16724488 -51 386 C-52.61841797 386.30550781 -52.61841797 386.30550781 -54.26953125 386.6171875 C-87.3039739 392.23188905 -122.85704331 384.20296628 -150.30078125 364.99609375 C-154.64335668 361.78472465 -158.87194029 358.48325811 -163 355 C-163.81082031 354.32453125 -164.62164063 353.6490625 -165.45703125 352.953125 C-189.28317541 332.3913502 -205.74451067 301.487013 -208.78466797 270.05859375 C-210.04972379 252.08963757 -210.73533766 233.26314662 -205 216 C-204.79101074 215.33871094 -204.58202148 214.67742187 -204.36669922 213.99609375 C-197.30750049 192.04119254 -184.8796571 173.49313568 -169 157 C-167.96166016 155.84951172 -167.96166016 155.84951172 -166.90234375 154.67578125 C-155.6172517 142.56442042 -140.78260841 134.11965452 -126 127 C-125.14664063 126.58234375 -124.29328125 126.1646875 -123.4140625 125.734375 C-93.4234576 112.47537073 -57.59109667 114.37064309 -27.49804688 125.96386719 C-18.09891731 129.83655132 -9.09394486 134.45302757 0 139 C0 93.13 0 47.26 0 0 Z " fill="#FEFEFE" transform="translate(2757,449)"/>
<path d="M0 0 C2.58183748 0.01608925 5.16210554 0.00002888 7.74389648 -0.01904297 C23.6465853 -0.04003171 39.27722666 1.92170348 54.64819336 6.07861328 C56.07228516 6.45880615 56.07228516 6.45880615 57.52514648 6.84667969 C82.29778807 13.71560742 106.19806097 25.59724862 124.98803711 43.35205078 C126.99976611 45.25100654 129.07856016 47.00533009 131.21069336 48.76611328 C147.99063169 63.45698299 160.85975883 86.12140824 167.14819336 107.39111328 C167.54006836 108.63892578 167.93194336 109.88673828 168.33569336 111.17236328 C177.01280505 141.69097321 170.62632516 175.150287 155.94897461 202.62158203 C134.28734023 241.12844323 96.39487027 265.17562083 54.90649414 277.63183594 C47.11526463 279.77652737 39.13693507 281.20538305 31.14819336 282.39111328 C30.45234131 282.49496338 29.75648926 282.59881348 29.03955078 282.70581055 C-9.45078065 287.71546565 -49.7844303 280.83160159 -83.85180664 262.39111328 C-84.82118164 261.89998047 -85.79055664 261.40884766 -86.78930664 260.90283203 C-120.06743158 243.73170652 -145.64914863 213.58073117 -157.26586914 178.14892578 C-163.94056496 157.01119155 -164.6839325 135.96674296 -159.85180664 114.39111328 C-159.48635742 112.58320312 -159.48635742 112.58320312 -159.11352539 110.73876953 C-153.67977867 87.02085138 -139.70525269 66.51599111 -122.85180664 49.39111328 C-122.32119629 48.84003906 -121.79058594 48.28896484 -121.24389648 47.72119141 C-101.49017946 27.47182149 -75.65722542 14.63890893 -48.85180664 6.57861328 C-47.48439331 6.16144043 -47.48439331 6.16144043 -46.08935547 5.73583984 C-30.9323138 1.39581675 -15.71542641 -0.11580569 0 0 Z " fill="#FEFDFE" transform="translate(3069.851806640625,559.60888671875)"/>
<path d="M0 0 C0.78181641 0.2278418 1.56363281 0.45568359 2.36914062 0.69042969 C27.5444029 8.16402715 50.16126283 19.76694771 70 37 C71.38832031 38.18722656 71.38832031 38.18722656 72.8046875 39.3984375 C79.28241586 45.08663664 84.77047904 51.15619068 90 58 C90.66644531 58.85078125 91.33289062 59.7015625 92.01953125 60.578125 C109.07003191 83.04308445 118 108.79480381 118 137 C47.05 137 -23.9 137 -97 137 C-100.75728541 187.74785302 -100.75728541 187.74785302 -81.2265625 232.8671875 C-76.11975151 237.72386897 -70.53119256 240.47052149 -64 243 C-62.88625 243.433125 -61.7725 243.86625 -60.625 244.3125 C-47.73374322 246.75739353 -35.24324279 244.45172737 -24 237.6875 C-12.58589276 229.766143 -7.31959919 218.43660697 -4.54296875 205.0078125 C-2.60348737 194.26392285 -2.53630099 185.79862176 -2 174 C35.29 174 72.58 174 111 174 C108.87449185 181.08502717 106.80958007 186.98834029 103.375 193.375 C102.93551025 194.19863037 102.49602051 195.02226074 102.04321289 195.87084961 C96.1063616 206.7541886 88.51002812 216.01013613 80 225 C78.78763672 226.30904297 78.78763672 226.30904297 77.55078125 227.64453125 C48.41792178 258.08379698 3.68180559 276.01553 -38.09863281 277.12646484 C-42.58651139 277.21812775 -47.0737645 277.24601631 -51.5625 277.25 C-52.35580719 277.25100708 -53.14911438 277.25201416 -53.96646118 277.25305176 C-66.22566292 277.24255415 -77.9833884 276.5873354 -90 274 C-91.43487173 273.71862706 -92.8697676 273.43737716 -94.3046875 273.15625 C-134.84753037 264.78563679 -174.77034744 240.43429069 -197.7421875 205.59375 C-215.56488221 177.65965681 -223.98968068 145.01224875 -217.47436523 112.03466797 C-210.27222119 79.69385511 -191.42108992 50.96019498 -165 31 C-164.03578125 30.23558594 -163.0715625 29.47117187 -162.078125 28.68359375 C-141.43205498 12.7570863 -116.87484606 2.86148724 -91.54492188 -2.46386719 C-89.957579 -2.79826905 -88.37242016 -3.14343889 -86.79101562 -3.50488281 C-59.44307811 -9.68311191 -26.74382101 -7.91742051 0 0 Z " fill="#FEFEFE" transform="translate(2025,567)"/>
<path d="M0 0 C3.60939296 3.09791339 7.03268695 6.35382424 10.421875 9.69042969 C11.20175781 10.44582031 11.98164063 11.20121094 12.78515625 11.97949219 C35.39958752 35.35711031 42.8206873 67.81713675 42.64892578 99.36816406 C42.64835961 100.85818982 42.64868224 102.34821614 42.64981079 103.83824158 C42.65037727 107.82688704 42.63873922 111.81540861 42.62466288 115.80402565 C42.612036 119.99332654 42.6109757 124.18263126 42.60861206 128.37194824 C42.60243203 136.27982785 42.58606903 144.18765119 42.56591308 152.09550619 C42.53923172 162.79918491 42.5285533 173.50287936 42.51690865 184.20658302 C42.49818533 201.03457393 42.45831674 217.8624462 42.421875 234.69042969 C4.801875 234.69042969 -32.818125 234.69042969 -71.578125 234.69042969 C-71.61679688 215.89783203 -71.61679688 215.89783203 -71.65625 196.72558594 C-71.68141465 188.79132548 -71.70758155 180.85708934 -71.73828125 172.92285156 C-71.78682854 160.32771978 -71.83126937 147.73266887 -71.84912109 135.13745117 C-71.86214155 125.96421287 -71.88911636 116.79113899 -71.93273807 107.6179933 C-71.95534393 102.76237595 -71.9710362 97.90696134 -71.97000885 93.0512867 C-71.96926173 88.47688695 -71.98723357 83.90293522 -72.01929283 79.32865143 C-72.02778107 77.65378043 -72.02954908 75.97885913 -72.02392769 74.30397606 C-71.9990375 65.74506767 -71.9944733 58.2366569 -76.578125 50.69042969 C-77.09632813 49.69914063 -77.61453125 48.70785156 -78.1484375 47.68652344 C-85.44100736 35.68493234 -96.22037891 28.46889536 -109.703125 24.87792969 C-124.7009926 21.78649644 -139.54813862 23.10386476 -152.91015625 30.89355469 C-164.32229426 38.57962128 -172.64484538 48.41911259 -176.578125 61.69042969 C-177.27513913 67.44711681 -177.27091047 73.14200018 -177.23754883 78.93359375 C-177.24601764 80.63978744 -177.25666885 82.34597146 -177.26931763 84.05213928 C-177.29729157 88.64852623 -177.29502312 93.24444376 -177.28702378 97.84088993 C-177.28388424 102.65756571 -177.30897528 107.47409573 -177.33097839 112.29071045 C-177.36833036 121.39578276 -177.38056114 130.50070574 -177.3836028 139.60584712 C-177.38918346 151.92080227 -177.43390224 164.23561266 -177.47634411 176.55048561 C-177.54211056 195.93050322 -177.55587213 215.31020011 -177.578125 234.69042969 C-214.868125 234.69042969 -252.158125 234.69042969 -290.578125 234.69042969 C-290.578125 151.53042969 -290.578125 68.37042969 -290.578125 -17.30957031 C-253.288125 -17.30957031 -215.998125 -17.30957031 -177.578125 -17.30957031 C-177.083125 -4.93457031 -177.083125 -4.93457031 -176.578125 7.69042969 C-175.2375 6.41167969 -173.896875 5.13292969 -172.515625 3.81542969 C-125.0138466 -38.57791723 -49.32971987 -40.93512026 0 0 Z " fill="#FEFEFE" transform="translate(2468.578125,594.3095703125)"/>
<path d="M0 0 C3.58772265 3.0534721 6.93884813 6.31646248 10.28857422 9.62695312 C11.07619141 10.34238281 11.86380859 11.0578125 12.67529297 11.79492188 C31.83086153 29.61327797 42.80495073 57.88360958 44.55870628 83.58589172 C44.65321164 87.67913895 44.66124803 91.76178408 44.62915039 95.85546875 C44.62830128 97.40460697 44.62878478 98.95374639 44.63047791 100.50288391 C44.63132822 104.65274013 44.61386147 108.80232885 44.59275603 112.95212364 C44.5738258 117.30958017 44.57222606 121.66704483 44.56867981 126.02453613 C44.55940684 134.25119075 44.53485836 142.47772379 44.50463134 150.7043252 C44.46462117 161.83849299 44.44859402 172.97269473 44.43112469 184.10691643 C44.40303303 201.61368614 44.34323221 219.12019948 44.28857422 236.62695312 C6.99857422 236.62695312 -30.29142578 236.62695312 -68.71142578 236.62695312 C-68.74880859 224.39890625 -68.78619141 212.17085937 -68.82470703 199.57226562 C-68.85498345 191.82485846 -68.88600765 184.07746625 -68.92041016 176.33007812 C-68.9748742 164.03354245 -69.0262882 151.73704829 -69.05786133 139.44042969 C-69.08087118 130.48437901 -69.11430261 121.52843747 -69.16012734 112.57247341 C-69.18401925 107.83255143 -69.20277444 103.09273728 -69.20903969 98.3527565 C-69.2151088 93.88593724 -69.23517438 89.41939374 -69.26570129 84.95267677 C-69.27445232 83.31853847 -69.27821022 81.68436409 -69.27643394 80.05020332 C-69.26497205 64.6315565 -72.09163342 51.5994223 -82.89892578 39.81445312 C-95.17512802 28.5795359 -109.64775868 24.6919191 -125.84814453 25.23632812 C-132.19281627 25.62585917 -137.85988826 27.16896716 -143.71142578 29.62695312 C-144.45392578 29.92730469 -145.19642578 30.22765625 -145.96142578 30.53710938 C-158.27779334 36.09390802 -167.69892293 46.18017639 -172.71142578 58.62695312 C-174.32001292 63.54509266 -174.96711641 67.79277711 -174.98989868 72.96055603 C-174.99569108 73.66482446 -175.00148349 74.36909289 -175.00745142 75.09470278 C-175.0243508 77.43614815 -175.02731915 79.77739523 -175.03027344 82.11889648 C-175.03957858 83.8046415 -175.04974812 85.49038192 -175.06071472 87.17611694 C-175.08796273 91.73959677 -175.10314871 96.30304581 -175.11614275 100.86658549 C-175.13179606 105.6405494 -175.15857927 110.41445066 -175.18417358 115.18836975 C-175.23092243 124.22272628 -175.26768539 133.25709465 -175.30084646 142.29151016 C-175.34625033 154.50377248 -175.40710875 166.71595718 -175.46709442 178.92815495 C-175.56115854 198.16104873 -175.63459896 217.39396487 -175.71142578 236.62695312 C-213.00142578 236.62695312 -250.29142578 236.62695312 -288.71142578 236.62695312 C-288.71142578 153.46695312 -288.71142578 70.30695312 -288.71142578 -15.37304688 C-251.42142578 -15.37304688 -214.13142578 -15.37304688 -175.71142578 -15.37304688 C-175.21642578 -2.99804688 -175.21642578 -2.99804688 -174.71142578 9.62695312 C-171.74142578 6.98695313 -168.77142578 4.34695313 -165.71142578 1.62695312 C-150.1956948 -9.92949057 -133.59019065 -18.85407157 -114.71142578 -23.37304688 C-113.64021484 -23.65792969 -112.56900391 -23.9428125 -111.46533203 -24.23632812 C-74.31024669 -34.02374761 -30.01813182 -24.08302045 0 0 Z " fill="#FEFEFE" transform="translate(1537.71142578125,592.373046875)"/>
<path d="M0 0 C37.95 0 75.9 0 115 0 C115 16.83 115 33.66 115 51 C135.13 51 155.26 51 176 51 C176 63.54 176 76.08 176 89 C155.54 89 135.08 89 114 89 C114 172.16 114 255.32 114 341 C76.38 341 38.76 341 0 341 C0 257.84 0 174.68 0 89 C-20.46 89 -40.92 89 -62 89 C-62 76.79 -62 64.58 -62 52 C-41.54 52 -21.08 52 0 52 C0 34.84 0 17.68 0 0 Z " fill="#FEFEFE" transform="translate(1645,488)"/>
<path d="M0 0 C37.62 0 75.24 0 114 0 C114 83.16 114 166.32 114 252 C76.38 252 38.76 252 0 252 C0 168.84 0 85.68 0 0 Z " fill="#FEFEFE" transform="translate(1072,577)"/>
<path d="M0 0 C0.71220703 -0.00773438 1.42441406 -0.01546875 2.15820312 -0.0234375 C14.29562534 0.02065849 24.72684407 4.74675113 33.52734375 13.01953125 C45.39905114 26.03055797 47.87536039 42.87051079 47.8371582 59.81713867 C47.84226913 61.01078033 47.84738007 62.204422 47.85264587 63.43423462 C47.86406915 66.67221423 47.86663056 69.91003299 47.86408257 73.14802718 C47.86300237 75.87095593 47.86792303 78.59386185 47.872688 81.31678563 C47.88373473 87.75360735 47.88424885 94.19037069 47.87817383 100.62719727 C47.87214634 107.21983304 47.88442493 113.81225472 47.9057439 120.404854 C47.9234887 126.10638967 47.92934095 131.80785802 47.92610615 137.50942022 C47.92431254 140.89630011 47.92673261 144.28302749 47.94082069 147.66988182 C48.08739526 192.13185373 48.08739526 192.13185373 31.72265625 209.31640625 C21.03022571 218.88738838 9.11739135 221.10926938 -4.796875 220.66015625 C-16.46939208 219.90518201 -25.91420815 213.32239604 -33.6875 204.9375 C-46.88842087 188.38164896 -46.03995759 167.63020939 -45.94187045 147.60309625 C-45.92782825 144.01511433 -45.93450114 140.42715673 -45.93800354 136.8391571 C-45.94068972 130.82196892 -45.92736502 124.80498204 -45.90405273 118.7878418 C-45.8774166 111.86556437 -45.87571342 104.94362228 -45.8874411 98.0213111 C-45.89827679 91.31290803 -45.89198901 84.60462435 -45.87788582 77.8962307 C-45.8721796 75.06282867 -45.8721657 72.22951557 -45.87695122 69.39611244 C-45.88267719 65.42972066 -45.86326232 61.46365492 -45.84155273 57.49731445 C-45.84605438 56.34424301 -45.85055603 55.19117157 -45.85519409 54.00315857 C-45.70938942 37.85434603 -41.29082271 23.3556392 -30 11.51171875 C-21.21638478 3.75910715 -11.63657537 -0.12568758 0 0 Z " fill="#E60012" transform="translate(3072.4375,590.75)"/>
<path d="M0 0 C0.90427734 -0.020625 1.80855469 -0.04125 2.74023438 -0.0625 C13.97906946 -0.12676782 23.13439526 3.23646513 31.9375 10.25 C43.7968616 22.26828102 46.2324628 35.99488479 46.24389648 52.38012695 C46.25222 53.42092407 46.26054352 54.46172119 46.26911926 55.53405762 C46.29298819 58.93550481 46.30196213 62.3367595 46.30859375 65.73828125 C46.31757633 68.12900341 46.32669843 70.51972505 46.33595276 72.91044617 C46.35238165 77.90735228 46.36013195 82.90419188 46.36303711 87.90112305 C46.36842011 94.26910971 46.40612446 100.63646191 46.45178127 107.0042696 C46.48167984 111.93829068 46.48876342 116.87216113 46.48976326 121.80626488 C46.49393866 124.1523651 46.50626356 126.4984669 46.52728081 128.8444767 C46.67333341 146.55275507 45.79287551 162.48602477 33.1640625 176.171875 C23.35474142 185.54077758 10.59284218 188.81014658 -2.65625 188.5625 C-14.88436871 187.44065425 -25.07279034 182.03681983 -33.49609375 173.2421875 C-36.36300866 169.59598649 -38.24101324 165.49331372 -40.0625 161.25 C-40.41699219 160.44820312 -40.77148438 159.64640625 -41.13671875 158.8203125 C-43.43854126 152.42959852 -43.22208691 145.90537213 -43.23950195 139.20263672 C-43.24607315 138.09937546 -43.25264435 136.9961142 -43.25941467 135.85942078 C-43.27908934 132.21617559 -43.29079774 128.57297152 -43.30078125 124.9296875 C-43.30485678 123.68142307 -43.3089323 122.43315865 -43.31313133 121.14706802 C-43.33182307 115.21930971 -43.34639377 109.29156433 -43.3547433 103.36378372 C-43.36449972 96.55217585 -43.39078722 89.74089431 -43.43124419 82.92940128 C-43.46520878 77.00488344 -43.47690179 71.08044419 -43.48094749 65.15582657 C-43.48580164 62.64816196 -43.4973819 60.14050054 -43.51598549 57.63290024 C-43.5404755 54.11291668 -43.53939338 50.5937741 -43.5324707 47.07373047 C-43.54528076 46.05096512 -43.55809082 45.02819977 -43.57128906 43.97444153 C-43.48425677 31.74832951 -39.37743931 21.05829394 -31.0625 12.09375 C-22.0650354 3.48189102 -12.1945039 0.06751282 0 0 Z " fill="#E60012" transform="translate(2712.0625,607.75)"/>
<path d="M0 0 C0.85207031 0.26683594 1.70414063 0.53367187 2.58203125 0.80859375 C17.83474432 6.21309838 28.60339775 17.89914513 35.45581055 32.18554688 C41.2647707 44.87925603 42.24011974 60.56033475 38 74 C31.55904529 89.9194051 21.61946689 101.66326342 6.26171875 109.375 C3.86470118 110.38897944 1.48646356 111.23460901 -1 112 C-1.65484375 112.22300781 -2.3096875 112.44601562 -2.984375 112.67578125 C-14.14984135 115.85664085 -28.28231096 115.27402516 -39 111 C-40.44052734 110.43152344 -40.44052734 110.43152344 -41.91015625 109.8515625 C-56.84212905 103.18515916 -67.63889078 90.69665584 -74 75.77734375 C-79.40298124 60.77140758 -78.05154474 44.02387738 -71.45703125 29.6328125 C-62.90766179 14.25568574 -50.6529529 4.34409454 -34.09375 -1.125 C-22.58724823 -4.37936414 -11.32651475 -3.64912818 0 0 Z " fill="#E60617" transform="translate(3276,455)"/>
<path d="M0 0 C37.95 0 75.9 0 115 0 C115 25.74 115 51.48 115 78 C77.05 78 39.1 78 0 78 C0 52.26 0 26.52 0 0 Z " fill="#FEFCFD" transform="translate(1071,449)"/>
<path d="M0 0 C0.91265625 0.29519531 1.8253125 0.59039063 2.765625 0.89453125 C13.71094316 4.8657172 22.21742379 12.09347219 27.7890625 22.3671875 C35.13012878 38.32808644 34 53.08357031 34 71 C2.65 71 -28.7 71 -61 71 C-61 26.3866171 -61 26.3866171 -45.8984375 10.8359375 C-33.49243492 -0.86866564 -16.48977805 -5.85821062 0 0 Z " fill="#E60213" transform="translate(1989,594)"/>
<path d="M0 0 C0.85207031 0.26683594 1.70414063 0.53367187 2.58203125 0.80859375 C17.83474432 6.21309838 28.60339775 17.89914513 35.45581055 32.18554688 C41.2647707 44.87925603 42.24011974 60.56033475 38 74 C31.55904529 89.9194051 21.61946689 101.66326342 6.26171875 109.375 C3.86470118 110.38897944 1.48646356 111.23460901 -1 112 C-1.65484375 112.22300781 -2.3096875 112.44601562 -2.984375 112.67578125 C-14.14984135 115.85664085 -28.28231096 115.27402516 -39 111 C-40.44052734 110.43152344 -40.44052734 110.43152344 -41.91015625 109.8515625 C-56.84212905 103.18515916 -67.63889078 90.69665584 -74 75.77734375 C-79.40298124 60.77140758 -78.05154474 44.02387738 -71.45703125 29.6328125 C-62.90766179 14.25568574 -50.6529529 4.34409454 -34.09375 -1.125 C-22.58724823 -4.37936414 -11.32651475 -3.64912818 0 0 Z M-41 14 C-41.80566406 14.44601562 -42.61132812 14.89203125 -43.44140625 15.3515625 C-53.65305745 21.53730045 -61.17802387 31.38511529 -64.5534668 42.88574219 C-67.33489302 56.05531634 -65.62592701 70.00146229 -58.5078125 81.38671875 C-57.09585736 83.36565069 -55.61734678 85.18700643 -54 87 C-53.2575 87.845625 -52.515 88.69125 -51.75 89.5625 C-40.93831534 99.14558413 -30.04431089 103.81964333 -15.41796875 103.31640625 C-2.29005971 102.10113696 9.01535748 96.76753668 18 87 C26.69197238 75.34088845 30.2428373 63.56395261 29 49 C26.2240499 35.54853894 19.81167406 24.37040699 8.6171875 16.27734375 C-6.0351783 6.93014488 -25.67405336 5.07363971 -41 14 Z " fill="#FEF8F8" transform="translate(3276,455)"/>
<path d="M0 0 C5.56875 -0.061875 11.1375 -0.12375 16.875 -0.1875 C18.61120605 -0.21481201 20.34741211 -0.24212402 22.13623047 -0.27026367 C40.68181396 -0.44499834 40.68181396 -0.44499834 47.47265625 4.97265625 C47.99730469 5.66230469 48.52195312 6.35195313 49.0625 7.0625 C49.61035156 7.75472656 50.15820312 8.44695312 50.72265625 9.16015625 C53.6045607 13.31115624 53.56672007 17.06481273 53 22 C51.30641489 27.2556364 48.78435947 31.08270764 44 34 C42.34166501 34.37257746 40.67508912 34.71196297 39 35 C39.39380859 35.77190674 39.78761719 36.54381348 40.19335938 37.33911133 C41.65179831 40.20485755 43.10481172 43.07327019 44.55419922 45.94360352 C45.18257007 47.18526042 45.81309092 48.4258317 46.44580078 49.6652832 C47.35493614 51.44715997 48.25570991 53.23329514 49.15625 55.01953125 C49.70087891 56.09307861 50.24550781 57.16662598 50.80664062 58.27270508 C52 61 52 61 52 64 C46.39 64 40.78 64 35 64 C33.15956426 60.23248462 31.32741896 56.4613222 29.5 52.6875 C28.97535156 51.61564453 28.45070313 50.54378906 27.91015625 49.43945312 C27.41386719 48.41142578 26.91757813 47.38339844 26.40625 46.32421875 C25.94541016 45.37635498 25.48457031 44.42849121 25.00976562 43.4519043 C24 41 24 41 24 38 C21.03 38 18.06 38 15 38 C15 46.58 15 55.16 15 64 C10.05 64 5.1 64 0 64 C0 42.88 0 21.76 0 0 Z " fill="#FEFAFA" transform="translate(3234,478)"/>
<path d="M0 0 C14.24246988 -0.43599398 14.24246988 -0.43599398 19 3 C20.16343227 5.32686453 20.19895988 6.84721413 20.25 9.4375 C20.27578125 10.21996094 20.3015625 11.00242187 20.328125 11.80859375 C19.91962728 14.53677498 19.16727539 15.3441611 17 17 C11.57364835 18.80878388 5.66885438 18.05200784 0 18 C0 12.06 0 6.12 0 0 Z " fill="#E60113" transform="translate(3250,488)"/>
</svg>
