<?xml version="1.0" encoding="UTF-8"?>
<svg version="1.1" xmlns="http://www.w3.org/2000/svg" width="2048" height="1053">
<path d="M0 0 C1.07689087 0.05327454 2.15378174 0.10654907 3.26330566 0.16143799 C36.22350978 1.7998322 69.12996867 4.06259416 102 7 C102.99330322 7.0887439 103.98660645 7.17748779 105.01000977 7.2689209 C151.77160659 11.48124711 198.43212918 17.5347826 244.68951416 25.59820557 C247.12233363 26.02127387 249.55598449 26.4393211 251.98974609 26.85693359 C352.79046927 44.21495453 453.31896603 70.05700071 668.35009766 165.49365234 C671.47465551 167.26981983 674.62760703 168.98883903 677.78637695 170.703125 C710.48871298 188.51849362 741.52639478 210.14030288 770.36572266 233.66992188 C771.88690455 234.90795578 773.41769585 236.13415668 774.94921875 237.359375 C780.84241421 242.10083325 786.44876975 247.07395896 791.98046875 252.2265625 C794.14795304 254.24127417 796.36921032 256.17729172 798.6171875 258.1015625 C803.74652368 262.57385254 808.55383604 267.36778456 813.36303711 272.17773438 C814.92608734 273.73860327 816.49697365 275.29127888 818.06835938 276.84375 C823.76755368 282.51192256 829.07569827 288.28974266 834.07080078 294.59716797 C835.94963221 296.93726654 837.91137316 299.16209379 839.9375 301.375 C864.17027112 328.46990944 883.60346448 361.93090066 896 396 C896.27005859 396.72928711 896.54011719 397.45857422 896.81835938 398.20996094 C919.06042783 458.86765133 915.38455505 525.84283934 888.5625 584.4375 C886.7456791 588.31046674 884.88656034 592.16057401 883 596 C882.61730957 596.78455566 882.23461914 597.56911133 881.84033203 598.37744141 C868.4186254 625.61294946 849.65702497 650.12999427 829.265625 672.48828125 C828.00527239 673.88553423 826.75184588 675.28945145 825.52709961 676.71801758 C820.62409523 682.42589664 815.39366394 687.7553323 810.0625 693.0625 C809.20720703 693.92166016 808.35191406 694.78082031 807.47070312 695.66601562 C803.01331557 700.1166032 798.49246808 704.4231548 793.71362305 708.52709961 C791.55317021 710.384061 789.46760283 712.31719593 787.375 714.25 C782.3366772 718.79602866 777.05533332 722.96311753 771.6953125 727.1171875 C769.22812008 729.03118606 766.78774105 730.97267203 764.3671875 732.9453125 C755.20264995 740.41130844 745.76332711 747.33789988 736 754 C735.03046387 754.66273926 734.06092773 755.32547852 733.06201172 756.00830078 C707.49815017 773.41827418 681.17869643 789.24258501 654 804 C653.19030762 804.44279297 652.38061523 804.88558594 651.54638672 805.34179688 C640.28522669 811.49195022 628.7613997 817.057259 617.15136719 822.515625 C613.95323135 824.02202924 610.76181357 825.54209769 607.5703125 827.0625 C534.19303797 861.80856057 456.51701564 886.84559867 378 907 C376.69802673 907.33451172 376.69802673 907.33451172 375.36975098 907.67578125 C276.02600455 933.13670636 173.88728921 948.33929888 -15 961 C-15.85827393 961.02922546 -16.71654785 961.05845093 -17.60083008 961.08856201 C-125.06913867 964.67302513 -232.89525852 960.30036069 -434 933 C-434.89605957 932.84442627 -435.79211914 932.68885254 -436.71533203 932.52856445 C-495.8680148 922.25171836 -554.40490165 908.63674392 -611.97485352 891.59777832 C-613.99188873 891.00239427 -616.01034 890.41207399 -618.02929688 889.82324219 C-683.68630819 870.65013004 -747.37521407 845.69444361 -808.77490234 815.58105469 C-811.66549873 814.16398412 -814.56067491 812.75680569 -817.45703125 811.3515625 C-829.4048838 805.5121238 -840.96768285 799.06444059 -852.49414062 792.43652344 C-854.59922083 791.22975298 -856.7100618 790.03532192 -858.828125 788.8515625 C-874.65035838 779.96561627 -890.04271095 770.27244334 -905 760 C-906.14202881 759.21737793 -906.14202881 759.21737793 -907.30712891 758.41894531 C-923.05287389 747.59706308 -938.34809655 736.27070099 -953 724 C-953.50450684 723.58041016 -954.00901367 723.16082031 -954.52880859 722.72851562 C-961.25311257 717.13343731 -967.83528393 711.42313045 -974.21850586 705.43994141 C-976.89445567 702.92406291 -976.89445567 702.92406291 -980 701 C-980 700.34 -980 699.68 -980 699 C-980.57975586 698.74476563 -981.15951172 698.48953125 -981.75683594 698.2265625 C-984.23015312 696.87415223 -985.89602109 695.36267476 -987.890625 693.375 C-988.59960938 692.66859375 -989.30859375 691.9621875 -990.0390625 691.234375 C-990.76867187 690.49703125 -991.49828125 689.7596875 -992.25 689 C-992.99507812 688.26265625 -993.74015625 687.5253125 -994.5078125 686.765625 C-995.21164062 686.05921875 -995.91546875 685.3528125 -996.640625 684.625 C-997.60790527 683.65433594 -997.60790527 683.65433594 -998.59472656 682.6640625 C-1000 681 -1000 681 -1000 679 C-1000.66 679 -1001.32 679 -1002 679 C-1003.3046875 677.7421875 -1003.3046875 677.7421875 -1004.875 675.875 C-1005.49503906 675.14410156 -1006.11507812 674.41320312 -1006.75390625 673.66015625 C-1007.49511719 672.78230469 -1008.23632812 671.90445313 -1009 671 C-1009.92426892 669.93488369 -1010.85015113 668.87116593 -1011.77734375 667.80859375 C-1026.88860467 650.44372596 -1040.55334116 631.98938686 -1052 612 C-1052.59893066 610.97036133 -1052.59893066 610.97036133 -1053.20996094 609.91992188 C-1086.60518192 552.41027512 -1098.16579389 485.39449706 -1081.78125 420.5 C-1069.321669 373.80463337 -1044.53210783 332.26696109 -1013 296 C-1012.39929688 295.29875 -1011.79859375 294.5975 -1011.1796875 293.875 C-1003.05848099 284.4591084 -994.52347853 275.43230547 -985.75 266.625 C-985.1010376 265.97144531 -984.4520752 265.31789063 -983.78344727 264.64453125 C-979.9148186 260.78817459 -975.92967934 257.12339097 -971.79492188 253.55419922 C-969.61251024 251.66447772 -967.49557345 249.70863875 -965.375 247.75 C-960.33535186 243.20277549 -955.05229136 239.0347757 -949.69140625 234.87890625 C-946.62312622 232.49841408 -943.60200201 230.06517173 -940.58886719 227.61547852 C-902.22108088 196.5167882 -858.95816022 171.29596888 -815 149 C-814.27522461 148.63003906 -813.55044922 148.26007813 -812.80371094 147.87890625 C-808.22353378 145.54222034 -803.61707213 143.26275497 -799 141 C-798.07123047 140.54189941 -797.14246094 140.08379883 -796.18554688 139.61181641 C-765.12914174 124.32273449 -733.32537389 111.32933273 -701 99 C-700.30797485 98.73509766 -699.61594971 98.47019531 -698.9029541 98.19726562 C-659.66734776 83.17885172 -619.47324814 71.17601327 -579 60 C-577.33089063 59.53678851 -575.66178249 59.07357261 -573.99267578 58.61035156 C-476.87178029 31.75081684 -376.50167095 15.90211833 -196 1 C-194.69979919 0.9321228 -193.39959839 0.86424561 -192.05999756 0.79431152 C-127.98551003 -2.53505809 -64.1036285 -3.21746741 0 0 Z M-712 150 C-712.71138123 150.28597046 -713.42276245 150.57194092 -714.15570068 150.86657715 C-735.53416949 159.46237567 -756.38836502 169.06804455 -777.13024902 179.09637451 C-778.80620426 179.90634113 -780.48357716 180.71337283 -782.16113281 181.52001953 C-794.88620212 187.65685235 -807.16277733 194.4929542 -819.41259766 201.52490234 C-821.65447118 202.8030114 -823.90531797 204.05997276 -826.16796875 205.30078125 C-863.24643668 225.65051509 -897.37582337 250.87058881 -929.28710938 278.53271484 C-930.50654983 279.57730394 -931.73845266 280.60741923 -932.97851562 281.62744141 C-933.61982422 282.15901855 -934.26113281 282.6905957 -934.921875 283.23828125 C-935.5106543 283.71950439 -936.09943359 284.20072754 -936.70605469 284.6965332 C-938.23483666 285.93045469 -938.23483666 285.93045469 -938 288 C-938.5887793 288.26425781 -939.17755859 288.52851563 -939.78417969 288.80078125 C-942.08072584 290.04368944 -943.60833166 291.35006481 -945.453125 293.1875 C-946.071875 293.80367187 -946.690625 294.41984375 -947.328125 295.0546875 C-947.96234375 295.69664062 -948.5965625 296.33859375 -949.25 297 C-950.22453125 297.96292969 -950.22453125 297.96292969 -951.21875 298.9453125 C-951.83234375 299.56148438 -952.4459375 300.17765625 -953.078125 300.8125 C-953.63918945 301.37582031 -954.20025391 301.93914062 -954.77832031 302.51953125 C-956.21215792 303.93719109 -956.21215792 303.93719109 -956 306 C-956.66 306 -957.32 306 -958 306 C-959.43700222 307.342554 -959.43700222 307.342554 -960.9375 309.1875 C-961.56140625 309.92355469 -962.1853125 310.65960938 -962.828125 311.41796875 C-963.54484375 312.27003906 -964.2615625 313.12210937 -965 314 C-965.81984375 314.94488281 -966.6396875 315.88976562 -967.484375 316.86328125 C-1010.32437758 366.37463558 -1038.21718159 427.18437635 -1034.8125 493.6875 C-1030.071763 553.26861435 -1001.29616641 606.06207469 -961.3203125 649.4609375 C-959.41584658 651.54494903 -957.57384698 653.65871086 -955.75 655.8125 C-948.45259641 664.2019141 -940.38631706 672.19823177 -931.8984375 679.37890625 C-929.67099967 681.2809365 -927.52977029 683.2660772 -925.375 685.25 C-919.74131384 690.33237742 -913.79447982 694.96238954 -907.796875 699.6015625 C-906.06269761 700.9512049 -904.34171096 702.31573564 -902.625 703.6875 C-850.44107376 745.32538706 -790.09989839 776.69381151 -729 803 C-728.28309998 803.30871033 -727.56619995 803.61742065 -726.82757568 803.93548584 C-657.16219864 833.86119046 -583.78329591 855.86061852 -510 873 C-509.12315552 873.20389343 -508.24631104 873.40778687 -507.34289551 873.61785889 C-401.75293713 898.08678137 -293.5102099 911.38722264 24 916 C24.92931335 915.9525061 25.85862671 915.90501221 26.81610107 915.8560791 C121.46726506 910.95643087 215.93059589 898.88821384 635 765 C635.91394531 764.50113281 636.82789063 764.00226562 637.76953125 763.48828125 C671.83653718 744.78205531 704.95441962 723.73103814 735 699 C735.82886719 698.33226562 736.65773438 697.66453125 737.51171875 696.9765625 C748.19983624 688.33244996 758.84397361 679.54571898 768.36328125 669.609375 C770 668 770 668 772 667 C772 666.34 772 665.68 772 665 C772.66 665 773.32 665 774 665 C774 664.34 774 663.68 774 663 C774.66 663 775.32 663 776 663 C776 662.34 776 661.68 776 661 C776.66 661 777.32 661 778 661 C779.40062727 659.65404429 779.40062727 659.65404429 780.875 657.8125 C783.57707415 654.62270708 786.35246294 651.53850015 789.22094727 648.5 C795.95740472 641.34083334 802.09527358 633.85445638 808 626 C808.5170752 625.31808594 809.03415039 624.63617187 809.56689453 623.93359375 C817.43216192 613.51276458 824.40814607 602.81141327 830.69580078 591.36914062 C831.97627401 589.0430994 833.28238484 586.73282472 834.58984375 584.421875 C841.42896608 572.11642777 846.45686932 559.30892225 851 546 C851.40025391 544.82824219 851.40025391 544.82824219 851.80859375 543.6328125 C870.2431688 488.42873371 861.38601882 428.77370461 835.85546875 377.48046875 C831.69598398 369.36146081 827.00767605 361.61999001 822 354 C821.54625 353.30825684 821.0925 352.61651367 820.625 351.90380859 C812.36834227 339.41620019 803.43060554 327.48195482 793.265625 316.4765625 C792.03565849 315.13208187 790.81296996 313.78004519 789.63256836 312.3918457 C784.33307721 306.1758706 778.58551476 300.43392934 772.80297852 294.67260742 C771.066064 292.941053 769.33456111 291.20421641 767.60351562 289.46679688 C761.90493994 283.76454462 756.16803074 278.19919245 750 273 C749.03578125 272.154375 748.0715625 271.30875 747.078125 270.4375 C737.42842856 262.12063456 727.25565071 254.54904985 717 247 C715.84443604 246.14438477 715.84443604 246.14438477 714.66552734 245.27148438 C669.16335805 211.62182453 618.70324266 184.76889996 567 162 C566.37162231 161.72265015 565.74324463 161.44530029 565.0958252 161.1595459 C548.99977113 154.05937062 532.77093287 147.39654856 516.29296875 141.234375 C513.03407125 140.01277167 509.78270588 138.77250206 506.53125 137.53125 C465.46418079 122.01030483 423.41500383 109.25732356 381 98 C380.11926819 97.76579346 379.23853638 97.53158691 378.33111572 97.2902832 C277.28167918 70.49068391 173.07028776 54.69352127 54.125 45.75 C52.4918837 45.63443756 52.4918837 45.63443756 50.82577515 45.51654053 C43.26516739 44.98877375 35.70194189 44.53168267 28.13427353 44.11761093 C25.87237086 43.99296689 23.61071541 43.8642622 21.34902954 43.73574829 C-12.27467216 41.85515549 -45.8811905 41.65546476 -79.54540491 41.68631971 C-84.58834983 41.68976411 -89.63115564 41.68029112 -94.67407227 41.66381836 C-189.48223743 41.36158069 -284.19369993 48.01737836 -712 150 Z " fill="#FEFEFE" transform="translate(1112,36)"/>
<path d="M0 0 C28.80770051 -0.65010326 67.73259358 5.48441624 90.42822266 24.97924805 C93.73199202 26.31148637 94.2159487 26.08291787 97.39453125 24.81665039 C99.03010125 24.0576942 100.65459062 23.274573 102.26953125 22.47265625 C103.1416626 22.0609166 104.01379395 21.64917694 104.91235352 21.22496033 C107.70826227 19.89937039 110.48862763 18.54424389 113.26953125 17.1875 C115.11101846 16.3072322 116.95345838 15.4289545 118.796875 14.55273438 C124.66569828 11.7569258 130.52975669 8.95069192 136.37158203 6.09881592 C138.16689327 5.22298383 139.96798911 4.3590365 141.76953125 3.49609375 C142.72859375 3.03001709 143.68765625 2.56394043 144.67578125 2.08374023 C147.39655793 1.07804652 149.39439728 0.92739965 152.26953125 1.125 C151.61841808 4.81785561 150.61717451 8.1967489 149.3359375 11.71875 C148.93971191 12.81598389 148.54348633 13.91321777 148.13525391 15.04370117 C147.49015869 16.81644409 147.49015869 16.81644409 146.83203125 18.625 C145.91148648 21.1722523 144.99429154 23.72070129 144.078125 26.26953125 C143.84323364 26.92254715 143.60834229 27.57556305 143.36633301 28.24836731 C140.97518506 34.91342007 138.68324094 41.61166921 136.39453125 48.3125 C132.56672297 59.49482718 128.57271227 70.60733964 124.50762939 81.70498657 C120.39648331 92.9351885 116.42900495 104.20722397 112.56640625 115.52539062 C110.2124672 122.42194837 107.7896674 129.28732815 105.26953125 136.125 C103.61953125 136.125 101.96953125 136.125 100.26953125 136.125 C100.12257813 134.97386719 99.975625 133.82273437 99.82421875 132.63671875 C97.33727841 114.47685311 92.24582657 98.12896773 83.26953125 82.125 C82.71523438 81.12984375 82.1609375 80.1346875 81.58984375 79.109375 C77.09663146 71.5848568 71.38961456 65.33213997 65.26953125 59.125 C64.53863281 58.38121094 63.80773437 57.63742187 63.0546875 56.87109375 C45.95264093 40.59707923 21.87089165 33.73016619 -1.2734375 33.97265625 C-21.68829582 34.87229407 -41.97970216 41.53735405 -56.73046875 56.125 C-66.79979497 67.56973166 -70.54958799 80.05751722 -69.73046875 95.125 C-68.17451982 107.28362952 -60.69851573 117.32234067 -51.48828125 124.9921875 C-48.96735215 126.83407846 -46.39277692 128.49361279 -43.73046875 130.125 C-42.63734375 130.79917969 -41.54421875 131.47335937 -40.41796875 132.16796875 C-28.41513493 139.33074267 -15.55614091 144.63508656 -2.73046875 150.125 C69.29851928 180.99301029 69.29851928 180.99301029 84.58203125 217.3125 C93.90521216 242.25400106 89.51052432 271.36104564 78.85400391 295.1574707 C63.2957433 328.39720175 34.36952177 354.12247242 0.09375 367.16796875 C-14.79990262 372.50236758 -30.8508486 376.62550998 -46.73046875 377.125 C-47.39353027 377.15078125 -48.0565918 377.1765625 -48.73974609 377.203125 C-86.62565578 378.51718213 -126.00862388 369.27289658 -157.73046875 348.125 C-160.08955849 348.7759081 -160.08955849 348.7759081 -162.60986328 350.12939453 C-163.60164581 350.61715363 -164.59342834 351.10491272 -165.61526489 351.60745239 C-166.68711029 352.15207123 -167.75895569 352.69669006 -168.86328125 353.2578125 C-169.96968964 353.80605682 -171.07609802 354.35430115 -172.21603394 354.91915894 C-175.16692505 356.38412542 -178.11156537 357.86077476 -181.05352783 359.34356689 C-185.17215907 361.41536829 -189.30259736 363.4635963 -193.43063354 365.51657104 C-195.62628361 366.61027052 -197.82016586 367.70752844 -200.01199341 368.80886841 C-204.55909871 371.08837911 -209.1135136 373.35104048 -213.72607422 375.49560547 C-214.40733368 375.8133493 -215.08859314 376.13109314 -215.79049683 376.45846558 C-217.73046875 377.125 -217.73046875 377.125 -221.73046875 377.125 C-221.09329033 372.43641373 -219.83589456 368.14821859 -218.24609375 363.7109375 C-217.86891457 362.63998337 -217.86891457 362.63998337 -217.4841156 361.5473938 C-216.65452544 359.19647521 -215.81763898 356.84822892 -214.98046875 354.5 C-214.39007716 352.83278981 -213.79999456 351.16547017 -213.21020508 349.49804688 C-208.79882644 337.04643447 -204.31573943 324.62069022 -199.81494141 312.20117188 C-195.44956527 300.15021464 -191.14376086 288.07858389 -186.85546875 276 C-186.52412933 275.0667691 -186.19278992 274.13353821 -185.85140991 273.17202759 C-185.5204129 272.23974335 -185.18941589 271.30745911 -184.84838867 270.34692383 C-184.17628418 268.4539336 -183.504165 266.56094859 -182.83203125 264.66796875 C-182.4981691 263.72764297 -182.16430695 262.7873172 -181.82032776 261.8184967 C-177.97023694 250.97845479 -174.1011741 240.14519474 -170.23046875 229.3125 C-169.89887756 228.38443542 -169.56728638 227.45637085 -169.22564697 226.50018311 C-167.3943677 221.3749623 -165.56264012 216.24990196 -163.73046875 211.125 C-162.08046875 211.455 -160.43046875 211.785 -158.73046875 212.125 C-158.66053711 212.87370361 -158.59060547 213.62240723 -158.51855469 214.39379883 C-157.07824317 229.51359632 -155.49002444 244.38942485 -151.73046875 259.125 C-151.55290039 259.83624023 -151.37533203 260.54748047 -151.19238281 261.28027344 C-144.29206031 288.35266173 -130.18428613 315.17536337 -105.73046875 330.125 C-84.0997286 342.28748023 -59.04465858 346.92693231 -34.75244141 340.71582031 C-23.96879588 337.56483961 -14.30316911 332.38722387 -5.73046875 325.125 C-4.54710937 324.12726563 -4.54710937 324.12726563 -3.33984375 323.109375 C7.13572114 313.48895826 13.43911649 300.77803501 14.54296875 286.6171875 C14.90723206 273.6438096 11.87826668 264.91419748 3.26953125 255.125 C-11.7311766 240.07412256 -33.10840648 232.69809585 -52.31591797 224.5703125 C-84.52474511 210.93694651 -120.27326561 194.80734418 -135.73046875 161.125 C-145.19222874 137.7515581 -144.05242781 111.76972915 -134.98046875 88.4375 C-129.44168235 75.46289285 -122.87359271 63.89707133 -113.73046875 53.125 C-113.2715625 52.58101563 -112.81265625 52.03703125 -112.33984375 51.4765625 C-104.98575259 42.86985142 -96.93145399 35.70446115 -87.73046875 29.125 C-87.18729004 28.7336084 -86.64411133 28.3422168 -86.08447266 27.93896484 C-60.63379656 9.88736714 -30.89830962 1.41451489 0 0 Z " fill="#FEFEFE" transform="translate(529.73046875,288.875)"/>
<path d="M0 0 C1.010625 0.2784375 2.02125 0.556875 3.0625 0.84375 C15.37401852 4.56285455 26.47424714 10.33187119 36 19 C36.90492188 19.81210937 37.80984375 20.62421875 38.7421875 21.4609375 C55.96185597 37.72660771 65.483474 60.24126707 66.203125 83.92578125 C66.87933673 130.08793158 46.99633323 170.2378224 15.24316406 203.0378418 C7.66398655 210.73313735 -0.2221261 217.7077225 -9 224 C-9.59103516 224.42474609 -10.18207031 224.84949219 -10.79101562 225.28710938 C-43.51522184 248.52094429 -83.78239724 262.1342341 -124.04516602 255.40820312 C-147.99680705 250.99405816 -168.89786979 239.06311373 -183.125 219.00390625 C-190.74547243 207.21237978 -195.41864782 194.79816307 -198 181 C-198.18304687 180.11441406 -198.36609375 179.22882813 -198.5546875 178.31640625 C-202.58124691 148.32913487 -194.20878482 119.1516025 -180 93 C-179.67918457 92.39462402 -179.35836914 91.78924805 -179.02783203 91.16552734 C-174.19100363 82.05931968 -168.54554572 73.93147074 -162 66 C-161.51450684 65.41154297 -161.02901367 64.82308594 -160.52880859 64.21679688 C-134.40387285 32.76933641 -100.73893202 10.17825159 -61 0 C-60.31711914 -0.17934082 -59.63423828 -0.35868164 -58.93066406 -0.54345703 C-40.47382784 -5.18764346 -18.25540804 -5.40211054 0 0 Z M-80 51 C-80.63292969 51.57234375 -81.26585937 52.1446875 -81.91796875 52.734375 C-92.73497248 62.70349008 -100.20884048 76.13137125 -107 89 C-107.33596191 89.61891113 -107.67192383 90.23782227 -108.01806641 90.87548828 C-121.22887354 115.24237437 -130.76243586 143.43749294 -134 171 C-134.15339844 172.29164063 -134.30679688 173.58328125 -134.46484375 174.9140625 C-135.75834915 188.95368295 -134.90326492 204.01160734 -125.75 215.375 C-119.15576884 222.34885641 -110.39811506 224.95355986 -101 225.375 C-80.43453546 224.89077161 -64.54627177 214.27775382 -50.3125 200.375 C-19.54465423 168.06876194 0.96529303 114.5860206 1.3125 70.375 C1.34150391 69.16714844 1.37050781 67.95929688 1.40039062 66.71484375 C1.47493009 56.06143392 -0.35815864 46.09518436 -7.30078125 37.68359375 C-14.37267784 30.6767261 -22.90849245 28.60096734 -32.625 28.625 C-51.95043291 28.71765483 -66.65641017 37.79478814 -80 51 Z " fill="#FEFEFE" transform="translate(1069,409)"/>
<path d="M0 0 C3.58530714 1.51582701 5.33822956 0.66735735 8.88476562 -0.70556641 C15.24556456 -3.49440915 21.51085865 -6.47991561 27.75976562 -9.5090332 C29.60547057 -10.40117154 31.45654134 -11.28128835 33.30859375 -12.16015625 C34.39817383 -12.68569092 35.48775391 -13.21122559 36.61035156 -13.75268555 C39.54610715 -14.87572932 41.50189517 -15.15059386 44.60546875 -14.8984375 C42.63254876 -6.97539318 40.06171562 0.62414691 37.1930542 8.26480103 C35.95463458 11.56557384 34.73306216 14.87256532 33.51171875 18.1796875 C33.26457123 18.84837357 33.01742371 19.51705963 32.76278687 20.20600891 C30.41499151 26.57883857 28.18289748 32.98961574 25.98046875 39.4140625 C21.65555384 52.02522116 17.15491877 64.5698513 12.60546875 77.1015625 C10.62546875 77.1015625 8.64546875 77.1015625 6.60546875 77.1015625 C6.39792969 75.915625 6.19039062 74.7296875 5.9765625 73.5078125 C2.23433139 53.35798163 -5.60983126 32.76137754 -22.88671875 20.3046875 C-40.20084895 8.82733207 -59.09136188 4.29090035 -79.70703125 8.3515625 C-92.94172426 11.57844832 -104.78727299 16.87691875 -112.2734375 28.828125 C-116.14040085 36.66984163 -117.07629706 45.55323689 -114.51953125 53.98828125 C-106.85477947 70.45236978 -88.34758198 77.49621905 -72.53341675 84.04708862 C-68.44933779 85.7429839 -64.38450187 87.48364271 -60.3203125 89.2265625 C-59.53326431 89.56392929 -58.74621613 89.90129608 -57.93531799 90.24888611 C-36.60434287 99.44522294 -14.22086999 111.42009157 -3.39453125 133.1015625 C3.72188905 152.04252262 2.81241543 170.21333567 -4.890625 188.9765625 C-16.97241453 214.08157971 -40.41783879 230.21936263 -66.07666016 239.21337891 C-99.00233196 250.02862219 -137.03528879 246.52343359 -167.89453125 231.1640625 C-168.67787842 230.7501123 -169.46122559 230.33616211 -170.26831055 229.90966797 C-171.00090088 229.53084473 -171.73349121 229.15202148 -172.48828125 228.76171875 C-173.12443359 228.41761963 -173.76058594 228.07352051 -174.41601562 227.71899414 C-179.45135154 226.14762636 -184.2368478 229.2603538 -188.70703125 231.41015625 C-189.39837158 231.73693863 -190.08971191 232.06372101 -190.80200195 232.40040588 C-193.00202446 233.44142144 -195.1983863 234.48989496 -197.39453125 235.5390625 C-199.59132165 236.58323679 -201.78885023 237.62582583 -203.98706055 238.66700745 C-205.35148002 239.3138287 -206.71497454 239.96260584 -208.07739258 240.6136322 C-217.51095829 245.1015625 -217.51095829 245.1015625 -222.39453125 245.1015625 C-221.74341808 241.40870689 -220.74217451 238.0298136 -219.4609375 234.5078125 C-219.06495361 233.41130371 -218.66896973 232.31479492 -218.26098633 231.18505859 C-217.83068115 230.00250488 -217.40037598 228.81995117 -216.95703125 227.6015625 C-216.0325969 225.04258537 -215.11154657 222.48239895 -214.19140625 219.921875 C-213.83814018 218.93956406 -213.83814018 218.93956406 -213.47773743 217.93740845 C-211.15807295 211.47189385 -208.92877462 204.97630911 -206.70703125 198.4765625 C-202.41219749 185.94024357 -197.98121948 173.45436453 -193.51953125 160.9765625 C-193.19465729 160.06783386 -192.86978333 159.15910522 -192.5350647 158.22283936 C-189.17932355 148.84019859 -185.8173087 139.46000875 -182.39453125 130.1015625 C-180.74453125 130.4315625 -179.09453125 130.7615625 -177.39453125 131.1015625 C-177.32459961 131.74480469 -177.25466797 132.38804687 -177.18261719 133.05078125 C-174.15994354 160.30344011 -169.45340469 187.52701494 -148.39453125 207.1015625 C-133.8217383 218.55625413 -115.98702646 222.40905919 -97.78125 220.64453125 C-86.82407287 218.88784426 -76.95572552 215.15195778 -68.39453125 208.1015625 C-67.73453125 208.1015625 -67.07453125 208.1015625 -66.39453125 208.1015625 C-66.39453125 207.4415625 -66.39453125 206.7815625 -66.39453125 206.1015625 C-65.73453125 206.1015625 -65.07453125 206.1015625 -64.39453125 206.1015625 C-64.02328125 205.2971875 -64.02328125 205.2971875 -63.64453125 204.4765625 C-62.39453125 202.1015625 -62.39453125 202.1015625 -60.45703125 199.4765625 C-56.10586536 192.35647286 -54.23355195 184.40901436 -55.39453125 176.1015625 C-58.69415572 164.10937895 -66.0382563 158.30305352 -76.41015625 152.21875 C-85.57958186 147.05643558 -95.34538161 143.1070201 -105.04907227 139.08129883 C-128.15735692 129.47147059 -153.00069981 117.96793132 -164.39453125 94.1015625 C-171.38945165 76.98355853 -169.78595379 58.27283569 -162.88671875 41.41796875 C-150.86583708 15.89456186 -129.17231101 -1.19592172 -103.09716797 -10.73925781 C-98.25738723 -12.38455094 -93.36977492 -13.73098958 -88.39453125 -14.8984375 C-87.358125 -15.14335937 -86.32171875 -15.38828125 -85.25390625 -15.640625 C-59.68964477 -20.52594198 -21.33207737 -16.91254421 0 0 Z " fill="#FEFEFE" transform="translate(1686.39453125,420.8984375)"/>
<path d="M0 0 C1.25490234 1.12728516 1.25490234 1.12728516 2.53515625 2.27734375 C4.81680349 4.27151302 4.81680349 4.27151302 7.29663086 3.76464844 C10.27338104 2.92267412 12.91698897 1.80097353 15.71875 0.48828125 C16.81703125 -0.02283203 17.9153125 -0.53394531 19.046875 -1.06054688 C20.75617188 -1.86588867 20.75617188 -1.86588867 22.5 -2.6875 C25.86194987 -4.25706148 29.22389984 -5.82662266 32.5859375 -7.39599609 C34.92974175 -8.49716843 37.26803606 -9.61012202 39.6015625 -10.73291016 C40.75398437 -11.28124512 41.90640625 -11.82958008 43.09375 -12.39453125 C44.65125977 -13.14440308 44.65125977 -13.14440308 46.24023438 -13.90942383 C49 -15 49 -15 53 -15 C51.61821257 -8.07687705 49.59502587 -1.62954073 47.17578125 4.99609375 C46.60800713 6.57204063 46.60800713 6.57204063 46.02876282 8.17982483 C44.79504621 11.60089323 43.55380902 15.01917999 42.3125 18.4375 C41.45499265 20.81099071 40.5980647 23.18469082 39.74169922 25.55859375 C38.43669931 29.1756571 37.131223 32.79254187 35.8236084 36.40866089 C33.05750418 44.05873672 30.30973599 51.7150572 27.58203125 59.37890625 C27.24196548 60.33405624 26.90189972 61.28920624 26.55152893 62.27330017 C25.26795465 65.87972777 23.98493195 69.4863489 22.70401001 73.09371948 C21.06118163 77.71865619 19.4034574 82.33768729 17.73010254 86.95166016 C17.01457886 88.95909827 16.33208784 90.9753247 15.65527344 92.99609375 C15.24051758 94.18332031 14.82576172 95.37054687 14.3984375 96.59375 C14.05216309 97.62177734 13.70588867 98.64980469 13.34912109 99.70898438 C12 102 12 102 9.35009766 102.83789062 C8.57456543 102.89138672 7.7990332 102.94488281 7 103 C6.97812622 102.0884314 6.97812622 102.0884314 6.95581055 101.15844727 C6.2957672 76.39632654 4.16156821 50.09529535 -13.73828125 31.0703125 C-24.39123644 21.31890274 -35.58103768 18.17506336 -49.74609375 18.65234375 C-71.62306616 20.01996089 -90.07568465 36.33668326 -104 52 C-128.81474654 81.5700477 -145.60221393 122.99389743 -143 162 C-141.26560233 177.04951313 -136.25075287 191.57559736 -124.265625 201.43359375 C-111.1620748 210.49311725 -95.1667909 211.93291535 -79.7578125 209.3828125 C-50.031141 203.48449631 -23.55979086 186.29348467 0 168 C0.99 168.66 1.98 169.32 3 170 C2.44324263 174.51310898 0.568895 177.82196124 -1.875 181.5625 C-2.46849243 182.47733154 -2.46849243 182.47733154 -3.07397461 183.41064453 C-7.40978047 189.89794576 -12.5629081 195.4324831 -18 201 C-18.64324219 201.70511719 -19.28648437 202.41023437 -19.94921875 203.13671875 C-42.76354861 227.53468973 -80.46031184 244.09157953 -113.58203125 245.23828125 C-142.66008508 245.75815666 -166.90491694 239.00516103 -188.47265625 218.61328125 C-207.12444142 199.32727773 -213.54544967 173.86601687 -213.203125 147.78515625 C-212.22018104 111.44619758 -194.48015656 75.17744093 -171 48 C-170.31808594 47.20851563 -169.63617187 46.41703125 -168.93359375 45.6015625 C-128.56922461 -0.17841967 -57.67804644 -37.41957439 0 0 Z " fill="#FEFEFE" transform="translate(846,420)"/>
<path d="M0 0 C-1.33275392 6.59102101 -3.1763529 12.75338559 -5.4765625 19.06640625 C-5.76942139 19.88298706 -6.06228027 20.69956787 -6.36401367 21.54089355 C-7.44506589 24.55023733 -8.53556881 27.5561794 -9.625 30.5625 C-13.275625 40.6790625 -13.275625 40.6790625 -17 51 C3.79 51 24.58 51 46 51 C43.66392103 62.68039485 38.88310722 73.73898907 35 85 C13.55 85 -7.9 85 -30 85 C-30.33 86.65 -30.66 88.3 -31 90 C-31.74792757 92.32089954 -32.5339941 94.62962974 -33.34375 96.9296875 C-33.58453781 97.61572052 -33.82532562 98.30175354 -34.07341003 99.00857544 C-34.87865938 101.29867463 -35.68918724 103.58686514 -36.5 105.875 C-37.07535777 107.50648182 -37.65063246 109.13799295 -38.22583008 110.76953125 C-43.33265985 125.22567593 -48.56228731 139.63720886 -53.79421997 154.0484314 C-58.50093814 167.01693238 -63.13834622 180.0010555 -67.58642578 193.06079102 C-69.60469087 198.98106448 -71.66321914 204.88329169 -73.7890625 210.765625 C-74.02196487 211.41122879 -74.25486725 212.05683258 -74.49482727 212.72200012 C-75.61195492 215.81622051 -76.73493189 218.90800056 -77.86694336 221.99682617 C-78.26276611 223.08970947 -78.65858887 224.18259277 -79.06640625 225.30859375 C-79.41646729 226.26564209 -79.76652832 227.22269043 -80.12719727 228.20874023 C-82.95209955 237.24289627 -83.15003244 246.38434329 -79 255 C-74.45829336 262.46458715 -67.33118017 265.74170607 -59.16796875 268.11328125 C-39.33982662 272.79389353 -18.64779836 265.26921134 -0.15771484 258.75683594 C2.5512766 257.80663527 5.27346448 256.89846684 8 256 C8.66 257.32 9.32 258.64 10 260 C-8.68839884 286.84333652 -37.41417115 300.21933055 -69 306 C-89.87859273 309.6531489 -112.93984629 307.52170422 -130.6875 295.3125 C-141.64885739 286.88190333 -149.53391394 276.82380728 -152 263 C-152.34038914 259.49535626 -152.41506618 256.01961671 -152.4375 252.5 C-152.47037109 251.62085938 -152.50324219 250.74171875 -152.53710938 249.8359375 C-152.60627815 241.00748621 -149.86448873 233.22305711 -147 225 C-146.55819605 223.7035063 -146.11702325 222.40679734 -145.67651367 221.10986328 C-144.27099732 217.00065516 -142.82455998 212.9063372 -141.375 208.8125 C-140.8208794 207.24091508 -140.26684612 205.66929937 -139.71289062 204.09765625 C-133.88721779 187.59523111 -127.96001944 171.12889153 -122.04199219 154.65942383 C-116.65657869 139.66501695 -111.32864616 124.65184545 -106.09570312 109.60351562 C-105.85278534 108.90730103 -105.60986755 108.21108643 -105.35958862 107.49377441 C-104.7245879 105.67350031 -104.09190779 103.85241708 -103.45947266 102.03125 C-101.3925691 96.32219821 -99.17960801 90.66698082 -97 85 C-113.17 85 -129.34 85 -146 85 C-145 80 -145 80 -142.76049805 78.2175293 C-141.77090088 77.67523682 -140.78130371 77.13294434 -139.76171875 76.57421875 C-138.64571289 75.9507959 -137.52970703 75.32737305 -136.37988281 74.68505859 C-135.14915405 74.01908465 -133.91835792 73.35323519 -132.6875 72.6875 C-131.41795038 71.98437808 -130.14940932 71.27943232 -128.88183594 70.57275391 C-126.24266564 69.10333304 -123.59930461 67.6419056 -120.95263672 66.18603516 C-115.43197731 63.14213825 -109.96223059 60.00999385 -104.49346924 56.87411499 C-102.74069847 55.86966965 -100.98650194 54.86775659 -99.23193359 53.86645508 C-91.73093294 49.5830392 -84.26409667 45.24370646 -76.8125 40.875 C-67.5674024 35.45500859 -58.24182169 30.19259564 -48.88012695 24.97705078 C-42.88223048 21.63011384 -36.91477279 18.24180351 -31 14.75 C-30.33709961 14.35989746 -29.67419922 13.96979492 -28.99121094 13.56787109 C-25.43681596 11.46802502 -21.9081962 9.33139728 -18.39453125 7.1640625 C-17.62818359 6.69774414 -16.86183594 6.23142578 -16.07226562 5.75097656 C-14.60969938 4.86041656 -13.15345433 3.95935535 -11.70507812 3.04589844 C-7.63402196 0.58058143 -4.91014579 -0.53454153 0 0 Z " fill="#FEFEFE" transform="translate(1288,358)"/>
<path d="M0 0 C-1.51722389 4.43874064 -3.03865188 8.87602984 -4.5625 13.3125 C-4.78798523 13.9694989 -5.01347046 14.6264978 -5.24578857 15.30340576 C-8.37167589 24.40213468 -11.56911066 33.46794613 -15.01782227 42.45043945 C-16.15210844 45.44679079 -17 47.76622722 -17 51 C7.42 51 31.84 51 57 51 C58 53 58 53 57.55029297 54.76489258 C57.28361816 55.46767334 57.01694336 56.1704541 56.7421875 56.89453125 C56.29746094 58.08272461 56.29746094 58.08272461 55.84375 59.29492188 C55.5240625 60.12572266 55.204375 60.95652344 54.875 61.8125 C54.43027344 62.99489258 54.43027344 62.99489258 53.9765625 64.20117188 C51.35548525 71.14813722 48.66528185 78.07026719 46 85 C20.59 85 -4.82 85 -31 85 C-31.33 86.98 -31.66 88.96 -32 91 C-32.67956368 93.0948701 -33.41276558 95.17280421 -34.1875 97.234375 C-34.63996094 98.45125 -35.09242187 99.668125 -35.55859375 100.921875 C-36.03863085 102.19807911 -36.51909712 103.47412188 -37 104.75 C-40.56089063 114.24570834 -43.98305237 123.77798192 -47.28515625 133.3671875 C-51.50445216 145.61925491 -55.84325767 157.82549744 -60.23001099 170.01849365 C-61.46990102 173.46506643 -62.70773834 176.91237068 -63.94506836 180.35986328 C-66.89730027 188.58459433 -69.85185906 196.80848775 -72.80957031 205.03125 C-73.80589584 207.80119197 -74.80125815 210.57147477 -75.79516602 213.34228516 C-76.60620708 215.6030758 -77.41902644 217.86322977 -78.23413086 220.12255859 C-82.2196896 231.24138796 -86.67329134 245.20414013 -81.375 256.75 C-77.27548807 263.17976081 -71.03506557 266.77362039 -63.72265625 268.5546875 C-46.04014248 271.44680597 -28.26974857 266.29150706 -12.12890625 259.33203125 C-9.12373366 258.05267563 -6.1109243 256.99005283 -3 256 C-2.34 256.66 -1.68 257.32 -1 258 C-1.41585014 264.34438036 -6.00806514 268.42473663 -10 273 C-10.5878125 273.68449219 -11.175625 274.36898438 -11.78125 275.07421875 C-26.66187997 291.16226826 -49.06096887 300.24855193 -70 305 C-71.52947266 305.36738281 -71.52947266 305.36738281 -73.08984375 305.7421875 C-91.17752808 309.445977 -112.55986521 308.1289503 -128.58984375 298.43359375 C-140.2166356 290.61829156 -149.32242361 280.31020538 -152.5625 266.296875 C-153.1405499 261.9408561 -153.35818981 257.64154205 -153.4375 253.25 C-153.45997803 252.46496094 -153.48245605 251.67992187 -153.50561523 250.87109375 C-153.45600125 238.27168679 -148.50919347 226.08794027 -144.14367676 214.42904663 C-142.79170047 210.81631563 -141.4632112 207.19493949 -140.1328125 203.57421875 C-139.72923523 202.47787865 -139.72923523 202.47787865 -139.31750488 201.35939026 C-136.86197925 194.66905599 -134.54270182 187.93526093 -132.25 181.1875 C-127.67633351 167.76597808 -122.82155202 154.45222707 -117.95266724 141.13546753 C-112.45984245 126.10524656 -107.12218849 111.0345729 -102.00463867 95.87207031 C-100.72947057 92.22660798 -99.35605716 88.61615242 -98 85 C-109.55 85 -121.1 85 -133 85 C-130.75109375 78.25328125 -130.75109375 78.25328125 -127.46484375 76.39453125 C-126.38795288 75.76430054 -126.38795288 75.76430054 -125.28930664 75.12133789 C-124.51321045 74.68942139 -123.73711426 74.25750488 -122.9375 73.8125 C-121.28781141 72.8511019 -119.63940212 71.88750574 -117.9921875 70.921875 C-117.15526367 70.43654297 -116.31833984 69.95121094 -115.45605469 69.45117188 C-111.75308608 67.26325484 -108.15788789 64.92168064 -104.5625 62.5625 C-98.67497205 58.7235204 -92.75973128 54.93335517 -86.8125 51.1875 C-79.92702267 46.8496634 -73.05195109 42.49604464 -66.1875 38.125 C-65.26880127 37.54000732 -64.35010254 36.95501465 -63.40356445 36.35229492 C-61.53510329 35.1623553 -59.66669525 33.97233223 -57.79833984 32.78222656 C-52.29606921 29.27790135 -46.79204908 25.77632435 -41.28808594 22.2746582 C-36.49157621 19.22284232 -31.69617593 16.16930167 -26.90234375 13.11328125 C-25.90396484 12.47712891 -24.90558594 11.84097656 -23.87695312 11.18554688 C-21.96515438 9.96733093 -20.05367841 8.74860824 -18.14257812 7.52929688 C-17.27955078 6.97951172 -16.41652344 6.42972656 -15.52734375 5.86328125 C-14.77187256 5.38157471 -14.01640137 4.89986816 -13.23803711 4.40356445 C-12.49948486 3.94038818 -11.76093262 3.47721191 -11 3 C-10.20537354 2.44594482 -9.41074707 1.89188965 -8.59204102 1.32104492 C-5.52395877 -0.24261647 -3.39804051 -0.23707259 0 0 Z " fill="#FEFEFE" transform="translate(1466,358)"/>
<path d="M0 0 C5.7552272 5.42926743 9.87387098 12.84537439 10.42578125 20.81640625 C10.75123852 32.74063766 9.08916214 41.35100855 0.60546875 50.328125 C-6.88879965 56.67222297 -15.62784126 59.74725802 -25.35546875 59.5859375 C-34.51247661 58.79980328 -42.44620582 54.87694604 -48.82421875 48.30078125 C-55.6997202 40.04153109 -57.42438461 32.48112169 -57.16015625 21.80859375 C-56.32577368 13.56789402 -52.57312541 6.30094137 -46.8125 0.375 C-32.74342451 -10.99139851 -14.16048861 -11.6050362 0 0 Z M-45.22265625 8.3125 C-49.84906729 14.31433053 -50.9659475 20.94814114 -50.8125 28.375 C-49.75262687 35.35164063 -47.03173459 41.54772374 -41.8125 46.375 C-33.9248933 51.91764255 -26.35116346 53.79539148 -16.8125 52.375 C-9.90805486 50.4891121 -3.41136037 46.46682271 0.47265625 40.3515625 C4.13971714 33.28031248 5.42125494 26.12555268 3.7265625 18.2265625 C0.93431558 9.91552167 -3.92029056 4.29289787 -11.6640625 0.28515625 C-23.58188041 -4.76366479 -36.73272196 -1.13233487 -45.22265625 8.3125 Z " fill="#FEFEFE" transform="translate(1761.8125,606.625)"/>
<path d="M0 0 C21.4375 0 21.4375 0 26.5625 4 C28.64884585 8.35411307 28.91934994 12.2630105 28 17 C25.56543724 20.15835169 23.30027757 21.79981495 20 24 C20.97453125 25.48113281 20.97453125 25.48113281 21.96875 26.9921875 C22.81273833 28.28630293 23.65647535 29.58058229 24.5 30.875 C24.92925781 31.52597656 25.35851563 32.17695312 25.80078125 32.84765625 C29 37.7734375 29 37.7734375 29 40 C25.81640625 40.49609375 25.81640625 40.49609375 22 40 C19.77063962 37.6678051 18.4089312 34.91567055 16.9375 32.0625 C16.15311937 30.56411546 15.35027396 29.07522015 14.52734375 27.59765625 C14.18437256 26.93258057 13.84140137 26.26750488 13.48803711 25.58227539 C11.66255417 23.32099859 11.66255417 23.32099859 6 23 C6 28.61 6 34.22 6 40 C4.02 40 2.04 40 0 40 C0 26.8 0 13.6 0 0 Z M6 6 C6 9.63 6 13.26 6 17 C8.12472576 17.05386629 10.24983652 17.09273071 12.375 17.125 C14.15003906 17.15980469 14.15003906 17.15980469 15.9609375 17.1953125 C19.11153817 17.32866229 19.11153817 17.32866229 21 15 C21.33333333 12 21.33333333 12 21 9 C18.33684806 6.33684806 16.34655932 6.05573507 12.640625 5.90234375 C11.45726562 5.91974609 11.45726562 5.91974609 10.25 5.9375 C8.8475 5.958125 7.445 5.97875 6 6 Z " fill="#FEFEFE" transform="translate(1726,612)"/>
</svg>
