<?xml version="1.0" encoding="UTF-8"?>
<svg version="1.1" xmlns="http://www.w3.org/2000/svg" width="700" height="295">
<path d="M0 0 C20.66265986 16.26857523 34.18718646 37.05888417 38.0859375 63.4296875 C38.98118748 78.12660513 39.00656673 92.4520251 34.0859375 106.4296875 C33.4671875 108.29560547 33.4671875 108.29560547 32.8359375 110.19921875 C24.47006083 133.98862982 6.10642059 152.99308542 -16.4140625 163.8671875 C-17.04070801 164.17301758 -17.66735352 164.47884766 -18.31298828 164.79394531 C-33.2513992 171.56742513 -50.52824375 173.74568151 -66.4710927 177.01158357 C-70.07122299 177.75009722 -73.67029408 178.49374067 -77.26950073 179.23674011 C-83.51239559 180.52478413 -89.75592797 181.8096977 -95.99990845 183.09246826 C-105.15146583 184.97260594 -114.30197973 186.85778306 -123.45224845 188.74418116 C-137.52966163 191.64627128 -151.60765394 194.54553925 -165.68610299 197.44259977 C-186.67117175 201.76092054 -207.65476579 206.08636433 -228.63763809 210.41534424 C-231.18702171 210.94130757 -233.73640887 211.46725372 -236.28579712 211.99319458 C-243.053099 213.38929742 -249.82039844 214.78541211 -256.58768463 216.18159103 C-268.36854403 218.61210652 -280.14955952 221.04186445 -291.93066406 223.47119141 C-293.6009293 223.81561132 -295.2711945 224.16003143 -296.94145966 224.50445175 C-297.76541969 224.67435804 -298.58937972 224.84426433 -299.43830824 225.0193193 C-300.26030226 225.18882039 -301.08229629 225.35832149 -301.92919922 225.53295898 C-303.15918223 225.78659033 -303.15918223 225.78659033 -304.41401339 226.04534554 C-341.47778571 233.68821293 -378.54049381 241.33622026 -415.6015625 248.9921875 C-416.83865211 249.24772148 -418.07574173 249.50325546 -419.35031891 249.7665329 C-444.65561565 254.99366438 -469.95976758 260.22615096 -495.2578125 265.48828125 C-496.19484324 265.68316195 -497.13187397 265.87804264 -498.09729958 266.07882881 C-506.68851004 267.86568537 -515.27953804 269.65340377 -523.86957359 271.44590092 C-526.8144168 272.06023988 -529.75943976 272.67371397 -532.70449829 273.28701973 C-534.66385966 273.69542521 -536.62295095 274.10512573 -538.58203125 274.51487732 C-539.73791748 274.75553421 -540.89380371 274.9961911 -542.0847168 275.24414062 C-543.07432907 275.45075317 -544.06394135 275.65736572 -545.08354187 275.87023926 C-562.21760457 279.25676157 -581.35804179 279.37586395 -597.9140625 273.4296875 C-598.97109375 273.05585938 -600.028125 272.68203125 -601.1171875 272.296875 C-613.0936191 267.65984635 -623.32241008 260.90638669 -632.9140625 252.4296875 C-633.53796875 251.88957031 -634.161875 251.34945313 -634.8046875 250.79296875 C-649.99916891 236.69902221 -660.90262257 214.29232966 -662.07519531 193.58398438 C-662.47506661 165.63019072 -657.65540342 142.28809136 -638.9140625 120.4296875 C-638.46933594 119.84058594 -638.02460937 119.25148437 -637.56640625 118.64453125 C-620.4644507 96.52181811 -592.36910203 90.07156571 -566.5 84.82421875 C-564.38316311 84.38845358 -562.26647844 83.95194841 -560.14993286 83.51477051 C-555.5967696 82.57592728 -551.04259635 81.64221271 -546.48754883 80.71255493 C-539.1221879 79.20929444 -531.75921205 77.69456405 -524.39648438 76.1784668 C-514.57659263 74.15738689 -504.75590708 72.14023724 -494.93444014 70.12682974 C-478.71936342 66.80265247 -462.50745705 63.46322003 -446.296875 60.1171875 C-444.40302283 59.72629 -444.40302283 59.72629 -442.47091103 59.32749557 C-437.3400922 58.26843409 -432.20928817 57.20930101 -427.07851887 56.14999962 C-418.56893035 54.39315405 -410.0590727 52.63761842 -401.54904854 50.88288474 C-373.65555511 45.13120432 -345.76470768 39.36699159 -317.87890625 33.578125 C-317.19089031 33.43530185 -316.50287436 33.29247869 -315.79400945 33.14532757 C-308.80987068 31.69549408 -301.82577814 30.24543803 -294.84170681 28.79527974 C-244.73485485 18.39119839 -194.62045233 8.0245082 -144.4946844 -2.288091 C-138.96307561 -3.42615048 -133.43157507 -4.56473496 -127.90011597 -5.70352173 C-120.5060845 -7.22570762 -113.11177227 -8.74652368 -105.71725464 -10.26634598 C-102.99575286 -10.82573964 -100.2743518 -11.38561933 -97.55303955 -11.9459343 C-93.83432659 -12.71136996 -90.11532562 -13.47538994 -86.39624023 -14.23901367 C-85.31111365 -14.46267011 -84.22598707 -14.68632654 -83.10797787 -14.91676044 C-53.52116567 -20.9824316 -24.76680084 -18.16232062 0 0 Z " fill="#275999" transform="translate(661.9140625,17.5703125)"/>
<path d="M0 0 C0.00238835 0.60537503 0.00477671 1.21075006 0.00723743 1.8344698 C0.06634308 16.55656732 0.14186454 31.27851708 0.23571491 46.00043201 C0.28070319 53.11982049 0.32011073 60.23915861 0.34643555 67.35864258 C0.37184069 74.22518283 0.41272476 81.09149023 0.46318626 87.95789146 C0.47991293 90.5817964 0.49139092 93.20574006 0.49761391 95.82969093 C0.50719187 99.49583178 0.53517611 103.16139305 0.56762695 106.82739258 C0.56619186 107.9199939 0.56475677 109.01259521 0.5632782 110.13830566 C0.57581635 111.13529984 0.58835449 112.13229401 0.60127258 113.15950012 C0.60588155 114.02690732 0.61049051 114.89431452 0.61523914 115.78800678 C1.08980819 118.51630801 1.74832237 119.41300345 4 121 C8.51926269 121.28693731 11.59377884 121.10155529 16 120 C16 126.93 16 133.86 16 141 C7.63215097 143.78928301 -0.38901406 146.13959573 -8.9375 142.75 C-16.81024054 138.25129112 -19.20485958 133.38542125 -22 125 C-22.08816467 123.61650995 -22.12199391 122.22914505 -22.12025452 120.84284973 C-22.12162918 119.99731033 -22.12300385 119.15177094 -22.12442017 118.28060913 C-22.12082489 117.35632111 -22.11722961 116.43203308 -22.11352539 115.47973633 C-22.11367142 114.50394119 -22.11381744 113.52814606 -22.1139679 112.52278137 C-22.11327038 109.29250884 -22.10548545 106.06229373 -22.09765625 102.83203125 C-22.0957915 100.59429455 -22.09436787 98.35655744 -22.09336853 96.11882019 C-22.08954784 90.22513708 -22.07972135 84.33147856 -22.06866455 78.43780518 C-22.05844081 72.42533704 -22.05386884 66.41286494 -22.04882812 60.40039062 C-22.03809871 48.60024961 -22.02102763 36.80012685 -22 25 C-22.9639909 25.19228542 -22.9639909 25.19228542 -23.94745636 25.38845539 C-25.85988575 25.76992402 -27.7723156 26.15139037 -29.68474579 26.53285503 C-31.85469641 26.96569528 -34.02464369 27.39855232 -36.19458771 27.83142567 C-45.45559465 29.67883062 -45.45559465 29.67883062 -49.53686523 30.49179077 C-64.19487337 33.41227603 -78.83653685 36.40256294 -93.46466064 39.46920776 C-99.03676834 40.63577014 -104.6123581 41.78554181 -110.1875 42.9375 C-112.65625221 43.44790597 -115.12500215 43.95832295 -117.59375 44.46875 C-118.82222656 44.72269531 -120.05070312 44.97664063 -121.31640625 45.23828125 C-124.90897724 45.98117769 -128.50139335 46.72481789 -132.09375 47.46875 C-145.78564686 50.30386919 -159.47942848 53.12967236 -173.17489624 55.94747925 C-182.95117305 57.95900965 -192.72629767 59.97598855 -202.5 62 C-212.99847695 64.1741032 -223.49873957 66.33939296 -234 68.5 C-248.1538839 71.41226203 -262.30539507 74.33585924 -276.45556641 77.26611328 C-283.6825863 78.76249169 -290.90992911 80.25730981 -298.13720703 81.75244141 C-304.11631336 82.98941474 -310.09534968 84.22672409 -316.07421875 85.46484375 C-329.77266305 88.30108552 -343.47292555 91.1283344 -357.17489624 93.94747925 C-368.13317578 96.20221414 -379.08999078 98.46390305 -390.04492188 100.73486328 C-396.38241245 102.04782675 -402.72129037 103.35358077 -409.0625 104.6484375 C-415.45312331 105.95347586 -421.84119441 107.27041298 -428.22723389 108.59770203 C-432.11273546 109.40463103 -435.99950087 110.20458276 -439.88867188 110.99365234 C-444.04130289 111.83655232 -448.19055271 112.69468461 -452.33813477 113.56207275 C-453.91632369 113.88952419 -455.49556506 114.21195343 -457.07592773 114.52874756 C-478.50430145 118.83300849 -498.16934471 127.68835176 -511.21875 146.13671875 C-522.82383614 164.43205045 -528.86785001 185.05091999 -524.0859375 206.703125 C-520.71112992 219.69548987 -514.93870276 230.95248869 -506 241 C-505.40703125 241.68707031 -504.8140625 242.37414062 -504.203125 243.08203125 C-490.69086216 257.72031599 -471.98743291 264.49810543 -452.45678711 265.43603516 C-439.5233644 265.77276941 -427.45156469 262.83459682 -414.93066406 259.8984375 C-408.62671503 258.43943626 -402.28202725 257.17118639 -395.94143677 255.88302612 C-392.32064315 255.14690717 -388.70141756 254.40315798 -385.08203125 253.66015625 C-384.38623459 253.51751846 -383.69043793 253.37488068 -382.97355652 253.22792053 C-375.84072888 251.76483192 -368.71428655 250.27161555 -361.58789062 248.77758789 C-356.52844461 247.72120563 -351.4649043 246.69022028 -346.39453125 245.6875 C-345.284729 245.46787598 -344.17492676 245.24825195 -343.03149414 245.02197266 C-340.92837804 244.6073266 -338.82474236 244.19530213 -336.72045898 243.78662109 C-331.81823241 242.82132253 -326.96857754 241.7629219 -322.12890625 240.51953125 C-315.53078134 238.83826288 -308.87789448 237.56708629 -302.1875 236.3125 C-299.44988803 235.79234651 -296.71308394 235.26804608 -293.9765625 234.7421875 C-293.26067459 234.60463547 -292.54478668 234.46708344 -291.8072052 234.32536316 C-282.87771739 232.60140822 -273.97003539 230.77094109 -265.0625 228.9375 C-264.23451904 228.76723297 -263.40653809 228.59696594 -262.5534668 228.42153931 C-254.45197597 226.75465459 -246.35282029 225.07700309 -238.2578125 223.37890625 C-237.12980225 223.14244385 -236.00179199 222.90598145 -234.83959961 222.66235352 C-232.80090662 222.23396113 -230.76262733 221.80359317 -228.72485352 221.37084961 C-227.85014404 221.18659424 -226.97543457 221.00233887 -226.07421875 220.8125 C-225.32744873 220.65394531 -224.58067871 220.49539062 -223.8112793 220.33203125 C-222 220 -222 220 -220 220 C-220 179.41 -220 138.82 -220 97 C-206.5 93.625 -206.5 93.625 -201 94 C-200.34 95.32 -199.68 96.64 -199 98 C-198.39414062 97.46890625 -197.78828125 96.9378125 -197.1640625 96.390625 C-186.22850453 87.17110844 -177.17538326 84.80659168 -163.09130859 85.77246094 C-152.58760293 86.91528766 -143.90462416 92.95075104 -137.37890625 101.0234375 C-129.51483225 112.29601949 -127.42424723 124.56560352 -129.46484375 138.078125 C-132.71254574 152.76004407 -140.55318187 165.0436714 -152.890625 173.75390625 C-160.92590974 178.50067631 -168.94334553 180.19390347 -178.1875 180.375 C-179.24420898 180.43107422 -179.24420898 180.43107422 -180.32226562 180.48828125 C-187.55540796 180.60610619 -189.66034433 178.66982784 -197 175 C-197.33 194.8 -197.66 214.6 -198 235 C-201.86913166 236.28971055 -205.29759604 237.36320475 -209.22756958 238.17564392 C-210.23858262 238.38649219 -211.24959566 238.59734045 -212.29124546 238.81457806 C-213.3876784 239.03939767 -214.48411135 239.26421728 -215.61376953 239.49584961 C-216.78531806 239.73907613 -217.95686659 239.98230265 -219.16391659 240.23289967 C-222.3909983 240.90212311 -225.6187181 241.56810218 -228.84675717 242.23268223 C-232.29595945 242.94361452 -235.74429407 243.65873178 -239.19273376 244.37335205 C-245.86282659 245.75492008 -252.53369829 247.13269004 -259.20484883 248.50914061 C-266.88451758 250.09383835 -274.56338104 251.68242093 -282.24219429 253.271258 C-295.33293854 255.97978597 -308.42430787 258.68527808 -321.51611328 261.38867188 C-335.9603799 264.37135658 -350.40359466 267.35909244 -364.8462677 270.3494854 C-373.27198988 272.09384591 -381.69801687 273.8367334 -390.12404633 275.57960892 C-393.05923817 276.18682521 -395.99437509 276.79430646 -398.92950439 277.40182495 C-403.46918959 278.3413346 -408.0091214 279.27964311 -412.54925728 280.21697235 C-414.17853487 280.5535219 -415.80773276 280.8904576 -417.43684196 281.22782135 C-419.62963067 281.68184566 -421.82270842 282.13444655 -424.01586914 282.58666992 C-425.83665733 282.96295784 -425.83665733 282.96295784 -427.69422913 283.34684753 C-445.00684658 286.76746536 -464.25708772 287.01329948 -481 281 C-482.05703125 280.62617188 -483.1140625 280.25234375 -484.203125 279.8671875 C-496.1795566 275.23015885 -506.40834758 268.47669919 -516 260 C-516.62390625 259.45988281 -517.2478125 258.91976563 -517.890625 258.36328125 C-533.08510641 244.26933471 -543.98856007 221.86264216 -545.16113281 201.15429688 C-545.56100411 173.20050322 -540.74134092 149.85840386 -522 128 C-521.55527344 127.41089844 -521.11054687 126.82179688 -520.65234375 126.21484375 C-503.5503882 104.09213061 -475.45503953 97.64187821 -449.5859375 92.39453125 C-447.46910061 91.95876608 -445.35241594 91.52226091 -443.23587036 91.08508301 C-438.6827071 90.14623978 -434.12853385 89.21252521 -429.57348633 88.28286743 C-422.2081254 86.77960694 -414.84514955 85.26487655 -407.48242188 83.7487793 C-397.66253013 81.72769939 -387.84184458 79.71054974 -378.02037764 77.69714224 C-361.80530091 74.37296497 -345.59339574 71.03352679 -329.3828125 67.6875 C-328.11933046 67.42671473 -326.85584843 67.16592945 -325.55407906 66.89724159 C-320.42002876 65.83752126 -315.28599374 64.77772697 -310.15199375 63.71776295 C-301.67451336 61.96754468 -293.19677931 60.21856085 -284.71888316 58.47035801 C-246.85676626 50.66272838 -209.00155186 42.82212046 -171.14944619 34.96610945 C-89.27906249 17.97441981 -89.27906249 17.97441981 -48.59951782 9.57440186 C-44.35728906 8.69837524 -40.11525032 7.82143754 -35.87338257 6.94366455 C-31.02425714 5.94028784 -26.17474921 4.93878318 -21.3249054 3.93888474 C-19.57252739 3.57728097 -17.82028611 3.21501391 -16.06819153 2.85203934 C-13.70883959 2.36339158 -11.34900259 1.87716205 -8.98901367 1.39160156 C-8.30092463 1.24850367 -7.6128356 1.10540577 -6.90389538 0.95797157 C-2.22843081 0 -2.22843081 0 0 0 Z " fill="#FCFDFD" transform="translate(545,10)"/>
<path d="M0 0 C8.41328288 7.25283007 12.58768656 18.53943988 13.87109375 29.3359375 C14.45282296 44.64855157 9.03538356 58.85418662 -0.7578125 70.4609375 C-9.95737332 80.15196067 -21.802697 85.24571498 -35.1328125 85.6484375 C-41.64130596 85.48121002 -46.76329568 84.15977369 -52.5078125 81.1484375 C-53.1678125 80.8184375 -53.8278125 80.4884375 -54.5078125 80.1484375 C-54.5078125 79.4884375 -54.5078125 78.8284375 -54.5078125 78.1484375 C-55.1678125 78.1484375 -55.8278125 78.1484375 -56.5078125 78.1484375 C-56.5078125 98.6084375 -56.5078125 119.0684375 -56.5078125 140.1484375 C-65.86625719 142.48804867 -75.14663529 144.80369366 -84.58563232 146.73614502 C-85.27365685 146.87737038 -85.96168137 147.01859573 -86.67055511 147.16410065 C-87.3748188 147.30846306 -88.07908249 147.45282547 -88.8046875 147.6015625 C-90.29685095 147.90954989 -91.78897663 148.21772027 -93.28106689 148.52606201 C-96.36954258 149.16347709 -99.45850711 149.79845011 -102.54785156 150.43164062 C-106.50295756 151.24252784 -110.45663994 152.06014059 -114.40998459 152.87956619 C-117.47372237 153.51376478 -120.53821362 154.14425799 -123.60294342 154.77364349 C-125.06241636 155.0738705 -126.52164368 155.37529415 -127.98061371 155.67795563 C-130.00812627 156.09802989 -132.03661051 156.51304699 -134.06542969 156.92675781 C-135.79173615 157.28172333 -135.79173615 157.28172333 -137.55291748 157.64385986 C-140.5078125 158.1484375 -140.5078125 158.1484375 -144.5078125 158.1484375 C-144.5078125 151.5484375 -144.5078125 144.9484375 -144.5078125 138.1484375 C-138.42511535 136.88851616 -132.34230098 135.62918914 -126.25883484 134.37298584 C-120.34012219 133.15057077 -114.42257522 131.92293602 -108.50726318 130.68415833 C-105.40958405 130.03598846 -102.31125464 129.39096202 -99.21282959 128.74636841 C-97.70443593 128.43176616 -96.19633597 128.11575237 -94.6885376 127.79830933 C-92.56523606 127.35147614 -90.44095866 126.9095914 -88.31640625 126.46875 C-87.09751709 126.21367676 -85.87862793 125.95860352 -84.62280273 125.69580078 C-81.5078125 125.1484375 -81.5078125 125.1484375 -77.5078125 125.1484375 C-77.5078125 84.2284375 -77.5078125 43.3084375 -77.5078125 1.1484375 C-63.87308196 -1.33060442 -63.87308196 -1.33060442 -58.5078125 -0.8515625 C-56.7890625 0.66796875 -56.7890625 0.66796875 -55.5078125 2.1484375 C-55.0953125 1.76171875 -54.6828125 1.375 -54.2578125 0.9765625 C-37.77624177 -13.88628254 -17.25443989 -12.73925936 0 0 Z " fill="#FCFCFD" transform="translate(501.5078125,84.8515625)"/>
<path d="M0 0 C20.66265986 16.26857523 34.18718646 37.05888417 38.0859375 63.4296875 C38.98118748 78.12660513 39.00656673 92.4520251 34.0859375 106.4296875 C33.6734375 107.67363281 33.2609375 108.91757813 32.8359375 110.19921875 C24.47006083 133.98862982 6.10642059 152.99308542 -16.4140625 163.8671875 C-17.04070801 164.17301758 -17.66735352 164.47884766 -18.31298828 164.79394531 C-29.7948131 170.00011544 -42.85553545 172.17095427 -55.13256836 174.68188477 C-56.58670999 174.98265643 -58.04077361 175.28380547 -59.49476624 175.58529663 C-63.39485515 176.39286485 -67.29601726 177.19512744 -71.19743037 177.99627042 C-75.31180304 178.84203635 -79.4251925 179.69255922 -83.53871155 180.54246521 C-90.44310039 181.96829983 -97.34814799 183.39090502 -104.25366211 184.8112793 C-113.0714404 186.62499862 -121.88810538 188.44407068 -130.70442867 190.26484776 C-138.34253638 191.84224879 -145.9811573 193.41715934 -153.61985707 194.9916904 C-156.04711153 195.49211577 -158.47429676 195.9928758 -160.90147209 196.49368477 C-164.74019696 197.28557893 -168.57924253 198.07590117 -172.41852379 198.86509323 C-173.81322818 199.15199843 -175.20783819 199.43936297 -176.60233688 199.72726631 C-186.35413684 201.7400835 -196.12377419 203.61530693 -205.9140625 205.4296875 C-205.9140625 198.8296875 -205.9140625 192.2296875 -205.9140625 185.4296875 C-183.28909756 179.990994 -160.56794922 175.0587455 -137.71142578 170.69970703 C-128.01383698 168.84735861 -118.33421533 166.92003006 -108.6640625 164.9296875 C-107.94938812 164.78259338 -107.23471375 164.63549927 -106.49838257 164.48394775 C-95.83063105 162.28295599 -85.19174319 159.96779953 -74.56835938 157.56079102 C-68.03357965 156.08928246 -61.4865654 154.74607276 -54.90722656 153.48925781 C-31.01999187 148.90745459 -10.43575241 141.24386132 4.49609375 120.9453125 C9.29976026 113.34442496 13.33019164 104.98700358 16.0859375 96.4296875 C16.28960938 95.81996094 16.49328125 95.21023437 16.703125 94.58203125 C21.50968553 77.49569623 18.0232392 56.93693789 10.0859375 41.4296875 C-0.16440761 23.26204206 -16.14733121 11.08703357 -35.78515625 4.4609375 C-55.15363103 -0.86847722 -74.38198728 3.60914187 -93.50488281 7.70214844 C-97.96648397 8.65428045 -102.43867504 9.544918 -106.9140625 10.4296875 C-106.9140625 3.8296875 -106.9140625 -2.7703125 -106.9140625 -9.5703125 C-102.64382045 -10.53134362 -98.37290773 -11.48920711 -94.1015625 -12.4453125 C-92.3081543 -12.84943359 -92.3081543 -12.84943359 -90.47851562 -13.26171875 C-86.9603871 -14.04778561 -83.43897138 -14.81526503 -79.9140625 -15.5703125 C-78.95790039 -15.77769043 -78.00173828 -15.98506836 -77.01660156 -16.19873047 C-49.89758324 -21.656862 -22.30600145 -16.3577344 0 0 Z " fill="#FDFDFE" transform="translate(661.9140625,17.5703125)"/>
<path d="M0 0 C0.0154612 1.29332497 0.0154612 1.29332497 0.03123474 2.61277771 C0.12903598 10.72113148 0.23152514 18.82940931 0.33933926 26.93763638 C0.39460636 31.10659016 0.44803226 35.27555091 0.49731445 39.44458008 C0.54490235 43.46463894 0.59724286 47.48460989 0.65294075 51.50456429 C0.67338966 53.04160447 0.69209847 54.57866879 0.70907402 56.11575127 C0.7330622 58.26142006 0.76312383 60.40692129 0.79467773 62.55249023 C0.81799416 64.3878257 0.81799416 64.3878257 0.84178162 66.26023865 C0.690167 68.91188829 0.690167 68.91188829 2 70 C4.64 70 7.28 70 10 70 C10 76.27 10 82.54 10 89 C2.52790006 92.20232855 -2.71682132 93.6656806 -10.375 90.6875 C-12.67149823 89.21117971 -14.87632164 87.71527868 -17 86 C-17.32871094 86.44730469 -17.65742188 86.89460938 -17.99609375 87.35546875 C-24.9256056 96.16289709 -35.12386807 100.21085276 -46 102 C-59.08590624 103.00330059 -68.91891467 101.49530793 -79.375 92.9375 C-84.4659922 88.0429448 -87.39936756 82.51036702 -90 76 C-90.55880859 74.66195312 -90.55880859 74.66195312 -91.12890625 73.296875 C-94.40007465 60.91630941 -93.27213569 46.16630217 -87 35 C-79.84245685 22.89124374 -70.14270707 13.64845578 -56.7421875 8.828125 C-52.16362968 7.81491596 -47.86368323 7.61794959 -43.1875 7.625 C-41.86443848 7.62306641 -41.86443848 7.62306641 -40.51464844 7.62109375 C-34.05180191 7.72614186 -28.65153633 8.66856806 -23 12 C-23 12.66 -23 13.32 -23 14 C-22.34 14 -21.68 14 -21 14 C-20.95875 12.948125 -20.9175 11.89625 -20.875 10.8125 C-19.99649779 6.98474036 -19.17813094 5.33628785 -16.01953125 3 C-11.12571509 0.57675641 -5.40653065 0 0 0 Z " fill="#FCFDFE" transform="translate(308,111)"/>
<path d="M0 0 C7.9313511 6.56557903 12.8159749 14.29050241 15.625 24.1875 C15.75974123 26.85537642 15.81697861 29.40396441 15.75 32.0625 C15.74097656 32.75085938 15.73195313 33.43921875 15.72265625 34.1484375 C15.69932513 35.82827838 15.66346326 37.50793746 15.625 39.1875 C8.92139329 40.55715284 2.21768714 41.92631816 -4.48608398 43.29516602 C-6.76019472 43.75957556 -9.0342838 44.22409119 -11.30834961 44.6887207 C-23.65918926 47.21212735 -36.01029711 49.73277071 -48.375 52.1875 C-46.5708215 59.07766586 -44.52883551 63.29519869 -38.25 67.0625 C-30.46674572 69.87592741 -22.45847814 68.53885943 -14.9609375 65.53125 C-9.70244726 62.79874148 -5.64909575 59.09864363 -2.375 54.1875 C1.21013106 55.80934501 4.21492323 57.98006239 7.375 60.3125 C8.85226562 61.39917969 8.85226562 61.39917969 10.359375 62.5078125 C11.10703125 63.06210938 11.8546875 63.61640625 12.625 64.1875 C9.34477316 73.08663393 2.73050017 78.53680318 -5.375 83.1875 C-17.88788177 88.83284666 -33.48056055 92.59175683 -46.9375 87.625 C-58.85584745 81.75813705 -65.27922722 73.20710601 -69.61328125 60.86328125 C-73.48368238 47.26725678 -72.1955492 32.791133 -65.8671875 20.18359375 C-58.36361645 7.63692495 -47.55063832 -1.78471536 -33.3125 -5.75 C-21.44396048 -8.21939704 -10.13318748 -7.19938844 0 0 Z " fill="#FCFCFD" transform="translate(631.375,53.8125)"/>
<path d="M0 0 C5.78450461 4.41842234 9.93997136 9.60353252 12.1171875 16.6171875 C12.54800717 19.8861554 12.58152143 23.12369495 12.59375 26.41796875 C12.60932953 27.33555466 12.62490906 28.25314056 12.64096069 29.1985321 C12.68822192 32.10890948 12.7161717 35.01904945 12.7421875 37.9296875 C12.7786925 40.85801254 12.81926489 43.78620335 12.86483765 46.71440125 C12.89204566 48.53171397 12.91340504 50.34912547 12.92837524 52.1665802 C12.84847497 56.52906098 12.84847497 56.52906098 14.1171875 60.6171875 C16.0971875 60.9471875 18.0771875 61.2771875 20.1171875 61.6171875 C20.1171875 67.8871875 20.1171875 74.1571875 20.1171875 80.6171875 C6.95656066 85.00406311 6.95656066 85.00406311 1.203125 82.92578125 C-3.93971539 80.3105922 -6.3415121 76.5908808 -8.97119141 71.51733398 C-10.27055271 67.38366688 -10.16116408 63.46047976 -10.15625 59.15234375 C-10.1765359 57.28189502 -10.19738662 55.41145235 -10.21875 53.54101562 C-10.24135051 50.60712553 -10.25782488 47.67347513 -10.26367188 44.73950195 C-10.27321115 41.89751429 -10.30699927 39.05659183 -10.34375 36.21484375 C-10.33870453 35.342798 -10.33365906 34.47075226 -10.32846069 33.57228088 C-10.41841867 27.98160078 -11.23331433 24.91469952 -14.8828125 20.6171875 C-19.29962521 18.40878115 -25.07523784 19.19557316 -29.8828125 19.6171875 C-35.89480377 22.46497284 -39.69983414 27.20691284 -42.24526978 33.32791138 C-43.65913406 38.404788 -43.36740479 43.75586629 -43.39453125 48.98828125 C-43.41248245 50.26574722 -43.43043365 51.5432132 -43.44892883 52.85939026 C-43.49377882 56.23447081 -43.52615307 59.60919282 -43.55236816 62.98443604 C-43.58229417 66.43702165 -43.62878268 69.88938128 -43.67382812 73.34179688 C-43.75866975 80.1001556 -43.8270555 86.8585296 -43.8828125 93.6171875 C-46.81947476 94.28774035 -49.75703609 94.95377803 -52.6953125 95.6171875 C-53.52869141 95.80796875 -54.36207031 95.99875 -55.22070312 96.1953125 C-56.02314453 96.37578125 -56.82558594 96.55625 -57.65234375 96.7421875 C-58.39073486 96.90976563 -59.12912598 97.07734375 -59.88989258 97.25 C-61.8828125 97.6171875 -61.8828125 97.6171875 -64.8828125 97.6171875 C-64.8828125 67.5871875 -64.8828125 37.5571875 -64.8828125 6.6171875 C-50.27607093 3.69583919 -50.27607093 3.69583919 -47.1875 5.73828125 C-45.69461401 6.96383649 -44.28148529 8.28511818 -42.8828125 9.6171875 C-42.55410156 9.16988281 -42.22539062 8.72257813 -41.88671875 8.26171875 C-32.26704526 -3.96491233 -13.69275864 -8.16033091 0 0 Z " fill="#FCFDFD" transform="translate(193.8828125,140.3828125)"/>
<path d="M0 0 C3.40590701 2.09692036 6.20413532 4.52508324 9.09375 7.2890625 C7.46706769 10.982071 5.18062593 13.90535445 2.65625 17.0390625 C1.87378906 18.02390625 1.09132812 19.00875 0.28515625 20.0234375 C-0.43800781 20.77109375 -1.16117188 21.51875 -1.90625 22.2890625 C-4.90625 22.2890625 -4.90625 22.2890625 -7.34375 20.2890625 C-11.95896499 17.04217758 -17.53012342 17.54467574 -22.90625 18.2890625 C-26.21691045 19.71260984 -26.21691045 19.71260984 -27.90625 22.2890625 C-28.65646244 24.83273918 -28.65646244 24.83273918 -27.90625 27.2890625 C-24.97045685 29.99486264 -22.32785025 30.88352975 -18.46875 31.7265625 C-4.96380213 34.9003079 5.56114662 37.76216823 14.09375 49.2890625 C17.10552894 55.31262037 17.04229661 61.96491478 15.21875 68.35546875 C11.07782025 79.23903083 5.48763388 84.01277577 -4.84375 89.02734375 C-15.51865277 93.42529476 -28.51967594 94.42668074 -39.69921875 91.19140625 C-45.26869718 88.54431574 -51.68180652 84.74198236 -54.90625 79.2890625 C-54.87408758 76.17573991 -53.74944276 75.11428777 -51.65625 72.78125 C-50.74875 71.91757813 -49.84125 71.05390625 -48.90625 70.1640625 C-45.46572215 67.0555339 -45.46572215 67.0555339 -42.90625 63.2890625 C-39.19453073 64.52630226 -37.6509151 66.5443974 -34.90625 69.2890625 C-29.49902706 72.88975329 -22.11439315 71.83569146 -15.90625 71.2890625 C-12.67945406 70.30900413 -10.73061779 69.2096326 -7.90625 67.2890625 C-6.4279274 64.33241731 -6.84592217 61.54676513 -6.90625 58.2890625 C-12.15706603 55.82382527 -17.10290914 54.5031496 -22.78125 53.4140625 C-33.03744823 51.26574858 -40.84331801 48.26686563 -46.90625 39.2890625 C-50.62382017 32.8452742 -50.832063 26.32657439 -49.5078125 19.12109375 C-47.13596122 11.40487628 -41.11960797 5.26857704 -34.21875 1.3515625 C-32.79928545 0.62755773 -31.36095368 -0.06063011 -29.90625 -0.7109375 C-29.16117188 -1.07574219 -28.41609375 -1.44054687 -27.6484375 -1.81640625 C-19.26151585 -4.55231089 -7.92430397 -3.77218579 0 0 Z " fill="#FBFCFD" transform="translate(105.90625,156.7109375)"/>
<path d="M0 0 C5.18121841 3.36500636 8.96819247 8.31248053 10.81640625 14.1796875 C11.98845832 24.57824252 10.24140288 33.11960629 3.81640625 41.4296875 C-2.16601598 47.70549078 -9.75360121 51.46117015 -18.43359375 51.8671875 C-25.81050928 51.45253735 -29.905997 48.45728425 -34.99609375 43.3671875 C-39.38944723 36.96544386 -41.13751756 30.9435674 -40.18359375 23.1796875 C-38.2299712 13.63949736 -32.9477005 7.07038324 -25.2109375 1.40625 C-17.76394216 -3.09925393 -8.01361572 -3.5132762 0 0 Z " fill="#275999" transform="translate(277.18359375,140.8203125)"/>
<path d="M0 0 C5.62800078 4.73263702 9.51992701 10.07334932 10.23828125 17.4453125 C10.51820228 27.55193495 7.75870746 34.94574861 0.79296875 42.3125 C-5.51282755 48.24736711 -11.92794012 50.51808716 -20.47265625 50.3125 C-26.10476922 49.61610272 -29.81317431 47.16045179 -33.8125 43.25 C-39.24897951 35.17294473 -40.13660461 27.62325237 -39 18 C-36.62952308 10.23537114 -31.76350236 3.98938602 -24.90234375 -0.31640625 C-16.83386917 -4.40044894 -7.95452751 -4.44884089 0 0 Z " fill="#275899" transform="translate(384,120)"/>
<path d="M0 0 C4.79529381 3.55583227 8.67186159 8.32808476 10.5625 14 C11.47472435 24.66255672 10.10429054 32.99238793 3.25 41.375 C-2.75808418 47.75697783 -9.02307155 50.10808633 -17.6875 50.375 C-23.89601912 50.31925572 -27.88830829 49.27960998 -32.4375 45 C-37.96402927 38.1645559 -39.02529616 31.26576256 -38.87109375 22.67578125 C-37.90765546 14.50825488 -34.27509241 8.07590071 -27.9375 2.875 C-20.26460671 -2.71286794 -8.55643144 -4.89645499 0 0 Z " fill="#265898" transform="translate(482.4375,99)"/>
<path d="M0 0 C3.58347802 2.51773306 5.66535883 4.99922942 7.6875 8.875 C7.6875 9.865 7.6875 10.855 7.6875 11.875 C6.96796143 12.01075439 6.24842285 12.14650879 5.50708008 12.28637695 C-11.81614265 15.4957916 -11.81614265 15.4957916 -28.9921875 19.39453125 C-31.3125 19.875 -31.3125 19.875 -35.3125 19.875 C-34.20055589 12.60262987 -30.08600799 6.97075148 -24.375 2.4375 C-17.13951303 -2.50949014 -7.85973719 -4.54345403 0 0 Z " fill="#275899" transform="translate(617.3125,69.125)"/>
<path d="M0 0 C2.8100346 1.79363911 4.50940468 3.01880935 6 6 C6.67660495 11.86390959 6.67660495 11.86390959 4.953125 14.7578125 C2.24830146 18.05133293 0.48199038 19.7979104 -3.75 20.375 C-7.22596166 19.9739275 -9.21169024 19.08198344 -11.79296875 16.69140625 C-14.11998206 13.43057529 -14.44668822 9.91383967 -14 6 C-10.48028041 0.17425724 -6.63382773 -0.95313617 0 0 Z " fill="#345F9D" transform="translate(664,101)"/>
<path d="M0 0 C2.8100346 1.79363911 4.50940468 3.01880935 6 6 C6.67660495 11.86390959 6.67660495 11.86390959 4.953125 14.7578125 C2.24830146 18.05133293 0.48199038 19.7979104 -3.75 20.375 C-7.22596166 19.9739275 -9.21169024 19.08198344 -11.79296875 16.69140625 C-14.11998206 13.43057529 -14.44668822 9.91383967 -14 6 C-10.48028041 0.17425724 -6.63382773 -0.95313617 0 0 Z M-9.9375 4.125 C-12.16728075 6.84198564 -12.16728075 6.84198564 -12.6875 10 C-11.90167392 13.42905924 -10.62880414 15.06237136 -7.7890625 17.1484375 C-4.58454672 18.67373104 -2.27049287 18.04902601 1 17 C3.81972931 14.63506574 3.97850831 13.1719335 4.4375 9.5 C4.25740198 6.01609285 4.25740198 6.01609285 2.4375 3.5625 C-2.12083094 0.64049299 -5.62082427 1.00229841 -9.9375 4.125 Z " fill="#DBE2ED" transform="translate(664,101)"/>
<path d="M0 0 C3.375 -0.125 3.375 -0.125 7 0 C7.66 0.66 8.32 1.32 9 2 C8.625 4.125 8.625 4.125 8 6 C7.34 6 6.68 6 6 6 C6.66 7.65 7.32 9.3 8 11 C6 11 6 11 3.875 9 C3.25625 8.34 2.6375 7.68 2 7 C2 8.32 2 9.64 2 11 C1.34 11 0.68 11 0 11 C0 7.37 0 3.74 0 0 Z " fill="#9AAFCE" transform="translate(656,105)"/>
<path d="M0 0 C1.9375 1.5 1.9375 1.5 3 3 C2.34 4.32 1.68 5.64 1 7 C0.7215625 6.0409375 0.7215625 6.0409375 0.4375 5.0625 C-0.94246056 2.57873787 -0.94246056 2.57873787 -4.625 2.25 C-5.73875 2.1675 -6.8525 2.085 -8 2 C-8 5.96 -8 9.92 -8 14 C-12 11 -12 11 -12.5625 8.125 C-11.29268377 1.07046537 -6.72546109 -0.99636461 0 0 Z " fill="#0E438C" transform="translate(664,103)"/>
<path d="M0 0 C3.875 1.75 3.875 1.75 5 4 C5.48205722 8.17782921 5.41000905 11.02462685 2.9375 14.4375 C0 17 0 17 -3.8125 17.375 C-4.864375 17.25125 -5.91625 17.1275 -7 17 C-7 16.67 -7 16.34 -7 16 C-5.329375 15.5978125 -5.329375 15.5978125 -3.625 15.1875 C0.21840951 14.34190981 0.21840951 14.34190981 2 11 C2.30891093 6.7524747 2.33046701 3.6413547 0 0 Z " fill="#EAEEF5" transform="translate(665,103)"/>
<path d="M0 0 C3.8125 0.4375 3.8125 0.4375 5.8125 2.4375 C3.8125 3.4375 3.8125 3.4375 0.5 3.25 C-3.78874528 3.46807179 -5.16398234 4.50560408 -8.1875 7.4375 C-8.5175 6.7775 -8.8475 6.1175 -9.1875 5.4375 C-6.37344464 1.9199308 -4.52385656 0.07416158 0 0 Z " fill="#DDE3EF" transform="translate(660.1875,100.5625)"/>
<path d="M0 0 C0.66 0.66 1.32 1.32 2 2 C-0.97 4.97 -3.94 7.94 -7 11 C-7.66 10.34 -8.32 9.68 -9 9 C-6.03 6.03 -3.06 3.06 0 0 Z " fill="#1E5295" transform="translate(46,142)"/>
<path d="M0 0 C0.33 0.99 0.66 1.98 1 3 C2.65 3 4.3 3 6 3 C6.33 4.98 6.66 6.96 7 9 C5 9 5 9 2.875 7 C2.25625 6.34 1.6375 5.68 1 5 C0.67 6.32 0.34 7.64 0 9 C0 6.03 0 3.06 0 0 Z " fill="#F2F4F9" transform="translate(657,107)"/>
<path d="M0 0 C0.33 0 0.66 0 1 0 C1 2.31 1 4.62 1 7 C-1.97 6.505 -1.97 6.505 -5 6 C-5 5.34 -5 4.68 -5 4 C-4.0409375 3.8453125 -4.0409375 3.8453125 -3.0625 3.6875 C-2.381875 3.460625 -1.70125 3.23375 -1 3 C-0.67 2.01 -0.34 1.02 0 0 Z " fill="#2A5A9A" transform="translate(667,107)"/>
<path d="M0 0 C0.66 0.33 1.32 0.66 2 1 C2 3.31 2 5.62 2 8 C1.01 8 0.02 8 -1 8 C-1.125 2.25 -1.125 2.25 0 0 Z " fill="#2C5C9B" transform="translate(653,106)"/>
<path d="M0 0 C2.475 0.99 2.475 0.99 5 2 C5 2.66 5 3.32 5 4 C6.65 4 8.3 4 10 4 C10 4.33 10 4.66 10 5 C6.63295715 5.2295711 4.58629732 5.33943529 1.625 3.625 C1.08875 3.08875 0.5525 2.5525 0 2 C0 1.34 0 0.68 0 0 Z " fill="#C6D2E4" transform="translate(653,116)"/>
</svg>
