<?xml version="1.0" encoding="UTF-8"?>
<svg version="1.1" xmlns="http://www.w3.org/2000/svg" width="3840" height="1282">
<path d="M0 0 C47.19 0 94.38 0 143 0 C153.26797133 51.26265384 153.26797133 51.26265384 156.84375 69.16015625 C157.08280563 70.35667376 157.32186127 71.55319126 157.56816101 72.78596687 C168.0026165 125.01986744 178.37037233 177.26704127 188.71646845 229.51850671 C189.71926552 234.58280387 190.72251641 239.64701099 191.72595215 244.71118164 C194.77897856 260.12005493 197.82872427 275.52956718 200.86906338 290.94094944 C202.1488022 297.42770174 203.42997194 303.91416414 204.71499634 310.39987183 C205.90240526 316.39354407 207.08530146 322.38808858 208.2645607 328.38336945 C208.69542528 330.56987756 209.12790177 332.75606875 209.56209946 334.94191742 C210.15150809 337.91054654 210.73507944 340.88026432 211.31713867 343.8503418 C211.48985448 344.71307677 211.66257029 345.57581175 211.84051991 346.46469021 C212.59892681 350.36601066 213.21805856 354.00253399 213 358 C213.66 358 214.32 358 215 358 C215.09987717 356.82048264 215.19975433 355.64096527 215.30265808 354.42570496 C216.06995619 347.57903332 217.65729889 340.90431574 219.1574707 334.1887207 C219.48753317 332.69482469 219.81718106 331.20083703 220.146451 329.70676613 C221.04509106 325.63483976 221.94958135 321.56423266 222.85510492 317.49383235 C223.82316412 313.137553 224.78580761 308.78007684 225.74911499 304.42274475 C227.61686181 295.9783829 229.48960138 287.53513599 231.36403346 279.09225589 C233.53298953 269.32171238 235.69654446 259.54997528 237.85990059 249.77819061 C243.03373597 226.40955439 248.21802825 203.04324277 253.40553474 179.67763805 C253.98453522 177.06965771 254.56349572 174.46166849 255.1424408 171.85367584 C261.09027151 145.0604347 267.03950082 118.26750325 273.00317383 91.4777832 C273.79257061 87.93087872 274.5819365 84.38396737 275.37129021 80.8370533 C275.8758211 78.57049567 276.38053307 76.30397833 276.88543892 74.0375042 C279.67149692 61.53059457 282.4380525 49.01973641 285.17041016 36.50097656 C285.68584543 34.14303333 286.20129221 31.78509261 286.7167511 29.42715454 C287.69153581 24.96710921 288.66134641 20.50602087 289.62834167 16.04428101 C290.06171287 14.05894393 290.49524138 12.07364119 290.92895508 10.08837891 C291.12526079 9.17590015 291.32156651 8.2634214 291.52382088 7.32329178 C292.88639303 1.11360697 292.88639303 1.11360697 294 0 C295.80960871 -0.09641497 297.62302128 -0.12187398 299.43519592 -0.12025452 C300.61455215 -0.12162918 301.79390839 -0.12300385 303.00900269 -0.12442017 C304.3145108 -0.12082489 305.62001892 -0.11722961 306.96508789 -0.11352539 C308.34452818 -0.11324352 309.72396861 -0.11340125 311.10340881 -0.1139679 C314.85944118 -0.11425588 318.61544189 -0.10835905 322.37146688 -0.10139394 C326.29260045 -0.09516051 330.21373467 -0.09455661 334.13487244 -0.09336853 C341.56511611 -0.09025518 348.99534514 -0.08204175 356.42558235 -0.07201904 C364.88251638 -0.06085801 373.3394511 -0.05534748 381.79639065 -0.05032361 C399.19760225 -0.03985914 416.59879958 -0.02225963 434 0 C437.77099921 13.47516439 440.75293812 27.09896192 443.7421875 40.765625 C444.30329696 43.31884621 444.86473179 45.87199593 445.4264679 48.42507935 C446.62251676 53.86292653 447.81635113 59.30125565 449.00863647 64.7399292 C450.89834249 73.35948772 452.79295621 81.97796359 454.6887207 90.59619141 C454.84738668 91.31751291 455.00605266 92.0388344 455.1695267 92.78201413 C455.81162223 95.70104202 456.45373661 98.62006576 457.09591252 101.53907597 C458.0629206 105.93463939 459.02961543 110.33027155 459.99607497 114.72595561 C465.68891424 140.61735972 471.42634614 166.49870927 477.1875 192.375 C478.93535131 200.22646117 480.68281989 208.07800741 482.4296875 215.9296875 C482.64771215 216.90956635 482.86573681 217.88944519 483.09036827 218.89901733 C486.88864475 235.97271208 490.66728379 253.05072783 494.44034266 270.13000917 C495.02654429 272.78340265 495.61286942 275.43676883 496.19919795 278.09013426 C498.91126467 290.36339771 501.62241678 302.6368614 504.32965088 314.91119194 C505.37497702 319.64915416 506.4215743 324.38683495 507.46848679 329.12444687 C507.95748965 331.33876692 508.44591384 333.55321485 508.93373489 335.76779556 C509.60126308 338.79799366 510.27073132 341.82775679 510.94067383 344.85742188 C511.13634036 345.74798971 511.33200689 346.63855755 511.53360271 347.55611229 C511.80342071 348.77351066 511.80342071 348.77351066 512.07868958 350.01550293 C512.23355237 350.71745537 512.38841516 351.41940781 512.54797077 352.14263153 C512.94758338 353.78462237 513.46560088 355.39680265 514 357 C518.50240639 334.37547847 523.00229621 311.75045685 527.5 289.125 C527.66909284 288.27438964 527.83818567 287.42377928 528.01240253 286.54739285 C537.67965219 237.91568163 547.31495519 189.27790426 556.875 140.625 C557.3673573 138.11963846 557.85971772 135.61427754 558.3520813 133.10891724 C560.24412907 123.48086366 562.13578625 113.8527334 564.02693176 104.22450256 C567.96067424 84.19699594 571.89605501 64.16981365 575.84434128 44.1451683 C576.88486493 38.86784926 577.92378644 33.59021894 578.96128559 28.3123045 C579.57882315 25.17296468 580.19799471 22.03394899 580.81770134 18.8950367 C581.09953761 17.4658433 581.38071074 16.03651894 581.66116524 14.60705376 C582.0384935 12.68437544 582.4184603 10.76221549 582.79858398 8.84008789 C583.00821274 7.77577042 583.21784149 6.71145294 583.43382263 5.61488342 C584 3 584 3 585 0 C630.21 0 675.42 0 722 0 C719.74997221 13.50016677 719.74997221 13.50016677 718.69509888 18.5776062 C718.45521807 19.73796103 718.21533726 20.89831587 717.96818733 22.09383297 C717.71072165 23.32727727 717.45325596 24.56072157 717.18798828 25.83154297 C716.90715975 27.18542976 716.62653623 28.53935908 716.34609795 29.89332676 C715.58379068 33.57075733 714.81856112 37.24757424 714.05278015 40.92428279 C713.23070738 44.87374206 712.41131377 48.82375728 711.59155273 52.7736969 C709.99579634 60.46043927 708.39742986 68.14663666 706.79812551 75.83264154 C705.48911629 82.12383532 704.18119648 88.41525476 702.8739624 94.70681763 C692.01574184 146.96526547 681.1205486 199.21595099 670.19196212 251.45972598 C668.90519392 257.61114543 667.61856516 263.76259404 666.33203125 269.9140625 C666.18896805 270.59809576 666.04590485 271.28212902 665.8985064 271.98689055 C660.61134666 297.26732525 655.3401917 322.55108176 650.07421875 347.8359375 C649.68659533 349.69706041 649.29897122 351.55818318 648.91134644 353.4193058 C645.48562961 369.86762829 642.06037376 386.31604675 638.63702393 402.76486206 C634.30677116 423.57095212 629.97200676 444.37609395 625.63109136 465.1799621 C624.29648704 471.57687033 622.96371052 477.9741583 621.63128662 484.371521 C619.8376699 492.98269654 618.04102628 501.59323516 616.24109453 510.20309299 C615.28476436 514.77798413 614.32969448 519.35312947 613.37781715 523.92894936 C612.49474872 528.17374249 611.60816291 532.41778512 610.71877694 536.66125894 C610.39202723 538.22337734 610.06658712 539.78577029 609.74251151 541.34844565 C609.30090764 543.47683199 608.85470414 545.60420147 608.40727234 547.73136902 C608.15819972 548.92473468 607.9091271 550.11810034 607.65250683 551.34762859 C607 554 607 554 606 555 C603.89906175 555.09687035 601.79480483 555.12186861 599.69163513 555.12025452 C599.02516167 555.12110894 598.35868821 555.12196337 597.67201859 555.12284368 C595.42251366 555.12450035 593.17308212 555.11897411 590.92358398 555.11352539 C589.31754559 555.11324353 587.71150707 555.11340122 586.10546875 555.1139679 C581.73168933 555.11425593 577.35793708 555.10835832 572.984164 555.10139394 C568.41840422 555.09516131 563.85264387 555.09455667 559.28688049 555.09336853 C550.63478695 555.09025495 541.98270597 555.08204119 533.33061796 555.07201904 C523.48314177 555.06085874 513.63566499 555.05534766 503.78818405 555.05032361 C483.525449 555.0398586 463.26272529 555.02225864 443 555 C442.74532959 553.84367569 442.49065918 552.68735138 442.22827148 551.49598694 C438.9633828 536.67209099 435.6979749 521.84830944 432.4322567 507.02459621 C432.14451143 505.71846516 431.85676754 504.41233379 431.56902504 503.10620213 C424.02620785 468.86760253 416.47882945 434.63001355 408.921875 400.39453125 C408.7536278 399.63231105 408.58538059 398.87009085 408.41203499 398.08477306 C406.19837955 388.05615383 403.9845773 378.02756701 401.77075195 367.99898529 C401.60231781 367.23598208 401.43388367 366.47297888 401.26034546 365.68685436 C400.92007472 364.14543496 400.57980372 362.60401561 400.23953247 361.06259632 C387.80052743 304.71406993 375.38580877 248.36024713 363 192 C356.90473786 218.37927495 351.04567226 244.80797463 345.24057007 271.25242615 C343.1501696 280.77216001 341.05588548 290.29104102 338.96229553 299.81007385 C338.40123743 302.36115869 337.84023334 304.91225541 337.27928162 307.46336365 C332.48836685 329.25133622 327.68452972 351.03644197 322.875 372.8203125 C322.52700238 374.39657184 322.17900598 375.97283146 321.83101082 377.54909134 C318.69353373 391.76026127 315.55551908 405.97131248 312.41671753 420.18218994 C310.3905585 429.35571699 308.36487638 438.52934924 306.33984375 447.703125 C306.09650492 448.80547336 306.09650492 448.80547336 305.84825015 449.93009138 C301.69265723 468.756337 297.55088794 487.58549889 293.44140625 506.421875 C293.04500546 508.23769394 292.64859264 510.05351027 292.25216675 511.86932373 C290.69945248 518.98367211 289.14848678 526.09837439 287.60778904 533.21533585 C287.16588548 535.25444925 286.72244702 537.29322124 286.27830505 539.33184814 C285.76116335 541.70647461 285.24680967 544.08171094 284.73597717 546.45770264 C284.51767746 547.45714905 284.29937775 548.45659546 284.07446289 549.48632812 C283.88896378 550.34359497 283.70346466 551.20086182 283.51234436 552.08410645 C283 554 283 554 282 555 C279.86106733 555.09692063 277.71887033 555.12186803 275.57774353 555.12025452 C274.55965736 555.12153615 274.55965736 555.12153615 273.52100378 555.12284368 C271.23004074 555.12450041 268.93914974 555.118974 266.64819336 555.11352539 C265.01259869 555.11324353 263.3770039 555.11340122 261.7414093 555.1139679 C257.28705414 555.11425593 252.83272566 555.10835824 248.37837672 555.10139394 C243.72853526 555.09516139 239.07869326 555.09455668 234.42884827 555.09336853 C225.61738298 555.09025492 216.80593003 555.08204113 207.99447018 555.07201904 C197.96561892 555.06085882 187.93676709 555.05534768 177.90791118 555.05032361 C157.27193389 555.03985854 136.63596772 555.02225853 116 555 C114.7166404 551.29325289 113.62478988 547.65088169 112.82244873 543.81190491 C112.61070637 542.80745677 112.398964 541.80300863 112.18080521 540.76812267 C111.95452816 539.67683213 111.72825111 538.58554159 111.49511719 537.46118164 C111.24971569 536.29195065 111.00431419 535.12271967 110.75147629 533.91805744 C110.07315125 530.68266194 109.39801328 527.44663107 108.72420311 524.21029425 C107.99766223 520.72466099 107.26696407 517.23989921 106.53674316 513.7550354 C105.27114102 507.71243498 104.00807649 501.66930869 102.7467041 495.62582397 C100.8957281 486.75763787 99.04059819 477.89032457 97.18432951 469.02324498 C96.31627748 464.87669026 95.44837229 460.73010482 94.58050537 456.58351135 C94.40713819 455.75517892 94.233771 454.92684649 94.05515027 454.07341307 C92.81123486 448.12967312 91.5680587 442.18577882 90.32525635 436.24180603 C85.73482579 414.28721661 81.1375057 392.33408718 76.53125 370.3828125 C76.3809573 369.66657015 76.23066461 368.95032779 76.07581758 368.21238112 C74.55968657 360.98708039 73.04337701 353.76181713 71.52692235 346.53658432 C69.53748496 337.05777532 67.5486429 327.57884151 65.56005859 318.09985352 C65.40635418 317.36719367 65.25264976 316.63453383 65.09428763 315.87967217 C64.46966887 312.90231281 63.84505108 309.92495326 63.22043645 306.94759303 C61.47486574 298.62698585 59.72913644 290.30641193 57.98339844 281.98583984 C57.32954876 278.86944588 56.67569942 275.75305185 56.02185059 272.63665771 C55.85742269 271.85295699 55.6929948 271.06925626 55.52358425 270.26180702 C54.3078933 264.46753239 53.09223483 258.67325095 51.87658691 252.87896729 C51.14982259 249.41491665 50.42305647 245.95086639 49.69628906 242.48681641 C49.514734 241.62145504 49.33317894 240.75609367 49.14612222 239.86450922 C47.1075386 230.14787369 45.06884259 220.43126175 43.02987671 210.71470642 C42.84609667 209.8389129 42.66231663 208.96311938 42.47296751 208.06078666 C41.73095662 204.52478454 40.98894403 200.98878278 40.24691749 197.45278394 C38.04896716 186.97878292 35.85152437 176.50467569 33.65490615 166.03039521 C31.71834112 156.79620295 29.78130264 147.56211009 27.84375 138.328125 C27.67364174 137.51740642 27.50353349 136.70668784 27.32827044 135.87140203 C22.96156491 115.06128203 18.57956112 94.25451443 14.16834641 73.45378113 C13.42249302 69.93598475 12.67736403 66.41803582 11.93252563 62.90002441 C11.46234195 60.67944322 10.99215763 58.45886217 10.52197266 56.23828125 C10.29728113 55.1769976 10.07258961 54.11571396 9.84108925 53.0222702 C8.55975892 46.97304051 7.27293726 40.9250142 5.98154068 34.87792587 C5.21805166 31.29735697 4.45933398 27.71578995 3.70198059 24.13391876 C3.36002634 22.52197647 3.01596046 20.91048034 2.66954041 19.29949188 C2.206291 17.14447618 1.75042794 14.98802614 1.29638672 12.83105469 C1.04363983 11.64533875 0.79089294 10.4596228 0.53048706 9.23797607 C0 6 0 6 0 0 Z " fill="#0052E2" transform="translate(0,364)"/>
<path d="M0 0 C20.60325872 18.5053345 31.43220519 40.94400776 38.61938477 67.26977539 C40.65035717 64.6738366 42.31102998 62.12648072 43.78344727 59.17993164 C44.17862549 58.40198242 44.57380371 57.6240332 44.98095703 56.82250977 C45.39788818 56.00073242 45.81481934 55.17895508 46.24438477 54.33227539 C50.47969717 46.15202763 55.05314807 38.63189238 60.61938477 31.26977539 C61.29098633 30.37516602 61.96258789 29.48055664 62.65454102 28.55883789 C85.62231707 -0.71971027 116.79071376 -19.38380684 153.83789062 -24.35083008 C160.53552182 -25.0227985 167.20844414 -25.07884877 173.93188477 -25.04272461 C174.65683136 -25.04056946 175.38177795 -25.03841431 176.12869263 -25.03619385 C207.57196307 -24.88633818 235.96069096 -15.28091896 258.74438477 6.95727539 C280.65963713 29.19101197 292.16363877 59.79805228 296.61938477 90.26977539 C296.78655439 91.37722548 296.95372402 92.48467556 297.1259594 93.62568474 C299.11210847 108.11160222 298.89272933 122.65571152 298.85151601 137.24362731 C298.84277683 141.13291734 298.84580897 145.02220192 298.84732056 148.91149902 C298.84836287 155.62942234 298.84215518 162.34730643 298.83084488 169.06521988 C298.81450339 178.77786466 298.80937308 188.49049072 298.8068689 198.20314775 C298.80250527 213.96609034 298.78923256 229.72901208 298.77026367 245.49194336 C298.75187022 260.79272357 298.7377537 276.09349807 298.72924805 291.39428711 C298.72871205 292.34902912 298.72817606 293.30377113 298.72762382 294.28744471 C298.72346431 301.75555124 298.7195507 309.22365789 298.71571469 316.69176459 C298.69689025 353.21778733 298.65664354 389.74375781 298.61938477 426.26977539 C251.75938477 426.26977539 204.89938477 426.26977539 156.61938477 426.26977539 C156.58200195 405.28125977 156.54461914 384.29274414 156.50610352 362.66821289 C156.47583107 349.37914411 156.44482786 336.09008309 156.41040039 322.80102539 C156.39235149 315.81925512 156.37448771 308.83748442 156.35693359 301.85571289 C156.35362206 300.54321969 156.35362206 300.54321969 156.35024363 299.20421147 C156.31491823 285.09646022 156.29003471 270.98870902 156.26903775 256.88092999 C156.24723968 242.39180812 156.21415136 227.9027434 156.17068321 213.41367018 C156.14423537 204.48031605 156.12648949 195.54703308 156.12003873 186.61364175 C156.11476376 180.47939733 156.09847644 174.34524229 156.07371911 168.21104585 C156.05977597 164.67720297 156.05050614 161.14351982 156.0543766 157.60964775 C156.37668045 126.60376683 156.37668045 126.60376683 141.61938477 100.26977539 C131.50984911 91.80511848 119.53661136 89.56755134 106.61938477 90.26977539 C93.9540693 91.46946698 83.04028793 95.61568992 73.61938477 104.26977539 C72.71446289 105.09348633 72.71446289 105.09348633 71.79125977 105.93383789 C60.44254979 117.53814944 55.5137556 134.97965727 52.93188477 150.51977539 C52.7524231 151.58965698 52.7524231 151.58965698 52.56933594 152.68115234 C50.1079622 168.97905196 50.45517462 185.62248147 50.4140625 202.05712891 C50.40446366 204.51280881 50.39445247 206.96848713 50.38406372 209.42416382 C50.36275948 214.67642606 50.34427473 219.92868984 50.32845879 225.18097115 C50.30558755 232.77455883 50.27747037 240.36812026 50.24813951 247.96168541 C50.20067275 260.28661973 50.15735307 272.6115649 50.11669922 284.93652344 C50.07723705 296.8974695 50.0357751 308.85840595 49.99169922 320.81933594 C49.98757496 321.93953938 49.98757496 321.93953938 49.98336738 323.0823732 C49.95942735 329.58014086 49.93533749 336.07790796 49.91123295 342.57567501 C49.80793425 370.47368977 49.71446186 398.37172859 49.61938477 426.26977539 C2.75938477 426.26977539 -44.10061523 426.26977539 -92.38061523 426.26977539 C-92.41799805 405.28125977 -92.45538086 384.29274414 -92.49389648 362.66821289 C-92.52416893 349.37914411 -92.55517214 336.09008309 -92.58959961 322.80102539 C-92.60764851 315.81925512 -92.62551229 308.83748442 -92.64306641 301.85571289 C-92.64637794 300.54321969 -92.64637794 300.54321969 -92.64975637 299.20421147 C-92.68508177 285.09646022 -92.70996529 270.98870902 -92.73096225 256.88092999 C-92.75276032 242.39180812 -92.78584864 227.9027434 -92.82931679 213.41367018 C-92.85576463 204.48031605 -92.87351051 195.54703308 -92.87996127 186.61364175 C-92.88523624 180.47939733 -92.90152356 174.34524229 -92.92628089 168.21104585 C-92.94022403 164.67720297 -92.94949386 161.14351982 -92.9456234 157.60964775 C-92.55424728 127.3378615 -92.55424728 127.3378615 -106.38061523 101.26977539 C-115.62233847 92.49521619 -127.63463099 89.90534489 -140.03686523 90.05883789 C-155.52910813 91.03615228 -168.8881714 96.72080075 -179.38061523 108.26977539 C-200.02055951 135.11782791 -198.50479008 172.03496033 -198.5859375 204.10058594 C-198.59553996 206.53685666 -198.60555134 208.9731258 -198.61593628 211.40939331 C-198.63996768 217.28695655 -198.65980137 223.16452265 -198.67768902 229.04210754 C-198.69877189 235.89280719 -198.72517537 242.74348342 -198.75186049 249.59416316 C-198.79929471 261.80706712 -198.8426228 274.01998196 -198.88330078 286.23291016 C-198.92277979 298.08317915 -198.96424544 309.93343851 -199.00830078 321.78369141 C-199.01105029 322.5239227 -199.01379979 323.264154 -199.01663262 324.02681655 C-199.04057355 330.46769098 -199.06466302 336.90856485 -199.08876705 343.34943867 C-199.19201421 370.98953218 -199.28552074 398.62964984 -199.38061523 426.26977539 C-245.91061523 426.26977539 -292.44061523 426.26977539 -340.38061523 426.26977539 C-340.38061523 281.39977539 -340.38061523 136.52977539 -340.38061523 -12.73022461 C-294.51061523 -12.73022461 -248.64061523 -12.73022461 -201.38061523 -12.73022461 C-201.05061523 12.01977539 -200.72061523 36.76977539 -200.38061523 62.26977539 C-197.74061523 56.65977539 -195.10061523 51.04977539 -192.38061523 45.26977539 C-171.40972946 10.3182991 -143.08049247 -12.82629564 -103.16967773 -22.82788086 C-67.85382917 -30.60590182 -27.64156108 -24.03272124 0 0 Z " fill="#0053E1" transform="translate(1662.380615234375,492.730224609375)"/>
<path d="M0 0 C9.44811591 9.00034525 17.08807953 18.94678223 23.43798828 30.36352539 C23.7636377 30.93844727 24.08928711 31.51336914 24.42480469 32.10571289 C34.48794871 50.08297262 40.2144329 70.10181248 43.43798828 90.36352539 C43.54836426 91.05269043 43.65874023 91.74185547 43.77246094 92.4519043 C45.81584855 105.59072572 46.5938266 118.77034998 46.5582428 132.05661011 C46.55952444 133.85089831 46.55952444 133.85089831 46.56083196 135.68143475 C46.56218073 138.95627543 46.55910763 142.23107525 46.5540539 145.50591111 C46.5496952 149.05443704 46.55119964 152.6029614 46.55195618 156.15148926 C46.55247801 162.28451858 46.54936701 168.41753718 46.54371834 174.55056381 C46.53555688 183.4176565 46.53298338 192.28474407 46.53173035 201.15184011 C46.5295471 215.54157798 46.5229068 229.93131014 46.51342773 244.32104492 C46.50423476 258.29109672 46.49717465 272.26114696 46.49291992 286.23120117 C46.49265192 287.10252509 46.49238393 287.973849 46.49210781 288.87157667 C46.49002812 295.68690774 46.48807129 302.50223885 46.48615324 309.31756997 C46.4767365 342.66622701 46.45661419 376.01486976 46.43798828 409.36352539 C1.22798828 409.36352539 -43.98201172 409.36352539 -90.56201172 409.36352539 C-90.89201172 392.20352539 -91.22201172 375.04352539 -91.56201172 357.36352539 C-95.02701172 362.80852539 -95.02701172 362.80852539 -98.56201172 368.36352539 C-101.17527638 371.77762922 -103.7934298 375.08494153 -106.56201172 378.36352539 C-107.22716797 379.17563477 -107.89232422 379.98774414 -108.57763672 380.82446289 C-129.12122337 404.94415537 -160.84555505 417.92693267 -191.85473633 421.16723633 C-197.85219918 421.60207808 -203.86377822 421.60837211 -209.87451172 421.61352539 C-210.58310333 421.61420013 -211.29169495 421.61487488 -212.02175903 421.61557007 C-249.80944677 421.55858952 -281.93091509 409.99462202 -308.76513672 383.16040039 C-332.97463945 357.42588962 -339.48548409 321.44549592 -338.84326172 287.36743164 C-337.9447408 259.60687911 -330.01471428 230.96050458 -310.56201172 210.36352539 C-309.86084229 209.60313965 -309.86084229 209.60313965 -309.14550781 208.82739258 C-277.06282389 174.22251771 -230.33693476 161.64493546 -185.80029297 151.41040039 C-184.66574173 151.14963715 -183.53119049 150.8888739 -182.36225891 150.62020874 C-176.67364711 149.31577642 -170.98268718 148.0233195 -165.28686523 146.75073242 C-155.28373877 144.50065717 -145.34924461 142.15355367 -135.52294922 139.21508789 C-134.34845718 138.86388382 -134.34845718 138.86388382 -133.15023804 138.50558472 C-119.79695805 134.38653553 -105.8129162 129.25453479 -97.56201172 117.36352539 C-93.62599698 107.4297739 -95.48111447 97.98713382 -99.56201172 88.36352539 C-104.42471359 80.04681522 -112.83109407 76.15706441 -121.75732422 73.36352539 C-129.83598478 71.25780935 -137.7488815 70.20868171 -146.08154297 70.12524414 C-147.29324158 70.11062134 -147.29324158 70.11062134 -148.52941895 70.09570312 C-174.08658278 69.85114867 -197.97970195 71.8833638 -222.56201172 79.36352539 C-223.30854004 79.58766113 -224.05506836 79.81179688 -224.82421875 80.04272461 C-253.24741331 88.69485494 -279.38991667 102.74876817 -302.65966797 121.13696289 C-305.54848621 123.35314916 -308.52452197 125.35817703 -311.56201172 127.36352539 C-311.86635276 111.89086445 -312.09525443 96.41842867 -312.23556995 80.94347572 C-312.30246947 73.75711354 -312.39358142 66.57261593 -312.54272461 59.38745117 C-312.67273383 53.12107603 -312.75626621 46.85605131 -312.78516215 40.58836496 C-312.80204579 37.2717687 -312.84830605 33.95991195 -312.93650246 30.6443367 C-313.49365129 8.82628417 -313.49365129 8.82628417 -308.73822021 3.56199646 C-305.65002762 0.88236037 -302.26199472 -0.90327204 -298.56201172 -2.63647461 C-297.06192694 -3.58879435 -295.57087823 -4.55602291 -294.10107422 -5.55444336 C-292.80310848 -6.32242931 -291.49841574 -7.07916795 -290.18701172 -7.82397461 C-289.46843994 -8.23703857 -288.74986816 -8.65010254 -288.00952148 -9.07568359 C-252.38785614 -29.25776356 -211.11853724 -39.19676929 -170.56201172 -42.63647461 C-169.39927734 -42.74733398 -168.23654297 -42.85819336 -167.03857422 -42.97241211 C-109.21444661 -47.61339415 -44.30195269 -40.9623558 0 0 Z M-100.7590332 202.15576172 C-113.98039979 211.01237655 -128.25868433 216.7040814 -143.06201172 222.36352539 C-178.47786055 235.51299315 -178.47786055 235.51299315 -202.56201172 263.36352539 C-208.02097036 276.47782056 -207.62991055 291.35170194 -202.87451172 304.61352539 C-199.1419684 313.0978305 -193.3480363 319.43489624 -185.56201172 324.36352539 C-184.67449219 324.93200195 -184.67449219 324.93200195 -183.76904297 325.51196289 C-170.50639038 333.03406436 -153.50361472 332.93829517 -139.07763672 329.46118164 C-123.03805741 324.45326854 -111.67011771 314.98707369 -103.56201172 300.36352539 C-96.39506796 285.58170388 -95.09827807 270.17271623 -95.26904297 254.05102539 C-95.27465847 252.45963955 -95.27891928 250.86824842 -95.28190613 249.27685547 C-95.2932015 245.14722632 -95.32253074 241.01792855 -95.35601807 236.88842773 C-95.38705507 232.65100585 -95.40048229 228.41352888 -95.41552734 224.17602539 C-95.44742013 215.90504227 -95.49842346 207.63432538 -95.56201172 199.36352539 C-97.59240307 199.36352539 -99.13001828 201.05474715 -100.7590332 202.15576172 Z " fill="#0052E2" transform="translate(2329.56201171875,509.636474609375)"/>
<path d="M0 0 C0.82757812 0.70769531 1.65515625 1.41539062 2.5078125 2.14453125 C37.40102593 32.60940108 49.67081665 77.54982573 52.78965652 122.29413724 C53.0993984 127.75121575 53.1349424 133.19058576 53.12025452 138.65512085 C53.12153615 140.44328372 53.12153615 140.44328372 53.12284368 142.26757109 C53.12419237 145.53101025 53.12111955 148.7944084 53.11606562 152.05784273 C53.1117067 155.59409861 53.11321137 159.13035291 53.1139679 162.66661072 C53.11448971 168.77835913 53.11137886 174.89009679 53.10573006 181.0018425 C53.09756841 189.8381661 53.09499508 198.67448456 53.09374207 207.51081152 C53.09155885 221.8506351 53.08491862 236.19045296 53.07543945 250.53027344 C53.0662464 264.45182263 53.05918633 278.37337026 53.05493164 292.29492188 C53.05466364 293.16322829 53.05439565 294.0315347 53.05411953 294.92615342 C53.05203984 301.71788753 53.05008301 308.50962168 53.04816496 315.30135584 C53.03874831 348.53424248 53.01862598 381.76711478 53 415 C7.79 415 -37.42 415 -84 415 C-84.33 397.84 -84.66 380.68 -85 363 C-88.3 367.95 -91.6 372.9 -95 378 C-96.9082883 380.51277714 -98.74451918 382.89582371 -100.8125 385.25 C-101.30693604 385.81734863 -101.80137207 386.38469727 -102.31079102 386.96923828 C-123.86790195 411.09291348 -155.99276142 424.6793381 -188 427 C-193.10385764 427.18950785 -198.20554104 427.24562157 -203.3125 427.25 C-204.02109161 427.25067474 -204.72968323 427.25134949 -205.45974731 427.25204468 C-241.4973084 427.19770317 -274.18125233 416.78149118 -300 391 C-300.80050781 390.21109375 -301.60101562 389.4221875 -302.42578125 388.609375 C-317.80773935 372.56325636 -325.58305772 351.38201602 -330 330 C-330.37125 328.22496094 -330.37125 328.22496094 -330.75 326.4140625 C-336.43205445 292.55848805 -331.38597384 253.59754054 -311.5 224.9375 C-277.993193 179.12570947 -219.39484331 166.3476644 -167.21875 154.35546875 C-124.47975765 147.08792612 -124.47975765 147.08792612 -91 123 C-87.18794933 113.94637966 -89.03893853 105.03634278 -92 96 C-96.9179782 86.51532776 -105.17657316 82.25241466 -115 79 C-126.79946256 76.04409766 -138.26478346 75.47392496 -150.375 75.5625 C-151.24651703 75.56520905 -152.11803406 75.56791809 -153.01596069 75.57070923 C-174.65007004 75.6722523 -195.27632116 78.69398287 -216 85 C-216.74652832 85.22413574 -217.49305664 85.44827148 -218.26220703 85.67919922 C-246.89649648 94.39558765 -275.02763675 108.52148298 -297.73828125 128.16015625 C-300.04877896 130.03968029 -302.43539413 131.49404729 -305 133 C-305.30434104 117.52733906 -305.53324271 102.05490328 -305.67355824 86.57995033 C-305.74045775 79.39358815 -305.8315697 72.20909054 -305.98071289 65.02392578 C-306.11072211 58.75755064 -306.19425449 52.49252592 -306.22315043 46.22483957 C-306.24003407 42.9082433 -306.28629433 39.59638656 -306.37449074 36.28081131 C-306.93166391 14.46180572 -306.93166391 14.46180572 -302.17373657 9.19723511 C-299.08608666 6.51871218 -295.69908039 4.73253138 -292 3 C-290.52309643 2.05972826 -289.05530308 1.10442966 -287.609375 0.1171875 C-286.3297912 -0.64191782 -285.04329767 -1.3895024 -283.75 -2.125 C-283.03585937 -2.53548584 -282.32171875 -2.94597168 -281.5859375 -3.36889648 C-245.78756845 -23.62716213 -204.73637669 -33.37393882 -164 -37 C-162.83082031 -37.11214844 -161.66164063 -37.22429687 -160.45703125 -37.33984375 C-106.9461353 -41.59970788 -42.14800198 -37.11649309 0 0 Z M-97.578125 210.09765625 C-110.86522069 218.92579415 -126.40583035 224.26953196 -141.27050781 229.77905273 C-162.30814997 237.6059069 -185.96475437 247.52734814 -195.96875 269.19140625 C-201.41517222 284.02465465 -201.51080761 298.80704332 -194.8125 313.3125 C-188.31373783 325.0565539 -178.77581632 331.66770426 -166.02734375 335.4765625 C-149.78863586 339.6692154 -132.8751463 336.83000552 -118.26171875 329.0078125 C-109.11380324 323.37664056 -103.12204102 316.36414166 -98 307 C-97.53851562 306.19433594 -97.07703125 305.38867188 -96.6015625 304.55859375 C-86.68453602 285.35562428 -88.49309032 262.65043979 -88.7253418 241.71380615 C-88.76688185 237.56319446 -88.78465982 233.41248011 -88.8046875 229.26171875 C-88.84708692 221.17420403 -88.9149976 213.0871789 -89 205 C-91.67135227 205 -95.34404735 208.5437557 -97.578125 210.09765625 Z " fill="#0052E2" transform="translate(1027,504)"/>
<path d="M0 0 C39.6 0 79.2 0 120 0 C120 56.76 120 113.52 120 172 C177.09 172 234.18 172 293 172 C293 211.93 293 251.86 293 293 C235.91 293 178.82 293 120 293 C120 349.76 120 406.52 120 465 C80.4 465 40.8 465 0 465 C0 408.24 0 351.48 0 293 C-57.09 293 -114.18 293 -173 293 C-173 253.07 -173 213.14 -173 172 C-115.91 172 -58.82 172 0 172 C0 115.24 0 58.48 0 0 Z " fill="#0052E2" transform="translate(3221,409)"/>
<path d="M0 0 C46.86 0 93.72 0 142 0 C142 28.05 142 56.1 142 85 C171.7 85 201.4 85 232 85 C232 121.96 232 158.92 232 197 C202.3 197 172.6 197 142 197 C142.11982026 226.87309548 142.11982026 226.87309548 142.2578125 256.74609375 C142.31814825 268.93471565 142.37651586 281.12332365 142.421875 293.31201172 C142.45492451 302.19043693 142.49482631 311.06880108 142.54279006 319.94715869 C142.56792683 324.64359359 142.5897452 329.33998866 142.60334396 334.03647232 C142.61628166 338.46713523 142.63845909 342.89766061 142.66738319 347.32824707 C142.67636835 348.94458391 142.68212768 350.56094284 142.68421364 352.17730331 C142.71199438 370.45259437 143.56771395 390.04590836 156.8828125 403.96875 C170.08202826 416.18449478 185.81458378 415.79460872 202.92236328 415.19970703 C212.14022351 414.60156252 220.54552343 411.89692613 228.36328125 406.953125 C230 406 230 406 232 406 C232 442.63 232 479.26 232 517 C215.61574103 525.19212948 215.61574103 525.19212948 209.5 526.75 C208.45676575 527.01760635 208.45676575 527.01760635 207.39245605 527.2906189 C191.2318481 531.23930235 174.91906525 532.50311469 158.32275391 532.39111328 C155.49983461 532.37499906 152.67834607 532.39110586 149.85546875 532.41015625 C132.81307643 532.43070502 115.73674897 530.81935113 99.25 526.3125 C98.30519775 526.05903809 97.36039551 525.80557617 96.38696289 525.54443359 C87.15042981 522.95076718 78.53208147 519.3613481 70 515 C69.35708008 514.67241699 68.71416016 514.34483398 68.05175781 514.00732422 C38.49426734 498.66281222 18.35976505 471.30749815 8.2722168 439.97631836 C-0.29384612 411.75519483 -0.29957821 382.763845 -0.23213124 353.55933332 C-0.22339219 348.80166639 -0.2264242 344.0440039 -0.22793579 339.28633118 C-0.22897811 331.06844899 -0.22277034 322.85059888 -0.21146011 314.63272476 C-0.19511874 302.75145898 -0.18998833 290.87020851 -0.18748413 278.98893271 C-0.18312049 259.70648024 -0.16984773 240.4240448 -0.15087891 221.14160156 C-0.1324855 202.42448003 -0.11834599 183.70736314 -0.10986328 164.99023438 C-0.10933783 163.83407301 -0.10881239 162.67791165 -0.10827102 161.48671509 C-0.1056607 155.68586536 -0.10313335 149.8850156 -0.10064721 144.08416581 C-0.07995621 96.0560954 -0.04310899 48.02805655 0 0 Z " fill="#0053E2" transform="translate(2745,395)"/>
<path d="M0 0 C0 50.16 0 100.32 0 152 C-5.94 151.01 -11.88 150.02 -18 149 C-51.07439876 145.50174628 -83.59903476 149.17119548 -110.6171875 170.01953125 C-125.04936418 182.13626526 -132.88920104 198.51351485 -137.8125 216.375 C-138.00755127 217.06811279 -138.20260254 217.76122559 -138.40356445 218.4753418 C-142.19970014 233.38023979 -142.30185994 248.94114911 -142.31884766 264.21923828 C-142.32817309 266.17261152 -142.33834552 268.12598086 -142.34928894 270.0793457 C-142.37630862 275.32190605 -142.39165397 280.56443998 -142.40471697 285.80705118 C-142.42047184 291.30831804 -142.44722184 296.80953187 -142.4727478 302.3107605 C-142.51931879 312.7011857 -142.55616702 323.09162112 -142.58942068 333.48209655 C-142.6349884 347.54178199 -142.69578126 361.60140135 -142.75566864 375.66103172 C-142.84946244 397.77398783 -142.92309213 419.88696377 -143 442 C-189.86 442 -236.72 442 -285 442 C-285 297.13 -285 152.26 -285 3 C-239.13 3 -193.26 3 -146 3 C-145.67 40.95 -145.34 78.9 -145 118 C-143.02 111.73 -141.04 105.46 -139 99 C-131.48861978 78.91522244 -121.99331787 60.38440908 -108 44 C-107.32582031 43.19175781 -106.65164062 42.38351562 -105.95703125 41.55078125 C-78.22014489 9.36790946 -41.02643499 0 0 0 Z " fill="#0053E2" transform="translate(2708,477)"/>
<path d="M0 0 C46.86 0 93.72 0 142 0 C142 183.15 142 366.3 142 555 C95.14 555 48.28 555 0 555 C0 371.85 0 188.7 0 0 Z " fill="#0052E1" transform="translate(1130,364)"/>
<path d="M0 0 C5.1134949 2.30951814 10.23487978 4.60116652 15.35723877 6.89094543 C35.72892104 16.00506863 56.00438568 25.29619746 76.15802002 34.88313293 C79.59848557 36.51958235 83.04389577 38.14541541 86.49005127 39.76985168 C119.06359949 55.16312616 119.06359949 55.16312616 129.86505127 64.64485168 C130.68876221 65.27391418 131.51247314 65.90297668 132.36114502 66.55110168 C142.02452723 74.63155857 150.30121647 89.26872824 152.86505127 101.64485168 C152.99566205 104.42514987 153.07685803 107.17992063 153.10333252 109.96125793 C153.11140427 110.77295944 153.11947601 111.58466095 153.12779236 112.42095947 C153.14160616 114.13985579 153.15234038 115.85877923 153.16021729 117.57771301 C153.17169121 119.3183559 153.19206968 121.05896489 153.22174072 122.7993927 C153.39219389 132.8085167 153.39504927 141.46213489 148.86505127 150.64485168 C148.43063721 151.64258606 147.99622314 152.64032043 147.54864502 153.66828918 C137.85558891 171.9605142 121.72812319 185.73642631 101.86505127 191.96516418 C80.75471145 197.91751453 60.84398704 194.98072979 41.69735718 184.67814636 C36.32844147 181.65044667 31.29474716 178.09970314 26.24005127 174.58235168 C25.01550595 173.73978855 23.79048197 172.89792069 22.56500244 172.05671692 C18.98984851 169.59826291 15.4265102 167.12308437 11.86505127 164.64485168 C10.89035889 163.96841614 9.9156665 163.29198059 8.91143799 162.595047 C3.96168903 159.15710121 -0.97370949 155.69945061 -5.89715576 152.22395325 C-8.09791219 150.67098657 -10.30159886 149.12226609 -12.50604248 147.57453918 C-22.01700263 140.88951927 -31.45494978 134.10682854 -40.86883545 127.28596497 C-43.87265307 125.11060814 -46.87934717 122.93924969 -49.88641357 120.76838684 C-51.3883848 119.68390165 -52.89001121 118.59893874 -54.39129639 117.51350403 C-58.09802893 114.83396734 -61.80884243 112.16052243 -65.52947998 109.50032043 C-74.54870838 103.04002196 -83.4280368 96.42192481 -92.22991943 89.66828918 C-98.14012743 85.13997806 -104.11649946 80.71535279 -110.13494873 76.33235168 C-117.76811439 70.74825304 -125.05046257 64.90727882 -132.13494873 58.64485168 C-133.20654441 57.72035061 -134.27815924 56.79587172 -135.34979248 55.87141418 C-146.06076401 46.50238631 -154.22786533 36.12789069 -156.13494873 21.64485168 C-157.14861448 4.6269633 -154.05943163 -9.42581976 -142.94744873 -22.60514832 C-105.28955458 -62.27818062 -39.2164329 -17.72099734 0 0 Z " fill="#FFC21F" transform="translate(3687.1349487304688,802.3551483154297)"/>
<path d="M0 0 C11.54601607 9.95164966 23.01598718 24.10111816 24.65667725 39.90452576 C24.76055821 42.08674694 24.80478064 44.26067319 24.8203125 46.4453125 C24.82934097 47.24802582 24.83836945 48.05073914 24.84767151 48.8777771 C24.86210985 50.57033603 24.87104469 52.26294996 24.87475586 53.95556641 C24.88659184 56.5039256 24.93578542 59.04981102 24.98632812 61.59765625 C25.1686283 79.94894639 18.57294733 95.11774948 5.89306641 108.61743164 C-18.50896208 133.36458033 -58.66132375 145.73809451 -90.01513672 159.86132812 C-93.93565837 161.62768066 -97.85286705 163.40126954 -101.76942444 165.1763916 C-124.92387049 175.66836829 -148.16007623 185.95147343 -171.55078125 195.90625 C-172.35265869 196.24779114 -173.15453613 196.58933228 -173.98071289 196.94122314 C-178.88481752 199.02846028 -183.79306177 201.10553852 -188.70666504 203.1703186 C-190.23993562 203.81520967 -191.77244017 204.46192586 -193.30407715 205.11068726 C-213.49429741 213.65155498 -232.73851191 220.26405735 -254.27734375 211.83984375 C-268.61214492 205.11624506 -277.2208357 194.73881327 -282.640625 179.94921875 C-286.42522167 167.29599642 -285.69350704 152.25393895 -280.33203125 140.15625 C-273.97942429 128.86272652 -264.54846474 121.01633741 -254.40234375 113.32714844 C-251.97973259 111.46802437 -249.60924692 109.54867874 -247.23779297 107.625 C-232.21094695 95.44479175 -216.51666008 84.10720735 -200.93164062 72.65771484 C-198.49483725 70.86509514 -196.06142469 69.06796039 -193.62890625 67.26953125 C-183.01358562 59.42388362 -172.33442392 51.68334925 -161.54296875 44.08203125 C-160.84953369 43.59355713 -160.15609863 43.10508301 -159.44165039 42.60180664 C-158.01130909 41.59425524 -156.58080706 40.58693198 -155.15014648 39.57983398 C-149.89879679 35.87622568 -144.6886121 32.11854421 -139.48828125 28.34375 C-131.91304203 22.85157946 -124.2427755 17.51593414 -116.50976562 12.24902344 C-114.54080891 10.89941452 -112.58357147 9.53427309 -110.62890625 8.1640625 C-75.43349552 -16.45225497 -37.20503356 -30.53889431 0 0 Z " fill="#FFC21F" transform="translate(3815.55078125,300.09375)"/>
<path d="M0 0 C6.67747371 7.13898377 9.85826883 14.8323977 11.90625 24.31640625 C12.16532135 25.50550598 12.16532135 25.50550598 12.42962646 26.71862793 C14.18353201 34.95302778 15.51163374 43.22375997 16.68359375 51.55859375 C16.80443329 52.40708893 16.92527283 53.25558411 17.04977417 54.12979126 C24.00207218 103.38074881 28.60026053 153.10595822 32.73251343 202.66204834 C32.9064399 204.73496471 33.08789978 206.80724642 33.27075195 208.87939453 C34.05339543 218.44659684 34.18797795 228.01287649 34.22875977 237.60742188 C34.24029426 239.48803218 34.26076925 241.36860937 34.2902832 243.24902344 C34.65880113 266.87534606 29.58870276 284.77198538 12.93359375 302.05859375 C1.50274305 313.28334035 -13.5372585 322.30157738 -29.9140625 322.4296875 C-30.64781601 322.43871597 -31.38156952 322.44774445 -32.13755798 322.45704651 C-33.68468195 322.47147609 -35.23186593 322.48041748 -36.77905273 322.48413086 C-39.09924659 322.49594276 -41.41670058 322.54512088 -43.73632812 322.59570312 C-62.74166263 322.80363784 -76.9228377 315.28430535 -90.75390625 302.33984375 C-107.27255396 286.04442101 -113.1152594 268.72445817 -113.37890625 245.80859375 C-113.31587226 234.94313175 -112.6311279 224.14126067 -111.84765625 213.30859375 C-111.7834379 212.41198784 -111.71921955 211.51538193 -111.65305519 210.59160614 C-110.11149441 189.25569079 -108.04877029 167.97419086 -105.8972168 146.69238281 C-105.46783896 142.44424665 -105.04434587 138.19559551 -104.62670898 133.94628906 C-102.35975285 110.88161108 -99.90572352 87.85712532 -96.90625 64.875 C-96.72093751 63.44955997 -96.72093751 63.44955997 -96.53188133 61.99532318 C-90.28383086 14.2132143 -90.28383086 14.2132143 -79.94140625 2.49609375 C-79.45768555 1.94381104 -78.97396484 1.39152832 -78.47558594 0.82250977 C-69.75561984 -8.91839293 -61.81567462 -13.47061781 -49.06640625 -15.94140625 C-47.86177734 -16.20244141 -47.86177734 -16.20244141 -46.6328125 -16.46875 C-29.30980875 -19.38320621 -12.36903559 -11.62081415 0 0 Z " fill="#FFC21F" transform="translate(3321.06640625,959.94140625)"/>
<path d="M0 0 C1.13791992 0.00902344 2.27583984 0.01804688 3.44824219 0.02734375 C26.99444503 0.50719844 42.48334151 9.31118512 58.6875 25.7890625 C69.66503854 37.55665116 75.44031163 51.13512463 75.61328125 67.234375 C75.62817596 68.37850357 75.62817596 68.37850357 75.64337158 69.54574585 C76.06933057 111.4367717 71.20608278 152.94934327 66.9375 194.5625 C66.79646284 195.94083889 66.79646284 195.94083889 66.65257645 197.34702301 C64.53484026 218.02900059 62.29172396 238.68954447 59.71875 259.3203125 C59.61565081 260.15060093 59.51255161 260.98088936 59.4063282 261.83633804 C52.82245797 314.63631849 52.82245797 314.63631849 34.375 329.4375 C20.88869985 337.9343631 6.11441316 341.23396189 -9.625 338.4375 C-23.0892153 335.15937862 -34.54910369 327.80490862 -42.625 316.4375 C-45.88240434 310.92377753 -47.68490767 305.42807323 -49 299.1875 C-49.20641113 298.20885986 -49.41282227 297.23021973 -49.62548828 296.22192383 C-59.93341822 244.65541059 -63.30656024 191.20683505 -68 138.875 C-68.06412079 138.16197094 -68.12824158 137.44894188 -68.19430542 136.71430588 C-75.83415932 51.69751663 -75.83415932 51.69751663 -56.21875 27.46484375 C-41.41541663 10.309833 -22.89454632 -0.21836825 0 0 Z " fill="#FFC21F" transform="translate(3279.625,-0.4375)"/>
</svg>
